<svg xmlns="http://www.w3.org/2000/svg" xmlns:xlink="http://www.w3.org/1999/xlink" version="1.1" id="Layer_1" x="0px" y="0px" width="201.664px" height="181.339px" viewBox="0 0 201.664 181.339" enable-background="new 0 0 201.664 181.339" xml:space="preserve">
  <g>
    <defs>
      <rect id="SVGID_1_" width="201.664" height="181.339"/>
    </defs>
    <clipPath id="SVGID_2_">
      <use xlink:href="#SVGID_1_" overflow="visible"/>
    </clipPath>
    <path clip-path="url(#SVGID_2_)" fill="#458F83" d="M140.72 126.351l-0.973 1.127 3.273 1.527 0.239-1.47c0.129-0.719 0.236-1.344 0.325-1.876 0.087-0.53 0.167-1.009 0.238-1.434 0.072-0.425 0.143-0.81 0.212-1.155 0.07-0.346 0.155-0.701 0.258-1.065 -0.216 0.313-0.435 0.61-0.658 0.896 -0.226 0.285-0.478 0.591-0.755 0.919 -0.279 0.328-0.596 0.696-0.945 1.105C141.584 125.334 141.179 125.809 140.72 126.351M102.125 102.479c-1.015 0.627-1.938 1.834-2.771 3.621 -0.833 1.788-1.159 3.284-0.978 4.491 0.182 1.207 0.827 2.068 1.938 2.587 1.109 0.517 2.171 0.463 3.185-0.164 1.015-0.626 1.938-1.833 2.771-3.621 0.834-1.787 1.159-3.284 0.978-4.491 -0.182-1.206-0.826-2.068-1.937-2.586S103.138 101.853 102.125 102.479M43.377 49.994l3.273 1.527 0.238-1.47c0.129-0.718 0.237-1.343 0.325-1.875 0.088-0.531 0.167-1.01 0.24-1.434 0.071-0.425 0.142-0.81 0.212-1.155 0.069-0.346 0.155-0.701 0.256-1.066 -0.214 0.313-0.434 0.611-0.658 0.896 -0.224 0.285-0.476 0.591-0.755 0.919 -0.279 0.328-0.594 0.696-0.945 1.105 -0.351 0.409-0.755 0.884-1.214 1.426L43.377 49.994zM68.54 62.19c0.48-0.588 0.949-1.372 1.405-2.35 0.421-0.903 0.705-1.721 0.852-2.454s0.138-1.39-0.026-1.971c-0.164-0.58-0.492-1.105-0.983-1.575 -0.491-0.469-1.16-0.901-2.006-1.296l-1.355-0.632 -4.842 10.385 1.185 0.552c0.847 0.395 1.612 0.644 2.298 0.745 0.685 0.103 1.315 0.041 1.889-0.185C67.53 63.187 68.059 62.78 68.54 62.19M125.841 90.886c1.013-0.626 1.937-1.833 2.77-3.62s1.159-3.284 0.979-4.491c-0.183-1.207-0.828-2.068-1.938-2.587 -1.111-0.518-2.172-0.463-3.186 0.164 -1.014 0.626-1.938 1.833-2.771 3.62 -0.834 1.788-1.16 3.285-0.978 4.491 0.181 1.207 0.827 2.068 1.937 2.587C123.765 91.567 124.826 91.513 125.841 90.886M164.519 148.545l-14.279-6.658 9.211-19.753 5.531 2.579 -6.987 14.983 8.747 4.079L164.519 148.545zM168.97 118.074l-15.322-7.145 9.211-19.753 15.124 7.053 -2.144 4.6 -9.707-4.526 -1.225 2.625 5.841 2.723 -2.118 4.543 -5.842-2.723 -1.578 3.386 9.904 4.618L168.97 118.074zM149.923 109.192l-4.459-2.079 -1.673-8.716c-0.086-0.406-0.176-0.899-0.271-1.482 -0.095-0.582-0.185-1.162-0.271-1.74s-0.162-1.124-0.232-1.639c-0.07-0.513-0.118-0.913-0.145-1.2 -0.067 0.242-0.187 0.571-0.355 0.984 -0.171 0.413-0.358 0.864-0.563 1.354 -0.205 0.487-0.426 0.985-0.662 1.494 -0.237 0.508-0.447 0.96-0.632 1.354l-2.815 6.038 -5.249-2.447 9.211-19.753 4.825 2.25 1.622 7.868c0.085 0.406 0.178 0.907 0.277 1.504 0.101 0.596 0.195 1.19 0.285 1.782 0.091 0.591 0.166 1.142 0.228 1.651 0.06 0.509 0.098 0.894 0.114 1.152 0.067-0.243 0.187-0.57 0.356-0.984 0.169-0.413 0.356-0.864 0.562-1.353 0.205-0.489 0.427-0.987 0.662-1.495 0.237-0.508 0.448-0.959 0.632-1.354l2.514-5.391 5.249 2.448L149.923 109.192zM131.599 93.897c-1.044 1.06-2.172 1.833-3.384 2.321 -1.213 0.488-2.488 0.694-3.828 0.62 -1.339-0.075-2.676-0.424-4.013-1.046 -1.336-0.623-2.46-1.417-3.372-2.382 -0.914-0.963-1.575-2.062-1.985-3.295 -0.41-1.232-0.54-2.588-0.389-4.063 0.149-1.477 0.605-3.032 1.369-4.669 0.764-1.638 1.666-2.985 2.71-4.044 1.044-1.06 2.172-1.833 3.385-2.321 1.212-0.488 2.487-0.695 3.827-0.62s2.677 0.424 4.013 1.046c1.335 0.623 2.46 1.417 3.373 2.381 0.913 0.965 1.569 2.061 1.97 3.289 0.401 1.229 0.531 2.583 0.39 4.064 -0.141 1.479-0.592 3.038-1.355 4.675C133.546 91.49 132.643 92.839 131.599 93.897M108.357 89.811l-5.587-2.604 9.211-19.754 5.587 2.605L108.357 89.811zM93.069 70.657c-0.351 0.753-0.619 1.487-0.803 2.202 -0.185 0.716-0.255 1.382-0.21 1.998 0.044 0.616 0.208 1.162 0.49 1.637 0.282 0.476 0.724 0.854 1.326 1.135 0.433 0.202 0.835 0.32 1.208 0.356 0.372 0.036 0.745-0.002 1.118-0.114 0.373-0.112 0.763-0.284 1.17-0.52 0.407-0.234 0.851-0.524 1.334-0.872l3.483 4.613c-0.645 0.501-1.337 0.952-2.073 1.352 -0.737 0.401-1.539 0.687-2.407 0.854 -0.869 0.168-1.813 0.19-2.833 0.069s-2.114-0.452-3.28-0.997c-1.467-0.684-2.64-1.546-3.518-2.585 -0.878-1.039-1.487-2.188-1.828-3.445 -0.341-1.258-0.415-2.599-0.222-4.021 0.194-1.421 0.633-2.866 1.317-4.333 0.737-1.58 1.62-2.896 2.65-3.952 1.029-1.054 2.148-1.832 3.356-2.333 1.207-0.502 2.471-0.731 3.79-0.688 1.32 0.043 2.648 0.375 3.984 0.998 1.203 0.561 2.184 1.173 2.94 1.835s1.333 1.389 1.731 2.181c0.397 0.793 0.644 1.652 0.738 2.578 0.096 0.926 0.098 1.929 0.006 3.009l-5.874-0.369c0.041-0.53 0.055-1.027 0.042-1.491 -0.012-0.465-0.082-0.88-0.208-1.248s-0.316-0.697-0.57-0.987c-0.254-0.29-0.607-0.541-1.058-0.751 -0.565-0.263-1.118-0.355-1.658-0.275 -0.542 0.08-1.061 0.295-1.557 0.648 -0.496 0.353-0.959 0.83-1.388 1.431C93.836 69.173 93.438 69.867 93.069 70.657M79.688 76.442l-5.587-2.605 9.211-19.752 5.587 2.605L79.688 76.442zM72.731 66.757c-1.044 1.059-2.199 1.769-3.466 2.128s-2.645 0.405-4.134 0.134c-1.488-0.27-3.107-0.813-4.857-1.629l-6.405-2.987 9.211-19.753 6.913 3.224c1.542 0.719 2.87 1.533 3.981 2.44 1.111 0.908 1.927 1.946 2.446 3.116 0.52 1.17 0.73 2.488 0.63 3.953 -0.099 1.465-0.583 3.129-1.451 4.991C74.73 64.236 73.774 65.697 72.731 66.757M38.799 84.527c-0.96 0.904-1.995 1.526-3.104 1.868 -1.11 0.341-2.271 0.424-3.482 0.248 -1.212-0.176-2.439-0.553-3.681-1.132 -1.241-0.579-2.314-1.274-3.219-2.085 -0.904-0.812-1.573-1.747-2.006-2.809 -0.433-1.061-0.607-2.245-0.522-3.558 0.085-1.312 0.492-2.748 1.22-4.31l5.276-11.315 5.587 2.605 -5.276 11.314c-0.57 1.223-0.769 2.299-0.594 3.228 0.173 0.929 0.797 1.643 1.869 2.143 1.072 0.5 2.01 0.514 2.815 0.042 0.804-0.472 1.491-1.32 2.061-2.543l5.277-11.316 5.587 2.606 -5.276 11.314C40.604 82.392 39.758 83.624 38.799 84.527M51.33 63.219l-5.925-2.764 0.546-3.97 -5.926-2.764 -2.691 2.971 -5.869-2.737 16.378-16.41 5.531 2.579L51.33 63.219zM50.22 71.198l5.03 2.346 -0.031 6.409c0.003 0.781-0.002 1.528-0.014 2.244 -0.013 0.715-0.031 1.382-0.056 2.001 -0.024 0.618-0.053 1.172-0.086 1.66 -0.033 0.489-0.077 0.893-0.133 1.209 0.432-0.484 1.104-1.139 2.016-1.963 0.911-0.823 1.993-1.767 3.247-2.832l4.891-4.143 4.973 2.318 -9.211 19.753 -5.164-2.407 2.198-4.713c0.456-0.979 0.897-1.9 1.324-2.767 0.426-0.866 0.838-1.676 1.236-2.43 -0.326 0.307-0.688 0.642-1.086 1.006s-0.807 0.728-1.229 1.093c-0.421 0.365-0.838 0.72-1.25 1.066 -0.413 0.346-0.787 0.658-1.122 0.937l-5.141 4.268 -0.036-6.682c-0.002-0.436-0.003-0.924-0.003-1.462 -0.001-0.538 0.003-1.086 0.012-1.643 0.009-0.558 0.024-1.105 0.047-1.645s0.047-1.031 0.073-1.478c-0.323 0.789-0.678 1.625-1.067 2.508 -0.389 0.884-0.812 1.815-1.268 2.793l-2.197 4.713 -5.164-2.409L50.22 71.198zM82.783 86.383l5.531 2.579 -6.987 14.983 8.747 4.079 -2.224 4.77 -14.278-6.658L82.783 86.383zM96.366 99.468c1.044-1.06 2.172-1.833 3.384-2.321s2.489-0.695 3.829-0.62c1.338 0.075 2.676 0.423 4.012 1.046s2.459 1.417 3.373 2.381c0.912 0.965 1.57 2.061 1.971 3.289 0.4 1.229 0.529 2.583 0.389 4.063 -0.14 1.48-0.592 3.039-1.355 4.676s-1.666 2.985-2.711 4.044c-1.043 1.06-2.172 1.833-3.383 2.321 -1.213 0.488-2.488 0.695-3.828 0.62 -1.338-0.075-2.676-0.424-4.012-1.047 -1.336-0.623-2.46-1.416-3.373-2.38 -0.913-0.965-1.575-2.063-1.984-3.297 -0.41-1.232-0.54-2.588-0.39-4.063 0.15-1.477 0.607-3.033 1.37-4.669C94.418 101.875 95.322 100.526 96.366 99.468M116.691 109.031c1.03-1.054 2.149-1.833 3.356-2.334 1.208-0.502 2.471-0.731 3.791-0.688 1.319 0.043 2.646 0.376 3.982 0.999 1.204 0.561 2.185 1.173 2.941 1.835 0.756 0.661 1.333 1.389 1.73 2.181s0.645 1.652 0.739 2.578 0.097 1.929 0.006 3.008l-5.875-0.369c0.041-0.529 0.056-1.026 0.043-1.49 -0.013-0.465-0.082-0.881-0.208-1.248 -0.126-0.368-0.315-0.697-0.569-0.988 -0.256-0.29-0.607-0.54-1.06-0.751 -0.563-0.263-1.117-0.354-1.658-0.275 -0.541 0.08-1.06 0.296-1.556 0.649 -0.497 0.352-0.96 0.829-1.389 1.431 -0.43 0.602-0.828 1.297-1.196 2.087 -0.351 0.752-0.619 1.486-0.804 2.202 -0.186 0.715-0.255 1.381-0.21 1.997 0.044 0.617 0.208 1.162 0.49 1.638s0.725 0.854 1.326 1.134c0.434 0.201 0.835 0.32 1.208 0.356 0.372 0.037 0.744-0.001 1.118-0.114 0.373-0.111 0.763-0.284 1.17-0.519 0.406-0.234 0.852-0.525 1.334-0.872l3.483 4.612c-0.646 0.501-1.337 0.952-2.073 1.353 -0.737 0.401-1.54 0.686-2.408 0.853 -0.868 0.168-1.813 0.191-2.832 0.07 -1.021-0.121-2.113-0.453-3.279-0.997 -1.468-0.684-2.641-1.546-3.519-2.585 -0.879-1.04-1.488-2.188-1.829-3.446s-0.415-2.599-0.221-4.02c0.192-1.422 0.632-2.866 1.315-4.333C114.778 111.403 115.661 110.086 116.691 109.031M127.835 131.438l16.378-16.41 5.53 2.579 -2.043 23.095 -5.926-2.763 0.546-3.971 -5.926-2.765 -2.69 2.972L127.835 131.438zM4.764 102.092l189.41 79.247 7.489-152.649L106.299 0 0 16.401 4.764 102.092z"/>
  </g>
</svg>
