<svg xmlns="http://www.w3.org/2000/svg" xmlns:xlink="http://www.w3.org/1999/xlink" version="1.1" id="Layer_1" x="0px" y="0px" width="197.889px" height="135.288px" viewBox="0 0 197.889 135.288" xml:space="preserve">
  <g>
    <defs>
      <rect id="SVGID_1_" width="197.889" height="135.288"/>
    </defs>
    <clipPath id="SVGID_2_">
      <use xlink:href="#SVGID_1_" overflow="visible"/>
    </clipPath>
    <path clip-path="url(#SVGID_2_)" fill="#B22B4A" d="M98.721 67.939c-0.416 1.016-0.451 2.415-0.105 4.197 0.347 1.783 0.914 3.075 1.703 3.876 0.788 0.802 1.737 1.095 2.844 0.879s1.869-0.83 2.285-1.847c0.416-1.016 0.45-2.415 0.104-4.198 -0.347-1.781-0.914-3.073-1.703-3.876 -0.789-0.8-1.736-1.093-2.844-0.878C99.898 66.308 99.137 66.923 98.721 67.939M27.153 57.67c0.637-0.124 1.056-0.353 1.254-0.686 0.198-0.333 0.251-0.737 0.159-1.21 -0.085-0.437-0.279-0.781-0.581-1.037 -0.303-0.255-0.783-0.32-1.44-0.192l-4.11 0.799 0.608 3.125L27.153 57.67zM29.744 61.986c-0.385-0.276-0.905-0.351-1.562-0.223l-4.335 0.844 0.744 3.828 4.307-0.838c0.676-0.131 1.137-0.41 1.385-0.839 0.248-0.428 0.318-0.923 0.208-1.485C30.378 62.691 30.129 62.262 29.744 61.986M90.781 50.765c0.023-0.783-0.075-1.738-0.293-2.864 -0.347-1.782-0.952-3.067-1.816-3.854 -0.864-0.786-1.849-1.072-2.956-0.855 -1.108 0.215-1.869 0.83-2.285 1.846s-0.451 2.415-0.105 4.198c0.365 1.877 0.942 3.239 1.73 4.09 0.789 0.85 1.746 1.165 2.872 0.946l0.253-0.05 -2.121-1.896 3.172-3.07L90.781 50.765zM140.854 66.089l3.265-0.635L143.5 64.23c-0.293-0.605-0.551-1.129-0.772-1.573 -0.223-0.443-0.423-0.843-0.599-1.198 -0.176-0.354-0.332-0.681-0.467-0.976 -0.136-0.295-0.264-0.606-0.386-0.934 0.009 0.35 0.007 0.69-0.006 1.024 -0.014 0.334-0.035 0.698-0.064 1.094 -0.031 0.396-0.066 0.84-0.106 1.335 -0.039 0.494-0.085 1.068-0.133 1.72L140.854 66.089zM170.072 63.564l0.925 4.758 -14.244 2.768 -3.83-19.705 5.518-1.071 2.905 14.947L170.072 63.564zM142.958 53.322l10.98 18.315 -5.911 1.149 -1.743-3.255 -5.912 1.148 -0.397 3.672 -5.854 1.138 3.32-21.095L142.958 53.322zM125.521 71.83c0.217-0.286 0.414-0.626 0.59-1.021 0.177-0.395 0.351-0.852 0.521-1.372l5.094 1.552c-0.211 0.723-0.481 1.433-0.813 2.13 -0.332 0.698-0.776 1.344-1.332 1.938 -0.556 0.596-1.247 1.123-2.073 1.587 -0.825 0.462-1.819 0.806-2.982 1.031 -1.464 0.285-2.806 0.278-4.021-0.021 -1.217-0.299-2.293-0.825-3.229-1.579 -0.936-0.753-1.715-1.711-2.34-2.875 -0.626-1.164-1.082-2.479-1.366-3.941 -0.306-1.577-0.361-3.036-0.164-4.38 0.196-1.342 0.607-2.527 1.237-3.556 0.627-1.027 1.444-1.883 2.451-2.565 1.006-0.683 2.176-1.153 3.509-1.413 1.2-0.232 2.263-0.308 3.185-0.224 0.922 0.083 1.745 0.313 2.471 0.688s1.373 0.882 1.946 1.521c0.572 0.638 1.116 1.385 1.633 2.238l-4.577 2.905c-0.257-0.418-0.515-0.796-0.775-1.135 -0.262-0.338-0.538-0.61-0.83-0.816 -0.294-0.206-0.614-0.349-0.96-0.428 -0.348-0.079-0.745-0.073-1.195 0.014 -0.563 0.109-1.025 0.341-1.385 0.692 -0.36 0.354-0.629 0.794-0.809 1.326 -0.179 0.531-0.266 1.137-0.26 1.818 0.005 0.681 0.085 1.415 0.238 2.203 0.146 0.751 0.343 1.442 0.593 2.074 0.25 0.635 0.559 1.168 0.925 1.604 0.367 0.435 0.784 0.753 1.252 0.954 0.468 0.202 1.002 0.244 1.603 0.127 0.432-0.084 0.796-0.213 1.094-0.388C125.047 72.346 125.304 72.116 125.521 71.83M137.354 48.986l-15.286 2.972 -3.83-19.706 15.088-2.933 0.892 4.589 -9.683 1.882 0.508 2.618 5.828-1.132 0.881 4.531 -5.828 1.133 0.657 3.378 9.881-1.92L137.354 48.986zM114.354 33.007l2.193 11.289c0.303 1.559 0.341 2.934 0.115 4.126 -0.226 1.193-0.66 2.217-1.302 3.072 -0.643 0.854-1.462 1.545-2.46 2.07 -1 0.524-2.117 0.907-3.355 1.148s-2.415 0.304-3.527 0.189c-1.113-0.114-2.119-0.45-3.016-1.006 -0.896-0.557-1.668-1.346-2.314-2.369 -0.647-1.023-1.123-2.314-1.425-3.872l-2.194-11.288 5.575-1.083 2.193 11.288c0.237 1.22 0.672 2.129 1.305 2.726 0.631 0.599 1.483 0.793 2.553 0.585 1.07-0.208 1.777-0.706 2.119-1.493 0.345-0.786 0.397-1.791 0.16-3.011l-2.193-11.288L114.354 33.007zM91.898 39.753c0.964 0.699 1.794 1.638 2.491 2.817 0.696 1.179 1.203 2.585 1.521 4.218 0.288 1.483 0.323 2.864 0.104 4.143 -0.219 1.279-0.635 2.446-1.248 3.5l2.009 1.771 -3.217 3.138 -1.829-1.748c-0.941 0.572-1.937 0.96-2.987 1.165 -1.333 0.259-2.601 0.276-3.803 0.053 -1.202-0.224-2.29-0.685-3.263-1.382 -0.973-0.696-1.803-1.636-2.49-2.816 -0.687-1.182-1.189-2.588-1.507-4.222 -0.317-1.633-0.374-3.126-0.17-4.479 0.205-1.355 0.626-2.542 1.265-3.563 0.639-1.02 1.478-1.864 2.517-2.533 1.038-0.67 2.223-1.135 3.556-1.394s2.6-0.275 3.802-0.052C89.852 38.593 90.935 39.054 91.898 39.753M64.207 47.662c-0.219 0.277-0.293 0.593-0.224 0.95 0.036 0.188 0.12 0.342 0.25 0.462 0.131 0.121 0.33 0.219 0.598 0.293 0.267 0.075 0.62 0.133 1.056 0.175 0.437 0.042 0.989 0.075 1.656 0.102 1.297 0.06 2.431 0.181 3.401 0.361 0.97 0.183 1.793 0.46 2.47 0.834 0.676 0.376 1.221 0.873 1.634 1.494 0.413 0.621 0.709 1.391 0.887 2.312 0.219 1.126 0.205 2.132-0.041 3.017 -0.247 0.885-0.683 1.652-1.306 2.299 -0.624 0.647-1.41 1.189-2.357 1.626 -0.948 0.438-2.012 0.771-3.194 1.001 -1.596 0.311-3.166 0.377-4.709 0.199 -1.544-0.176-2.898-0.503-4.061-0.979l1.814-4.793c0.404 0.176 0.869 0.333 1.393 0.476 0.524 0.141 1.062 0.256 1.615 0.343 0.552 0.088 1.102 0.136 1.65 0.147 0.547 0.01 1.046-0.028 1.496-0.116 0.976-0.19 1.629-0.414 1.958-0.673 0.33-0.259 0.449-0.622 0.358-1.093 -0.037-0.187-0.121-0.346-0.254-0.476 -0.132-0.13-0.339-0.241-0.619-0.333 -0.281-0.091-0.651-0.165-1.11-0.222 -0.459-0.058-1.031-0.097-1.717-0.119 -1.237-0.052-2.328-0.151-3.272-0.299s-1.754-0.404-2.428-0.771c-0.675-0.365-1.224-0.856-1.646-1.476 -0.422-0.619-0.73-1.426-0.923-2.421 -0.179-0.919-0.16-1.799 0.056-2.641 0.217-0.841 0.61-1.599 1.18-2.273 0.569-0.676 1.304-1.257 2.203-1.743 0.898-0.486 1.939-0.845 3.121-1.074 1.689-0.329 3.196-0.417 4.521-0.266 1.324 0.151 2.583 0.491 3.776 1.019l-1.814 4.793c-0.999-0.429-1.97-0.717-2.914-0.865 -0.945-0.146-1.923-0.122-2.937 0.074C64.948 47.168 64.426 47.386 64.207 47.662M53.717 44.794l2.195 11.288c0.302 1.558 0.341 2.933 0.115 4.126 -0.226 1.193-0.66 2.217-1.302 3.072 -0.642 0.854-1.462 1.546-2.46 2.069 -0.999 0.526-2.117 0.909-3.356 1.149 -1.238 0.241-2.414 0.304-3.527 0.189 -1.113-0.114-2.118-0.45-3.015-1.007 -0.897-0.556-1.668-1.345-2.315-2.368S38.93 61 38.627 59.442l-2.194-11.289 5.574-1.083 2.194 11.288c0.237 1.22 0.672 2.129 1.304 2.727 0.632 0.597 1.483 0.792 2.553 0.584s1.777-0.705 2.12-1.493c0.344-0.787 0.397-1.791 0.16-3.011l-2.194-11.288L53.717 44.794zM31.413 50.505c1.251 0.674 2.037 1.838 2.359 3.493 0.208 1.072 0.137 1.935-0.213 2.588 -0.351 0.653-0.817 1.232-1.401 1.736 0.974 0.199 1.772 0.603 2.397 1.211 0.625 0.607 1.046 1.474 1.265 2.598 0.393 2.023 0.087 3.706-0.918 5.049 -1.005 1.344-2.755 2.257-5.251 2.741l-9.459 1.839 -3.83-19.705 9.515-1.85C28.316 49.731 30.162 49.831 31.413 50.505M21.096 77.01l5.574-1.084 2.194 11.289c0.237 1.221 0.672 2.129 1.304 2.727 0.632 0.598 1.483 0.793 2.553 0.585 1.07-0.208 1.776-0.706 2.12-1.493 0.344-0.787 0.397-1.791 0.16-3.011l-2.195-11.288 5.574-1.084 2.194 11.288c0.303 1.558 0.341 2.934 0.116 4.126 -0.226 1.193-0.66 2.217-1.302 3.071 -0.642 0.856-1.462 1.546-2.46 2.071 -0.999 0.525-2.117 0.908-3.356 1.149 -1.238 0.24-2.414 0.303-3.527 0.188 -1.113-0.115-2.118-0.45-3.015-1.006s-1.669-1.346-2.315-2.369c-0.647-1.023-1.122-2.313-1.425-3.872L21.096 77.01zM46.095 92.6l-3.83-19.704 5.017-0.976 3.448 4.793c0.425 0.579 0.826 1.14 1.204 1.679 0.378 0.54 0.725 1.048 1.042 1.521 0.316 0.475 0.594 0.902 0.835 1.284 0.24 0.382 0.424 0.706 0.554 0.973 0.06-0.596 0.207-1.447 0.44-2.554 0.233-1.107 0.529-2.396 0.887-3.868l1.401-5.735 4.961-0.965 3.831 19.706 -5.152 1.001 -0.914-4.701c-0.189-0.976-0.36-1.901-0.511-2.777 -0.151-0.877-0.282-1.703-0.394-2.48 -0.077 0.405-0.165 0.851-0.265 1.337 -0.099 0.487-0.207 0.98-0.324 1.48 -0.116 0.5-0.234 0.99-0.354 1.471 -0.121 0.481-0.23 0.916-0.329 1.305l-1.521 5.965 -3.644-4.96c-0.238-0.323-0.502-0.687-0.794-1.088 -0.291-0.4-0.585-0.811-0.88-1.23s-0.58-0.837-0.855-1.251c-0.275-0.414-0.523-0.794-0.746-1.14 0.187 0.762 0.375 1.576 0.563 2.445 0.189 0.87 0.378 1.792 0.568 2.769l0.913 4.7L46.095 92.6zM79.143 86.176l-3.831-19.705 5.518-1.071 2.905 14.947 8.727-1.696 0.925 4.758L79.143 86.176zM96.966 80.331c-0.973-0.697-1.803-1.636-2.49-2.817 -0.687-1.181-1.19-2.588-1.507-4.221s-0.374-3.126-0.17-4.479c0.204-1.355 0.626-2.542 1.265-3.563 0.639-1.02 1.478-1.865 2.517-2.534 1.038-0.669 2.223-1.134 3.556-1.393 1.332-0.259 2.601-0.276 3.803-0.052 1.201 0.224 2.285 0.685 3.248 1.384 0.965 0.699 1.795 1.638 2.492 2.816 0.695 1.18 1.203 2.585 1.521 4.219 0.317 1.633 0.374 3.126 0.169 4.48 -0.204 1.354-0.626 2.542-1.266 3.562 -0.639 1.021-1.478 1.864-2.516 2.533 -1.039 0.671-2.224 1.135-3.556 1.394 -1.333 0.259-2.601 0.276-3.804 0.052C99.027 81.489 97.939 81.028 96.966 80.331M181.973 94.924l15.916-49.302L184.508 0 0 26.655l17.156 85.247 11.086 23.386L181.973 94.924z"/>
  </g>
</svg>
