<?xml version="1.0" encoding="utf-8"?>
<!-- Generator: Adobe Illustrator 16.0.0, SVG Export Plug-In . SVG Version: 6.00 Build 0)  -->
<!DOCTYPE svg PUBLIC "-//W3C//DTD SVG 1.1//EN" "http://www.w3.org/Graphics/SVG/1.1/DTD/svg11.dtd">
<svg version="1.1" id="Layer_1" xmlns="http://www.w3.org/2000/svg" xmlns:xlink="http://www.w3.org/1999/xlink" x="0px" y="0px"
	 width="204.18px" height="127.932px" viewBox="0 0 204.18 127.932" enable-background="new 0 0 204.18 127.932"
	 xml:space="preserve">
<g>
	<defs>
		<rect id="SVGID_1_" x="0" width="204.18" height="127.932"/>
	</defs>
	<clipPath id="SVGID_2_">
		<use xlink:href="#SVGID_1_"  overflow="visible"/>
	</clipPath>
	<path clip-path="url(#SVGID_2_)" fill="#231F20" d="M43.881,119.617c0.021-0.376,0.075-0.671,0.044-0.958
		c-0.034-0.31-0.146-0.611-0.23-0.938c0.456-0.197,0.828-0.358,1.239-0.536C45.122,119.378,45.122,119.378,43.881,119.617
		 M18.741,125.504c-1.284,1.842-2.92,2.29-4.069,1.182C15.993,126.303,17.256,125.936,18.741,125.504 M75.522,103.704
		c0.214,0.16,0.695,0.38,0.675,0.532c-0.079,0.586-0.156,1.361-0.545,1.661c-0.35,0.27-1.108,0.009-1.776-0.021
		C74.49,105.066,74.955,104.452,75.522,103.704 M131.243,98.134c-1.595-0.112-2.496-1.241-2.43-2.834
		C130.169,95.757,130.552,96.952,131.243,98.134 M47.556,119.161c0.024,0.058,0.048,0.115,0.072,0.173
		c-0.143,0.169-0.264,0.364-0.434,0.502c-0.329,0.268-0.7,0.485-1.029,0.754c-1.025,0.833-1.559,0.846-2.632-0.01
		C44.899,120.098,46.228,119.629,47.556,119.161 M45.9,118.925c-0.085-0.645-0.159-1.209-0.234-1.779
		c0.82-0.278,1.603-0.544,2.335-0.792c0.359,0.62,0.684,1.185,1.05,1.817c-0.577,0.086-1.058,0.123-1.521,0.234
		C47.023,118.528,46.534,118.72,45.9,118.925 M6.948,107.628c-0.859,0.397-1.54,0.876-2.269,0.966
		c-0.265,0.033-0.965-0.904-0.907-1.32c0.127-0.906,0.827-1.524,1.951-1.782C4.99,106.741,6.034,106.943,6.948,107.628
		 M55.731,116.519c1.656-0.604,3.312-1.21,4.968-1.814c0.075,0.081,0.15,0.163,0.225,0.245c-0.185,0.487-0.371,0.976-0.623,1.638
		c-0.234-0.405-0.32-0.556-0.405-0.702c-0.139,0.3-0.223,0.723-0.363,0.742C58.295,116.797,57.05,117.242,55.731,116.519
		 M92.228,105.069c-0.095,0.101-0.19,0.2-0.284,0.302c-1.467-0.73-2.934-1.46-4.4-2.189c0.027-0.088,0.054-0.176,0.081-0.264
		c0.948,0.19,1.877-0.872,2.754-0.127C91.112,103.413,91.62,104.299,92.228,105.069 M66.397,113.206
		c0.715-0.188,1.398-0.398,2.095-0.538c0.722-0.147,1.599-0.53,2.158-0.271c1.091,0.508,1.786-0.127,2.625-0.437
		c0.069-0.025,0.163,0.021,0.268,0.04c-1.178,1.355-1.672,1.232-4.262,1.771C68.322,113.97,67.205,114.333,66.397,113.206
		 M59.342,114.215c0.158-0.436,0.245-0.825,0.434-1.157c0.201-0.351,0.436-0.812,0.766-0.939c1.859-0.712,1.871-0.683,2.897,0.983
		c0.025,0.04-0.015,0.119-0.032,0.221C62.096,113.611,60.772,113.902,59.342,114.215 M59.285,112.351
		c-0.315,0.764-0.498,1.211-0.698,1.696c-0.313-0.102-0.591-0.202-0.875-0.278c-0.227-0.061-0.463-0.092-0.695-0.137
		c-0.011,0.065-0.022,0.133-0.033,0.199c0.45,0.221,0.901,0.441,1.469,0.72c-1.372,0.598-2.609,1.139-3.96,1.729
		c0.111-0.623,0.159-1.047,0.269-1.453c0.084-0.307,0.172-0.765,0.389-0.859C56.423,113.414,57.732,112.946,59.285,112.351
		 M51.937,115.167c-0.066,0.464-0.143,0.754-0.136,1.041c0.005,0.186,0.133,0.368,0.207,0.554c0.161-0.155,0.356-0.29,0.474-0.473
		c0.08-0.125,0.083-0.32,0.071-0.481c-0.083-1.119,0.64-1.32,1.517-1.42c0.039,1.537-0.34,2.031-2.055,2.746
		c-1.828,0.762-2.005,0.716-3.474-0.936C49.645,115.863,50.726,115.536,51.937,115.167 M99.972,100.054
		c0.062,1.158,0.152,2.161,0.138,3.163c-0.002,0.184-0.517,0.566-0.637,0.512c-1.323-0.603-2.485-1.431-3.385-2.656
		C97.388,100.732,98.598,100.415,99.972,100.054 M15.251,102.25c-1.052,0.606-1.901,1.098-2.781,1.605
		c-0.433-0.751-0.929-1.4-1.188-2.135c-0.156-0.444-0.139-1.21,0.141-1.494c0.642-0.651,1.493-1.094,2.339-1.676
		c-0.111,0.839-0.453,1.63-0.226,2.189C13.772,101.32,14.559,101.676,15.251,102.25 M63.369,111.044
		c0.996-0.283,1.946-0.499,2.857-0.824c1.733-0.617,1.726-0.646,2.889,0.744c0.158,0.188,0.283,0.406,0.479,0.688
		c-1.43,0.322-2.776,0.677-4.143,0.916C63.863,112.847,63.507,112.557,63.369,111.044 M12.461,125.004
		c4.267-0.214,8.253-1.414,12.199-2.97c0.153,0.49,0.303,0.976,0.442,1.426c-0.089,0.079-0.112,0.118-0.138,0.121
		c-3.2,0.267-6.209,1.365-9.305,2.09C14.612,125.917,13.341,126.479,12.461,125.004 M29.187,84.823
		c0.107-0.008,0.213-0.015,0.319-0.021c-0.964,2.422,1.168,2.426,2.314,3.263c-0.73,0.553-1.369,1.048-2.022,1.525
		c-0.238,0.173-0.492,0.353-0.768,0.436c-0.206,0.063-0.515,0.056-0.678-0.061c-0.416-0.298-0.766-0.687-1.16-1.018
		c-0.639-0.537-0.85-2.411-0.259-2.807C27.654,85.656,28.433,85.258,29.187,84.823 M117.537,95.958
		c1.591-0.239,2.992-0.449,4.383-0.658c0.04,1.958,0.79,3.884-0.568,5.675c-0.209,0.012-0.565,0.033-0.887,0.053
		C119.496,99.351,118.548,97.709,117.537,95.958 M90.987,102.13c1.339-0.272,2.695-0.555,4.054-0.816
		c0.138-0.026,0.339,0.012,0.44,0.1c1.031,0.902,2.048,1.822,3.029,2.7c-1.833,0.421-3.692,0.848-5.457,1.253
		C92.338,104.247,91.703,103.252,90.987,102.13 M68.443,109.464c1.518-0.877,2.946-1.587,4.243-2.488
		c0.92-0.64,1.767-0.42,2.608-0.103c0.725,0.273,0.761,0.979,0.624,1.675c-0.023,0.117,0.002,0.272,0.065,0.373
		c0.34,0.542,0.094,0.877-0.39,1.103c-1.363,0.641-2.729,1.273-4.104,1.885c-0.222,0.1-0.624,0.195-0.732,0.087
		C69.951,111.175,69.198,110.303,68.443,109.464 M113.355,101.877c0.049-1.516,0.054-2.922,0.173-4.319
		c0.026-0.304,0.413-0.728,0.721-0.829c0.815-0.265,1.679-0.383,2.456-0.546c0.938,1.626,1.829,3.168,2.704,4.684
		C117.376,101.207,115.416,101.533,113.355,101.877 M46.306,72.458c-0.062,0.421-0.093,0.867-0.201,1.296
		c-0.129,0.512-0.209,0.817,0.463,1.128c0.863,0.396,1.579,1.11,2.358,1.688c-0.994,0.7-1.897,1.358-2.823,1.982
		c-1.09,0.733-1.552,0.693-2.547-0.147c-0.151-0.126-0.33-0.222-0.47-0.357c-1.194-1.165-1.423-2.692-0.366-3.479
		C43.802,73.764,45.051,73.183,46.306,72.458 M94.402,105.986c-0.898,1.473-2.182,1.965-3.506,2.149
		c-2.708,0.376-5.401,0.541-7.631-1.618c-0.738-0.715-1.094-1.639-0.706-2.448c1.046-0.254,1.958-0.446,2.853-0.7
		c1.019-0.287,1.968-0.021,2.586,0.722c-1.584,0.547-3.209,1.107-4.834,1.668c0.037,0.124,0.073,0.247,0.109,0.371
		c1.535,0.339,2.69-1.042,4.169-1.035c-0.059,0.703-0.153,1.553,0.869,1.729c0.493,0.085,1.315,0.104,1.495-0.171
		c0.711-1.082-0.472-1.471-1.023-2.114c0.229-0.004,0.378,0.076,0.537,0.13C90.926,105.206,92.136,107.061,94.402,105.986
		 M126.474,93.16c0.034,1.657,0.259,1.931,1.799,2.346c0.002,1.407,0.713,2.429,1.866,3.203c-0.608,0.151-1.377,0.125-1.554,0.436
		c-0.349,0.608-0.88,0.609-1.354,0.721c-1.582,0.374-3.183,0.67-4.745,0.988c0.667-2.015,0.09-3.897,0.051-5.766
		C123.8,94.468,125.086,93.839,126.474,93.16 M136.898,93.532c0.031,0.114,0.063,0.228,0.093,0.341
		c0.389-0.052,0.815-0.017,1.157-0.171c0.808-0.363,1.558-0.86,2.372-1.211c0.26-0.11,0.785-0.045,0.949,0.146
		c0.442,0.516,0.813,1.117,1.104,1.734c0.251,0.529,0.241,1.129-0.379,1.453c-0.735,0.388-1.481,0.786-2.269,1.03
		c-0.383,0.12-0.962,0.034-1.296-0.189c-2.433-1.63-2.719-4.685-4.696-6.777c1.617-0.626,3.005-1.163,4.381-1.696
		c0.867,1.191,1.651,2.27,2.449,3.364C139.39,92.258,138.144,92.895,136.898,93.532 M140.427,97.53
		c0.671-0.313,1.274-0.44,1.645-0.806c0.503-0.497,1.272-1.3,1.146-1.752c-0.356-1.274-1.037-2.482-1.739-3.624
		c-0.456-0.74-1.187-1.309-1.771-1.975c-0.322-0.369-0.598-0.78-0.948-1.245c1.246-0.361,1.82,0.479,2.411,1.036
		c2.119,1.993,4.164,4.069,6.141,6.021c1.768-0.513,3.37-0.977,4.971-1.441c0.074,0.1,0.147,0.198,0.222,0.298
		c-0.785,0.848-1.431,1.935-2.386,2.487c-1.608,0.935-3.362,1.715-5.153,2.212C143.401,99.175,141.852,98.616,140.427,97.53
		 M139.062,97.793c-2.511,0.146-4.904,0.286-7.333,0.427c0.3-1.436-1.201-1.935-1.695-3.069c0.664-0.701,0.526-1.526,0.128-2.321
		c-0.132-0.264-0.477-0.421-0.725-0.625c0.039,0.306-0.011,0.666,0.135,0.906c0.38,0.625,0.26,1.158-0.233,1.586
		c-0.401,0.349-1.913,0.084-2.074-0.373c-0.217-0.615-0.321-1.282,0.494-1.654c1.407-0.645,2.815-1.29,4.204-1.976
		c1.595-0.788,1.585-0.807,2.546,0.778c0.085,0.141,0.166,0.286,0.253,0.426C136.049,93.965,136.835,96.389,139.062,97.793
		 M106.448,100.817c1.857-0.433,3.672-0.843,5.477-1.292c0.207-0.052,0.359-0.324,0.537-0.494c-0.221-0.063-0.459-0.214-0.66-0.174
		c-0.965,0.192-1.916,0.448-2.877,0.659c-1.143,0.25-2.287,0.478-3.496,0.729c0.389,0.77,0.734,1.454,1.098,2.173
		c-1.945,0.453-3.757,0.876-5.536,1.29c-0.147-1.363-0.279-2.592-0.427-3.97c4.083-0.937,8.098-1.857,12.264-2.813
		c-0.072,1.593-0.143,2.967-0.19,4.341c-0.022,0.634-0.339,0.935-0.948,1.045c-1.299,0.234-2.593,0.504-3.934,0.769
		C107.338,102.359,106.915,101.625,106.448,100.817 M28.961,118.055c-0.94,1.13-2.055,1.964-3.323,2.59
		c-3.468,1.711-7.146,2.786-10.956,3.352c-1.435,0.213-2.949,0.283-4.374,0.069c-1.809-0.271-3.149-1.523-4.337-2.869
		c-1.116-1.264-2.199-2.558-3.316-3.821c-0.943-1.066-1.476-2.328-1.643-3.708c-0.051-0.424,0.225-1.009,0.543-1.326
		c0.644-0.646,1.386-1.211,2.149-1.716c2.905-1.924,5.811-3.848,8.767-5.69c1.186-0.74,2.651-1.089,3.712-1.956
		c1.018-0.83,1.075,0.135,1.492,0.463c0.156,0.122,0.218,0.527,0.322,0.526c0.75-0.004,0.838,0.602,1.076,1.074
		c1.739,3.447,3.986,6.538,6.585,9.382C26.739,115.608,27.815,116.795,28.961,118.055 M74.576,103.421
		c-0.144,0.223-0.268,0.413-0.39,0.604c-1.826,2.834-4.778,4.052-7.722,5.153c-4.226,1.579-8.527,2.966-12.808,4.395
		c-3.08,1.029-6.147,2.124-9.283,2.952c-3.677,0.971-7.414,1.732-11.148,2.467c-0.795,0.157-1.999,0.122-2.489-0.359
		c-3.766-3.698-7.369-7.542-9.968-12.218c-1.006-1.81-1.923-3.593-1.846-5.709c0.023-0.659,0.008-1.536,0.397-1.924
		c1.074-1.064,2.352-1.923,3.55-2.86c2.32-1.818,4.619-3.663,6.967-5.443c1.46-1.106,2.994-2.114,4.492-3.17
		c2.528-1.783,5.024-3.612,7.588-5.342c1.964-1.326,4.002-2.544,6.025-3.781c1.297-0.793,2.613-1.556,3.944-2.29
		c1.132-0.624,1.838-0.287,2.276,0.93c0.377,1.051,0.758,2.11,1.27,3.098c1.254,2.417,2.386,4.932,3.927,7.158
		c2.655,3.832,5.692,7.398,8.359,11.224C69.454,100.795,71.851,102.176,74.576,103.421 M78.515,102.925
		c-0.402,0.231-0.703,0.559-0.948,0.521c-0.907-0.139-1.829-0.309-2.684-0.629c-3.515-1.315-6.038-3.854-8.203-6.81
		c-1.201-1.64-2.424-3.261-3.592-4.924c-1.738-2.477-3.626-4.874-5.097-7.503c-1.39-2.485-2.423-5.189-3.423-7.867
		c-0.709-1.902-0.559-3.809,1.007-5.38c0.668-0.671,1.245-1.433,1.918-2.097c1.506-1.487,3.042-2.945,4.574-4.406
		c2.249-2.145,4.513-4.273,6.756-6.423c2.071-1.984,4.061-4.06,6.207-5.958c1.44-1.272,3.09-2.308,4.649-3.444
		c2.287-1.669,4.567-3.348,6.868-4.997c2.189-1.569,4.412-3.091,6.599-4.663c2.042-1.466,4.044-2.988,6.087-4.453
		c3.519-2.524,7.047-5.036,10.588-7.53c3.104-2.188,6.177-4.427,9.37-6.479c1.678-1.079,3.584-1.805,5.386-2.691
		c1.802-0.886,3.603-1.77,5.399-2.662c1.155-0.572,2.28-1.21,3.456-1.732c3.632-1.612,7.289-3.168,10.923-4.774
		c4.873-2.153,9.712-4.383,14.609-6.479c2.98-1.277,4.14-0.996,6.868,1.597c2.014,1.913,3.828,4.036,5.724,6.072
		c2.524,2.712,5.114,5.369,7.545,8.163c2.709,3.113,5.34,6.302,7.879,9.557c2.44,3.127,4.845,6.296,7.032,9.601
		c2.838,4.288,5.412,8.751,7.415,13.505c0.684,1.622,1.326,3.294,1.703,5.006c0.396,1.799,0.433,3.7-0.448,5.412
		c-0.958,1.859-1.929,3.735-3.124,5.443c-1.214,1.734-2.581,3.404-4.11,4.863c-2.273,2.171-4.71,4.18-7.151,6.167
		c-1.862,1.516-3.725,3.089-5.791,4.28c-3.203,1.844-6.552,3.449-9.897,5.031c-2.009,0.949-4.096,1.765-6.208,2.455
		c-3.174,1.037-6.4,1.913-9.604,2.855c-2.662,0.781-5.333,1.533-7.985,2.349c-0.973,0.3-1.734,0.187-2.471-0.562
		c-1.885-1.913-3.805-3.791-5.741-5.65c-0.271-0.259-0.744-0.511-1.077-0.46c-0.905,0.137-1.827,0.338-2.669,0.69
		c-3.732,1.558-7.453,3.145-11.149,4.787c-2.401,1.068-4.806,2.088-7.466,2.274c-0.501,0.034-1.035-0.144-1.507-0.03
		c-0.693,0.167-1.323,0.599-2.017,0.76c-3.932,0.916-7.883,1.736-11.808,2.68c-4.761,1.143-9.492,2.418-14.256,3.548
		c-2.151,0.511-4.339,0.914-6.534,1.167C80.876,103.249,79.589,102.991,78.515,102.925 M38.879,118.975
		c-1.006,0.794,0.443,1.248,0.204,2.168c-1.139,0.086-2.364,0.22-3.592,0.261c-1.208,0.039-1.489-0.282-1.604-1.639
		c1.659-0.254,3.322-0.508,4.985-0.762c1.375-0.424,2.749-0.849,4.119-1.271c0.578,1.794,0.214,2.294-1.405,2.335
		c-0.607,0.016-1.21,0.184-1.905,0.296C39.436,119.94,39.157,119.458,38.879,118.975 M124.617,101.277
		c-0.31,1.003-0.787,1.542-1.745,1.906c-2.25,0.853-4.346,0.583-6.452-0.374c-0.147-0.067-0.389,0.076-0.585,0.121
		c-0.027,0.108-0.054,0.215-0.08,0.322c0.549,0.27,1.078,0.713,1.651,0.776c1.788,0.2,3.547,0.613,5.401-0.03
		c1.29-0.448,2.046-1.149,2.556-2.329c0.135-0.313,0.5-0.619,0.827-0.734c0.549-0.194,1.165-0.188,1.731-0.346
		c0.836-0.233,1.791-0.077,2.401-1.048c0.233-0.372,1.066-0.387,1.634-0.524c2.579-0.628,5.188-0.338,7.799-0.378
		c1.843-0.027,3.354,1.329,5.24,0.767c3.363-1.002,6.737-1.92,8.234-5.635c0.081-0.202,0.34-0.402,0.558-0.469
		c4.282-1.33,8.592-2.583,12.853-3.979c2.3-0.753,4.579-1.623,6.767-2.652c3.488-1.643,7.018-3.258,10.292-5.271
		c2.661-1.636,4.989-3.819,7.437-5.797c1.629-1.313,3.246-2.647,4.801-4.047c2.834-2.551,4.784-5.753,6.683-9.023
		c1.753-3.02,1.988-6.139,0.915-9.308c-0.82-2.424-1.977-4.746-3.125-7.043c-1.142-2.285-2.405-4.515-3.715-6.71
		c-1.06-1.776-2.245-3.479-3.414-5.188c-1.147-1.679-2.298-3.358-3.532-4.975c-1.606-2.105-3.258-4.182-4.96-6.213
		c-2.894-3.452-5.782-6.914-8.785-10.271c-2.705-3.023-5.533-5.94-8.364-8.851c-1.11-1.142-2.359-2.153-3.574-3.19
		c-1.014-0.865-2.196-0.975-3.409-0.521c-2.023,0.757-4.046,1.525-6.04,2.357c-2.267,0.946-4.506,1.96-6.752,2.957
		c-2.35,1.044-4.668,2.161-7.051,3.122c-0.845,0.34-1.852,0.493-2.759,0.418c-1.89-0.156-3.76-0.52-5.721-0.811
		c0.17-1.313,0.946-2.324,1.637-3.376c0.324-0.493,0.69-0.97,0.92-1.506c0.099-0.23-0.105-0.588-0.212-1.074
		c-0.548,0.998-0.924,1.699-1.315,2.391c-0.658,1.166-1.34,2.319-1.982,3.493c-0.303,0.552,0.022,0.71,0.536,0.767
		c1.955,0.216,3.908,0.453,5.861,0.694c0.143,0.018,0.271,0.136,0.461,0.236c-2.815,1.279-5.563,2.513-8.299,3.774
		c-1.167,0.538-2.298,1.155-3.462,1.7c-1.246,0.584-2.511,1.127-3.77,1.685c-0.766,0.34-1.493,0.295-2.264-0.081
		c-1.354-0.66-2.746-1.241-4.107-1.85c0.266-1.672,1.529-2.98,1.591-4.635c-0.092-0.037-0.185-0.075-0.275-0.111
		c-0.123,0.093-0.307,0.16-0.36,0.283c-0.565,1.325-1.058,2.686-1.682,3.982c-0.409,0.85-0.041,1.073,0.671,1.323
		c1.542,0.54,3.059,1.153,4.773,1.81c-0.604,0.439-0.996,0.761-1.422,1.03c-2.048,1.29-4.15,2.499-6.146,3.867
		c-1.753,1.201-3.378,2.592-5.081,3.87c-1.383,1.038-2.804,2.029-4.2,3.053c-1.638,1.201-3.254,2.431-4.904,3.617
		c-2.689,1.934-5.407,3.829-8.092,5.769c-1,0.723-1.905,0.071-2.781-0.178c-1.228-0.348-2.385-0.941-3.823-1.533
		c0.572-1.202,1.094-2.372,1.684-3.506c0.273-0.525,0.571-1.199,1.042-1.43c2.079-1.021,2.525-1.308,4.336,0.699
		c0.119,0.133,0.293,0.215,0.639,0.205c-0.067-0.21-0.09-0.449-0.208-0.625c-1.208-1.804-2.702-2.3-4.646-1.336
		c-2.994,1.483-5.923,3.096-8.887,4.641c-2.481,1.292-4.993,2.523-7.444,3.869c-0.67,0.368-1.303,0.966-1.714,1.61
		c-0.647,1.012-1.091,2.154-1.641,3.282c0.334,0.146,0.568,0.249,0.794,0.348c0.068-0.063,0.142-0.1,0.156-0.151
		c0.674-2.463,2.036-4.18,4.485-5.298c3.434-1.568,6.679-3.554,10.012-5.347c0.771-0.415,1.572-0.775,2.465-1.212
		c-0.668,1.564-1.286,3.015-1.959,4.593c2.048,0.792,3.996,1.545,6.011,2.323c-0.806,0.547-1.662,1.086-2.472,1.686
		c-2.477,1.835-4.937,3.694-7.404,5.542c-2.202,1.649-4.489,3.197-6.583,4.975c-1.888,1.601-3.537,3.481-5.345,5.183
		c-2.351,2.215-4.804,4.325-7.124,6.573c-2.515,2.437-5.181,4.755-7.06,7.768c-0.251,0.401-0.308,0.973-0.312,1.466
		c-0.005,0.582,0.145,1.164,0.254,1.926c-1.533-0.508-2.635,0.376-3.817,1.047c-0.137,0.078-0.441-0.005-0.595-0.115
		c-0.771-0.553-1.549-1.104-2.263-1.727c-0.499-0.436-0.049-2.325,0.577-2.642c0.441-0.223,0.886-0.438,1.456-0.722
		c0.159,0.313,0.324,0.654,0.501,0.988c0.13,0.244,0.275,0.479,0.414,0.72c0.102-0.053,0.203-0.107,0.304-0.16
		c-0.309-0.8-0.618-1.6-0.967-2.503c-0.364,0.21-0.703,0.413-1.05,0.604c-1.753,0.968-3.504,1.94-5.265,2.896
		c-1.12,0.608-2.277,1.152-3.372,1.8c-0.371,0.221-0.609,0.67-0.899,1.022c-0.223,0.271-0.432,0.555-0.658,0.847
		c0.336,0.541,0.519,0.566,0.934,0.161c0.771-0.753,1.563-1.486,2.35-2.23c0.183,0.206,0.259,0.269,0.25,0.286
		c-0.507,1.001-0.434,1.807,0.583,2.511c0.631,0.438,1.106,1.099,1.755,1.768c-3.868,2.653-7.699,5.282-11.593,7.954
		c-0.716-0.383-1.512-0.812-2.301-1.233c0.073-1.963,0.258-2.209,2.167-2.813c0.325,0.563,0.662,1.146,1.018,1.762
		c0.434-0.537,0.127-1.303-1.025-2.682c-2.014,1.681-4.766,2.005-6.796,3.839c-0.974,0.88-1.888,1.601-2.059,2.954
		c-0.012,0.094-0.021,0.191-0.005,0.284c0.01,0.057,0.07,0.105,0.194,0.277c0.911-0.836,0.728-2.567,2.311-2.808
		c0.028,0.15,0.094,0.334,0.089,0.514c-0.022,0.807,0.114,1.456,1.005,1.816c0.466,0.188,0.81,0.68,1.229,1.052
		c-2.871,2.335-5.616,4.557-8.349,6.792c-1.477,1.208-1.927,2.777-1.565,4.619c0.046,0.236,0.035,0.482,0.062,0.93
		c-0.779-0.725-1.379-1.349-2.409-0.993c-0.194,0.067-0.595-0.567-0.944-0.817c-0.549-0.393-0.977-0.676-0.777-1.568
		c0.288-1.286,0.897-2.101,2.173-2.349c0.202-0.039,0.485,0.237,0.701,0.405c0.2,0.156,0.36,0.361,0.666,0.677
		c-0.06-1.374-0.913-2.032-1.869-1.59c-0.868,0.402-1.677,0.938-2.506,1.424c-0.623,0.364-1.247,0.73-1.852,1.124
		c-0.544,0.354-1.114,0.69-1.581,1.134c-0.709,0.674-1.42,1.257-2.464,1.3c-0.165,0.007-0.318,0.331-0.476,0.508
		c0.232,0.13,0.535,0.428,0.685,0.364c0.881-0.377,1.727-0.837,2.737-1.346c0.439,0.76,0.977,1.611,1.418,2.511
		c0.113,0.232,0.028,0.788-0.15,0.899c-1.446,0.901-2.936,1.731-4.422,2.59c-1.526-1.313-1.474-1.68,0.087-2.281
		c0.472,0.261,0.775,0.429,1.078,0.597c0.081-0.105,0.163-0.212,0.245-0.318c-0.301-0.391-0.602-0.78-0.96-1.245
		c-2.006,0.951-3.97,1.851-5.903,2.812c-0.91,0.452-1.168,2.006-0.492,2.932c0.719-0.806-0.074-2.458,1.608-2.677
		c0.417,0.723,0.878,1.521,1.344,2.328c-1.205,0.869-2.451,1.671-3.567,2.625c-0.4,0.341-0.694,1.06-0.674,1.592
		c0.061,1.625,0.813,3.034,1.813,4.281c1.099,1.371,2.167,2.794,3.441,3.991c1.69,1.587,3.457,3.178,6.013,3.234
		c0.148,0.003,0.311,0.167,0.434,0.29c0.208,0.206,0.361,0.473,0.586,0.652c0.59,0.47,1.202,0.912,1.814,1.352
		c1.272,0.913,3.34,0.79,4.335-0.448c1.302-1.619,2.998-2.36,4.957-2.433c0.903-0.034,1.814,0.508,2.743,0.633
		c0.82,0.11,1.695,0.128,2.499-0.039c0.822-0.169,1.246-0.858,1.332-1.725c0.02-0.203,0.186-0.391,0.276-0.59
		c0.508-1.127-0.118-2.515-1.544-3.059c0.38,0.495,0.672,0.831,0.915,1.2c0.561,0.85,0.33,1.454-0.612,1.761
		c-0.777,0.254-1.536,0.563-2.31,0.829c-0.5,0.173-0.948,0.208-1.15-0.456c-0.122-0.398-0.332-0.768-0.435-0.997
		c1.541-1.117,2.974-2.156,4.438-3.217c0.455,1.235,1.633,1.298,3.003,1.189c0.277-0.021,0.906,0.917,0.882,1.389
		c-0.037,0.763,0.307,0.743,0.795,0.759c0.032,0.001,0.064-0.016,0.097-0.022c1.536-0.279,2.92,0.291,4.321,0.77
		c0.218,0.074,0.446,0.13,0.674,0.167c1.069,0.172,1.306-0.067,1.147-1.14c-0.044-0.293-0.079-0.586-0.119-0.894
		c0.032-0.016,0.075-0.041,0.12-0.058c1.467-0.554,2.588,0.479,3.83,0.887c0.999,0.327,1.773,0.265,2.437-0.582
		c0.577-0.736,1.167-1.462,1.76-2.184c0.054-0.064,0.182-0.069,0.276-0.101c1.861-0.618,3.72-1.241,5.585-1.845
		c0.222-0.072,0.55-0.142,0.709-0.033c1.755,1.197,3.593,0.41,5.36,0.146c0.692-0.103,1.214-0.941,1.107-1.797
		c-0.09-0.712,0.161-0.97,0.835-1.13c0.784-0.186,1.509-0.645,2.294-0.787c0.465-0.084,1.094,0.086,1.484,0.368
		c1.51,1.096,3.003,0.626,4.595,0.247c1.145-0.272,2.352-0.239,3.11-1.353c0.071-0.105,0.241-0.163,0.275-0.271
		c0.325-1.024,1.048-1.593,1.993-2.07c0.985-0.497,1.098-1.507,0.516-2.88c0.195-0.008,0.374-0.016,0.607-0.025
		c-0.103-1.102-0.204-2.188-0.289-3.099c1.087-0.221,1.981-0.447,2.889-0.564c0.455-0.059,0.954-0.073,1.205,0.569
		c0.273,0.699,0.731,1.324,1.069,2.002c0.806,1.611,2.447,1.91,3.906,2.36c2.338,0.722,4.667,0.522,6.95-0.464
		c1.034-0.447,1.663-1.22,2.32-2.042c0.254-0.319,0.618-0.667,0.989-0.754c3.094-0.724,6.199-1.403,9.307-2.061
		c0.515-0.109,1.067-0.262,1.508,0.378c0.129,0.188,0.802,0.002,1.273-0.015c-2.584,2.752-5.701,2.637-9.021,1.524
		c-0.027,0.168-0.054,0.336-0.082,0.504c0.41,0.243,0.796,0.62,1.236,0.701c1.162,0.214,2.369,0.509,3.518,0.389
		c2.096-0.221,3.942-1.104,5.251-2.877c0.186-0.25,0.417-0.566,0.684-0.635c1.545-0.401,3.1-0.773,4.667-1.082
		c1.205-0.238,2.429-0.416,3.651-0.532c0.777-0.074,1.575,0.084,2.353,0.014c1.129-0.1,2.246-0.311,3.368-0.476
		C124.153,101.364,124.315,101.332,124.617,101.277"/>
	<path clip-path="url(#SVGID_2_)" fill="#231F20" d="M144.052,1.758c0.427-0.635-0.063-0.748-0.505-0.951
		c-2.23-1.027-4.495-0.849-6.72-0.095c-5.272,1.787-10.579,3.495-15.757,5.53c-3.017,1.187-5.809,2.945-8.705,4.438
		c-0.754,0.39-1.518,0.762-2.282,1.128c-2.085,1.001-2.489,1.395-3.823,3.79c0.275,0.092,0.539,0.179,0.857,0.284
		c0.752-2.004,2.377-2.921,4.142-3.768c1.841-0.885,3.55-2.045,5.392-2.927c2.599-1.242,5.242-2.398,7.911-3.482
		c2.609-1.058,5.242-2.076,7.923-2.931c2.428-0.775,4.922-1.35,7.407-1.925C141.003,0.593,141.93,0.893,144.052,1.758"/>
	<path clip-path="url(#SVGID_2_)" fill="#231F20" d="M79.141,47.441c-1.841-1.045-3.682-2.09-5.421-3.077
		c-0.069-1.599,1.502-2.663,1.131-4.449c-0.286,0.249-0.519,0.357-0.593,0.532c-0.488,1.147-0.965,2.3-1.388,3.472
		c-0.081,0.224,0.002,0.698,0.159,0.785c1.895,1.045,3.817,2.039,5.735,3.04c0.042,0.022,0.122-0.03,0.183-0.048
		C79.012,47.611,79.077,47.526,79.141,47.441"/>
	<path clip-path="url(#SVGID_2_)" fill="#231F20" d="M161.027,47.281c-0.086-0.053-0.172-0.107-0.257-0.16
		c0.513-0.903,0.854-1.988,1.573-2.672c1.446-1.374,3.101-2.527,4.664-3.777c0.385-0.307,0.743-0.648,1.125-0.961
		c0.341-0.279,0.698-0.542,1.049-0.811c0.07,0.078,0.142,0.157,0.212,0.234c-1.065,1.271-2.139,2.535-3.188,3.819
		c-0.156,0.189-0.199,0.471-0.293,0.71c0.279-0.075,0.655-0.062,0.821-0.243c0.722-0.779,1.434-1.58,2.051-2.442
		c0.896-1.254,1.724-2.559,2.541-3.866c0.118-0.19,0.02-0.515,0.021-0.778c-0.209,0.097-0.45,0.153-0.622,0.294
		c-2.258,1.848-4.483,3.734-6.763,5.555c-1.767,1.41-3.549,2.767-3.735,5.293c-0.017,0.217-0.324,0.476-0.557,0.603
		c-1.295,0.701-2.595,1.396-3.919,2.039c-1.83,0.889-3.679,1.739-5.526,2.59c-2.087,0.961-4.182,1.906-6.272,2.858
		c-2.069,0.941-4.132,1.901-6.219,2.803c-0.306,0.131-0.798,0.087-1.094-0.075c-0.536-0.294-1.089-0.661-1.46-1.135
		c-2.407-3.079-4.298-6.476-5.541-10.168c-0.809-2.401-1.388-4.908-1.775-7.412c-0.333-2.153-0.596-4.364-0.123-6.564
		c0.182-0.85,0.515-1.479,1.353-1.91c3.335-1.715,6.611-3.543,9.95-5.25c4.043-2.067,8.135-4.039,12.191-6.08
		c4.506-2.266,8.989-4.574,13.504-6.82c0.334-0.166,0.988-0.152,1.246,0.068c1.682,1.438,3.422,2.84,4.902,4.472
		c2.662,2.933,5.177,6.001,7.71,9.048c1.534,1.844,3.019,3.731,4.444,5.658c0.242,0.327,0.265,1.038,0.08,1.422
		c-0.929,1.925-2.516,3.303-4.303,4.348c-3.728,2.181-7.516,4.264-11.332,6.287C165.389,45.368,163.183,46.279,161.027,47.281
		 M159.999,48.873c-0.06,0.592-0.104,1.037-0.161,1.619c0.257-0.12,0.539-0.197,0.536-0.258c-0.141-2.303,1.848-2.538,3.243-3.256
		c2.816-1.453,5.715-2.751,8.535-4.197c2.135-1.093,4.27-2.212,6.278-3.512c2.012-1.302,3.987-2.708,5.285-4.827
		c0.711-1.16,0.676-1.999-0.177-3.03c-2.489-3.009-4.913-6.076-7.484-9.014c-2.728-3.118-5.243-6.445-8.468-9.103
		c-0.617-0.508-1.286-0.952-2.116-1.56c-0.314,0.207-0.772,0.563-1.278,0.831c-2.444,1.297-4.869,2.638-7.361,3.837
		c-4.401,2.119-8.853,4.133-13.268,6.22c-1.127,0.533-2.187,1.205-3.3,1.769c-1.963,0.992-3.958,1.922-5.911,2.933
		c-1.745,0.904-3.378,2.073-5.194,2.777c-2.147,0.832-2.425,2.564-2.41,4.339c0.024,3.344,0.196,6.712,1.143,9.946
		c0.962,3.289,2.335,6.43,4.114,9.366c0.918,1.517,1.867,3.038,2.994,4.397c1.201,1.45,1.802,1.524,3.454,0.793
		c2.665-1.182,5.293-2.444,7.944-3.656c2.539-1.16,5.101-2.271,7.628-3.456C155.992,50.91,157.919,49.906,159.999,48.873"/>
	<path clip-path="url(#SVGID_2_)" fill="#231F20" d="M111.078,82.775c-0.265-0.624-0.399-1.09-0.64-1.493
		c-1.957-3.264-3.938-6.514-5.902-9.772c-0.949-1.574-1.874-3.163-2.822-4.739c-1.76-2.925-3.53-5.844-5.29-8.769
		c-0.385-0.642-0.151-1.115,0.468-1.426c0.706-0.354,1.408-0.731,2.146-1.006c0.863-0.32,1.802-0.67,2.52,0.277
		c1.325,1.747,2.72,3.454,3.898,5.297c2.072,3.244,4.001,6.579,5.995,9.873c1.546,2.552,3.098,5.101,4.652,7.647
		c0.345,0.565,0.522,1.164-0.156,1.544C114.358,81.097,112.727,81.912,111.078,82.775 M95.216,57.566
		c5.085,8.469,10.103,16.828,15.194,25.311c-1.749,0.512-3.271,0.978-4.807,1.398c-1.349,0.37-1.772,0.219-2.584-0.954
		c-1.22-1.763-2.445-3.522-3.586-5.337c-1.67-2.654-3.294-5.338-4.887-8.039c-1.564-2.651-3.257-5.255-3.49-8.47
		c-0.081-1.124,0.343-2.174,1.307-2.642C93.316,58.37,94.298,57.97,95.216,57.566 M115.4,75.711
		c-1.997-3.106-4.021-6.193-5.978-9.324c-1.14-1.824-2.072-3.784-3.277-5.562c-1.39-2.048-2.932-4-4.521-5.897
		c-0.296-0.354-1.238-0.511-1.701-0.319c-2.232,0.922-4.408,1.983-6.593,3.02c-0.727,0.345-1.477,0.688-2.113,1.168
		c-0.857,0.646-1.016,1.615-0.931,2.657c0.278,3.438,2.007,6.241,3.8,9.052c1.501,2.351,2.76,4.855,4.275,7.195
		c1.515,2.341,3.2,4.571,4.84,6.829c0.62,0.855,1.503,0.958,2.458,0.635c2.256-0.764,4.537-1.461,6.755-2.323
		c1.37-0.533,2.673-1.266,3.946-2.011c1.035-0.606,1.144-1.272,0.554-2.328c-0.515-0.924-1.054-1.833-1.583-2.748
		C115.353,75.74,115.376,75.726,115.4,75.711"/>
	<path clip-path="url(#SVGID_2_)" fill="#231F20" d="M169.278,82.924c-1.004-1.999-2.016-3.873-2.896-5.807
		c-1.124-2.471-1.145-3.301,0.859-4.822c1.612,3.141,3.224,6.275,4.896,9.53C171.218,82.179,170.282,82.538,169.278,82.924
		 M185.515,74.259c-0.896-1.555-1.71-3.088-2.644-4.544c-0.911-1.42-1.945-2.762-2.978-4.21c1.139-0.437,2.024-0.776,2.929-1.122
		c0.475,0.733,0.916,1.421,1.361,2.104c0.462,0.708,0.924,1.417,1.398,2.118c0.118,0.176,0.249,0.382,0.427,0.476
		c1.52,0.806,1.91,3.015,0.709,4.218C186.353,73.664,185.909,73.949,185.515,74.259 M179.41,65.524
		c0.504,0.873,0.867,1.531,1.258,2.173c1.278,2.094,2.577,4.175,3.843,6.277c0.325,0.539,0.281,0.97-0.389,1.342
		c-2.864,1.59-5.684,3.261-8.544,4.855c-0.892,0.496-1.863,0.846-2.71,1.223c-1.688-3.232-3.34-6.396-5.058-9.684
		C171.752,69.609,175.541,67.588,179.41,65.524 M173.309,67.81c-1.49,0.769-3.005,1.495-4.463,2.322
		c-0.96,0.545-1.882,1.183-2.744,1.874c-1.446,1.161-1.724,2.951-0.824,4.806c0.843,1.736,1.689,3.471,2.556,5.196
		c0.285,0.567,0.6,1.129,0.973,1.64c0.093,0.128,0.496,0.136,0.702,0.057c1.266-0.479,2.551-0.929,3.765-1.521
		c2.414-1.179,4.874-2.303,7.152-3.714c2.376-1.472,5.014-2.596,6.943-4.734c1.089-1.206,1.189-2.34,0.248-3.698
		c-1.29-1.857-2.773-3.604-3.867-5.568c-0.647-1.161-1.283-0.85-2.031-0.534c-2.845,1.196-5.668,2.441-8.5,3.669
		C173.25,67.672,173.28,67.741,173.309,67.81"/>
	<path clip-path="url(#SVGID_2_)" fill="#231F20" d="M115.486,45.122c0.585,1.539,0.952,3.036,1.684,4.326
		c2.02,3.563,4.14,7.07,6.317,10.541c2.519,4.011,5.15,7.951,7.711,11.936c0.661,1.028,0.412,2.044-0.661,2.689
		c-1.323,0.795-2.672,1.551-4.038,2.267c-1.07,0.562-1.41,0.446-2.083-0.556c-2.587-3.854-5.261-7.653-7.719-11.586
		c-2.033-3.253-3.852-6.646-5.685-10.02c-1.057-1.944-1.645-4.062-1.589-6.299c0.009-0.371,0.299-0.927,0.606-1.065
		C111.778,46.574,113.569,45.893,115.486,45.122 M111.54,57.225c1.131,1.957,2.209,3.945,3.401,5.863
		c1.757,2.826,3.595,5.602,5.397,8.4c1.106,1.72,2.197,3.45,3.325,5.155c1.115,1.688,1.184,1.844,3.255,0.874
		c1.433-0.671,2.802-1.484,4.175-2.275c0.622-0.359,0.905-0.956,1.234-1.623c0.438-0.889-0.081-1.222-0.423-1.765
		c-2.364-3.761-4.723-7.526-7.07-11.299c-0.978-1.566-1.905-3.165-2.889-4.728c-1.187-1.886-2.487-3.704-3.587-5.639
		c-0.709-1.245-1.192-2.629-1.688-3.983c-0.646-1.77-0.671-1.848-2.383-1.273c-1.708,0.575-3.401,1.201-5.066,1.888
		c-0.276,0.113-0.528,0.649-0.536,0.996c-0.061,2.757,0.594,5.337,2.068,7.69c0.333,0.53,0.63,1.084,0.943,1.626
		C111.645,57.165,111.593,57.196,111.54,57.225"/>
	<path clip-path="url(#SVGID_2_)" fill="#231F20" d="M118.274,22.026c-0.031,0.015-0.351,0.067-0.38,0.189
		c-0.24,0.995-1.127,1.713-0.914,2.959c0.152,0.9-0.351,1.914-0.561,2.877c-0.887,4.069,0.046,7.794,2.013,11.38
		c1.55,2.827,2.929,5.748,4.423,8.606c0.837,1.601,1.769,3.151,2.632,4.739c1.087,2,2.044,4.078,3.244,6.005
		c1.515,2.432,3.213,4.747,4.841,7.106c1.197,1.737,2.376,3.487,3.621,5.188c1.608,2.199,3.199,4.419,4.934,6.517
		c2.989,3.616,6.061,7.165,9.16,10.687c0.434,0.493,1.218,0.693,1.864,0.974c0.113,0.049,0.377-0.15,0.505-0.293
		c0.043-0.048-0.094-0.388-0.196-0.414c-2.404-0.651-3.115-3.048-4.638-4.586c-2.923-2.952-5.64-6.113-8.335-9.279
		c-1.319-1.55-2.403-3.301-3.579-4.971c-1.382-1.963-2.691-3.98-4.137-5.896c-2.417-3.202-4.374-6.664-6.158-10.246
		c-1.128-2.265-2.449-4.435-3.62-6.681c-1.831-3.511-3.697-7.009-5.378-10.593c-1.157-2.469-1.114-5.168-0.69-7.812
		C117.274,26.308,117.82,24.164,118.274,22.026"/>
	<path clip-path="url(#SVGID_2_)" fill="#231F20" d="M73.165,73.023c0.565,0.979,1.139,1.816,1.555,2.726
		c0.993,2.163,1.789,4.425,2.891,6.527c1.339,2.557,2.844,5.032,4.402,7.463c1.438,2.242,1.437,2.441-1.024,3.308
		c-0.023,0.009-0.056-0.014,0.08,0.025c-3.485-6.188-6.91-12.269-10.368-18.408C71.667,74.02,72.448,73.5,73.165,73.023
		 M78.605,94.662c-0.518-0.549-0.974-0.891-1.248-1.344c-2.576-4.269-5.12-8.558-7.674-12.842c-0.44-0.738-0.92-1.456-1.316-2.218
		c-0.612-1.178-0.364-1.956,0.773-2.684c0.331-0.212,0.657-0.431,1.097-0.72c1.709,3.095,3.446,6.124,5.07,9.215
		c1.611,3.068,3.911,5.778,4.824,9.215c-0.246,0.035-0.541,0-0.7,0.13c-0.093,0.077-0.033,0.563,0.069,0.607
		c0.196,0.084,0.49,0.034,0.711-0.048c0.968-0.359,1.943-0.707,2.877-1.142c0.629-0.292,1.018-0.623,0.475-1.504
		c-1.836-2.976-3.649-5.976-5.267-9.072c-1.365-2.613-2.344-5.425-3.686-8.052c-1.2-2.35-0.516-2.374-2.901-1.016
		c-0.948,0.54-1.902,1.078-2.799,1.695c-1.572,1.081-1.837,2.535-0.792,4.185c0.633,0.998,1.358,1.939,1.981,2.943
		c1.578,2.548,3.15,5.101,4.671,7.683c0.959,1.627,1.805,3.32,2.75,4.954c0.143,0.247,0.556,0.335,0.844,0.496
		C78.479,94.917,78.593,94.687,78.605,94.662"/>
	<path clip-path="url(#SVGID_2_)" fill="#231F20" d="M91.279,75.053c-1.795-3.833-3.597-7.695-6.655-10.942
		c-2.304,0.975-4.471,2.249-6.467,3.819c-0.484,0.381-0.965,0.773-1.4,1.207c-0.171,0.17-0.214,0.468-0.315,0.708
		c0.257-0.04,0.615,0.017,0.756-0.132c1.915-2.017,4.369-3.229,6.745-4.547c0.245-0.137,0.835-0.044,1.016,0.161
		c2.309,2.619,3.853,5.71,5.286,8.857c0.092,0.2-0.046,0.563-0.174,0.797c-0.973,1.762-2.636,2.594-4.422,3.278
		c-0.579,0.223-1.1,0.593-1.663,0.866c-1.68,0.812-2.375,0.631-3.296-0.999c-1.369-2.423-2.677-4.88-4.012-7.322
		c-0.093-0.17-0.194-0.337-0.313-0.542c-0.754,0.759-0.136,1.46,0.13,1.996c0.877,1.764,1.87,3.475,2.896,5.158
		c0.548,0.896,1.2,1.747,1.905,2.525c0.725,0.803,1.68,0.334,2.391,0.023c1.682-0.736,3.315-1.608,4.893-2.551
		c0.706-0.423,1.221-1.159,1.842-1.733C90.664,75.458,90.956,75.288,91.279,75.053"/>
	<path clip-path="url(#SVGID_2_)" fill="#231F20" d="M143.799,69.191c-0.768-1.477-0.74-3.059,0.628-3.812
		c1.738-0.959,2.905-0.451,4.166,1.266c0.872,1.188,0.423,2.757-0.818,3.467C146.363,70.917,144.572,70.502,143.799,69.191
		 M149.264,66.413c-1.194-1.984-3.544-2.836-5.155-1.868c-1.647,0.989-2.05,3.257-0.8,5.176c1.027,1.577,3.093,1.858,4.869,0.99
		C149.815,69.91,150.224,68.009,149.264,66.413"/>
	<path clip-path="url(#SVGID_2_)" fill="#231F20" d="M190.469,46.416c-0.61,0.578-1.537,0.738-2.157,0.155
		c-0.745-0.701-1.343-1.657-1.729-2.613c-0.349-0.859,0.402-2.186,1.037-2.334c0.484-0.113,0.972-0.228,1.439-0.39
		c1.27-0.44,2.09-0.301,2.571,0.545C192.531,43.357,192.28,45.43,190.469,46.416 M192.127,41.457
		c-0.885-1.528-1.371-1.676-3.023-0.982c-1.061,0.445-2.265,0.591-2.865,1.825c-0.642,1.321,0.082,3.712,1.525,4.699
		c1.383,0.945,2.768,0.671,3.978-0.729C193,44.817,193.099,42.978,192.127,41.457"/>
	<path clip-path="url(#SVGID_2_)" fill="#231F20" d="M70.017,87.091c-1.687-2.922-3.295-5.707-4.904-8.492
		c-0.11,0.025-0.221,0.052-0.331,0.077c0.05,0.258,0.034,0.555,0.161,0.767c1.151,1.919,2.337,3.817,3.488,5.738
		c0.216,0.359,0.317,0.787,0.48,1.208c-0.888,0.598-1.747,1.186-2.615,1.761c-0.971,0.645-1.816,0.141-2.482-0.468
		c-1.33-1.218-2.504-2.582-3.173-4.312c-0.101-0.26-0.429-0.432-0.652-0.644c0.011,0.317-0.082,0.687,0.049,0.944
		c1.022,2.019,2.344,3.788,4.272,5.058c0.966,0.635,1.424,0.588,2.365-0.138C67.565,87.905,68.459,87.144,70.017,87.091"/>
	<path clip-path="url(#SVGID_2_)" fill="#231F20" d="M155.692,69.606c0.223,0.45,0.548,0.937,0.704,1.473
		c0.195,0.668-0.457,1.547-1.099,1.622c-0.736,0.087-1.674-0.586-1.771-1.271c-0.104-0.739,0.398-1.324,1.218-1.458
		C154.987,69.931,155.214,69.794,155.692,69.606 M153.049,72.328c0.628,1.106,1.889,1.491,2.93,0.894
		c1.225-0.703,1.506-2.108,0.704-3.504c-0.433-0.755-1.555-1.185-2.183-0.839C153.013,69.701,152.394,71.171,153.049,72.328"/>
	<path clip-path="url(#SVGID_2_)" fill="#231F20" d="M189.604,54.229c-0.576,0.353-1.808,0.12-2.12-0.401
		c-0.497-0.828-0.113-1.668,1.059-2.363c0.64-0.38,1.154-0.114,1.523,0.37C190.663,52.617,190.412,53.735,189.604,54.229
		 M186.906,54.053c0.569,1.026,1.999,1.423,3.07,0.853c1.006-0.535,1.41-2.197,0.797-3.264c-0.656-1.137-1.738-1.499-2.761-0.784
		C186.712,51.769,186.141,52.588,186.906,54.053"/>
	<path clip-path="url(#SVGID_2_)" fill="#231F20" d="M73.182,83.863c-1.065-1.745-2.741-3.088-3.304-5.146
		c-0.276,0.257-0.38,1.09-0.007,1.599c1.074,1.461,2.201,2.882,3.319,4.31c0.276,0.354,0.541,0.825,1.105,0.368
		c0.569-0.46,0.215-0.914-0.058-1.299c-0.791-1.111-1.648-2.176-2.436-3.288c-0.393-0.556-0.692-1.177-1.154-1.703
		c-0.15,1.111,0.399,1.876,1.087,2.643c0.642,0.715,1.14,1.559,1.702,2.346C73.351,83.749,73.267,83.805,73.182,83.863"/>
	<path clip-path="url(#SVGID_2_)" fill="#231F20" d="M64.692,78.969c-0.494,0.148-0.861,0.157-1.08,0.343
		c-0.944,0.798-1.854,1.637-2.749,2.49c-0.156,0.147-0.178,0.435-0.262,0.657c0.196-0.014,0.458,0.051,0.579-0.052
		c1.133-0.959,2.243-1.945,3.355-2.928C64.577,79.443,64.576,79.358,64.692,78.969"/>
	<path clip-path="url(#SVGID_2_)" fill="#231F20" d="M48.496,92.951c0.147-0.071,0.294-0.143,0.441-0.212
		c0.467,1.11,0.933,2.224,1.401,3.335c-0.108,0.047-0.217,0.093-0.325,0.14C48.764,95.466,48.963,94.055,48.496,92.951
		 M47.909,93.223c-0.58-1.004-1.059-1.834-1.534-2.655c0.693-0.579,1.307-1.095,1.974-1.652c2.859,5.396,5.667,10.695,8.517,16.074
		c-0.966,0.105-1.888,0.81-2.624-0.32c-0.608-0.934-1.263-1.839-1.837-2.793c-0.918-1.521-1.786-3.075-2.515-4.336
		c0.48-0.402,1.075-0.729,1.033-0.892c-0.316-1.224-0.673-2.452-1.193-3.601c-0.298-0.657-0.925-1.165-1.571-1.94
		C48.065,91.891,48,92.454,47.909,93.223 M50.194,86.522c-0.162-0.005-0.391-0.08-0.474-0.001c-1.182,1.126-2.283,2.345-3.535,3.384
		c-0.647,0.537-0.561,0.937-0.235,1.501c1.448,2.502,2.888,5.01,4.344,7.508c1.385,2.375,2.778,4.746,4.199,7.101
		c0.111,0.185,0.672,0.324,0.681,0.309c0.448-0.871,1.354-0.51,2.021-0.751c0.609-0.22,1.281-0.258,1.9-0.454
		c1.915-0.606,2.377-1.887,1.339-3.571c-1.173-1.901-2.294-3.836-3.504-5.712c-1.892-2.935-3.829-5.842-5.785-8.735
		c-0.193-0.284-0.646-0.393-0.978-0.584c0.602,0.899,1.21,1.793,1.803,2.697c0.813,1.238,1.628,2.476,2.416,3.729
		c1.86,2.961,3.732,5.917,5.532,8.915c0.327,0.544,0.732,1.316,0.095,1.922c-0.438,0.416-1.027,0.688-1.579,0.964
		c-0.51,0.253-0.989,0.203-1.285-0.384c-0.276-0.546-0.555-1.091-0.848-1.627c-1.537-2.821-3.1-5.628-4.611-8.462
		c-1.015-1.902-1.958-3.843-2.934-5.769C49.209,87.878,49.702,87.2,50.194,86.522"/>
	<path clip-path="url(#SVGID_2_)" fill="#231F20" d="M42.696,111.102c-2.41-4.174-4.798-8.311-7.205-12.479
		c0.321-0.232,0.644-0.468,1.023-0.743c0.632,1.094,1.202,2.08,1.77,3.065c-0.276,0.027-0.521,0.046-0.763,0.089
		c-0.01,0.001-0.017,0.306,0.034,0.326c0.35,0.145,0.715,0.251,1.204,0.411c1.514,2.819,3.109,5.787,4.717,8.782
		C43.155,110.779,42.921,110.943,42.696,111.102 M35.103,98.83c0.343,0.521,0.658,0.928,0.9,1.373
		c1.851,3.408,3.602,6.875,5.576,10.21c0.69,1.164,0.128,1.14-0.716,1.328c-2.289-3.965-4.573-7.921-6.869-11.896
		C34.32,99.546,34.7,99.199,35.103,98.83 M44.36,111.027c-2.643-4.852-5.12-9.399-7.645-14.032c-1.168,0.877-2.105,1.601-3.065,2.29
		c-0.491,0.354-0.49,0.734-0.185,1.185c0.698,1.028,1.454,2.022,2.086,3.091c1.116,1.889,2.168,3.816,3.225,5.741
		c0.495,0.902,0.92,1.844,1.422,2.742c0.074,0.131,0.427,0.212,0.602,0.158C41.933,111.854,43.053,111.464,44.36,111.027"/>
	<path clip-path="url(#SVGID_2_)" fill="#231F20" d="M25.081,105.903c0.082-0.041,0.165-0.082,0.248-0.123
		c0.542,0.698,1.145,1.358,1.615,2.103c1.025,1.624,1.978,3.294,2.97,4.938c0.27,0.448,0.606,0.859,0.844,1.323
		c0.107,0.208,0.048,0.502,0.064,0.757c-0.23-0.103-0.548-0.142-0.674-0.318c-0.889-1.236-1.752-2.493-2.595-3.764
		c-0.352-0.532-0.644-1.105-0.943-1.672c-0.336-0.637-0.66-1.282-0.97-1.933C25.436,106.786,25.266,106.341,25.081,105.903
		 M26.779,103.929c0.813,1.562,1.58,3.149,2.452,4.679c0.751,1.316,1.64,2.552,2.425,3.849c0.268,0.443,0.476,0.953,0.57,1.458
		c0.053,0.282-0.185,0.618-0.357,1.123c-2.192-3.549-4.224-6.841-6.266-10.146c0.091-0.242,0.214-0.569,0.338-0.897
		c-0.065-0.026-0.131-0.055-0.197-0.082c-0.337,0.285-0.675,0.571-1.14,0.965c0.032,0.488,0.07,1.165,0.128,1.842
		c0.012,0.146,0.054,0.341,0.156,0.424c0.954,0.776,1.378,1.803,1.469,2.999c0.009,0.117,0.047,0.281,0.129,0.335
		c1.48,0.971,2.052,2.614,2.958,4.003c0.714,1.095,2.22,1.365,3.218,0.465c0.175-0.158,0.279-0.616,0.181-0.822
		c-0.651-1.356-1.336-2.699-2.066-4.016c-1.102-1.986-2.247-3.948-3.379-5.917c-0.088-0.153-0.223-0.279-0.335-0.418
		C26.968,103.824,26.873,103.875,26.779,103.929"/>
	<path clip-path="url(#SVGID_2_)" fill="#231F20" d="M52.123,77.257c-0.161,0.122-0.414,0.214-0.468,0.372
		c-0.31,0.902-0.635,1.808-0.832,2.738c-0.201,0.948-0.008,1.82,0.616,2.656c1.785,2.39,3.496,4.832,5.225,7.262
		c2.187,3.074,4.366,6.152,6.539,9.235c0.882,1.252,1.741,2.521,2.603,3.788c0.654,0.96,2.761,1.501,3.722,0.919
		c0.126-0.077,0.152-0.318,0.224-0.482c-0.193-0.06-0.401-0.196-0.576-0.163c-1.092,0.207-2.156,0.358-2.984-0.638
		c-0.104-0.126-0.21-0.252-0.305-0.385c-2.235-3.125-4.488-6.235-6.695-9.378c-2.127-3.03-4.205-6.093-6.308-9.138
		c-0.279-0.404-0.564-0.809-0.884-1.18c-0.886-1.024-0.815-2.128-0.362-3.304c0.268-0.695,0.456-1.422,0.68-2.135
		C52.252,77.369,52.188,77.313,52.123,77.257"/>
	<path clip-path="url(#SVGID_2_)" fill="#231F20" d="M45.837,98.471c-0.204,0.093-0.429,0.158-0.61,0.285
		c-0.769,0.539-1.506,1.124-2.291,1.637c-0.506,0.332-1.063,0.379-1.511-0.147c-0.762-0.896-1.572-1.763-2.219-2.736
		c-0.146-0.219,0.21-0.906,0.496-1.242c0.439-0.516,1.031-0.897,1.533-1.364c0.472-0.438,0.911-0.914,1.384-1.393
		c1.135,1.553,2.297,3.144,3.608,4.937c0.036-0.381,0.136-0.626,0.058-0.783c-0.201-0.408-0.481-0.777-0.728-1.164
		c-0.537-0.838-1.06-1.685-1.615-2.51c-0.39-0.579-0.825-1.128-1.125-1.535c-0.934,0.943-1.763,1.795-2.608,2.631
		c-0.575,0.569-1.189,1.102-1.746,1.688c-0.112,0.117-0.141,0.482-0.045,0.6c1.003,1.236,2.004,2.48,3.097,3.634
		c0.221,0.232,0.933,0.276,1.243,0.101c1.148-0.656,2.222-1.441,3.324-2.177C46,98.778,45.919,98.625,45.837,98.471"/>
	<path clip-path="url(#SVGID_2_)" fill="#231F20" d="M33.074,106.324c-0.58,0.016-1.053,1.17-1.585-0.064
		c-0.434-1.006-0.934-1.985-1.448-2.955c-0.614-1.157-0.526-1.59,0.712-2.486c0.909,1.573,1.809,3.133,2.747,4.758
		c-0.266,0.001-0.463,0.002-0.681,0.003C32.909,105.841,32.978,106.043,33.074,106.324 M34.025,105.481
		c-0.756-1.31-1.531-2.728-2.388-4.095c-0.283-0.45-0.779-0.768-1.171-1.14c-1.797,1.425-1.807,1.605-0.512,4.025
		c0.413,0.771,0.721,1.598,1.139,2.364c0.166,0.304,0.642,0.774,0.743,0.722c0.605-0.316,1.157-0.743,1.694-1.175
		C33.732,106.02,33.844,105.746,34.025,105.481"/>
	<path clip-path="url(#SVGID_2_)" fill="#231F20" d="M7.962,113.767c-0.235-0.946-0.873-0.34-1.308-0.276
		c-0.142,0.021-0.381,0.593-0.294,0.782c0.699,1.509,1.454,2.992,2.217,4.471c0.353,0.683,0.764,1.336,1.137,1.98
		c0.746-0.1,1.405-0.188,2.228-0.298c-0.569-0.985-1.087-1.847-1.57-2.728c-0.571-1.041-1.092-2.11-1.679-3.142
		c-0.176-0.309-0.499-0.532-0.756-0.797c1.031,2.049,2.063,4.099,3.077,6.108c-0.903,0.421-1.301-0.008-1.643-0.726
		c-0.294-0.616-0.775-1.144-1.088-1.755c-0.556-1.084-1.046-2.2-1.622-3.43C7.264,113.87,7.613,113.819,7.962,113.767"/>
	<path clip-path="url(#SVGID_2_)" fill="#231F20" d="M16.149,109.173c0.235,0.623,0.414,1.274,0.717,1.862
		c0.931,1.812,1.924,3.592,2.862,5.4c0.207,0.397,0.253,0.879,0.442,1.289c0.07,0.148,0.342,0.205,0.521,0.303
		c0.049-0.188,0.187-0.415,0.128-0.557c-0.172-0.406-0.445-0.769-0.642-1.166c-1.102-2.229-2.191-4.463-3.292-6.692
		c-0.104-0.21-0.265-0.391-0.399-0.585C16.373,109.077,16.261,109.125,16.149,109.173"/>
	<path clip-path="url(#SVGID_2_)" fill="#231F20" d="M20.294,118.976c-0.117-0.295-0.193-0.613-0.359-0.876
		c-0.371-0.584-0.832-1.113-1.177-1.712c-0.915-1.591-1.726-3.244-2.702-4.795c-0.534-0.849-1.035-1.591-0.319-2.604
		c-0.952,0.2-1.142,1.17-0.536,2.153c0.518,0.838,1.049,1.67,1.54,2.523c0.9,1.566,1.769,3.149,2.667,4.716
		c0.153,0.269,0.385,0.489,0.581,0.732C20.091,119.068,20.192,119.022,20.294,118.976"/>
	<path clip-path="url(#SVGID_2_)" fill="#231F20" d="M14.021,111.401c-0.258,0.194-0.229,0.316,0.578,2.349
		c-0.642-0.044-1.304,0.106-1.662-0.156c-0.65-0.477-0.602-1.219-0.003-1.881c-0.066-0.072-0.133-0.143-0.2-0.214
		c-0.242,0.14-0.6,0.221-0.708,0.43c-0.457,0.895,0.599,2.442,1.604,2.41c1.473-0.046,1.662-0.357,1.005-1.602
		C14.406,112.305,14.226,111.85,14.021,111.401"/>
	<path clip-path="url(#SVGID_2_)" fill="#231F20" d="M4.704,115.674c0.312,0.606,0.623,1.214,0.948,1.847
		C4.604,117.637,4.325,117.162,4.704,115.674 M4.933,115.081c-0.572,0.2-1.234,0.184-1.085,1.091
		c0.232,1.417,0.737,2.134,1.597,2.119c0.635-0.011,0.745-0.387,0.602-0.9c-0.096-0.346-0.216-0.69-0.374-1.013
		C5.471,115.965,5.219,115.577,4.933,115.081"/>
	<path clip-path="url(#SVGID_2_)" fill="#231F20" d="M72.156,109.75c0.456-0.142,0.912-0.284,1.368-0.426
		c0.023-0.106,0.047-0.212,0.071-0.319c-0.344-0.152-0.722-0.473-1.021-0.412c-0.276,0.058-0.468,0.523-0.697,0.81
		C71.97,109.519,72.063,109.634,72.156,109.75"/>
	<path clip-path="url(#SVGID_2_)" fill="#231F20" d="M95.043,64.817c-0.897-1.356-0.761-1.706,0.703-1.84
		c0.22-0.021,0.501,0.168,0.685,0.336c0.26,0.237,0.479,0.53,0.678,0.825c1,1.483,2.018,2.955,2.965,4.473
		c0.342,0.547,0.457,1.164-0.422,1.474c-1.078,0.38-1.969,0.212-2.296-0.476C96.594,68.007,95.815,66.414,95.043,64.817
		 M96.412,62.342c-0.825,0.156-1.561,0.284-2.292,0.437c-0.801,0.167-0.916,0.551-0.481,1.262c0.979,1.602,1.892,3.242,2.83,4.867
		c0.066,0.114,0.132,0.23,0.174,0.354c0.215,0.625,0.184,1.592,0.988,1.613c0.94,0.027,1.941-0.224,2.82-0.587
		c0.691-0.285,0.652-1.351,0.007-2.274C99.122,66.107,97.755,64.221,96.412,62.342"/>
	<path clip-path="url(#SVGID_2_)" fill="#231F20" d="M102.156,59.172c1.284,1.865,2.593,3.711,3.835,5.599
		c0.606,0.922,0.432,1.397-0.577,1.86c-0.712,0.326-1.396,0.365-1.85-0.474c-0.137-0.256-0.377-0.452-0.541-0.696
		c-1.165-1.746-2.321-3.497-3.657-5.515C100.502,59.632,101.293,59.413,102.156,59.172 M99.965,62.147
		c1.254,1.709,2.472,3.446,3.799,5.097c0.207,0.259,0.916,0.217,1.37,0.157c1.667-0.219,2.255-1.514,1.318-2.894
		c-1.199-1.769-2.489-3.475-3.64-5.272c-0.581-0.908-1.452-0.605-1.987-0.416c-1.839,0.65-2.131,0.644-1.13,2.672
		c0.1,0.203,0.263,0.376,0.398,0.563C100.05,62.084,100.008,62.117,99.965,62.147"/>
	<path clip-path="url(#SVGID_2_)" fill="#231F20" d="M180.666,73.517c-0.773-1.339-1.545-2.677-2.368-4.101
		c-1.57,0.906-3.107,1.934-4.762,2.711c-1.709,0.803-1.759,0.556-1.175,2.604c0.25,0.879,0.734,1.694,0.958,2.577
		c0.227,0.903,0.691,0.832,1.261,0.459c1.158-0.759,2.27-1.588,3.434-2.338c0.491-0.317,1.086-0.472,1.591-0.771
		c0.223-0.132,0.34-0.44,0.504-0.67c-0.287,0.001-0.637-0.105-0.852,0.02c-1.42,0.83-2.809,1.712-4.214,2.567
		c-0.272,0.164-0.568,0.286-0.973,0.488c-0.383-1.154-0.757-2.198-1.053-3.264c-0.045-0.164,0.22-0.509,0.424-0.63
		c1.277-0.76,2.592-1.462,3.869-2.223c0.631-0.376,1.017-0.263,1.336,0.393c0.289,0.593,0.62,1.174,0.998,1.714
		c0.192,0.274,0.53,0.446,0.803,0.664C180.519,73.651,180.592,73.583,180.666,73.517"/>
	<path clip-path="url(#SVGID_2_)" fill="#231F20" d="M114.335,49.269c0.548,0.948,1.052,1.901,1.632,2.806
		c0.737,1.149,1.6,2.224,2.284,3.402c0.339,0.586,0.642,1.362-0.139,1.942c-0.626,0.467-1.864,0.356-2.25-0.246
		c-0.335-0.521-0.582-1.105-0.821-1.682c-0.597-1.436-1.1-2.914-1.769-4.314C112.631,49.835,112.792,49.466,114.335,49.269
		 M113.292,52.634c0.607,1.472,1.218,3.063,1.919,4.609c0.483,1.066,2.045,1.465,3.142,0.896c0.998-0.518,1.251-1.58,0.55-2.783
		c-0.66-1.136-1.431-2.205-2.143-3.312c-0.525-0.814-1.01-1.656-1.561-2.451c-0.292-0.42-0.761-1.127-1.025-1.075
		c-0.704,0.139-1.441,0.516-1.96,1.013c-0.221,0.213-0.014,0.992,0.154,1.457C112.567,51.536,112.937,52.021,113.292,52.634"/>
	<path clip-path="url(#SVGID_2_)" fill="#231F20" d="M73.101,76.676c-0.183,1.561,2.262,5.49,3.642,6.096
		c0.012-0.386,0.143-0.774,0.013-1.034c-0.811-1.622-1.673-3.219-2.542-4.81c-0.056-0.104-0.31-0.097-0.471-0.143
		c0.01,0.178-0.038,0.387,0.039,0.526c0.539,0.973,1.103,1.932,1.659,2.896c-0.074,0.046-0.148,0.092-0.222,0.137
		C74.555,79.195,73.892,78.045,73.101,76.676"/>
	<path clip-path="url(#SVGID_2_)" fill="#231F20" d="M51.537,90.939c0.064-0.037,0.127-0.075,0.191-0.113
		c0.636,0.976,1.272,1.951,1.908,2.926c-0.118,0.07-0.236,0.14-0.354,0.21C52.7,92.954,52.119,91.947,51.537,90.939 M50.867,89.926
		c-0.251,1.886,0.953,3.024,1.774,4.313c0.267,0.418,0.809,0.763,1.22,0.322c0.249-0.267,0.349-0.981,0.166-1.289
		c-0.649-1.097-1.419-2.127-2.214-3.127C51.656,89.949,51.19,89.994,50.867,89.926"/>
	<path clip-path="url(#SVGID_2_)" fill="#231F20" d="M34.909,100.768c0.501,0.867,1.001,1.733,1.502,2.601
		c0.085-0.05,0.169-0.1,0.254-0.149c-0.507-0.878-1.013-1.756-1.52-2.634C35.066,100.647,34.988,100.707,34.909,100.768"/>
</g>
</svg>
