<?xml version="1.0" encoding="utf-8"?>
<!-- Generator: Adobe Illustrator 16.0.0, SVG Export Plug-In . SVG Version: 6.00 Build 0)  -->
<!DOCTYPE svg PUBLIC "-//W3C//DTD SVG 1.1//EN" "http://www.w3.org/Graphics/SVG/1.1/DTD/svg11.dtd">
<svg version="1.1" id="Layer_1" xmlns="http://www.w3.org/2000/svg" xmlns:xlink="http://www.w3.org/1999/xlink" x="0px" y="0px"
	 width="42.592px" height="67.888px" viewBox="0 0 42.592 67.888" enable-background="new 0 0 42.592 67.888" xml:space="preserve">
<g>
	<defs>
		<rect id="SVGID_1_" y="0.001" width="42.592" height="67.887"/>
	</defs>
	<clipPath id="SVGID_2_">
		<use xlink:href="#SVGID_1_"  overflow="visible"/>
	</clipPath>
	<path clip-path="url(#SVGID_2_)" fill="#231F20" d="M39.852,2.785c-0.273,0.444-0.546,0.486-0.879,0.209
		c-0.087-0.071-0.225-0.092-0.342-0.118c-1.096-0.251-2.191-0.511-3.291-0.744c-0.989-0.21-1.917-0.629-2.942-0.732
		c-1.171-0.118-2.331-0.351-3.493-0.554c-1.68-0.292-3.365-0.463-5.074-0.356c-2.079,0.129-4.158,0.252-6.238,0.361
		c-1.635,0.086-3.22,0.449-4.774,0.915c-2.581,0.775-5.145,1.607-7.704,2.453C4.248,4.505,3.421,4.905,2.61,5.239
		c0.068,0.192,0.114,0.322,0.185,0.523c-0.578-0.312-1.161-0.13-1.478,0.344C0.837,6.822,0.681,7.609,0.669,8.46
		c-0.021,1.48-0.103,2.961-0.138,4.441C0.51,13.801,0.516,14.7,0.535,15.6c0.02,0.999,0.07,1.998,0.1,2.997
		c0.014,0.446,0.242,0.765,0.577,1.027c0.736,0.575,1.531,0.993,2.49,1.074c0.887,0.074,1.769,0.211,2.654,0.313
		c0.204,0.022,0.414-0.007,0.618,0.017c1.225,0.141,2.448,0.323,3.676,0.425c0.994,0.082,1.995,0.083,2.994,0.098
		c1.066,0.015,2.134-0.005,3.201,0.006c0.631,0.006,1.238,0.069,1.895-0.035c1.381-0.218,2.804-0.156,4.206-0.256
		c0.889-0.063,1.774-0.207,2.66-0.322c1.194-0.156,2.389-0.311,3.58-0.482c0.762-0.11,1.541-0.181,2.276-0.396
		c1.104-0.321,2.233-0.245,3.351-0.359c0.303-0.032,0.614-0.006,0.911-0.06c0.813-0.148,1.617-0.347,2.431-0.489
		c1.027-0.179,2.082-0.25,2.982-0.885c0.135-1.047,0.279-2.116,0.409-3.188c0.137-1.135,0.194-2.283,0.399-3.404
		c0.375-2.047,0.289-4.104,0.221-6.158c-0.021-0.633-0.239-1.269-0.785-1.685C40.904,3.474,40.394,3.154,39.852,2.785
		 M40.328,19.167c-1.461,0.262-2.99,0.52-4.514,0.816c-0.793,0.154-1.563,0.452-2.359,0.555c-1.603,0.205-3.221,0.287-4.823,0.483
		c-1.494,0.182-2.976,0.47-4.468,0.665c-0.659,0.086-1.334,0.041-2,0.087c-0.786,0.055-1.57,0.157-2.357,0.216
		c-0.649,0.049-1.3,0.063-2.001,0.095c0,1.049-0.017,2.025,0.003,3.002c0.033,1.54,0.102,3.08,0.133,4.62
		c0.015,0.726-0.061,1.455-0.027,2.181c0.059,1.228,0.185,2.453,0.261,3.68c0.053,0.861,0.057,1.726,0.104,2.586
		c0.084,1.529,0.17,3.06,0.28,4.586c0.099,1.369,0.231,2.736,0.35,4.104c0.094,1.091,0.218,2.18,0.278,3.272
		c0.059,1.097,0.063,2.195,0.077,3.293c0.015,1.15,0.028,2.301,0.007,3.45c-0.004,0.245-0.143,0.494-0.247,0.729
		c-0.413,0.938-1.044,1.68-2.048,1.989c-0.832,0.259-1.598,0.027-2.247-0.539c-0.358-0.312-0.678-0.668-0.797-1.144
		c0.035-0.037,0.069-0.074,0.104-0.112c0.245,0.191,0.484,0.392,0.738,0.57c0.34,0.239,0.666,0.528,1.045,0.677
		c0.838,0.33,1.467-0.165,2.082-0.645c0.742-0.581,0.806-1.415,0.83-2.252c0.042-1.458,0.115-2.918,0.071-4.374
		c-0.039-1.308-0.236-2.609-0.331-3.915c-0.089-1.208-0.12-2.42-0.204-3.628c-0.097-1.394-0.232-2.784-0.335-4.176
		c-0.082-1.111-0.157-2.223-0.207-3.334c-0.083-1.85-0.151-3.699-0.211-5.55c-0.043-1.319-0.06-2.641-0.094-3.961
		c-0.011-0.428-0.156-0.89-0.04-1.276c0.301-1-0.026-1.979,0.025-2.966c0.012-0.235,0.033-0.473,0.054-0.747
		c-0.237-0.037-0.442-0.093-0.649-0.099c-1.665-0.049-3.33-0.088-4.995-0.13c-0.777-0.02-1.558,0-2.332-0.066
		c-0.948-0.08-1.89-0.235-2.835-0.353c-1.144-0.141-2.289-0.27-3.432-0.414c-0.367-0.047-0.73-0.127-1.078-0.188
		c0.089,0.861,0.177,1.72,0.265,2.577c0.146,1.419,0.317,2.837,0.431,4.26c0.077,0.963,0.057,1.934,0.114,2.898
		c0.068,1.118,0.18,2.233,0.259,3.351c0.07,0.979,0.095,1.963,0.187,2.94c0.124,1.31,0.301,2.613,0.438,3.921
		c0.091,0.869,0.125,1.745,0.234,2.612c0.255,2.031,0.517,4.062,0.822,6.086c0.139,0.921,0.42,1.819,0.572,2.738
		c0.207,1.248,0.352,2.506,0.522,3.76c0.093,0.688,0.16,1.381,0.278,2.065c0.205,1.2,0.423,2.401,0.67,3.595
		c0.127,0.609,0.338,1.201,0.483,1.807c0.023,0.093-0.099,0.221-0.154,0.333c-0.083-0.061-0.218-0.106-0.24-0.185
		c-0.326-1.137-0.71-2.262-0.929-3.418c-0.254-1.338-0.341-2.706-0.535-4.057c-0.225-1.562-0.486-3.117-0.735-4.675
		c-0.22-1.38-0.459-2.757-0.664-4.139c-0.214-1.437-0.413-2.876-0.589-4.318c-0.194-1.589-0.366-3.181-0.525-4.773
		c-0.195-1.955-0.379-3.91-0.541-5.867c-0.069-0.834-0.048-1.674-0.103-2.509c-0.085-1.288-0.208-2.574-0.298-3.862
		c-0.069-0.987-0.099-1.979-0.168-2.965c-0.05-0.712-0.107-1.426-0.22-2.13c-0.034-0.211-0.224-0.472-0.414-0.571
		c-1.08-0.565-1.258-1.501-1.233-2.601c0.029-1.264-0.083-2.529-0.063-3.792c0.025-1.695,0.117-3.389,0.184-5.082
		c0.02-0.487-0.018-0.992,0.099-1.455c0.192-0.76,0.42-1.548,1.09-2.04c0.363-0.269,0.817-0.417,1.237-0.605
		c0.849-0.381,1.681-0.82,2.56-1.114c1.887-0.629,3.82-1.122,5.694-1.785c1.295-0.459,2.579-0.951,3.929-1.192
		c1.343-0.239,2.702-0.44,4.062-0.51c0.728-0.038,1.46-0.093,2.191-0.119c0.782-0.028,1.563-0.084,2.345-0.093
		c1.362-0.016,2.733-0.097,4.085,0.021c1.566,0.137,3.126,0.405,4.669,0.714c1.585,0.318,3.144,0.761,4.718,1.137
		c0.777,0.187,1.563,0.348,2.344,0.521c0.369,0.082,0.746,0.143,1.105,0.257c1.266,0.402,2.119,1.205,2.227,2.577
		c0.078,0.996,0.043,2.002,0.043,3.003c0.002,0.677,0.018,1.357-0.043,2.03c-0.104,1.198-0.268,2.391-0.397,3.586
		c-0.147,1.354-0.31,2.71-0.407,4.068c-0.027,0.368-0.142,0.646-0.418,0.794c-0.488,0.258-0.5,0.69-0.511,1.126
		c-0.015,0.598,0.056,1.199,0.009,1.793c-0.08,0.978-0.074,1.938,0.137,2.902c0.06,0.27-0.053,0.572-0.059,0.86
		c-0.014,0.658,0.028,1.319-0.02,1.973c-0.094,1.275-0.234,2.546-0.35,3.819c-0.16,1.761-0.316,3.523-0.47,5.284
		c-0.185,2.148-0.353,4.299-0.55,6.446c-0.161,1.735-0.365,3.467-0.534,5.201c-0.087,0.898-0.144,1.801-0.202,2.7
		c-0.068,1.058-0.072,2.121-0.199,3.171c-0.123,1.02-0.369,2.023-0.558,3.034c-0.075,0.398-0.118,0.802-0.214,1.194
		c-0.24,0.979-0.484,1.958-0.758,2.928c-0.438,1.551-1.225,2.898-2.508,3.898c-0.381,0.297-0.961,0.358-1.297,0.687
		c-0.469,0.457-1.043,0.625-1.604,0.812c-0.799,0.265-1.633,0.421-2.456,0.61c-0.67,0.155-1.339,0.35-2.019,0.422
		c-1.275,0.137-2.559,0.261-3.838,0.271c-1.437,0.012-2.893,0.015-4.307-0.199c-2.142-0.323-4.324-0.408-6.423-1.022
		c-0.943-0.275-1.935-0.4-2.859-0.724c-0.777-0.271-1.569-0.606-2.077-1.337c-0.069-0.1-0.176-0.185-0.209-0.294
		c-0.028-0.096-0.013-0.262,0.05-0.311c0.063-0.051,0.256-0.037,0.311,0.022c1.367,1.469,3.175,1.875,5.053,2.13
		c0.571,0.077,1.136,0.203,1.705,0.303c0.487,0.087,0.973,0.176,1.462,0.245c1.097,0.157,2.196,0.306,3.294,0.452
		c0.332,0.044,0.667,0.1,1,0.102c1.734,0.01,3.478,0.118,5.199-0.031c1.533-0.134,3.045-0.534,4.555-0.869
		c0.867-0.192,1.738-0.417,2.557-0.752c2.167-0.886,3.486-2.537,4.008-4.802c0.489-2.13,0.939-4.27,1.366-6.413
		c0.118-0.591,0.071-1.214,0.122-1.82c0.103-1.229,0.23-2.458,0.328-3.688c0.066-0.829,0.084-1.662,0.158-2.491
		c0.074-0.861,0.213-1.718,0.28-2.58c0.089-1.119,0.124-2.242,0.198-3.361c0.046-0.687,0.122-1.372,0.184-2.057
		c0.109-1.198,0.211-2.397,0.328-3.595c0.146-1.487,0.327-2.972,0.449-4.46c0.1-1.225,0.134-2.454,0.201-3.682
		c0.019-0.35,0.078-0.698,0.076-1.047c-0.004-0.518-0.068-1.036-0.066-1.554c0.004-0.836,0.05-1.672,0.063-2.509
		C40.338,20.752,40.328,19.962,40.328,19.167"/>
	<path clip-path="url(#SVGID_2_)" fill="#231F20" d="M37.433,55.704c0.06,0.381-0.156,0.762-0.451,0.836
		c-0.753,0.188-1.39-0.342-1.794-1.575c-0.182,0.392-0.359,0.698-0.467,1.026c-0.242,0.749-0.635,1.379-1.324,1.781
		c-0.189,0.111-0.417,0.193-0.635,0.215c-0.512,0.052-1.03,0.058-1.557,0.009c0.248-0.432,0.661-0.397,1.021-0.427
		c0.911-0.071,1.638-0.629,1.937-1.5c0.243-0.716,0.619-1.399,0.768-2.132c0.223-1.096,0.332-2.219,0.424-3.335
		c0.093-1.139,0.107-2.284,0.152-3.427c0.045-1.119,0.107-2.238,0.119-3.358c0.006-0.877-0.078-1.755-0.078-2.632
		c0.002-1.136,0.02-2.273,0.084-3.408c0.101-1.758,0.225-3.516,0.383-5.27c0.078-0.876,0.253-1.744,0.39-2.614
		c0.201-1.275,0.414-2.549,0.61-3.825c0.15-0.989,0.316-1.979,0.412-2.975c0.06-0.615-0.021-1.242,0.002-1.862
		c0.006-0.185,0.146-0.365,0.224-0.548c0.056,0.014,0.11,0.028,0.167,0.041c0.012,0.108,0.04,0.216,0.034,0.323
		c-0.091,1.519-0.144,3.043-0.296,4.557c-0.123,1.232-0.379,2.451-0.551,3.681c-0.225,1.578-0.441,3.158-0.629,4.742
		c-0.111,0.945-0.186,1.896-0.23,2.846c-0.035,0.757,0.003,1.518,0.005,2.277c0.003,1.058,0.003,2.114,0.006,3.172
		c0.002,0.634,0.022,1.268,0.009,1.901c-0.011,0.591-0.059,1.182-0.082,1.773c-0.033,0.771-0.057,1.544-0.082,2.316
		c-0.033,0.974-0.033,1.949-0.104,2.92c-0.048,0.659-0.18,1.313-0.295,1.966c-0.139,0.787-0.176,1.563,0.311,2.25
		c0.151,0.217,0.398,0.371,0.617,0.533c0.305,0.225,0.484-0.054,0.698-0.193C37.287,55.751,37.359,55.733,37.433,55.704"/>
	<path clip-path="url(#SVGID_2_)" fill="#231F20" d="M18.921,59.139c0.219,0.235,0.399,0.442,0.594,0.634
		c0.244,0.241,0.47,0.65,0.836,0.117c0.031-0.046,0.204-0.048,0.273-0.007c0.792,0.478,1.667,0.637,2.563,0.577
		c0.953-0.064,1.514-0.553,1.637-1.703c0.151-1.414,0.207-2.829,0.113-4.254c-0.053-0.804,0.053-1.615,0.069-2.423
		c0.006-0.271-0.073-0.545-0.062-0.814c0.043-1.077,0.131-2.152,0.153-3.229c0.017-0.863-0.039-1.729-0.057-2.595
		c-0.013-0.602-0.007-1.205-0.031-1.807c-0.049-1.207-0.135-2.414-0.168-3.622c-0.03-1.108,0.024-2.219-0.022-3.325
		c-0.053-1.261-0.213-2.517-0.254-3.777c-0.039-1.21-0.031-2.426,0.035-3.636c0.072-1.334,0.002-2.648-0.201-3.969
		c-0.101-0.648-0.047-1.32-0.061-1.982c-0.004-0.181-0.004-0.363,0.006-0.545c0.004-0.073,0.039-0.145,0.059-0.217
		c0.08,0.05,0.192,0.083,0.228,0.155c0.051,0.104,0.052,0.237,0.063,0.358c0.133,1.441,0.287,2.882,0.385,4.325
		c0.044,0.657-0.024,1.322-0.039,1.983c-0.014,0.646-0.055,1.295-0.031,1.94c0.033,0.956,0.13,1.91,0.167,2.866
		c0.054,1.393,0.067,2.786,0.116,4.178c0.068,1.977,0.164,3.952,0.224,5.929c0.038,1.265,0.06,2.532,0.039,3.797
		c-0.019,1.121-0.147,2.241-0.149,3.363c-0.004,1.201,0.097,2.403,0.119,3.605c0.015,0.767-0.025,1.533-0.053,2.299
		c-0.014,0.412,0.014,0.843-0.092,1.231c-0.157,0.576-0.355,1.159-0.657,1.668c-0.151,0.256-0.549,0.412-0.866,0.518
		c-0.981,0.328-1.936,0.083-2.89-0.195c-0.287-0.084-0.611-0.085-0.914-0.064C19.454,60.563,18.705,59.759,18.921,59.139"/>
	<path clip-path="url(#SVGID_2_)" fill="#231F20" d="M8.922,57.914c0.324,0.405,0.579,0.891,0.976,1.188
		c0.716,0.535,1.578,0.71,2.458,0.477c0.24-0.063,0.516-0.32,0.606-0.556c0.172-0.445,0.272-0.933,0.31-1.411
		c0.07-0.885,0.123-1.775,0.093-2.661c-0.046-1.376-0.178-2.748-0.253-4.123c-0.051-0.938-0.041-1.88-0.103-2.816
		c-0.074-1.126-0.2-2.248-0.293-3.373c-0.062-0.752-0.083-1.509-0.164-2.259c-0.129-1.204-0.283-2.405-0.443-3.606
		c-0.139-1.039-0.308-2.074-0.452-3.113c-0.193-1.392-0.388-2.783-0.558-4.179c-0.177-1.461-0.308-2.928-0.497-4.387
		c-0.102-0.789-0.107-1.545,0.073-2.337c0.159-0.698,0.098-1.445,0.135-2.171c0.004-0.068,0.018-0.138,0.029-0.228
		c0.535,0.257,0.282,0.706,0.262,1.035c-0.062,1.041-0.103,2.074-0.079,3.122c0.032,1.408,0.269,2.774,0.486,4.152
		c0.102,0.645,0.109,1.304,0.201,1.95c0.188,1.32,0.417,2.635,0.604,3.954c0.158,1.112,0.279,2.229,0.423,3.344
		c0.115,0.892,0.269,1.78,0.352,2.676c0.103,1.096,0.142,2.198,0.227,3.296c0.026,0.338,0.133,0.67,0.161,1.008
		c0.045,0.541,0.055,1.085,0.08,1.628c0.033,0.702,0.065,1.405,0.102,2.107c0.06,1.158,0.135,2.315,0.183,3.474
		c0.027,0.674,0.04,1.351,0.011,2.023c-0.035,0.804-0.061,1.614-0.198,2.404c-0.261,1.514-1.009,1.818-2.448,1.571
		c-0.455-0.079-0.893-0.271-1.328-0.442c-0.65-0.252-0.835-0.879-1.083-1.438C8.756,58.137,8.897,57.97,8.922,57.914"/>
	<path clip-path="url(#SVGID_2_)" fill="#231F20" d="M26.709,58.248c0.124,0.829,0.148,0.727,0.945,0.909
		c0.791,0.184,1.381-0.182,2.033-0.422c0.108-0.04,0.215-0.184,0.254-0.303c0.164-0.497,0.295-1.005,0.451-1.505
		c0.631-2.027,0.262-4.122,0.428-6.181c0.095-1.191,0.182-2.384,0.246-3.576c0.068-1.305,0.145-2.609,0.148-3.914
		c0.004-1.622-0.088-3.245-0.089-4.867c-0.001-0.8,0.146-1.599,0.159-2.4c0.027-1.638,0.023-3.276,0.008-4.916
		c-0.011-1.195-0.1-2.392-0.083-3.587c0.024-1.683,0.112-3.366,0.181-5.049c0.004-0.11,0.066-0.219,0.223-0.339
		c0.041,0.128,0.117,0.257,0.117,0.385c0,0.592-0.023,1.185-0.037,1.776c-0.012,0.623-0.03,1.245-0.031,1.867
		c-0.004,2.09-0.01,4.179,0.002,6.269c0.004,0.676,0.109,1.354,0.078,2.026c-0.044,0.969-0.193,1.931-0.251,2.898
		c-0.041,0.679-0.024,1.361,0.003,2.04c0.039,1.004,0.158,2.007,0.154,3.009c-0.004,1.137-0.129,2.271-0.166,3.408
		c-0.033,1.089-0.002,2.181-0.034,3.27c-0.032,1.066-0.113,2.133-0.163,3.2c-0.014,0.275-0.016,0.556,0.017,0.827
		c0.142,1.142-0.038,2.26-0.247,3.37c-0.123,0.659-0.309,1.31-0.511,1.949c-0.243,0.771-1.287,1.369-2.269,1.329
		c-0.528-0.022-1.062-0.042-1.58-0.131c-0.158-0.028-0.375-0.276-0.391-0.44C26.275,58.835,26.252,58.449,26.709,58.248"/>
	<path clip-path="url(#SVGID_2_)" fill="#231F20" d="M5.09,22.306c0.029,0.417,0.049,0.729,0.073,1.04
		c0.09,1.207,0.171,2.415,0.276,3.62c0.117,1.347,0.228,2.695,0.391,4.037c0.278,2.281,0.601,4.558,0.89,6.838
		c0.145,1.138,0.23,2.284,0.392,3.419c0.178,1.247,0.442,2.483,0.612,3.731c0.142,1.038,0.195,2.088,0.298,3.132
		c0.06,0.616,0.142,1.23,0.211,1.847c0.026,0.232,0.05,0.464,0.064,0.697c0.085,1.423,0.189,2.845,0.241,4.269
		c0.028,0.776-0.035,1.556-0.054,2.334c-0.017,0.732-0.827,1.479-1.564,1.421c-0.099-0.008-0.277-0.128-0.269-0.167
		c0.037-0.19,0.119-0.376,0.205-0.553c0.008-0.015,0.172,0.025,0.248,0.068c0.281,0.159,0.792-0.154,0.82-0.569
		c0.061-0.903,0.123-1.813,0.092-2.715c-0.053-1.532-0.143-3.064-0.281-4.59c-0.129-1.431-0.341-2.853-0.518-4.278
		c-0.19-1.521-0.374-3.041-0.574-4.56c-0.238-1.815-0.489-3.629-0.737-5.441c-0.151-1.101-0.338-2.199-0.451-3.303
		c-0.083-0.812-0.055-1.632-0.11-2.446c-0.107-1.593-0.235-3.186-0.357-4.778c-0.03-0.385-0.089-0.767-0.1-1.151
		c-0.016-0.546-0.003-1.094,0.009-1.64C4.898,22.512,4.977,22.457,5.09,22.306"/>
	<path clip-path="url(#SVGID_2_)" fill="#231F20" d="M14.982,61.094c0.245,0.351,0.168,0.492-0.242,0.641
		c-0.465,0.172-0.933,0.365-1.35,0.629c-0.545,0.343-0.503,0.881,0.031,1.25c0.362,0.25,0.669,0.639,1.064,0.767
		c0.931,0.301,1.898,0.493,2.855,0.708c0.799,0.179,1.6,0.353,2.408,0.478c0.399,0.063,0.819,0.043,1.223,0.003
		c1.238-0.123,2.48-0.228,3.706-0.425c1.25-0.2,2.537-0.249,3.711-0.826c0.892-0.438,1.847-0.758,2.708-1.244
		c0.639-0.361,1.309-0.748,1.619-1.516c0.195-0.484,0.038-0.857-0.211-1.24c-0.324-0.497-0.842-0.709-1.354-0.938
		c-0.129-0.059-0.273-0.197-0.307-0.325c-0.059-0.236,0.102-0.368,0.323-0.267c0.899,0.413,1.758,0.865,1.993,1.973
		c0.149,0.71-0.066,1.338-0.59,1.719c-2.066,1.51-4.334,2.604-6.898,2.977c-1.309,0.189-2.619,0.376-3.935,0.497
		c-1.518,0.141-3.014-0.099-4.5-0.4c-0.594-0.121-1.194-0.211-1.787-0.335c-1.132-0.237-2.112-0.724-2.783-1.717
		c-0.314-0.465-0.089-1.356,0.414-1.609c0.308-0.155,0.591-0.366,0.907-0.501C14.29,61.262,14.62,61.199,14.982,61.094"/>
	<path clip-path="url(#SVGID_2_)" fill="#231F20" d="M15.347,59.702c-0.124,0.091-0.249,0.262-0.371,0.259
		c-0.602-0.013-1.058,0.353-1.58,0.544c-0.338,0.125-0.691,0.222-1.045,0.28c-0.401,0.065-0.716,0.267-1.01,0.517
		c-0.582,0.495-1.196,0.961-1.719,1.512c-0.373,0.395-0.203,0.745,0.346,0.937c0.14,0.048,0.28,0.099,0.447,0.159
		c-0.054,0.103-0.096,0.188-0.144,0.271c-0.053,0.091-0.113,0.177-0.207,0.324c-0.274-0.174-0.572-0.318-0.812-0.529
		c-0.377-0.331-0.412-0.842-0.072-1.198c0.5-0.521,1.02-1.026,1.562-1.505c0.556-0.49,1.219-0.738,1.958-0.884
		c0.54-0.105,1.027-0.46,1.556-0.652c0.328-0.118,0.69-0.141,1.037-0.207C15.312,59.587,15.33,59.644,15.347,59.702"/>
	<path clip-path="url(#SVGID_2_)" fill="#231F20" d="M34.119,60.518c0.615,0.442,0.723,0.98,0.631,1.581
		c-0.123,0.796-0.67,1.286-1.202,1.782c-0.05-0.03-0.101-0.061-0.15-0.092c0.056-0.114,0.099-0.238,0.171-0.339
		c0.211-0.296,0.447-0.575,0.652-0.875c0.245-0.361,0.291-0.741-0.038-1.136c-0.03,0.269-0.054,0.54-0.095,0.808
		c-0.014,0.091-0.07,0.175-0.105,0.263c-0.064-0.068-0.184-0.14-0.182-0.208c0.011-0.42,0.029-0.842,0.087-1.257
		C33.912,60.868,34.033,60.704,34.119,60.518"/>
	<path clip-path="url(#SVGID_2_)" fill="#231F20" d="M24.269,57.847c-0.351,0.402-0.763,0.282-1.106,0.224
		c-0.904-0.157-1.76,0.055-2.62,0.241c-0.252,0.056-0.471,0.271-0.722,0.316c-0.238,0.042-0.63,0.125-0.516-0.354
		C20.927,57.887,22.541,57.484,24.269,57.847"/>
	<path clip-path="url(#SVGID_2_)" fill="#231F20" d="M29.363,57.885c-0.587,0.319-1.113,0.434-1.711,0.308
		c-0.426-0.09-0.876-0.062-1.314-0.103c-0.113-0.01-0.221-0.082-0.332-0.126c0.084-0.085,0.162-0.236,0.256-0.246
		c0.379-0.039,0.763-0.055,1.144-0.044c0.566,0.016,1.13,0.059,1.695,0.097C29.17,57.776,29.236,57.828,29.363,57.885"/>
	<path clip-path="url(#SVGID_2_)" fill="#231F20" d="M19.131,1.953c-0.399,0.018-0.805-0.006-1.195,0.063
		c-0.697,0.121-1.386,0.294-2.077,0.449c-1.323,0.297-2.652,0.57-3.966,0.904c-1.198,0.304-2.381,0.669-3.568,1.019
		c-0.677,0.2-1.362,0.387-2.019,0.642C5.355,5.399,4.407,5.786,3.5,6.247c-0.356,0.18-0.647,0.548-0.881,0.89
		C2.39,7.473,2.604,7.864,3.062,8.209c0.768,0.577,1.662,0.898,2.565,1.12c1.142,0.278,2.317,0.432,3.485,0.582
		c1.045,0.134,2.1,0.203,3.152,0.276c0.768,0.053,1.541,0.04,2.308,0.104c1.563,0.131,3.122,0.301,4.685,0.436
		c0.436,0.038,0.878-0.002,1.315,0.019c1.236,0.056,2.476,0.225,3.704,0.167c2.412-0.116,4.843-0.165,7.193-0.816
		c1.761-0.487,3.513-1.013,5.25-1.577c0.871-0.283,1.791-0.552,2.361-1.363c0.311-0.442,0.592-0.914,0.834-1.396
		c0.061-0.12-0.021-0.432-0.132-0.497c-0.741-0.44-1.446-0.967-2.346-1.085c-0.294-0.039-0.568-0.212-0.859-0.296
		c-0.213-0.063-0.44-0.071-0.657-0.117c-0.099-0.021-0.189-0.076-0.283-0.116c0.049-0.098,0.088-0.272,0.146-0.279
		c0.338-0.037,0.694-0.1,1.02-0.034c1.11,0.224,2.136,0.674,3.104,1.262c0.514,0.311,0.67,0.866,0.428,1.418
		c-0.644,1.458-1.807,2.324-3.248,2.847c-1.293,0.469-2.6,0.898-3.916,1.297c-1.609,0.489-3.25,0.857-4.926,1.042
		c-0.582,0.064-1.171,0.067-1.757,0.098c-1.222,0.063-2.444,0.179-3.667,0.171c-1.056-0.007-2.111-0.157-3.167-0.238
		c-1.716-0.133-3.431-0.271-5.148-0.388c-1.17-0.08-2.344-0.104-3.514-0.193c-1.025-0.079-2.047-0.195-3.066-0.33
		c-0.824-0.107-1.642-0.26-2.46-0.408C5.223,9.864,4.972,9.798,4.757,9.683c-0.784-0.42-1.591-0.813-2.321-1.317
		C1.828,7.946,1.904,7.006,2.465,6.496c0.654-0.594,1.44-0.96,2.213-1.352C4.807,5.08,4.986,5.123,5.125,5.07
		c0.527-0.195,1.038-0.434,1.571-0.612c0.878-0.294,1.793-0.494,2.646-0.849c0.702-0.291,1.44-0.259,2.144-0.443
		c0.59-0.155,1.145-0.457,1.739-0.579c1.105-0.229,2.227-0.373,3.342-0.556c0.075-0.012,0.155-0.026,0.22-0.063
		c0.764-0.429,1.564-0.133,2.347-0.179C19.133,1.844,19.132,1.897,19.131,1.953"/>
</g>
</svg>
