<?xml version="1.0" encoding="utf-8"?>
<!-- Generator: Adobe Illustrator 16.0.0, SVG Export Plug-In . SVG Version: 6.00 Build 0)  -->
<!DOCTYPE svg PUBLIC "-//W3C//DTD SVG 1.1//EN" "http://www.w3.org/Graphics/SVG/1.1/DTD/svg11.dtd">
<svg version="1.1" id="Layer_1" xmlns="http://www.w3.org/2000/svg" xmlns:xlink="http://www.w3.org/1999/xlink" x="0px" y="0px"
	 width="109.793px" height="180.014px" viewBox="0 0 109.793 180.014" enable-background="new 0 0 109.793 180.014"
	 xml:space="preserve">
<g>
	<defs>
		<rect id="SVGID_1_" width="109.793" height="180.014"/>
	</defs>
	<clipPath id="SVGID_2_">
		<use xlink:href="#SVGID_1_"  overflow="visible"/>
	</clipPath>
	<path clip-path="url(#SVGID_2_)" fill="#231F20" d="M109.158,24.945c-0.446,3.27-0.883,6.542-1.428,9.797
		c-0.308,1.843-0.814,3.652-1.236,5.476c-0.112,0.484-0.244,0.963-0.381,1.497c-0.154-0.083-0.281-0.141-0.398-0.215
		c-0.454-0.287-0.889-0.613-1.361-0.864c-1.281-0.681-2.699-0.181-3.311,1.165c0.337,0.049,0.617-0.063,0.89-0.217
		c1.034-0.583,2.32-0.495,3.244,0.219c0.444,0.342,0.635,0.727,0.509,1.339c-0.844,4.087-1.847,8.134-2.873,12.178
		c-0.568,2.245-1.037,4.517-1.523,6.782c-0.805,3.752-1.545,7.518-2.547,11.225c-0.638,2.362-1.252,4.73-1.908,7.086
		c-0.512,1.838-1.076,3.662-1.615,5.493c-0.18,0.609-0.436,1.181-0.818,1.69c-0.199,0.263-0.353,0.519-0.123,0.854
		c0.057,0.082,0.006,0.24-0.005,0.363c-0.032,0.364-0.073,0.728-0.104,1.092c-0.033,0.384,0.005,0.787-0.101,1.149
		c-0.355,1.228-0.757,2.441-1.15,3.658c-0.152,0.471-0.436,0.861-0.813,1.177c-1.45,1.208-2.901,2.414-4.36,3.61
		c-0.188,0.153-0.426,0.246-0.641,0.366c-0.029-0.026-0.061-0.054-0.091-0.081c0.089-0.313,0.164-0.634,0.271-0.942
		c0.936-2.739,1.592-5.556,2.303-8.357c0.203-0.808,0.418-1.62,0.718-2.395c0.767-1.975,1.34-4.009,1.927-6.036
		c0.623-2.154,1.221-4.316,1.775-6.489c0.457-1.796,0.82-3.615,1.251-5.418c0.491-2.055,0.981-4.111,1.522-6.154
		c1.1-4.159,2.047-8.353,2.935-12.562c0.493-2.342,0.864-4.704,1.123-7.083c0.014-0.129,0.019-0.259,0.016-0.388
		c-0.001-0.051-0.036-0.101-0.056-0.151c-0.035-0.003-0.071-0.007-0.105-0.011c-0.041,0.191-0.094,0.38-0.123,0.572
		c-0.58,3.702-1.388,7.36-2.127,11.031c-0.755,3.747-1.717,7.439-2.717,11.126c-0.781,2.878-1.477,5.78-2.21,8.671
		c-0.26,1.024-0.517,2.048-0.78,3.071c-0.141,0.548-0.334,0.685-0.884,0.523c-1.476-0.436-2.952-0.868-4.409-1.359
		c-2.791-0.941-5.582-1.886-8.451-2.576c-1.521-0.365-2.953-0.979-4.354-1.666c-3.515-1.723-7.125-3.227-10.731-4.741
		c-0.713-0.3-1.465-0.523-2.215-0.723c-1.494-0.396-2.888-1.052-4.318-1.618c-2.256-0.893-4.495-1.844-6.787-2.64
		c-1.711-0.596-3.49-1.004-5.247-1.46c-1.561-0.406-3.134-0.763-4.702-1.14c-0.446-0.108-0.443-0.106-0.501-0.581
		c-0.22-1.789-0.552-3.554-1.114-5.269c-0.976-2.981-1.705-6.027-2.449-9.069c-0.022-0.09-0.05-0.179-0.073-0.269
		c-0.195-0.747-0.195-0.747-0.775-1.263c0.211-0.935,0.416-1.892,0.644-2.844c0.424-1.767,0.857-3.53,1.295-5.293
		c0.233-0.941,0.638-1.812,1.082-2.672c0.389-0.756,0.735-1.537,1.048-2.327c0.163-0.411,0.422-0.661,0.83-0.725
		c1.081-0.168,2.166-0.311,3.25-0.456c1.465-0.196,2.928-0.057,4.389,0.057c1.682,0.131,3.362,0.296,5.046,0.403
		c2.468,0.156,4.916,0.456,7.313,1.056c1.834,0.458,3.633,1.048,5.463,1.514c1.904,0.484,3.824,0.909,5.744,1.324
		c2.754,0.595,5.515,1.16,8.207,2.004c2.39,0.749,4.818,1.348,7.25,1.937c3.516,0.852,6.982,1.863,10.306,3.319
		c0.879,0.385,1.793,0.691,2.718,1.044c0.104-0.143,0.207-0.25,0.266-0.378c0.138-0.303,0.08-0.476-0.215-0.646
		c-0.16-0.092-0.338-0.153-0.507-0.227c-2.86-1.258-5.845-2.133-8.86-2.924c-3.082-0.809-6.153-1.665-9.229-2.497
		c-2.541-0.688-5.063-1.457-7.663-1.897c-2.475-0.418-4.863-1.167-7.288-1.78c-2.623-0.662-5.256-1.286-7.893-1.889
		c-1.541-0.353-3.117-0.456-4.694-0.528c-1.612-0.074-3.226-0.125-4.836-0.235c-1.016-0.07-2.023-0.279-3.039-0.337
		c-0.885-0.05-1.779-0.014-2.664,0.052c-1.239,0.092-2.469,0.265-3.658,0.659c-0.565,0.187-1.067-0.013-1.508-0.355
		c-0.41-0.317-0.778-0.688-1.191-1.001c-0.517-0.391-1.061-0.747-1.593-1.119c-0.121-0.084-0.239-0.17-0.396-0.282
		c0.17-0.565,0.343-1.126,0.507-1.691c0.736-2.526,1.443-5.06,2.212-7.576c0.428-1.398,0.963-2.765,1.441-4.149
		c0.272-0.787,0.492-1.595,0.799-2.368c0.354-0.894,0.765-1.766,1.174-2.637c0.402-0.856,0.844-1.693,1.249-2.547
		c1.315-2.777,3.494-4.554,6.379-5.498c0.879-0.288,1.786-0.291,2.694-0.084c2.946,0.672,5.896,1.319,8.838,2.01
		c2.021,0.474,4.023,1.028,6.044,1.506c2.957,0.7,5.927,1.353,8.886,2.049c1.84,0.433,3.67,0.908,5.506,1.365
		c1.869,0.465,3.743,0.917,5.609,1.4c3.755,0.972,7.467,2.076,10.986,3.738c0.638,0.3,1.279,0.603,1.873,0.976
		c1.391,0.872,2.881,1.52,4.402,2.116c1.194,0.468,2.318,1.071,3.307,1.911c1.341,1.14,2.01,2.604,2.065,4.331
		C109.341,23.132,109.279,24.048,109.158,24.945 M102.707,73.95c0.125-0.067,0.293-0.056,0.494-0.089
		c0.363,3.25,0.713,6.374,1.064,9.524c-0.429-0.1-1.531-0.955-2.289-1.743c0.367-0.596,0.74-1.199,1.098-1.78
		c-0.201-0.298-0.408-0.149-0.596-0.125c-0.345,0.045-0.468-0.045-0.52-0.392c-0.057-0.374,0.117-0.689,0.273-1.002
		c0.182-0.36,0.285-0.723,0.146-1.153c-0.429,0.068-0.621,0.564-1.132,0.623c0.019-0.29,0.023-0.541,0.051-0.79
		c0.061-0.553,0.134-1.104,0.197-1.655c0.051-0.435,0.262-0.761,0.627-0.999C102.322,74.238,102.498,74.064,102.707,73.95
		 M104.522,86.835c0.011,3.563-0.001,7.126,0,10.689c0.001,2.764-0.019,5.528,0.025,8.292c0.026,1.631,0.208,3.26,0.231,4.891
		c0.025,1.835-0.035,3.671-0.086,5.506c-0.031,1.169-0.101,2.337-0.179,3.503c-0.136,2.053-0.256,4.108-0.454,6.156
		c-0.113,1.159-0.39,2.303-0.554,3.458c-0.271,1.909-0.521,3.821-0.761,5.734c-0.248,1.975-0.791,3.845-1.893,5.526
		c-1.136,1.731-2.662,3.033-4.5,3.954c-1.033,0.519-2.175,0.616-3.318,0.481c-2.972-0.352-5.957-0.413-8.944-0.439
		c-1.372-0.012-2.744-0.051-4.116-0.072c-0.797-0.015-1.527-0.284-2.242-0.597c-0.466-0.201-0.625-0.492-0.496-0.987
		c0.142-0.533,0.363-1.047,0.577-1.559c0.115-0.275,0.365-0.412,0.664-0.437c0.185-0.016,0.37-0.027,0.556-0.025
		c2.598,0.022,5.195,0.052,7.793,0.069c0.981,0.006,1.973,0.073,2.941-0.04c2.477-0.291,4.702-1.131,6.357-3.14
		c0.979-1.189,1.961-2.366,2.648-3.764c0.706-1.433,1.1-2.945,1.286-4.522c0.151-1.271,0.338-2.536,0.47-3.809
		c0.198-1.898,0.399-3.8,0.532-5.704c0.177-2.554,0.267-5.113,0.441-7.668c0.065-0.939,0.286-1.867,0.399-2.806
		c0.17-1.416,0.348-2.834,0.444-4.257c0.058-0.828-0.003-1.669-0.063-2.5c-0.112-1.535-0.273-3.067-0.395-4.602
		c-0.116-1.461-0.217-2.923-0.3-4.386c-0.019-0.341,0.06-0.688,0.098-1.083c0.437,0.212,0.576,0.633,1.002,0.672
		c0.125-0.322,0.081-0.589-0.155-0.821c-0.645-0.641-0.875-1.444-0.904-2.322c-0.014-0.371-0.006-0.743-0.008-1.114
		c-0.002-0.382-0.057-0.771,0.336-1.041c0.106-0.073,0.168-0.248,0.199-0.388c0.104-0.469,0.354-0.845,0.66-1.203
		c0.467-0.545,0.91-1.11,1.43-1.747C104.434,85.494,104.521,86.164,104.522,86.835 M101.398,82.863
		c-0.011-0.366,0.242-0.487,0.547-0.263c0.52,0.382,1.032,0.774,1.522,1.194c0.366,0.314,0.414,0.707,0.11,1.077
		c-0.535,0.653-1.111,1.273-1.651,1.887c-0.271-0.018-0.378-0.13-0.388-0.354C101.494,85.224,101.434,84.043,101.398,82.863
		 M95.811,88.639c0.012,0.014,0.029,0.025,0.031,0.042c0.145,1.062,0.259,2.127,0.121,3.2c-0.018,0.143-0.057,0.307-0.145,0.412
		c-0.352,0.427-0.716,0.845-1.1,1.24c-0.117,0.12-0.314,0.16-0.491,0.243C94.086,92.75,95.146,89.362,95.811,88.639 M97.846,86.425
		c-0.154,1.186-0.295,2.375-0.471,3.558c-0.088,0.588-0.326,0.977-0.668,1.274c-0.826-1.323-0.217-4.011,1.105-4.865
		C97.824,86.403,97.847,86.415,97.846,86.425 M100.766,86.507c0.01,0.351-0.145,0.626-0.512,0.688
		c-0.277,0.046-0.409,0.22-0.53,0.434c-0.116,0.209-0.22,0.433-0.369,0.618c-0.155,0.193-0.356,0.349-0.547,0.527
		c-0.341-0.215-0.491-0.464-0.549-0.792c-0.125-0.724-0.077-1.445,0.103-2.146c0.094-0.364,0.277-0.736,0.514-1.028
		c0.51-0.629,1.08-1.208,1.625-1.809c0.051,0.013,0.102,0.023,0.152,0.035C100.691,84.192,100.734,85.349,100.766,86.507
		 M97.56,83.602c-0.313,0.313-0.627,0.626-0.955,0.954c-0.214-0.216-0.087-0.41-0.041-0.589c0.233-0.897,0.476-1.792,0.714-2.688
		c0.976-3.652,1.949-7.305,2.926-10.957c0.031-0.12,0.082-0.235,0.139-0.39c0.27,0.357,0.3,0.718,0.191,1.086
		c-0.184,0.622-0.389,1.238-0.584,1.855c-0.033,0.106-0.066,0.212-0.101,0.318c-0.229,0.717-0.228,0.716,0.356,1.186
		c0.054,0.043,0.092,0.105,0.166,0.191c-0.516,0.299-1.266,0.385-1.063,1.3c0.446-0.138,0.878-0.271,1.392-0.43
		c0.049,0.243,0.123,0.464,0.133,0.687c0.025,0.687,0.031,1.373,0.033,2.061c0.006,1.197-0.807,2.216-1.969,2.491
		c-0.211,0.05-0.417,0.118-0.652,0.296c0.262,0.141,0.521,0.283,0.836,0.453c-0.373,0.54-0.733,1.062-1.094,1.584
		c0.024,0.021,0.049,0.044,0.074,0.065c0.286-0.296,0.59-0.577,0.854-0.89c0.695-0.817,0.935-0.851,1.785-0.195
		c0.027,0.022,0.047,0.055,0.092,0.108c-0.416,0.44-0.838,0.88-1.25,1.328c-1.03,1.115-2.057,2.237-3.086,3.354
		c-0.112,0.122-0.235,0.241-0.373,0.332c-0.061,0.041-0.19,0.042-0.248,0.003c-0.057-0.039-0.106-0.171-0.081-0.23
		c0.132-0.324,0.256-0.659,0.442-0.952c0.369-0.578,0.784-1.125,1.168-1.695c0.117-0.175,0.191-0.381,0.285-0.573
		C97.619,83.644,97.589,83.624,97.56,83.602 M79.522,136.316c1.413-4.021,2.862-8.028,4.259-12.053
		c0.631-1.82,1.144-3.683,1.76-5.509c0.762-2.245,1.596-4.467,2.361-6.711c1.07-3.139,2.096-6.294,3.162-9.434
		c0.721-2.122,1.486-4.228,2.217-6.347c0.262-0.76,0.707-1.379,1.301-1.902c0.652-0.575,1.268-1.195,2.041-1.618
		c0.203-0.111,0.324-0.283,0.353-0.531c0.031-0.259,0.212-0.411,0.47-0.354c0.36,0.082,0.608-0.081,0.848-0.3
		c0.201-0.184,0.4-0.37,0.619-0.573c-0.104-0.141-0.176-0.242-0.254-0.339c-0.125-0.158-0.101-0.292,0.027-0.446
		c0.176-0.211,0.329-0.44,0.485-0.667c0.313-0.454,0.973-0.514,1.34-0.098c0.086,0.097,0.106,0.27,0.117,0.411
		c0.118,1.664,0.223,3.329,0.342,4.994c0.204,2.865,0.417,5.731,0.621,8.598c0.149,2.101,0.085,4.194-0.392,6.252
		c-0.347,1.496-0.362,3.012-0.431,4.531c-0.077,1.723-0.19,3.443-0.302,5.165c-0.126,1.942-0.255,3.886-0.408,5.827
		c-0.146,1.864-0.199,3.737-0.602,5.578c-0.663,3.032-2.25,5.479-4.563,7.512c-1.68,1.477-3.652,2.05-5.833,2.074
		c-2.911,0.035-5.825,0.086-8.733-0.104c-0.646-0.042-1.289-0.115-2.051-0.186C78.711,138.774,79.093,137.537,79.522,136.316
		 M85.914,100.124c0.043,0.998-0.5,1.804-1.355,2.425c-1.061,0.77-2.02,1.685-3.254,2.273c-0.021-0.127-0.044-0.25-0.07-0.402
		c0.139-0.161,0.219-0.334,0.286-0.512c0.077-0.206,0.036-0.412-0.147-0.547c-0.363-0.265-0.465-0.641-0.51-1.058
		c-0.02-0.18-0.024-0.394-0.328-0.538c0.025,0.984,0.193,1.877,0.357,2.883c-0.384,0.39-0.749,0.759-1.113,1.13
		c-0.433-0.208-0.522-0.743-1.021-0.929c0.025,0.158,0.031,0.26,0.061,0.354c0.248,0.77,0.117,1.21-0.546,1.687
		c-0.556,0.399-1.139,0.763-1.696,1.161c-1.086,0.772-2.16,1.561-3.24,2.34c-0.088,0.063-0.184,0.111-0.311,0.188
		c-0.054-0.211-0.097-0.384-0.164-0.646c-0.18,0.244-0.326,0.441-0.545,0.738c-0.181-0.558-0.31-0.959-0.439-1.359
		c-0.039,0.007-0.079,0.013-0.118,0.019c-0.017,0.094-0.06,0.19-0.043,0.277c0.069,0.364,0.147,0.726,0.235,1.085
		c0.086,0.341,0.027,0.65-0.258,0.849c-1.09,0.761-2.193,1.501-3.357,2.294c0.058-0.356,0.104-0.643,0.156-0.969
		c-0.289-0.161-0.567-0.317-0.945-0.528c0.072,0.487,0.129,0.851,0.178,1.215c0.048,0.358,0.07,0.711-0.309,0.932
		c-0.387,0.225-0.777,0.361-1.204,0.109c-0.158-0.094-0.316-0.187-0.533-0.315c0.019,0.188,0.034,0.306,0.044,0.425
		c0.037,0.475-0.111,0.895-0.464,1.202c-0.332,0.291-0.701,0.547-1.078,0.779c-0.323,0.199-0.512,0.099-0.614-0.264
		c-0.109-0.382-0.109-0.382-0.309-0.571c-0.148,0.51,0.173,0.942,0.156,1.459c-0.725,0.4-1.493,0.758-2.305,1.005
		c-0.438,0.133-0.695-0.103-0.787-0.614c-0.117-0.656-0.24-1.312-0.367-1.966c-0.03-0.155-0.092-0.303-0.178-0.446
		c-0.225,1.198,0.063,2.35,0.27,3.503c-0.59,0.398-0.637,0.37-1.83-0.449v0.838c-0.717,0.58-1.357-0.093-2.012-0.368
		c-0.353,0.226-0.672,0.496-1.144,0.463c-0.486-0.033-0.655-0.124-0.806-0.594c-0.261-0.812-0.506-1.627-0.769-2.438
		c-0.091-0.282-0.199-0.559-0.321-0.829c-0.037-0.081-0.143-0.131-0.239-0.214c-0.251,0.421-0.255,0.795-0.08,1.201
		c0.382,0.882,0.743,1.773,1.146,2.742c-0.332,0.003-0.587,0.007-0.872,0.009c-0.293,0.001-0.632,0-0.871,0v-0.781
		c-0.716-0.25-0.986-0.803-1.092-1.488c-0.087-0.565-0.251-0.767-0.688-1.085c0.364,1.138,0.692,2.185,1.058,3.325
		c-0.65-0.099-1.212-0.185-1.788-0.273c-0.024-0.232-0.046-0.432-0.066-0.628c-0.036-0.015-0.076-0.045-0.097-0.036
		c-0.541,0.234-0.631,0.201-0.775-0.348c-0.075-0.285-0.11-0.583-0.187-0.867c-0.033-0.121-0.129-0.226-0.196-0.338
		c-0.049,0.018-0.097,0.033-0.146,0.052c0.088,0.509,0.176,1.019,0.268,1.554c-0.402,0.125-0.757,0.021-1.077-0.145
		c-0.136-0.071-0.283-0.296-0.272-0.436c0.029-0.334-0.15-0.5-0.355-0.7c-0.137-0.135-0.26-0.328-0.298-0.513
		c-0.144-0.707-0.252-1.421-0.382-2.188c0.584-0.094,1.121,0.06,1.703,0.065c0.111,0.632,0.218,1.246,0.326,1.859
		c0.029,0.001,0.058,0.003,0.086,0.004c0.074-0.641,0.148-1.28,0.23-1.993c0.646,0.048,1.27,0.017,1.854,0.154
		c1.686,0.394,3.388,0.379,5.094,0.294c1.276-0.063,2.549-0.211,3.824-0.304c1.571-0.114,2.99-0.67,4.331-1.459
		c0.378-0.224,0.753-0.451,1.124-0.686c0.088,0.259,0.202,0.479,0.354,0.7c-0.024-0.29-0.057-0.578-0.09-0.867
		c1.227-0.783,2.41-1.629,3.53-2.563c0.111-0.093,0.23-0.175,0.372-0.282c0.104,0.158,0.189,0.29,0.307,0.469
		c0.045-0.14,0.086-0.224,0.098-0.312c0.13-0.911,0.705-1.421,1.556-1.592c0.479-0.097,0.788-0.331,1.052-0.715
		c0.521-0.756,1.184-1.376,1.959-1.867c0.213-0.134,0.457-0.217,0.711-0.334c0.131,0.273,0.238,0.501,0.355,0.745
		c0.033-0.05,0.068-0.078,0.064-0.099c-0.172-0.839,0.185-1.436,0.854-1.895c1.407-0.961,2.808-1.931,4.222-2.881
		c0.27-0.181,0.588-0.288,0.971-0.471c0.195,1.104,0.376,2.128,0.566,3.21c0.463-0.348,0.579-0.739,0.459-1.211
		c-0.149-0.593-0.318-1.183-0.457-1.777c-0.152-0.643,0.008-0.94,0.598-1.194c0.354-0.153,0.615-0.038,0.691,0.353
		c0.068,0.345,0.068,0.702,0.12,1.05c0.067,0.457,0.156,0.912,0.237,1.367c0.035,0.197,0.111,0.357,0.413,0.359
		c0.041-0.092,0.082-0.185,0.125-0.277c0.045,0.044,0.097,0.085,0.168,0.119c0.13-0.349,0.25-0.668,0.414-1.104
		c-0.054,0.008-0.099,0.014-0.146,0.021c0.038-0.086,0.076-0.17,0.115-0.258c0.165,0.126,0.289,0.221,0.455,0.348
		c0.525-0.705,0-1.333-0.037-1.979c-0.044-0.005-0.088-0.011-0.131-0.017c-0.158,0.494-0.316,0.987-0.475,1.482
		c-0.047,0.149-0.09,0.301-0.137,0.45c-0.18,0.025-0.344,0.047-0.516,0.069c-0.025-0.146-0.046-0.293-0.064-0.44
		c-0.065-0.533-0.117-1.068-0.193-1.601c-0.066-0.453,0.1-0.794,0.447-1.065c0.168-0.131,0.334-0.262,0.592-0.464
		c0.084,0.39,0.144,0.666,0.211,0.981c0.301-0.484,0.16-1.165,0.828-1.432c0.1,0.193,0.197,0.382,0.363,0.697
		c0.057-0.253,0.129-0.397,0.116-0.534c-0.073-0.805,0.498-1.324,1.435-1.282c0,0.209,0.049,0.436-0.008,0.633
		c-0.289,0.997-0.595,1.988-0.918,2.974C86.271,99.844,86.099,99.938,85.914,100.124 M44.146,116.53
		c-0.288-0.835-0.269-1.703-0.308-2.668c0.619,0.123,1.158,0.23,1.749,0.347c0.244,1.215,0.485,2.416,0.728,3.624
		C45.268,117.932,44.458,117.433,44.146,116.53 M41.729,115.723c-0.102-0.432-0.177-0.869-0.249-1.308
		c-0.069-0.417-0.119-0.837-0.194-1.383c0.657,0.206,1.259,0.322,1.751,0.7c0.161,0.124,0.314,0.337,0.352,0.532
		c0.188,0.957,0.336,1.922,0.499,2.888C42.762,117.262,41.963,116.717,41.729,115.723 M39.526,115.312
		c-0.171-0.624-0.254-1.271-0.384-1.906c-0.068-0.331-0.044-0.695-0.323-1.013c-0.31,0.29-0.458,0.626-0.458,0.997
		c0,0.385,0.07,0.771,0.116,1.155c0.023,0.199,0.06,0.397,0.091,0.596c-0.718,0.096-1.186-0.283-1.292-1.037
		c-0.062-0.44-0.1-0.884-0.163-1.324c-0.059-0.416-0.137-0.828-0.221-1.323c0.46,0.166,0.839,0.303,1.217,0.439
		c0.539,0.197,1.077,0.399,1.618,0.592c0.227,0.08,0.364,0.209,0.434,0.455c0.297,1.033,0.617,2.059,0.926,3.089
		c0.02,0.069,0.021,0.145,0.031,0.216C40.327,116.382,39.73,116.057,39.526,115.312 M36.415,114.762
		c-0.844-1.208-1.219-2.47-1.508-3.819c-0.178,0.028-0.282,0.045-0.439,0.07c0.039,0.84,0.079,1.664,0.117,2.481
		c-0.707,0.084-0.82,0.015-0.923-0.586c-0.144-0.834-0.274-1.671-0.428-2.614c1.124,0.344,2.157,0.658,3.171,0.968
		c0.022,0.069,0.053,0.113,0.041,0.135c-0.373,0.681-0.336,1.382-0.126,2.099c0.078,0.267,0.134,0.54,0.174,0.814
		C36.51,114.417,36.458,114.534,36.415,114.762 M30.096,107.72c-0.846-0.371-1.676-0.79-2.482-1.243
		c-3.507-1.971-7.016-3.938-10.493-5.96c-1.134-0.659-2.182-1.469-3.25-2.237c-1.521-1.091-3.016-2.218-4.536-3.311
		c-1.312-0.942-1.904-2.251-1.926-3.817c-0.025-1.82,0.118-3.634,0.368-5.437c0.074-0.533,0.185-1.061,0.243-1.595
		c0.081-0.748,0.408-1.376,0.857-1.961c1.409-1.836,3.041-3.446,4.941-4.767c3.557-2.475,7.12-4.941,10.703-7.377
		c1.902-1.294,3.919-2.39,6.01-3.359c2.133-0.99,4.225-2.07,6.335-3.111c0.582-0.286,1.166-0.567,1.741-0.867
		c0.409-0.215,0.83-0.421,1.202-0.691c0.578-0.42,1.206-0.493,1.851-0.301c3.196,0.952,6.436,1.767,9.567,2.925
		c2.188,0.809,4.352,1.689,6.521,2.544c1.761,0.694,3.535,1.339,5.393,1.731c0.342,0.071,0.67,0.217,0.992,0.355
		c2.33,1.01,4.656,2.025,6.984,3.041c1.375,0.602,2.758,1.187,4.121,1.816c1.842,0.85,3.776,1.426,5.715,1.993
		c2.348,0.688,4.683,1.416,6.951,2.337c1.223,0.496,2.473,0.901,3.773,1.139c0.195,0.035,0.387,0.098,0.621,0.159
		c-0.322,1.056-0.626,2.064-0.936,3.071c-1.18,3.825-2.363,7.649-3.533,11.479c-0.111,0.364-0.256,0.607-0.656,0.725
		c-0.325,0.097-0.633,0.302-0.906,0.513c-1.716,1.322-3.398,2.691-5.138,3.984c-1.024,0.76-2.171,1.354-3.194,2.113
		c-2.886,2.14-5.736,4.327-8.602,6.495c-1.315,1.305-2.856,2.288-4.42,3.238c-0.034-0.285-0.069-0.57-0.106-0.854
		c-0.022-0.176-0.108-0.275-0.337-0.161c0.021,0.494,0.055,0.889,0.105,1.221c-0.395,0.238-0.791,0.478-1.185,0.721
		c-0.996,0.615-2.06,1.101-3.229,1.299c-0.399,0.068-0.812,0.129-1.215,0.11c-1.36-0.064-2.699,0.16-4.046,0.262
		c-0.735,0.056-1.481,0.008-2.219-0.042c-1.128-0.077-2.251-0.238-3.38-0.288c-2.336-0.104-4.584-0.627-6.806-1.311
		c-2.533-0.78-5.07-1.545-7.528-2.543C33.337,109.095,31.708,108.425,30.096,107.72 M31.869,112.71
		c0.15-1.193-0.27-2.256-0.882-3.215c-0.006,0.001-0.013-0.021-0.019-0.021c-0.351,0.353-0.356,0.769-0.259,1.214
		c0.105,0.484,0.218,0.961,0.33,1.457c-0.826-0.087-1.472-0.646-1.599-1.385c-0.091-0.528-0.134-1.065-0.199-1.598
		c-0.024-0.197-0.049-0.396-0.088-0.713c-0.728,0.859-0.296,1.771-0.395,2.619c-0.5,0.076-0.83-0.179-1.089-0.521
		c-0.152-0.201-0.262-0.45-0.332-0.694c-0.214-0.738-0.152-1.489-0.097-2.313c0.348,0.148,0.634,0.267,0.918,0.392
		c0.76,0.333,1.518,0.671,2.278,1.002c0.244,0.105,0.475,0.218,0.526,0.517c0,0,0.003-0.001,0.006-0.001
		c0.004-0.004,0.007-0.009,0.012-0.014c0.002,0.004,0.005,0.008,0.007,0.012c0.12-0.011,0.241-0.034,0.359-0.023
		c0.832,0.07,1.052,0.336,1.131,1.173c0.064,0.677,0.121,1.396,0.184,2.112H31.869z M26.734,110.52
		c-0.238-0.13-0.42-0.253-0.619-0.331c-0.362-0.144-0.681-0.344-0.768-0.736c-0.238-1.077-0.531-2.146-0.545-3.263
		c0-0.016,0.013-0.032,0.045-0.107c0.614,0.33,1.224,0.658,1.764,0.949c0.065,1.197,0.125,2.317,0.181,3.438
		C26.792,110.491,26.739,110.515,26.734,110.52 M23.183,105.216c0.75,0.244,0.91,0.476,0.937,1.147
		c0.03,0.774,0.104,1.547,0.16,2.32c0.016,0.216,0.037,0.433,0.057,0.671C23.333,108.899,22.719,106.666,23.183,105.216
		 M22.493,108.574c-0.678-0.065-1.038-0.382-1.16-1.065c-0.085-0.473-0.141-0.952-0.161-1.431c-0.027-0.645-0.007-1.292-0.007-1.984
		c0.376,0.089,0.729,0.3,1.066,0.535c0.058,0.04,0.072,0.165,0.078,0.253c0.077,1.144,0.15,2.287,0.22,3.433
		C22.534,108.4,22.506,108.488,22.493,108.574 M20.427,107.597c-0.154-0.04-0.259-0.06-0.358-0.098
		c-0.103-0.038-0.282-0.096-0.282-0.138v-3.94c0.239,0.099,0.6,0.166,0.887,0.245C20.592,104.98,20.51,106.27,20.427,107.597
		 M18.827,106.598c-0.362,0.073-0.559-0.113-0.641-0.397c-0.091-0.314-0.159-0.647-0.166-0.975c-0.022-0.96-0.008-1.921-0.008-2.96
		c0.424,0.193,0.839,0.385,1.303,0.598C19.152,104.11,18.99,105.349,18.827,106.598 M17.34,102.798
		c0.003,0.813-0.005,1.628-0.008,2.441c-0.001,0.182-0.001,0.364-0.001,0.544c-0.513,0.015-0.636-0.05-0.73-0.435
		c-0.056-0.23-0.065-0.476-0.077-0.714c-0.041-0.869-0.074-1.738-0.113-2.607c-0.015-0.346-0.038-0.693-0.057-1.04l-0.001-0.001
		c-0.739,0.525-0.745,1.305-0.69,2.151c-0.445-0.189-0.528-0.542-0.574-0.895c-0.054-0.402-0.049-0.813-0.105-1.216
		c-0.034-0.247-0.134-0.486-0.228-0.811c-0.321,0.286-0.57,0.511-0.82,0.734c-0.03-0.015-0.059-0.028-0.089-0.044
		c0.075-0.476,0.149-0.953,0.237-1.512c0.468,0.344,0.862,0.644,1.267,0.929c0.327,0.23,0.713,0.442,1.047,0.662
		c0.001,0,0.048-0.001,0.048-0.001v0.002c0.238,0.235,0.502,0.473,0.781,0.704c0.154,0.128,0.295,0.243,0.504,0.402
		C17.367,102.247,17.34,102.516,17.34,102.798 M14.269,102.544c0.067,0.562,0.12,1.011,0.177,1.485
		C13.788,103.767,13.75,103.497,14.269,102.544 M13.292,99.543c-0.134,0.265-0.334,0.494-0.505,0.739
		c-0.037-0.018-0.073-0.036-0.11-0.053c0.079-0.486,0.159-0.972,0.242-1.479C13.366,98.999,13.468,99.198,13.292,99.543
		 M12.193,98.706c-0.131,1.14-0.255,2.28-0.384,3.438c-0.273,0.044-0.436-0.089-0.615-0.255c0.433-0.417,0.426-0.9,0.315-1.445
		c-0.099-0.483-0.085-0.99-0.11-1.488c-0.013-0.238-0.003-0.479-0.003-0.753c-0.533,0.052-0.616,0.405-0.651,0.759
		c-0.052,0.517-0.069,1.035-0.094,1.554c-0.01,0.196-0.002,0.395-0.002,0.671c-0.464-0.244-0.703-0.502-0.714-0.976
		c-0.026-1.108-0.086-2.218-0.136-3.42c0.207,0.051,0.353,0.051,0.456,0.118c0.544,0.354,1.074,0.728,1.613,1.086
		C12.128,98.167,12.228,98.398,12.193,98.706 M9.376,96.694c-0.089,0.866-0.192,1.73-0.293,2.595
		c-0.006,0.049-0.048,0.095-0.081,0.155c-0.384-0.203-0.589-0.512-0.628-0.927c-0.068-0.721-0.125-1.44-0.191-2.159
		c-0.016-0.175-0.049-0.348-0.09-0.629c-0.362,0.399-0.25,0.808-0.336,1.155s-0.101,0.714-0.162,1.188
		c-0.726-1.202-0.409-2.477-0.773-3.646c-0.088,0.455-0.176,0.909-0.273,1.414c-0.637-0.813-0.497-2.897,0.255-3.982
		c0.054,0.237,0.125,0.423,0.136,0.611c0.054,1.017,0.51,1.842,1.207,2.549c0.259,0.264,0.55,0.497,0.827,0.743
		C9.255,96.01,9.417,96.316,9.376,96.694 M7.037,85.916c-0.158,1.018-0.3,1.95-0.449,2.881c-0.145,0.914-0.297,1.827-0.447,2.752
		C5.431,90.546,6.082,86.767,7.037,85.916 M32.651,64.324c0.342-0.731,0.85-1.337,1.438-1.887c0.292-0.273,0.511-0.021,0.844,0.063
		c0.23-0.741,0.448-1.444,0.697-2.243c-0.33,0.044-0.59,0.079-0.897,0.12c-0.151-1.156-0.299-2.288-0.451-3.454
		c0.197-0.035,0.358-0.06,0.517-0.091c1.059-0.205,1.801-0.771,2.044-1.86c0.125-0.559,0.194-1.131,0.288-1.696
		c0.034-0.198,0.069-0.396,0.154-0.597c1.207,2.801,2.067,5.676,2.074,8.739c-1.893,1.088-6.313,3.262-6.799,3.322
		C32.592,64.586,32.595,64.443,32.651,64.324 M32.7,60.112c0.159-1.086,0.308-2.102,0.459-3.133
		C34.247,57.494,33.875,59.56,32.7,60.112 M33.749,60.486c0.212-0.039,0.348,0.03,0.343,0.208c-0.006,0.233,0.009,0.519-0.114,0.687
		c-0.648,0.88-1.335,1.73-2.011,2.588c-0.02,0.024-0.067,0.028-0.132,0.056c-0.042-0.063-0.114-0.127-0.125-0.201
		c-0.01-0.06,0.048-0.134,0.086-0.196C32.45,62.574,33.104,61.522,33.749,60.486 M26.552,66.245
		c0.175-1.153,0.291-2.316,0.449-3.474c0.324-2.368,0.582-4.752,1.34-7.037c0.262-0.791,0.569-1.567,0.868-2.345
		c0.462-1.204,0.627-2.478,0.9-3.726c0.733-3.349,1.402-6.714,2.177-10.053c0.784-3.376,1.661-6.731,2.507-10.093
		c0.098-0.389,0.261-0.761,0.421-1.221c0.902,0.618,1.735,1.189,2.566,1.763c0.168,0.116,0.323,0.249,0.49,0.366
		c0.435,0.307,0.548,0.725,0.424,1.222c-0.036,0.144-0.086,0.284-0.139,0.422c-1.302,3.438-2.303,6.963-3.087,10.553
		c-0.745,3.405-1.524,6.802-2.259,10.209c-0.454,2.101-0.828,4.22-1.287,6.32c-0.295,1.357-0.675,2.696-1.026,4.04
		c-0.103,0.394-0.24,0.779-0.355,1.17c-0.031,0.104-0.068,0.217-0.056,0.32c0.093,0.756-0.231,1.29-0.864,1.665
		c-1.083,0.642-2.23,1.151-3.501,1.683C26.286,67.354,26.466,66.806,26.552,66.245 M63.785,176.53
		c-0.269,0.448-0.519,0.862-0.768,1.276c-0.04-0.005-0.081-0.012-0.121-0.017c-0.019-0.155-0.047-0.312-0.056-0.468
		C62.797,176.6,62.931,176.478,63.785,176.53 M109.766,21.318c-0.044-1.048-0.374-1.998-0.965-2.858
		c-0.95-1.381-2.229-2.361-3.742-3.056c-1.279-0.586-2.6-1.104-3.82-1.796c-3.359-1.908-6.918-3.311-10.631-4.326
		c-2.072-0.567-4.179-1.015-6.27-1.514c-2.524-0.603-5.051-1.195-7.572-1.806c-2.702-0.654-5.4-1.326-8.102-1.987
		c-3.295-0.806-6.586-1.623-9.887-2.405c-1.804-0.428-3.621-0.795-5.434-1.187c-0.961-0.207-1.921-0.423-2.915-0.376
		c-1.449,0.067-2.732,0.656-3.985,1.302c-1.873,0.966-3.246,2.452-4.191,4.317c-0.678,1.338-1.343,2.69-1.892,4.084
		c-0.645,1.636-1.161,3.322-1.728,4.988c-0.993,2.913-1.908,5.851-2.686,8.829c-0.291,1.113-0.539,2.234-1.067,3.268
		c-0.333,0.651-0.513,1.344-0.583,2.075c-0.044,0.459-0.135,0.92-0.258,1.364c-0.339,1.214-0.702,2.422-1.062,3.63
		c-0.705,2.364-1.273,4.76-1.767,7.178c-0.645,3.158-1.224,6.329-2.072,9.449c-0.714,2.626-1.23,5.307-1.811,7.968
		c-0.284,1.304-0.481,2.627-0.782,3.926c-0.285,1.234-0.546,2.462-0.446,3.739c0.013,0.163-0.02,0.333-0.049,0.497
		c-0.26,1.452-1.146,2.457-2.336,3.235c-0.976,0.639-1.977,1.242-2.946,1.891c-2.803,1.877-5.521,3.873-8.205,5.915
		c-3.265,2.483-5.707,5.583-7.124,9.454c-0.398,1.086-0.694,2.2-0.549,3.373c0.114,0.928,0.095,1.848-0.027,2.773
		c-0.196,1.475,0.04,2.855,0.998,4.042c1.082,1.339,2.167,2.678,3.29,3.982c0.971,1.127,2.087,2.105,3.338,2.918
		c0.917,0.597,1.843,1.18,2.761,1.774c0.619,0.401,1.232,0.812,1.858,1.226c-0.071,0.211-0.132,0.385-0.188,0.559
		c-0.35,1.093-0.733,2.177-1.041,3.281c-0.696,2.5-1.348,5.013-2.031,7.517c-0.434,1.591-0.905,3.172-1.335,4.764
		c-0.411,1.521-0.742,3.063-1.194,4.571c-0.935,3.125-1.939,6.229-2.891,9.348c-0.747,2.446-1.478,4.898-2.181,7.357
		c-0.499,1.746-0.941,3.509-1.407,5.265c-0.104,0.395-0.264,0.756-0.565,1.062c-0.305-0.432-0.588-0.83-0.904-1.279
		c0.215-0.128,0.417-0.247,0.617-0.368c0.197-0.119,0.426-0.206,0.551-0.533c-0.781-0.129-1.516-0.251-2.289-0.379
		c0.064-0.273,0.111-0.489,0.164-0.703c0.874-3.526,1.742-7.054,2.625-10.578c1.182-4.712,2.353-9.426,3.57-14.129
		c1.337-5.168,2.722-10.322,4.085-15.484c0.161-0.609,0.319-1.22,0.477-1.829c0.065-0.252,0.05-0.45-0.355-0.407
		c-0.171,0.567-0.381,1.141-0.515,1.732c-0.441,1.953-0.804,3.924-1.291,5.864c-0.89,3.541-1.836,7.068-2.781,10.596
		c-0.782,2.917-1.643,5.813-2.386,8.74c-1.053,4.15-2.02,8.321-3.042,12.479c-0.405,1.652-1.044,3.187-2.132,4.54
		c-0.723,0.9-1.035,2.402-0.025,3.606c0.457,0.547,1.019,1.03,1.607,1.437c0.769,0.532,1.458,0.348,1.909-0.485
		c0.35-0.648,0.658-1.335,0.878-2.038c0.779-2.493,1.518-5.001,2.261-7.507c0.428-1.438,0.829-2.885,1.251-4.325
		c0.198-0.676,0.305-0.714,0.935-0.394c0.842,0.428,1.686,0.854,2.529,1.284c2.051,1.044,4.141,2,6.358,2.644
		c2.331,0.676,4.676,1.305,7.005,1.991c1.617,0.477,3.221,0.998,4.82,1.533c2.056,0.688,4.138,1.32,6.142,2.14
		c3.979,1.629,7.922,3.351,11.862,5.073c4.553,1.991,9.127,3.919,13.852,5.477c0.934,0.308,1.872,0.598,2.809,0.896
		c0.196,0.063,0.396,0.037,0.492-0.143c0.117-0.218-0.078-0.335-0.236-0.432c-0.554-0.342-1.119-0.65-1.77-0.785
		c-0.396-0.082-0.792-0.2-1.171-0.345c-3.925-1.511-7.842-3.044-11.771-4.544c-1.909-0.729-3.755-1.573-5.538-2.576
		c-1.045-0.588-2.154-1.083-3.274-1.516c-2.437-0.942-4.892-1.839-7.355-2.713c-2.008-0.712-4.023-1.41-6.061-2.03
		c-2.676-0.813-5.388-1.51-8.065-2.319c-2.876-0.87-5.713-1.857-8.381-3.27c-0.915-0.485-1.84-0.951-2.79-1.44
		c0.186-0.604,0.362-1.186,0.545-1.766c0.123-0.39,0.231-0.786,0.389-1.16c0.216-0.51,0.545-0.659,1.075-0.514
		c0.25,0.067,0.487,0.178,0.731,0.267c1.358,0.495,2.7,1.039,4.077,1.474c2.5,0.788,4.937,1.706,7.221,3.013
		c1.581,0.903,3.249,1.615,5.01,2.105c1.017,0.282,2.049,0.548,3.021,0.952c2.55,1.058,5.083,2.161,7.6,3.296
		c2.958,1.334,5.93,2.622,8.999,3.688c3.116,1.083,6.218,2.208,9.319,3.337c2.701,0.981,5.327,2.15,7.955,3.313
		c0.502,0.222,1.054,0.335,1.587,0.482c0.116,0.032,0.275,0.032,0.372-0.026c0.108-0.063,0.228-0.204,0.239-0.32
		c0.015-0.154-0.049-0.344-0.264-0.363c-0.572-0.054-0.967-0.425-1.404-0.74c-0.34-0.246-0.715-0.46-1.102-0.62
		c-0.494-0.204-1.023-0.323-1.527-0.506c-3.328-1.209-6.649-2.435-9.98-3.635c-2.039-0.735-4.134-1.332-6.129-2.17
		c-3.313-1.394-6.682-2.654-9.918-4.23c-2.22-1.081-4.574-1.839-6.886-2.691c-2.785-1.028-5.546-2.107-8.184-3.481
		c-1.217-0.634-2.478-1.17-3.783-1.603c-2.199-0.73-4.391-1.479-6.579-2.235c-0.36-0.125-0.691-0.331-1.041-0.502
		c0.212-0.682,0.394-1.303,0.596-1.918c1.165-3.54,2.109-7.143,3.065-10.742c0.97-3.654,1.964-7.301,2.96-10.948
		c0.165-0.606,0.384-1.199,0.588-1.796c0.228-0.664,0.431-0.742,1.081-0.44c0.017,0.008,0.033,0.017,0.049,0.024
		c2.428,1.199,4.891,2.315,7.406,3.323c1.891,0.758,3.748,1.603,5.621,2.408c0.459,0.197,0.932,0.365,1.378,0.589
		c0.612,0.307,0.924,0.828,0.974,1.514c0.016,0.22,0.062,0.439,0.118,0.653c0.229,0.86,0.468,1.717,0.7,2.576
		c0.513,1.897,1.057,3.788,1.357,5.735c0.312,2.027,1.261,3.679,2.837,5.009c2.161,1.821,4.59,3.116,7.292,3.924
		c1.562,0.466,3.126,0.928,4.617,1.602c1.064,0.481,2.123,0.977,3.203,1.418c0.798,0.326,1.524,0.76,2.213,1.267
		c0.673,0.492,1.345,0.986,2.031,1.463c0.963,0.668,1.976,1.253,3.117,1.56c0.697,0.188,1.418,0.291,2.115,0.478
		c1.684,0.447,3.366,0.9,5.036,1.395c1.058,0.313,2.183,0.458,3.097,1.149c0.519-0.781,0.373-1.204-0.479-1.45
		c-0.071-0.021-0.142-0.043-0.214-0.061c-2.756-0.671-5.514-1.332-8.268-2.014c-1.212-0.301-2.359-0.761-3.398-1.476
		c-0.918-0.631-1.856-1.229-2.781-1.847c-2.034-1.356-4.211-2.401-6.55-3.128c-1.539-0.479-3.069-0.995-4.573-1.572
		c-1.982-0.762-3.826-1.787-5.5-3.108c-1.321-1.043-2.289-2.315-2.694-3.972c-0.259-1.063-0.484-2.134-0.77-3.188
		c-0.534-1.968-1.105-3.927-1.65-5.892c-0.107-0.386-0.166-0.784-0.274-1.304c0.303,0.131,0.482,0.208,0.662,0.283
		c0.734,0.309,1.455,0.653,2.206,0.911c0.577,0.198,0.917,0.546,1,1.132c0.058,0.402,0.09,0.813,0.088,1.219
		c-0.01,2.028,0.698,3.764,2.082,5.236c2.099,2.233,4.535,4.036,7.13,5.643c0.771,0.478,1.539,0.967,2.272,1.501
		c1.476,1.074,2.994,2.06,4.791,2.523c0.232,0.061,0.458,0.146,0.686,0.223c1.947,0.66,3.889,1.345,5.846,1.978
		c1.854,0.599,3.675,1.269,5.453,2.071c1.471,0.663,2.988,1.217,4.57,1.564c0.27,0.061,0.549,0.095,0.824,0.109
		c0.28,0.016,0.455-0.119,0.459-0.505c-0.428-0.132-0.834-0.251-1.236-0.384c-1.178-0.39-2.396-0.691-3.521-1.2
		c-1.288-0.584-2.606-1.063-3.944-1.496c-2.609-0.845-5.248-1.605-7.778-2.676c-1.638-0.694-3.322-1.283-4.837-2.244
		c-1.66-1.052-3.339-2.075-4.987-3.145c-0.729-0.472-1.45-0.976-2.096-1.553c-1.173-1.049-2.293-2.157-3.421-3.254
		c-0.291-0.284-0.558-0.604-0.787-0.939c-0.993-1.458-1.259-3.102-1.192-4.824c0.001-0.05,0.037-0.098,0.072-0.182
		c0.233,0.066,0.462,0.126,0.687,0.196c1.114,0.348,2.214,0.755,3.345,1.035c1.654,0.41,3.333,0.719,4.998,1.09
		c1.944,0.434,3.909,0.654,5.902,0.667c0.645,0.004,1.29,0.113,1.935,0.185c0.922,0.104,1.854,0.268,2.756-0.052
		c0.748-0.264,1.478-0.589,2.196-0.926c1.765-0.823,3.504-1.707,5.127-2.777c2.752-1.813,5.465-3.686,8.175-5.562
		c1.11-0.769,2.149-1.639,3.257-2.412c2.593-1.815,5.311-3.45,7.823-5.38c0.09-0.07,0.206-0.106,0.405-0.204
		c-0.209,0.756-0.362,1.422-0.578,2.069c-0.396,1.194-0.873,2.365-1.234,3.571c-0.475,1.579-0.818,3.198-1.309,4.771
		c-1.073,3.45-2.188,6.889-3.319,10.32c-0.743,2.255-1.446,4.517-1.994,6.829c-0.418,1.767-0.858,3.533-1.412,5.261
		c-0.995,3.104-2.098,6.176-3.133,9.269c-0.765,2.286-1.476,4.588-2.243,6.872c-0.613,1.827-1.264,3.642-1.919,5.455
		c-0.56,1.551-1.188,3.079-1.715,4.64c-0.354,1.052-0.565,2.15-0.879,3.216c-0.864,2.927-2.099,5.701-3.511,8.399
		c-0.566,1.085-1.156,2.157-1.721,3.242c-0.371,0.713-0.354,1.471-0.16,2.224c0.129,0.51,0.461,0.738,0.979,0.725
		c0.202-0.006,0.403-0.051,0.603-0.091c0.346-0.068,0.689-0.141,1.03-0.224c0.298-0.072,0.505-0.002,0.734,0.231
		c0.556,0.564,0.956,0.492,1.37-0.187c0.039-0.063,0.074-0.129,0.107-0.195c0.366-0.708,0.745-1.409,1.092-2.128
		c0.15-0.312,0.278-0.648,0.34-0.987c0.141-0.786,0.281-1.567,0.564-2.318c0.307-0.814,0.598-1.637,0.887-2.458
		c0.034-0.097,0.023-0.209,0.032-0.313c-0.045-0.013-0.09-0.025-0.136-0.038c-0.073,0.156-0.158,0.31-0.219,0.472
		c-0.463,1.251-0.922,2.504-1.387,3.756c-0.068,0.184-0.16,0.36-0.265,0.59c-0.546-0.137-1.054-0.236-1.545-0.391
		c-0.94-0.294-1.824-0.325-2.599,0.408c-0.016,0.016-0.059,0.002-0.111,0.002c0.009-0.079,0.001-0.158,0.029-0.221
		c0.164-0.373,0.32-0.751,0.512-1.109c1.322-2.492,2.563-5.016,3.395-7.727c0.504-1.646,1.103-3.266,1.642-4.901
		c0.707-2.147,1.372-4.309,2.106-6.446c0.426-1.243,0.998-2.438,1.422-3.683c0.873-2.561,1.711-5.134,2.524-7.713
		c1.222-3.872,2.42-7.753,3.61-11.634c0.97-3.154,1.912-6.317,2.871-9.475c0.877-2.892,1.771-5.777,2.634-8.673
		c0.677-2.273,1.342-4.549,2.17-6.775c0.489-1.318,1.046-2.621,1.297-4.016c0.159-0.884,0.522-1.657,1.124-2.318
		c0.375-0.41,0.729-0.851,1.15-1.206c1.135-0.952,2.302-1.866,3.457-2.792c0.08-0.063,0.183-0.102,0.357-0.199
		c-0.102,0.421-0.165,0.764-0.268,1.095c-0.471,1.504-0.938,3.009-1.434,4.504c-1.324,3.994-2.662,7.983-4,11.973
		c-0.797,2.372-1.623,4.734-2.404,7.111c-0.561,1.709-1.037,3.444-1.605,5.15c-0.686,2.059-1.432,4.095-2.143,6.144
		c-1.107,3.187-2.215,6.373-3.305,9.563c-0.721,2.104-1.44,4.208-2.108,6.328c-0.636,2.016-1.175,4.061-1.806,6.076
		c-0.561,1.786-1.211,3.543-1.781,5.326c-0.672,2.101-1.303,4.215-1.95,6.324c-0.343,1.116-0.685,2.233-1.026,3.351
		c-0.039,0.132-0.105,0.272,0.09,0.414c0.074-0.159,0.148-0.281,0.191-0.414c0.966-3.018,1.936-6.036,2.891-9.058
		c1.559-4.932,3.108-9.864,4.661-14.797c0.067-0.213,0.124-0.429,0.208-0.635c0.182-0.443,0.401-0.565,0.867-0.495
		c0.128,0.021,0.254,0.054,0.379,0.087c1.012,0.267,2.036,0.396,3.082,0.393c1.318-0.006,2.637,0.006,3.953,0.01
		c2.691,0.01,5.384,0.015,8.051,0.443c1.223,0.197,2.402,0.133,3.523-0.446c0.213-0.109,0.433-0.209,0.646-0.32
		c2.422-1.253,4.219-3.105,5.377-5.577c0.838-1.785,1.237-3.681,1.473-5.624c0.195-1.602,0.42-3.198,0.644-4.796
		c0.177-1.268,0.431-2.526,0.546-3.799c0.191-2.125,0.335-4.255,0.432-6.385c0.104-2.298,0.136-4.6,0.191-6.899
		c0.021-0.853,0.055-1.706,0.028-2.559c-0.058-1.909-0.191-3.816-0.214-5.726c-0.057-4.584-0.072-9.167-0.092-13.751
		c-0.011-2.19-0.065-4.376-0.291-6.558c-0.174-1.678-0.313-3.358-0.49-5.037c-0.127-1.197-0.276-2.394-0.442-3.587
		c-0.222-1.602-0.351-3.204-0.271-4.824c0.041-0.831-0.008-1.672-0.086-2.501c-0.157-1.68-0.451-3.354,0.069-5.022
		c0.083-0.266,0.005-0.481-0.221-0.688c-0.161-0.148-0.296-0.409-0.304-0.624c-0.024-0.722-0.254-1.383-0.504-2.042
		c-0.098-0.256-0.102-0.496-0.035-0.759c0.131-0.521,0.232-1.05,0.351-1.574c0.664-2.91,1.315-5.823,2.001-8.727
		c0.381-1.605,0.857-3.188,1.229-4.795c1.098-4.769,2.184-9.541,2.961-14.378C109.652,26.357,109.873,23.85,109.766,21.318"/>
</g>
</svg>
