<?xml version="1.0" encoding="utf-8"?>
<!-- Generator: Adobe Illustrator 16.0.0, SVG Export Plug-In . SVG Version: 6.00 Build 0)  -->
<!DOCTYPE svg PUBLIC "-//W3C//DTD SVG 1.1//EN" "http://www.w3.org/Graphics/SVG/1.1/DTD/svg11.dtd">
<svg version="1.1" id="Layer_1" xmlns="http://www.w3.org/2000/svg" xmlns:xlink="http://www.w3.org/1999/xlink" x="0px" y="0px"
	 width="112.359px" height="147.13px" viewBox="0 0 112.359 147.13" enable-background="new 0 0 112.359 147.13"
	 xml:space="preserve">
<g>
	<defs>
		<rect id="SVGID_1_" width="112.359" height="147.13"/>
	</defs>
	<clipPath id="SVGID_2_">
		<use xlink:href="#SVGID_1_"  overflow="visible"/>
	</clipPath>
	<path clip-path="url(#SVGID_2_)" fill="#231F20" d="M104.848,32.63c-0.874,0.565-0.873,0.565-0.438,1.343
		c0.203,0.36,0.401,0.722,0.602,1.083c0.047-0.027,0.095-0.053,0.143-0.08C105.055,34.216,104.955,33.456,104.848,32.63
		 M90.974,80.083c-1.328,0.374-3.806,2.142-3.86,2.768C88.451,81.891,89.713,80.986,90.974,80.083 M101.664,57.506
		c0.195-0.729,0.369-1.372,0.559-2.077c-0.762,0.561-1.405,1.032-2.084,1.532C100.681,57.155,101.123,57.313,101.664,57.506
		 M96.902,56.584c-1.189-0.548-2.38-1.097-3.568-1.645C94.08,56.495,95.438,56.676,96.902,56.584 M85.722,2.484
		c-0.067,0.084-0.134,0.169-0.201,0.253c0.358,0.382,0.651,0.953,1.091,1.11c1.004,0.359,2.081,0.515,3.129,0.754
		c0.026-0.058,0.053-0.115,0.08-0.173C88.453,3.78,87.088,3.132,85.722,2.484 M60.437,37.479c-0.056-1.288-2.149-4.524-3.607-5.251
		C58.057,34.015,59.283,35.801,60.437,37.479 M20.782,46.667c-1.07,0.188-2.025,0.356-3.019,0.532
		c-0.078,0.271-0.16,0.559-0.251,0.879c1.168-0.093,2.254-0.179,3.377-0.268C20.855,47.454,20.824,47.12,20.782,46.667
		 M18.809,43.717c1.153-0.18,2.244-0.35,3.383-0.527c0.046-0.255,0.094-0.527,0.166-0.938c-1.172,0.133-2.206,0.25-3.205,0.363
		C19.034,42.999,18.934,43.317,18.809,43.717 M85.011,46.878c1.321,0.452,2.475,1.483,4.19,1.371
		c-0.617-0.679-1.056-1.443-1.717-1.808c-0.646-0.355-1.517-0.302-2.262-0.424C85.141,46.348,85.066,46.647,85.011,46.878
		 M66.674,54.77c-0.2,0.482-0.283,0.855-0.488,1.141c-0.877,1.22-0.909,2.497-0.334,3.854c0.339-0.721,0.542-1.488,0.869-2.197
		c0.343-0.74,0.805-1.428,1.227-2.159C67.543,55.205,67.029,54.948,66.674,54.77 M21.126,28.269
		c0.382-0.075,0.644-0.151,0.911-0.172c0.616-0.048,1.05,0.017,1.089,0.863c0.041,0.878,0.33,1.746,0.546,2.609
		c0.028,0.114,0.292,0.269,0.401,0.239c0.152-0.042,0.386-0.26,0.369-0.368c-0.17-1.069-0.352-2.139-0.596-3.194
		c-0.19-0.824-0.05-1.009,0.972-0.818c0-0.341,0.119-0.75-0.034-0.934c-0.146-0.176-0.593-0.205-0.874-0.144
		c-0.611,0.131-1.198,0.369-1.799,0.549C21.473,27.092,21.286,27.6,21.126,28.269 M47.502,11.007
		c1.059,0.108,1.991,0.077,2.844,0.321c1.041,0.297,1.761-0.066,2.551-0.645c0.531-0.388,1.194-0.63,1.831-0.833
		c0.872-0.278,1.775-0.457,2.665-0.679c0.011-0.065,0.021-0.13,0.03-0.194c-0.571-0.127-1.18-0.447-1.705-0.343
		c-1.395,0.277-2.757,0.726-4.125,1.128C50.254,10.155,48.925,10.573,47.502,11.007 M39.233,20.319
		c1.374-0.072,2.701-0.135,4.027-0.217c0.21-0.013,0.506-0.045,0.608-0.182c0.523-0.702,0.996-1.442,1.544-2.256h-4.461
		C40.368,18.567,39.778,19.479,39.233,20.319 M60.14,50.933c-3.956-0.196-9.273,3.398-10.145,5.511
		C53.458,54.562,56.799,52.747,60.14,50.933 M83.023,36.843c2.225-2.138,4.201-4.481,5.776-7.217
		c-2.995,1.463-5.392,3.52-7.095,6.398C82.115,36.278,82.517,36.527,83.023,36.843 M67.525,10.998
		c-0.165-0.344-0.216-0.56-0.346-0.706c-0.844-0.947-1.627-1.97-2.586-2.784c-0.706-0.598-1.484-1.254-2.662-0.801
		c-1.46,0.562-2.999,0.918-4.504,1.363c-0.004,0.086-0.01,0.172-0.014,0.258c0.531,0.173,1.148,0.612,1.58,0.472
		c1.969-0.635,3.735-0.09,5.485,0.691C65.451,9.925,66.391,10.433,67.525,10.998 M86.33,82.963
		c-0.041-0.039-0.082-0.078-0.125-0.117c-0.397,0.194-0.787,0.411-1.195,0.581c-1.256,0.523-2.506,1.068-3.786,1.53
		c-1.047,0.377-2.136,0.637-3.2,0.968c-0.385,0.12-0.871,0.19-1.107,0.461c-0.674,0.773-1.244,1.639-1.909,2.54
		c0.243,0.015,0.387,0.061,0.504,0.024c1.19-0.372,2.468-0.589,3.544-1.175c2.34-1.272,4.582-2.729,6.848-4.138
		C86.106,83.511,86.19,83.192,86.33,82.963 M102.857,24.614c-0.867,0.992-1.74,1.969-2.576,2.976
		c-0.092,0.112-0.053,0.462,0.057,0.59c0.726,0.848,1.529,1.631,2.223,2.504c0.443,0.561,0.741,1.236,1.107,1.864
		c1.205-0.834,1.254-0.676,0.904-2.088c-0.076-0.307-0.176-0.611-0.217-0.922C104.127,27.791,103.66,26.12,102.857,24.614
		 M65.41,1.525c-2.188,0.511-4.319,1.009-6.527,1.524c1.227,0.778,2.289,1.475,3.379,2.131c0.378,0.228,0.846,0.546,1.225,0.491
		c1.301-0.19,2.58-0.526,3.967-0.828c-0.705-0.63-0.819-1.684-1.845-1.929c-0.069-0.017-0.112-0.234-0.128-0.363
		C65.447,2.259,65.438,1.964,65.41,1.525 M71.36,0.762c-1.716,0.199-3.598,0.417-5.536,0.642c0.756,1.005,1.439,1.887,2.09,2.794
		c0.269,0.376,0.5,0.628,1.039,0.489c0.52-0.134,1.078-0.114,1.621-0.168c1.137-0.113,2.274-0.229,3.528-0.356
		c-0.845-0.904-1.608-1.698-2.34-2.522C71.59,1.446,71.533,1.149,71.36,0.762 M64.379,90.148c1.617-0.127,3.32-0.238,5.019-0.403
		c1.328-0.129,2.647-0.342,3.976-0.485c0.601-0.065,1.102-0.022,1.344-0.847c0.195-0.668,0.83-1.207,1.389-1.965
		c-0.908,0.196-1.628,0.394-2.361,0.504c-2.093,0.312-4.191,0.583-6.285,0.885c-0.44,0.063-0.986,0.059-1.281,0.316
		C65.518,88.734,64.983,89.461,64.379,90.148 M61.979,5.928c0.024-0.082,0.05-0.164,0.075-0.247c-1.414-0.7-2.826-1.404-4.247-2.091
		c-0.095-0.046-0.257,0.022-0.38,0.062c-0.881,0.28-1.764,0.554-2.638,0.856c-1.102,0.381-2.196,0.786-3.471,1.244
		c1.572,0.637,2.943,1.165,4.289,1.75c0.539,0.234,0.989,0.089,1.483-0.08c1.301-0.445,2.608-0.872,3.917-1.29
		C61.322,6.032,61.656,5.994,61.979,5.928 M35.458,17.055c0.033,0.077,0.067,0.155,0.101,0.233c1.478-0.102,2.955-0.23,4.435-0.293
		c0.503-0.021,0.763-0.226,1.029-0.623c0.668-0.997,1.386-1.961,2.105-2.922c0.323-0.433,0.697-0.828,1.047-1.239
		c-0.038-0.057-0.077-0.115-0.115-0.172c-1.414,0.161-2.83,0.313-4.242,0.495c-0.182,0.023-0.358,0.187-0.511,0.316
		c-0.393,0.335-0.755,0.708-1.159,1.027C37.03,14.76,36.221,15.888,35.458,17.055 M49.602,32.047
		c0.027-0.078,0.053-0.157,0.079-0.235c-1.277-0.82-2.518-1.707-3.844-2.44c-1.008-0.558-2.115-0.942-3.196-1.358
		c-0.368-0.142-0.891-0.158-0.775,0.453c0.2,1.055,0.382,2.149,0.822,3.112c0.492,1.074,1.393,1.685,2.726,1.666
		C46.951,33.222,48.237,32.543,49.602,32.047 M50.417,12.112c-4.036-1.056-6.979,0.551-8.989,4.834c1.426,0,2.817,0.008,4.207-0.015
		c0.129-0.002,0.274-0.187,0.378-0.314c0.516-0.631,0.969-1.324,1.542-1.897C48.466,13.812,49.454,12.982,50.417,12.112
		 M26.267,59.523c0.524,1.315,0.993,2.444,1.424,3.587c0.362,0.964,0.939,1.278,1.961,1.194c0.698-0.058,1.411,0.073,2.117,0.101
		c0.475,0.018,0.951,0.003,1.393,0.003c-0.32-0.934-0.636-1.778-0.896-2.64c-0.165-0.544-0.253-1.112-0.363-1.672
		c-0.1-0.507-0.459-0.55-0.88-0.55c-1.177,0.002-2.354-0.015-3.531-0.023C27.157,59.521,26.823,59.523,26.267,59.523 M51.351,32.218
		c0.164,0.184,0.271,0.334,0.406,0.451c1.176,1.022,2.363,2.036,3.536,3.063c0.56,0.49,1.054,1.066,1.655,1.496
		c0.958,0.685,1.982,1.277,2.976,1.911c0.216,0.137,0.426,0.284,0.639,0.427c0.044-0.041,0.088-0.083,0.133-0.125
		c-0.355-0.647-0.72-1.292-1.063-1.946c-0.679-1.29-1.362-2.558-2.441-3.594c-0.45-0.432-0.639-1.13-0.975-1.69
		c-0.134-0.226-0.308-0.506-0.528-0.588C54.168,31.056,52.751,31.403,51.351,32.218 M84.785,47.495
		c-0.488,1.026-0.951,1.998-1.457,3.063c2.455,1.55,5.282,2.429,8.17,3.189c-0.211-0.745-0.385-1.45-0.615-2.137
		c-0.209-0.62-0.44-1.24-0.742-1.819c-0.127-0.245-0.438-0.502-0.7-0.55C87.754,48.934,86.059,48.681,84.785,47.495 M30.992,25.108
		c0.066,0.039,0.132,0.078,0.197,0.117c0.87-0.639,1.743-1.273,2.607-1.92c0.47-0.351,0.889-0.787,1.394-1.073
		c0.904-0.511,1.859-0.931,2.786-1.403c0.2-0.102,0.427-0.227,0.542-0.406c0.571-0.892,1.109-1.806,1.711-2.8
		c-0.268,0-0.444-0.011-0.619,0.002c-1.179,0.084-2.356,0.208-3.536,0.249c-0.805,0.028-1.444,0.199-1.835,1.002
		c-0.326,0.669-0.812,1.259-1.151,1.923C32.364,22.222,31.688,23.67,30.992,25.108 M102.93,22.725
		c0.875-1.292,1.641-2.424,2.5-3.693c-0.741-0.949-1.475-2.157-2.467-3.088c-1.32-1.239-2.45-2.614-3.559-4.024
		c-0.67-0.852-1.347-1.698-2.021-2.546c-0.125,0.074-0.252,0.148-0.378,0.223C99.315,13.783,101.533,18.009,102.93,22.725
		 M33.728,73.379c0.932,1.094,1.685,2.064,2.53,2.947c0.867,0.904,1.873,1.679,2.721,2.599c0.401,0.435,0.767,0.617,1.285,0.446
		c0.891-0.296,1.767-0.635,2.581-0.93c-0.582-0.735-1.112-1.469-1.708-2.145c-0.999-1.133-2.034-2.235-3.071-3.335
		c-0.099-0.106-0.323-0.161-0.476-0.14C36.353,72.985,35.12,73.175,33.728,73.379 M54.728,8.041c-1.199-0.628-2.74-0.84-3.824-1.958
		c-0.069-0.071-0.316-0.033-0.446,0.027c-1.17,0.537-2.354,1.052-3.493,1.649c-1.287,0.676-2.553,1.398-3.791,2.161
		c-0.799,0.493-1.53,1.096-2.361,1.701c1.435-0.085,2.734-0.147,4.03-0.248c0.374-0.029,0.755-0.129,1.105-0.268
		c0.748-0.299,1.456-0.704,2.217-0.959C50.359,9.41,52.573,8.728,54.728,8.041 M85.281,3.741c0.051-0.052,0.102-0.105,0.15-0.158
		c-0.535-0.48-1.016-1.054-1.624-1.412c-0.483-0.285-1.117-0.346-1.696-0.437c-1.761-0.275-3.523-0.573-5.295-0.753
		c-1.594-0.161-3.201-0.177-4.844-0.26c0.705,0.799,1.348,1.488,1.943,2.214c0.629,0.765,1.326,1.225,2.392,1.048
		c0.937-0.155,1.896-0.216,2.845-0.231C81.195,3.718,83.238,3.741,85.281,3.741 M106.076,60.698
		c-1.492-0.376-2.453-1.813-3.988-1.991c-0.563,1.668-1.125,3.335-1.674,4.953c0.58,0.394,1.148,0.796,1.731,1.175
		c0.507,0.33,1.05,0.61,1.536,0.969c0.145,0.106,0.188,0.394,0.215,0.606c0.02,0.139-0.072,0.293-0.113,0.44
		c0.068,0.028,0.137,0.057,0.203,0.085c0.981-1.79,1.963-3.579,2.904-5.294C106.539,61.233,106.299,60.955,106.076,60.698
		 M100.043,64.407c-1.324,3.659-2.615,7.228-3.906,10.796c1.086-0.785,2.035-1.617,2.947-2.489c1.309-1.251,2.809-2.354,3.582-4.059
		c0.267-0.591,0.316-1.282,0.445-1.933c0.016-0.081-0.074-0.222-0.154-0.279C102.031,65.787,101.098,65.141,100.043,64.407
		 M25.396,50.012c0.355,0.026,0.56,0.065,0.761,0.052c1.353-0.089,2.707-0.174,4.056-0.303c0.154-0.015,0.403-0.288,0.405-0.445
		c0.025-1.844,0.013-3.688,0.002-5.531c0-0.074-0.083-0.147-0.148-0.256c-1.605,0.345-3.189,0.684-4.856,1.04
		C25.545,46.306,25.472,48.121,25.396,50.012 M111.791,37.43c-1.39,0.56-2.725,1.105-4.068,1.63
		c-0.29,0.114-0.616,0.229-0.916,0.207c-0.579-0.039-0.696,0.188-0.659,0.723c0.108,1.579,0.167,3.163,0.251,4.882h4.52
		C111.205,42.436,111.5,39.912,111.791,37.43 M65.543,87.948c-0.166-0.07-0.221-0.109-0.282-0.118
		c-0.992-0.151-2.007-0.216-2.974-0.466c-1.564-0.404-3.102-0.924-4.646-1.407c-0.734-0.231-1.456-0.508-2.021,0.324
		c-0.084,0.122-0.258,0.182-0.372,0.289c-0.609,0.568-1.54,0.81-1.775,1.676c0.926,0.37,1.808,0.817,2.742,1.073
		c1.335,0.368,2.703,0.632,4.068,0.872c1.272,0.225,2.545,0.313,3.59-0.713C64.398,88.964,64.957,88.482,65.543,87.948
		 M43.412,20.849c-1.538-0.264-2.894-0.099-4.219,0.332c-0.316,0.103-0.721,0.291-0.848,0.555c-0.987,2.038-1.916,4.104-2.935,6.32
		c2.083-0.304,3.916-0.571,5.848-0.852C41.312,24.949,42.313,22.938,43.412,20.849 M37.17,72.099
		c-1.026-1.876-2.041-3.749-3.071-5.613c-0.714-1.291-0.724-1.281-2.241-1.398c-0.248-0.02-0.49-0.1-0.738-0.116
		c-0.176-0.013-0.451-0.034-0.519,0.063c-0.351,0.498-0.778,0.23-1.185,0.174c-0.297-0.042-0.591-0.099-1.106-0.185
		c1.747,2.759,3.374,5.328,4.932,7.788C34.706,72.546,35.978,72.314,37.17,72.099 M110.863,45.387
		c-0.18,0.103-0.381,0.314-0.582,0.314c-1.255,0-2.51-0.061-3.765-0.064c-0.162-0.001-0.444,0.184-0.472,0.322
		c-0.355,1.803-0.676,3.613-1.012,5.455c0.648,0.137,1.467,0.185,2.174,0.491c0.858,0.371,2.162,0.196,2.326,1.606
		c0.004,0.046,0.096,0.083,0.146,0.124C110.539,52.471,111.072,47.523,110.863,45.387 M45.507,34.182
		c2.674,1.063,5.052,2.872,7.767,3.953c2.742,1.092,4.986,3.015,7.696,4.265c-0.013-0.496,0.037-1.115-0.244-1.367
		c-1.062-0.951-2.226-1.789-3.362-2.653c-0.287-0.217-0.663-0.325-0.932-0.559c-1.835-1.594-3.675-3.182-5.457-4.834
		c-0.399-0.369-0.698-0.358-1.072-0.152C48.492,33.61,46.975,34.035,45.507,34.182 M38.774,72.721
		c0.472,0.504,0.908,0.961,1.334,1.427c0.929,1.016,1.828,2.061,2.793,3.038c0.342,0.347,0.873,0.791,1.268,0.747
		c1.125-0.124,2.232-0.451,3.332-0.75c0.486-0.133,0.939-0.393,1.414-0.599c-0.849-0.928-1.712-1.699-2.357-2.623
		c-0.651-0.935-1.086-2.02-1.595-2.997C43,71.521,40.979,72.095,38.774,72.721 M71.314,33.087
		c0.799-5.877,0.002-11.605-2.054-17.179c0.397,6.052-0.808,12.012-0.988,18.028C69.287,33.652,70.289,33.373,71.314,33.087
		 M108.791,54.849c0.062-0.184,0.144-0.328,0.154-0.478c0.027-0.423,0.112-0.923-0.428-1.081c-1.242-0.362-2.497-0.684-3.753-0.993
		c-0.126-0.031-0.374,0.082-0.438,0.197c-0.498,0.912-1.033,1.813-1.427,2.771c-0.331,0.807-0.487,1.686-0.683,2.4
		c1.781,0.985,3.457,1.913,5.164,2.857c0.689-1.807,1.375-3.609,2.064-5.42C109.174,54.998,108.994,54.928,108.791,54.849
		 M53.097,87.459c0.851-0.652,1.679-1.286,2.554-1.956c-1.071-0.334-2.096-0.612-3.092-0.973c-1.13-0.41-2.326-0.747-3.326-1.382
		c-1.551-0.982-3.019-2.121-4.409-3.324c-1.021-0.885-1.95-1.011-3.062-0.3c-0.4,0.256-0.85,0.433-1.356,0.685
		c0.541,0.463,1.036,0.934,1.578,1.342c1.098,0.826,2.22,1.62,3.335,2.425c0.591,0.426,1.15,0.914,1.787,1.254
		c1.745,0.931,3.53,1.782,5.282,2.699c0.409,0.214,0.715,0.23,1.023-0.113C53.342,87.737,53.273,87.66,53.097,87.459 M43.159,33.634
		c-0.972-0.735-1.566-1.587-1.75-2.653c-0.176-1.021-0.254-2.058-0.376-3.098c-1.718,0.214-3.458,0.393-5.18,0.675
		c-0.338,0.055-0.738,0.452-0.888,0.79c-0.351,0.79-0.598,1.631-0.83,2.468c-0.289,1.044-0.521,2.104-0.804,3.267
		C36.562,33.968,39.764,33.561,43.159,33.634 M45.806,62.858c0.07,0.057,0.14,0.113,0.209,0.17c0.255-0.091,0.53-0.146,0.76-0.277
		c1.849-1.058,3.809-1.92,5.427-3.371c0.769-0.688,1.739-1.147,2.572-1.771c0.955-0.715,1.862-1.493,2.783-2.253
		c0.775-0.64,1.584-1.251,2.303-1.951c0.797-0.778,1.34-1.842,2.559-2.113c0.084-0.02,0.125-0.228,0.185-0.349
		c-0.036-0.069-0.073-0.14-0.108-0.211c-0.563,0.138-1.158,0.201-1.68,0.43c-0.626,0.271-1.178,0.705-1.781,1.028
		c-2.991,1.606-5.994,3.186-8.974,4.811c-0.58,0.315-1.134,0.733-1.59,1.21c-0.452,0.473-0.809,1.054-1.128,1.631
		C46.796,60.83,46.314,61.851,45.806,62.858 M63.178,77.627c1.469-0.864,2.872-1.482,3.855-2.724
		c0.631-0.796,1.352-1.523,1.939-2.349c0.827-1.162,1.008-2.56,1.266-3.926c0.152-0.809-0.068-1.492-0.531-2.124
		c-0.295-0.402-0.588-0.813-0.938-1.165c-0.892-0.9-1.812-1.77-2.813-2.741c-0.059,0.514-0.152,0.997-0.162,1.482
		c-0.021,1.229-0.051,2.46,0.006,3.686c0.094,2.061,0.164,4.109-0.76,6.035C64.455,75.021,63.856,76.233,63.178,77.627
		 M31.643,58.981c-0.016-0.339-0.012-0.541-0.037-0.739c-0.266-2.146-0.59-4.285-0.79-6.437c-0.149-1.602-0.176-1.67-1.792-1.443
		c-0.993,0.141-1.995,0.266-2.995,0.284c-0.464,0.01-0.545,0.1-0.522,0.523c0.05,0.902,0.041,1.807,0.071,2.711
		c0.05,1.537-0.151,3.089,0.435,4.591c0.175,0.447,0.334,0.545,0.772,0.512c0.634-0.048,1.275-0.004,1.912-0.003
		C29.653,58.982,30.608,58.981,31.643,58.981 M91.154,49.378c0.293,1.135,0.488,2.104,0.799,3.033
		c0.248,0.738,0.316,1.582,1.319,1.904c1.546,0.5,3.036,1.17,4.563,1.73c0.434,0.159,0.996,0.386,1.361,0.239
		c1.262-0.508,2.406-1.268,3.346-2.263c0.492-0.521,0.842-1.176,1.289-1.815c-0.897-0.19-1.678-0.333-2.448-0.522
		c-2.109-0.521-4.206-1.091-6.322-1.582C93.773,49.804,92.459,49.617,91.154,49.378 M47.501,58.006
		c-0.015-0.078-0.029-0.156-0.043-0.233c-4.868,1.506-9.853,2.037-15.003,1.851c0.124,0.732,0.161,1.344,0.339,1.911
		c0.229,0.731,0.611,1.415,0.854,2.145c0.255,0.769,0.39,0.864,1.18,0.725c1.17-0.205,2.344-0.397,3.523-0.545
		c0.747-0.093,1.508-0.064,2.258-0.14c1.179-0.118,2.352-0.298,3.532-0.41c0.539-0.051,0.933-0.185,1.055-0.787
		c0.072-0.353,0.194-0.71,0.365-1.025C46.191,60.324,46.853,59.167,47.501,58.006 M98.674,28.378
		c-0.615-0.182-1.061-0.369-1.524-0.439c-1.182-0.18-2.351-0.588-3.573-0.248c-0.59,0.164-1.199,0.258-1.783,0.436
		c-1.084,0.33-2.006,0.812-2.602,1.914c-1.348,2.496-3.189,4.635-5.201,6.621c-0.467,0.46-0.549,0.821-0.078,1.294
		c0.189,0.191,0.361,0.414,0.498,0.646c0.399,0.683,0.543,0.696,1.142,0.216c1.303-1.045,2.614-2.077,3.944-3.089
		c1.183-0.898,2.42-1.729,3.588-2.645c1.144-0.896,2.232-1.86,3.343-2.797C97.146,29.68,97.863,29.067,98.674,28.378 M61.463,79.146
		c-0.032-0.068-0.066-0.139-0.1-0.208c-0.404,0.117-0.802,0.279-1.215,0.344c-2.02,0.313-4.015,0.326-6.018-0.244
		c-1.498-0.429-2.987-0.808-4.275-1.74c-0.169-0.123-0.505-0.122-0.724-0.052c-1.166,0.371-2.315,0.795-3.48,1.173
		c-0.325,0.104-0.682,0.117-1.024,0.171c0.777,0.758,1.616,1.304,2.39,1.932c1.573,1.277,3.138,2.53,5.199,2.969
		c1.042,0.221,2.045,0.618,3.082,0.868c0.689,0.165,1.431,0.426,2.025-0.291c0.473-0.572,0.989-1.109,1.467-1.68
		C59.689,81.313,60.572,80.228,61.463,79.146 M44.566,63.885c-0.547,0.045-1.204,0.077-1.856,0.156
		c-2.599,0.313-5.194,0.652-7.793,0.957c-0.539,0.063-0.69,0.229-0.433,0.734c0.356,0.699,0.637,1.439,1.023,2.12
		c0.625,1.103,1.274,2.193,1.98,3.243c0.416,0.618,0.999,0.91,1.833,0.701c0.857-0.215,1.76-0.248,2.641-0.368
		c0.157-0.021,0.318-0.055,0.461-0.12c0.813-0.372,1.621-0.755,2.315-1.081C44.682,68.144,44.625,66.063,44.566,63.885
		 M88.565,46.15c0.654,0.802,1.167,1.464,1.722,2.092c0.174,0.197,0.439,0.394,0.688,0.435c0.754,0.126,1.531,0.118,2.278,0.267
		c1.525,0.305,3.035,0.682,4.552,1.019c1.944,0.432,3.892,0.84,5.83,1.292c0.426,0.099,0.604-0.042,0.694-0.408
		c0.285-1.153,0.597-2.3,0.832-3.462c0.121-0.602,0.104-1.231,0.147-1.817C99.654,45.572,94.142,45.706,88.565,46.15 M101.57,58.265
		c-1.015-0.281-1.893-0.643-2.799-0.744c-0.896-0.099-1.833,0.183-2.729,0.086c-1.43-0.15-2.777-0.6-3.496-2.023
		c-0.34-0.674-0.813-1.104-1.576-1.252c-0.667-0.131-1.314-0.363-1.975-0.539c-1.947-0.521-3.799-1.23-5.446-2.445
		c-0.283-0.209-0.939-0.485-1.312,0.166c-0.138,0.241-0.352,0.44-0.498,0.619c0.254,0.135,0.459,0.219,0.637,0.341
		c1.082,0.741,2.142,1.519,3.242,2.231c1.584,1.025,3.197,2.004,4.795,3.01c0.524,0.33,0.998,0.777,1.562,1.001
		c0.718,0.284,1.321,0.616,1.802,1.254c0.344,0.456,0.872,0.778,1.334,1.14c0.366,0.287,0.774,0.521,1.131,0.818
		c0.707,0.589,1.351,1.247,2.272,1.539c0.849,0.269,1.321,0.145,1.596-0.654C100.605,61.366,101.049,59.901,101.57,58.265
		 M102.929,33.275c-0.271-0.471-0.449-0.755-0.601-1.053c-0.653-1.289-1.42-2.49-2.701-3.247c-0.168-0.099-0.528-0.087-0.676,0.03
		c-1.084,0.856-2.127,1.765-3.199,2.636c-1.826,1.484-3.664,2.957-5.504,4.426c-0.852,0.681-1.705,1.363-2.586,2.005
		c-0.758,0.551-1.572,1.021-2.324,1.577c-0.168,0.126-0.258,0.475-0.238,0.707c0.023,0.296,0.197,0.58,0.334,0.942
		c1.207-0.622,2.341-1.28,3.534-1.803c1.45-0.636,2.95-1.156,4.428-1.729c0.604-0.233,1.222-0.444,1.81-0.715
		c1.026-0.47,2.039-0.974,3.054-1.472C99.813,34.817,101.365,34.047,102.929,33.275 M67.479,34.524
		c0.13-0.723,0.271-1.211,0.295-1.705c0.041-0.814-0.036-1.636,0.015-2.448c0.142-2.208,0.252-4.42,0.51-6.614
		c0.3-2.549,0.49-5.099,0.162-7.643c-0.279-2.164-0.871-4.145-3.144-5.241c-1.437-0.693-2.866-1.263-4.436-1.483
		c-0.224-0.032-0.466,0.056-0.743,0.094c0.081,0.11,0.1,0.157,0.134,0.18c1.978,1.274,3.247,3.104,4.007,5.282
		c1.049,3.011,0.986,6.197,1.321,9.318c0.21,1.957-0.075,3.952,0.457,5.894c0.347,1.264,0.604,2.553,0.928,3.824
		C67.024,34.135,67.222,34.249,67.479,34.524 M52.838,11.794c0.709,0.264,1.316,0.517,1.939,0.718
		c2.493,0.801,4.386,2.361,5.865,4.494c0.71,1.024,1.05,2.16,1.359,3.341c0.64,2.439,1.427,4.84,2.022,7.289
		c0.528,2.162,0.878,4.367,1.312,6.553c0.063,0.323,0.146,0.643,0.224,0.977c1.08-0.457,1.074-0.455,0.755-1.48
		c-0.094-0.304-0.111-0.633-0.209-0.937c-0.566-1.781-0.881-3.595-0.932-5.472c-0.057-2.012-0.221-4.023-0.405-6.028
		c-0.146-1.577-0.267-3.174-0.625-4.709c-0.524-2.248-1.742-4.15-3.492-5.678c-0.847-0.739-1.721-1.466-2.971-0.824
		c-0.177,0.091-0.396,0.109-0.599,0.141C55.583,10.412,54.156,10.832,52.838,11.794 M41.956,27.126
		c1.97,0.209,3.584,1.196,5.208,2.114c1.079,0.608,2.061,1.388,3.099,2.071c0.131,0.086,0.358,0.121,0.503,0.072
		c0.536-0.183,1.066-0.392,1.582-0.626c0.902-0.409,1.814-0.594,2.782-0.254c0.149,0.052,0.313,0.063,0.644,0.126
		c-1.058-1.553-1.966-2.986-2.976-4.343c-1.054-1.415-2.189-2.782-3.73-3.709c-0.498-0.299-1.129-0.384-1.611-0.702
		c-0.861-0.571-1.786-0.902-2.798-0.989c-0.192-0.017-0.488,0.127-0.593,0.288C42.905,22.968,42.243,24.947,41.956,27.126
		 M111.672,36.814c-0.115-6.495-2.979-11.91-6.096-17.126c-0.179,0.323-0.363,0.704-0.588,1.058
		c-0.479,0.749-0.976,1.485-1.471,2.223c-0.268,0.397-0.229,0.747-0.045,1.203c0.482,1.201,0.913,2.43,1.271,3.674
		c0.307,1.059,0.486,2.155,0.727,3.258c1.463-1.017,2.201-2.504,3.138-3.831c0.104-0.148,0.304-0.23,0.46-0.342
		c0.049,0.062,0.1,0.124,0.149,0.186c-0.108,0.246-0.187,0.51-0.329,0.734c-0.877,1.393-1.807,2.739-3.078,3.821
		c-0.177,0.151-0.277,0.499-0.264,0.747c0.104,1.702,0.246,3.4,0.38,5.101c0.028,0.365,0.075,0.729,0.131,1.241
		C108.031,38.077,109.883,37.435,111.672,36.814 M91.047,27.312c0.887-0.19,1.676-0.355,2.463-0.526
		c1.917-0.415,3.742-0.052,5.543,0.611c0.165,0.061,0.479,0.026,0.579-0.09c0.88-1.007,1.756-2.021,2.565-3.084
		c0.2-0.264,0.305-0.766,0.199-1.072c-0.552-1.613-1.152-3.212-1.8-4.789c-0.55-1.341-1.156-2.663-1.802-3.962
		c-0.426-0.857-0.965-1.659-1.418-2.426c-0.537,2.742-1.639,5.276-2.531,7.876C93.936,22.498,92.547,24.898,91.047,27.312
		 M30.042,29.789c1.319-1.162,3.041-1.066,4.58-1.466c0.963-2.231,1.918-4.444,2.885-6.686c-0.826,0.457-1.713,0.859-2.502,1.403
		c-1.302,0.9-2.558,1.869-3.794,2.858c-0.414,0.33-0.841,0.755-1.034,1.229c-0.724,1.785-1.367,3.604-2.017,5.418
		c-0.963,2.688-1.535,5.474-2.031,8.275c-0.192,1.082-0.292,2.18-0.435,3.273c1.109-0.306,2.106-0.606,3.115-0.851
		c0.508-0.123,1.045-0.12,1.555-0.232c0.169-0.037,0.426-0.262,0.423-0.396c-0.035-1.613,0.518-3.088,0.997-4.585
		c0.195-0.611,0.301-1.25,0.443-1.856c-1.47,0.253-2.829,0.5-4.193,0.71c-0.236,0.036-0.495-0.083-0.743-0.131
		c0.005-0.073,0.01-0.147,0.015-0.22c0.144-0.05,0.285-0.112,0.432-0.145c1.433-0.301,2.873-0.569,4.293-0.919
		c0.278-0.069,0.645-0.418,0.692-0.688c0.344-1.949,0.778-3.867,1.719-5.841C32.868,29.245,31.455,29.517,30.042,29.789
		 M46.714,16.873c0.04,0.062,0.081,0.125,0.122,0.188c0.269,0,0.538,0.001,0.806-0.001c1.644-0.011,3.26-0.102,4.866,0.567
		c1.768,0.736,3.213,1.858,4.544,3.156c1.599,1.559,2.578,3.55,3.521,5.533c0.621,1.307,1.154,2.669,1.58,4.052
		c0.571,1.856,0.995,3.759,1.5,5.636c0.037,0.144,0.2,0.342,0.324,0.356c0.342,0.042,1.043-0.961,0.967-1.314
		c-0.203-0.938-0.414-1.872-0.594-2.813c-0.273-1.425-0.43-2.879-0.8-4.275c-0.662-2.493-1.609-4.92-2.136-7.437
		c-0.484-2.327-1.805-4.041-3.446-5.512c-1.649-1.477-3.787-2.096-5.926-2.581c-0.142-0.032-0.347,0.073-0.481,0.172
		c-0.896,0.666-1.821,1.301-2.657,2.037C48.124,15.324,47.44,16.123,46.714,16.873 M80.865,53.013
		c1.566,1.235,3.024,2.443,3.887,4.199c0.02,0.04,0.031,0.086,0.057,0.122c1.333,1.823,2.684,3.633,3.996,5.472
		c1.729,2.42,3.427,4.862,5.136,7.297c0.823,1.173,1.711,2.318,1.627,3.874c-0.011,0.184,0.024,0.367,0.037,0.55
		c0.04,0.001,0.08,0.002,0.12,0.005c1.223-3.354,2.445-6.707,3.678-10.088c-0.162-0.063-0.308-0.171-0.453-0.173
		c-1.111-0.012-1.832-0.751-2.608-1.378c-0.49-0.396-0.915-0.894-1.448-1.215c-0.734-0.442-1.49-0.81-1.704-1.743
		c-0.01-0.048-0.089-0.096-0.146-0.112c-1.648-0.494-2.899-1.684-4.361-2.502c-0.707-0.396-1.408-0.82-2.048-1.316
		c-1.241-0.961-2.447-1.954-3.942-2.533c-0.474-0.183-0.857-0.594-1.354-0.951C81.252,52.61,81.078,52.79,80.865,53.013
		 M44.546,20.218c0.531,0.113,0.91,0.172,1.276,0.277c0.438,0.125,0.878,0.26,1.292,0.446c0.533,0.238,1.024,0.572,1.563,0.791
		c0.964,0.39,1.833,0.903,2.509,1.703c0.716,0.847,1.417,1.707,2.132,2.555c0.767,0.91,1.529,1.805,1.977,2.947
		c0.252,0.64,0.731,1.193,1.12,1.777c0.057,0.086,0.176,0.14,0.276,0.185c2.287,1.022,3.305,3.079,4.233,5.201
		c0.356,0.813,0.666,1.646,1.007,2.497c0.434-0.494,0.83-0.948,1.189-1.359c-0.086-0.343-0.164-0.652-0.244-0.961
		c-0.643-2.483-1.154-4.999-2.104-7.4c-0.712-1.8-1.582-3.508-2.554-5.176c-0.828-1.423-2.049-2.452-3.236-3.557
		c-2.452-2.283-5.394-2.622-8.508-2.5c-0.08,0.003-0.185,0.063-0.232,0.13C45.702,18.541,45.17,19.315,44.546,20.218 M85.543,44.852
		c0.179,0,0.406-0.018,0.629,0.004c0.35,0.034,0.805-0.027,1.025,0.166c0.734,0.652,1.592,0.503,2.408,0.463
		c1.721-0.085,3.438-0.271,5.158-0.376c0.309-0.019,0.63,0.151,0.955,0.236c0.096-0.42,0.874-0.567,2.665-0.37
		c-0.041,0.104-0.081,0.203-0.121,0.304c0.257-0.162,0.472-0.408,0.705-0.428c0.741-0.059,1.487-0.038,2.233-0.04
		c1.406-0.003,2.813-0.001,4.391-0.001c-0.082-1.737-0.162-3.419-0.244-5.158c-0.364,0.151-0.584,0.26-0.814,0.336
		c-1.81,0.599-3.619,1.196-5.433,1.78c-0.771,0.248-1.547,0.487-2.331,0.686c-0.541,0.137-1.102,0.194-1.654,0.292
		c-1.521,0.269-3.035,0.65-4.568,0.776c-1.377,0.113-2.775-0.067-4.164-0.091c-0.455-0.008-0.557-0.211-0.445-0.747
		c0.751,0.063,1.514,0.173,2.277,0.179c2.406,0.02,4.766-0.327,7.115-0.849c1.59-0.353,3.142-0.757,4.646-1.39
		c1.187-0.498,2.431-0.856,3.655-1.26c0.508-0.169,1.029-0.292,1.587-0.447c-0.729-1.767-0.675-3.734-2.007-5.106
		c-1.102,0.584-2.144,1.189-3.229,1.701c-2.056,0.969-4.132,1.894-6.209,2.814c-0.365,0.161-0.804,0.161-1.162,0.334
		c-1.027,0.491-2.017,1.062-3.048,1.547c-1.263,0.595-2.556,1.128-3.823,1.715c-0.111,0.051-0.184,0.295-0.188,0.451
		C85.533,43.142,85.543,43.911,85.543,44.852 M17.382,48.375c-0.223,1.239-0.496,2.395-0.602,3.566
		c-0.033,0.359,0.304,0.872,0.623,1.116c0.666,0.51,1.407,0.943,2.167,1.303c0.709,0.338,1.465,0.639,2.232,0.777
		c1.067,0.192,2.163,0.219,3.343,0.324c-0.679-7.876-0.261-15.689,2.504-23.275c-0.705,0.053-0.705,0.053-1.113,0.85
		c0.036-0.305,0.072-0.609,0.112-0.947c-1.351-0.111-2.491,0.402-3.626,0.926c-1.073,0.494-1.775,1.411-2.109,2.45
		c-0.634,1.979-1.066,4.021-1.58,6.04c-0.04,0.158-0.058,0.321-0.088,0.49c1.01-0.128,1.932-0.276,2.86-0.339
		c0.207-0.015,0.625,0.282,0.618,0.421c-0.03,0.674-0.172,1.343-0.274,2.013c-0.454-0.115-0.719-0.188-0.967-0.148
		c-0.873,0.138-1.743,0.303-2.609,0.484c-0.141,0.03-0.324,0.175-0.367,0.307c-0.165,0.51-0.283,1.033-0.456,1.696
		c0.791-0.164,1.55-0.163,2.126-0.486c0.592-0.331,0.951-0.055,1.016,0.304c0.167,0.924,0.228,1.885-0.08,2.87
		c-0.645-0.649-0.789-0.631-1.714-0.542C18.779,48.632,18.099,49.063,17.382,48.375 M83.052,32.526
		c2.065-1.719,4.248-3.145,6.528-4.436c0.191-0.109,0.386-0.267,0.5-0.451c0.867-1.387,1.772-2.753,2.547-4.188
		c0.721-1.336,1.396-2.713,1.91-4.138c0.713-1.981,1.308-4.009,1.854-6.044c0.395-1.468,0.622-2.973-0.792-4.136
		c-0.187-0.153-0.31-0.391-0.444-0.601c-0.611-0.951-1.343-1.784-2.371-2.294c-0.341-0.168-0.72-0.276-1.092-0.351
		c-0.859-0.172-1.73-0.282-2.586-0.465c-0.675-0.144-1.334-0.359-2.162-0.586c0.283,0.414,0.465,0.622,0.583,0.861
		c0.435,0.869,0.903,1.726,1.257,2.628c0.396,1.01,0.939,2.061,0.957,3.101c0.035,2.021-0.119,4.065-0.787,6.017
		c-0.203,0.595-0.424,1.186-0.619,1.785c-0.448,1.36-0.856,2.735-1.336,4.084c-0.526,1.481-1.094,2.948-1.682,4.406
		c-0.384,0.951-0.824,1.881-1.261,2.81C83.738,31.203,83.388,31.86,83.052,32.526 M60.973,46.079
		c-0.029-0.418-0.076-0.754-0.071-1.089c0.011-0.811,0.282-1.74-0.972-1.9c-0.018-0.002-0.025-0.039-0.045-0.051
		c-0.953-0.602-1.907-1.201-2.86-1.804c-0.305-0.192-0.607-0.394-0.912-0.589c-0.739-0.475-1.444-1.02-2.226-1.41
		c-1.72-0.857-3.483-1.63-5.221-2.453c-1.181-0.561-2.31-1.258-3.534-1.696c-1.509-0.542-3.07-1.007-4.726-0.792
		c-0.745,0.097-1.504,0.113-2.237,0.258c-1.576,0.313-3.151,0.643-4.699,1.066c-0.329,0.09-0.628,0.568-0.784,0.935
		c-0.165,0.387-0.087,0.871-0.215,1.283c-0.269,0.868-0.681,1.698-0.887,2.578c-0.162,0.689-0.119,1.431-0.121,2.149
		c-0.001,0.098,0.279,0.296,0.401,0.277c0.626-0.102,1.256-0.219,1.862-0.404c1.809-0.551,3.614-1.065,5.505-1.314
		c2.098-0.277,4.158-0.301,6.212,0.202c1.694,0.415,3.39,0.824,5.067,1.3c1.453,0.412,2.884,0.905,4.319,1.379
		c0.318,0.104,0.599,0.316,0.917,0.423c0.945,0.313,1.9,0.595,2.849,0.894C59.375,45.564,60.151,45.816,60.973,46.079
		 M31.436,50.179c-0.02,0.073-0.04,0.146-0.06,0.218c-0.014,0.042-0.046,0.086-0.042,0.126c0.322,2.695,0.636,5.391,0.997,8.08
		c0.023,0.176,0.406,0.428,0.624,0.43c0.66,0.008,1.32-0.116,1.981-0.143c1.532-0.062,3.069-0.04,4.595-0.159
		c1.331-0.104,2.664-0.103,3.972-0.604c1.183-0.455,2.479-0.658,3.744-0.838c0.752-0.108,1.239-0.456,1.695-0.997
		c0.767-0.911,1.499-1.869,2.378-2.66c0.875-0.787,1.858-1.497,2.892-2.057c2.05-1.11,4.285-1.622,6.621-1.675
		c0.283-0.006,0.574-0.095,0.838-0.199c0.132-0.054,0.214-0.23,0.318-0.352c-0.148-0.047-0.303-0.146-0.445-0.132
		c-1.387,0.138-2.771,0.318-4.158,0.438c-0.78,0.067-1.569,0.032-2.353,0.069c-1.189,0.057-2.378,0.144-3.568,0.201
		c-1.281,0.062-2.566,0.071-3.845,0.165c-1.616,0.119-3.225,0.373-4.842,0.432c-1.384,0.051-2.773-0.105-4.161-0.148
		C36.223,50.3,33.829,50.244,31.436,50.179 M57.304,84.847c1.528,0.488,2.94,0.998,4.388,1.383c1.208,0.323,2.461,0.473,3.682,0.753
		c0.804,0.185,1.375-0.076,1.824-0.716c0.668-0.957,1.398-1.852,2-2.88c1.23-2.101,2.637-4.079,2.774-6.622
		c0.022-0.422,0.028-0.846,0.062-1.268c0.146-1.946,0.371-3.89,0.426-5.837c0.053-1.791-0.047-3.588-0.135-5.379
		c-0.076-1.562-0.218-3.119-0.347-4.677c-0.086-1.029-0.204-2.058-0.292-2.935c-1.173-0.319-2.219-0.604-3.126-0.852
		c-0.19,0.186-0.321,0.313-0.453,0.439c-0.091,0.088-0.221,0.159-0.266,0.266c-0.401,0.954-0.892,1.888-1.144,2.879
		c-0.207,0.824-0.818,1.705-0.117,2.581c0.365,0.457,0.772,0.882,1.174,1.308c0.813,0.861,1.691,1.668,2.426,2.591
		c0.363,0.456,0.677,1.134,0.643,1.69c-0.08,1.285-0.211,2.621-0.648,3.817c-0.404,1.102-1.184,2.083-1.889,3.051
		c-1.425,1.951-3.233,3.426-5.563,4.199c-0.202,0.066-0.39,0.242-0.53,0.411c-1.175,1.426-2.328,2.869-3.507,4.293
		C58.271,83.843,57.809,84.301,57.304,84.847 M87.554,81.025c1.631-0.955,3.097-1.813,4.562-2.673
		c0.139-0.081,0.276-0.167,0.396-0.271c0.602-0.52,1.334-0.951,1.764-1.587c1.067-1.576,0.867-3.446-0.33-4.959
		c-0.561-0.709-1.107-1.434-1.607-2.186c-1.217-1.823-2.361-3.692-3.61-5.492c-1.315-1.895-2.743-3.711-4.071-5.597
		c-1.109-1.575-2.139-3.204-3.697-4.404c-0.182-0.14-0.24-0.439-0.342-0.637c-0.572,0.515-1.193,1.072-1.803,1.619
		c0.23,0.467,0.484,0.902,0.668,1.365c0.584,1.476,1.156,2.958,1.707,4.445c0.491,1.322,0.987,2.644,1.409,3.987
		c0.733,2.341,1.499,4.679,2.089,7.058c0.569,2.297,1.393,4.486,2.305,6.652C87.336,79.164,87.893,79.908,87.554,81.025
		 M61.582,48.447c-0.032-0.097-0.063-0.178-0.084-0.261c-0.162-0.642-0.08-1.248-1.168-1.369c-1.276-0.142-2.496-0.827-3.731-1.298
		c-3.113-1.185-6.245-2.312-9.509-3.008c-2.17-0.463-4.323-1.126-6.594-0.749c-0.449,0.074-0.91,0.08-1.362,0.146
		c-1.062,0.156-2.132,0.285-3.181,0.51c-1.355,0.289-2.685,0.703-4.044,0.971c-0.457,0.091-0.589,0.274-0.584,0.656
		c0.012,0.824,0.051,1.647,0.06,2.472c0.011,0.999,0.002,1.998,0.002,2.989c1.713,0,3.462-0.003,5.211,0.001
		c1.397,0.004,2.794,0.006,4.19,0.029c1.204,0.02,2.41,0.14,3.61,0.093c3.287-0.128,6.574-0.292,9.857-0.501
		c1.912-0.121,3.818-0.357,5.726-0.539C60.488,48.542,60.996,48.499,61.582,48.447 M75.863,4.834
		c0.748,1.111,1.504,2.014,2.014,3.038c0.9,1.808,1.68,3.678,2.457,5.544c0.658,1.579,1.148,3.204,1.266,4.938
		c0.117,1.733,0.182,3.458-0.169,5.168c-0.339,1.657-0.695,3.313-1.103,4.955c-0.194,0.785-0.709,1.525-0.75,2.304
		c-0.051,0.989-0.556,1.694-0.996,2.472c-0.139,0.243-0.283,0.481-0.426,0.725c1.026,0.549,1.975,1.057,2.932,1.568
		c0.041-0.162,0.054-0.332,0.123-0.475c0.466-0.95,0.963-1.888,1.414-2.845c0.731-1.547,1.533-3.07,2.131-4.67
		c1.174-3.149,2.209-6.351,3.342-9.516c0.541-1.509,0.802-3.064,0.932-4.645c0.1-1.225,0.172-2.455-0.39-3.622
		c-0.404-0.838-0.718-1.72-1.149-2.543c-0.438-0.839-0.969-1.631-1.472-2.435c-0.047-0.076-0.183-0.127-0.28-0.134
		c-0.66-0.049-1.324-0.121-1.984-0.114c-1.778,0.016-3.557,0.056-5.334,0.112C77.584,4.685,76.748,4.772,75.863,4.834 M68.859,5.529
		c0.943,1.288,1.807,2.442,2.641,3.616c0.879,1.235,1.692,2.515,2.602,3.726c1.281,1.708,1.673,3.702,1.805,5.731
		c0.178,2.75-0.107,5.492-0.527,8.216c-0.243,1.588-0.444,3.182-0.717,4.765c-0.063,0.367-0.334,0.699-0.511,1.047
		c-0.088-0.03-0.177-0.061-0.265-0.09c-0.01-0.186-0.051-0.373-0.026-0.554c0.075-0.554,0.188-1.102,0.263-1.655
		c0.242-1.833,0.502-3.665,0.701-5.503c0.144-1.336,0.217-2.681,0.289-4.024c0.1-1.858-0.011-3.696-0.683-5.459
		c-0.739-1.941-1.927-3.622-3.199-5.224c-0.95-1.195-2.04-2.266-2.618-3.727c-0.207-0.522-0.652-0.793-1.275-0.606
		c-0.26,0.078-0.541,0.074-0.813,0.107c-0.766,0.094-1.532,0.188-2.457,0.301c0.349,0.314,0.55,0.497,0.755,0.676
		c0.971,0.854,2.123,1.567,2.692,2.773c0.708,1.498,1.431,3.015,1.89,4.598c0.6,2.062,1.463,4.033,1.832,6.185
		c0.364,2.12,0.869,4.207,0.844,6.374c-0.002,0.114,0.01,0.228,0.011,0.341c0.005,1.16,0.034,2.319,0.004,3.478
		c-0.021,0.776-0.128,1.552-0.183,2.169c0.826,0.064,1.545,0.054,2.235,0.192c0.998,0.202,1.974,0.521,2.964,0.771
		c0.162,0.041,0.454,0.047,0.508-0.04c0.342-0.554,0.697-1.115,0.924-1.721c0.322-0.863,0.549-1.765,0.798-2.654
		c0.395-1.408,0.819-2.809,1.145-4.233c0.191-0.834,0.167-1.715,0.32-2.561c0.336-1.852,0.274-3.709-0.174-5.505
		c-0.442-1.772-1.097-3.496-1.722-5.218c-0.783-2.158-1.994-4.099-3.222-6.027c-0.438-0.687-0.987-0.978-1.823-0.859
		C72.275,5.162,70.677,5.318,68.859,5.529 M50.289,76.439c0.241,0.188,0.417,0.383,0.636,0.486c2.054,0.979,4.172,1.739,6.489,1.67
		c0.818-0.023,1.633-0.162,2.449-0.264c1.434-0.18,2.916-0.288,3.344-2.088c0.025-0.104,0.131-0.184,0.177-0.284
		c0.513-1.137,1.079-2.254,1.518-3.42c0.671-1.785,0.237-3.657,0.3-5.49c0.043-1.302-0.037-2.619,0.141-3.9
		c0.117-0.85,0.093-1.592-0.162-2.41c-0.395-1.273-0.869-2.602-0.387-3.941c0.312-0.869,0.832-1.662,1.188-2.35
		c-0.902-0.998-1.854-2.051-2.797-3.096c-0.271,0.117-0.637,0.179-0.866,0.389c-1.356,1.243-2.63,2.584-4.032,3.771
		c-1.423,1.206-2.957,2.282-4.456,3.396c-0.472,0.351-1.035,0.589-1.476,0.971c-1.872,1.621-3.883,2.985-6.291,3.687
		c-0.141,0.041-0.306,0.215-0.345,0.358c-0.408,1.469-0.483,2.965-0.283,4.473c0.071,0.528,0.196,1.05,0.303,1.612
		c0.256-0.109,0.396-0.182,0.545-0.231c2.417-0.795,4.362-2.336,6.237-3.977c0.568-0.497,1.046-1.101,1.636-1.567
		c1.623-1.282,3.042-2.736,4.116-4.516c0.691-1.145,1.4-2.281,2.096-3.424c0.563-0.924,1.099-1.866,1.693-2.77
		c0.178-0.27,0.514-0.434,0.777-0.646c0.125-0.273,0.307-0.533,0.521-0.76c0.026-0.027,0.355,0.17,0.35,0.185
		c-0.11,0.275-0.219,0.56-0.391,0.797c-0.227,0.318-0.541,0.576-0.757,0.9c-0.771,1.156-1.521,2.325-2.267,3.496
		c-0.528,0.827-1.023,1.676-1.562,2.497c-0.481,0.734-0.915,1.529-1.522,2.147c-1.396,1.422-2.852,2.791-4.347,4.108
		c-1.017,0.896-2.102,1.73-3.234,2.475c-0.939,0.616-1.952,1.172-3.007,1.538c-0.653,0.228-0.756,0.451-0.523,0.99
		c0.771,1.782,1.749,3.407,3.38,4.557c0.428,0.302,0.739,0.187,1.099-0.103c0.728-0.584,1.444-1.195,2.229-1.693
		c1.205-0.763,2.363-1.626,3.187-2.75c0.955-1.303,2.041-2.511,2.527-4.186c0.572-1.961,1.563-3.804,2.402-5.684
		c0.66-1.479,1.359-2.94,2.061-4.4c0.455-0.949,0.779-1.989,1.656-2.669c0.182-0.143,0.447-0.174,0.676-0.256
		c0.021,0.061,0.045,0.12,0.066,0.181c-0.215,0.168-0.508,0.292-0.631,0.511c-0.76,1.354-1.519,2.712-2.201,4.106
		c-0.442,0.898-0.758,1.858-1.12,2.796c-0.197,0.509-0.349,1.037-0.567,1.535c-0.404,0.92-0.865,1.814-1.265,2.735
		c-0.376,0.866-0.625,1.797-1.072,2.622c-1.161,2.137-2.694,3.986-4.666,5.431C52.725,74.819,51.541,75.584,50.289,76.439
		 M61.649,44.929c0.229,0.925,0.474,2.155,0.845,3.344c0.551,1.768,1.855,3.097,3.051,4.394c0.923,1.002,2.231,1.785,3.517,2.281
		c1.712,0.66,3.58,0.671,5.425,0.388c1.614-0.247,3.241-0.495,4.477-1.664c1.908-1.806,3.959-3.464,4.916-6.104
		c0.803-2.22,1.304-4.389,0.57-6.689c-0.477-1.493-1.099-2.903-2.559-3.747c-1.064-0.614-2.083-1.303-3.15-1.909
		c-0.548-0.31-1.142-0.569-1.744-0.745c-1.178-0.342-2.375-0.609-3.563-0.906c-0.233-0.059-0.491-0.196-0.702-0.147
		c-0.945,0.218-1.886,0.465-2.814,0.75c-1.977,0.606-3.898,1.292-5.475,2.755c-1.129,1.047-2.172,2.126-2.428,3.677
		C61.797,41.923,61.779,43.274,61.649,44.929 M78.938,77.026l-0.014-0.006c0.115,2.75-0.495,5.395-1.18,8.068
		c0.098,0,0.191,0.021,0.271-0.003c2.515-0.801,5.08-1.442,7.424-2.73c1.69-0.929,1.875-1.47,1.388-2.841
		c-0.385-1.075-0.906-2.102-1.289-3.178c-0.652-1.836-1.281-3.681-1.853-5.543c-0.813-2.652-1.528-5.335-2.358-7.981
		c-0.394-1.254-0.97-2.45-1.433-3.684c-0.224-0.597-0.327-1.242-0.58-1.824c-0.228-0.523-0.644-0.967-0.866-1.491
		c-0.23-0.544-0.496-0.581-1.002-0.375c-0.691,0.281-1.412,0.522-2.141,0.672c-1.018,0.209-2.057,0.319-3.031,0.465
		c0.041,0.634,0.066,1.239,0.121,1.844c0.155,1.708,0.355,3.412,0.475,5.123c0.127,1.834,0.236,3.673,0.248,5.51
		c0.006,1.154-0.178,2.308-0.279,3.461c-0.072,0.814-0.156,1.627-0.225,2.442c-0.105,1.27-0.023,2.589-0.352,3.798
		c-0.327,1.206-0.99,2.345-1.637,3.436c-0.836,1.412-1.799,2.748-2.713,4.114c-0.145,0.217-0.314,0.418-0.615,0.813
		c1.304-0.174,2.41-0.275,3.5-0.476c1.9-0.349,3.791-0.752,5.684-1.148c0.189-0.04,0.438-0.15,0.514-0.301
		c0.219-0.438,0.44-0.898,0.526-1.375c0.252-1.383,0.454-2.775,0.642-4.169c0.09-0.662,0.103-1.334,0.15-2.002
		C78.341,77.259,78.365,76.867,78.938,77.026 M35.466,76.485c-0.264,1.345-0.539,2.62-0.757,3.905
		c-0.094,0.555-0.015,1.14-0.113,1.693c-0.301,1.698-0.499,3.436-1.017,5.068c-0.71,2.236-1.55,4.452-2.569,6.563
		c-1.252,2.593-2.765,5.067-4.863,7.091c-1.191,1.15-2.509,2.168-3.767,3.25c-0.136,0.118-0.323,0.25-0.355,0.402
		c-0.133,0.644-0.605,0.617-1.291,0.692c0.182-0.4,0.232-0.735,0.427-0.9c0.848-0.717,1.737-1.389,2.615-2.069
		c1.329-1.032,2.564-2.17,3.51-3.561c1.544-2.271,3.089-4.548,4.03-7.165c0.462-1.282,1.047-2.522,1.47-3.815
		c0.368-1.129,0.631-2.298,0.861-3.465c0.282-1.435,0.502-2.884,0.711-4.332c0.144-0.989,0.204-1.989,0.344-2.978
		c0.042-0.304,0.223-0.585,0.345-0.89c-0.96-1.268-1.935-2.691-3.048-3.998c-1.711-2.006-2.866-4.348-4.101-6.629
		c-0.748-1.384-1.178-2.941-1.724-4.432c-0.33-0.898-0.621-1.811-0.902-2.726c-0.112-0.364-0.197-0.752-0.208-1.132
		c-0.013-0.457-0.189-0.645-0.643-0.669c-0.797-0.041-1.631,0.005-2.378-0.22c-1.149-0.347-2.257-0.852-3.344-1.368
		c-0.731-0.348-1.411-0.813-2.088-1.265c-0.558-0.372-0.604-0.955-0.584-1.579c0.061-1.966,0.841-3.759,1.314-5.625
		c0.559-2.206,1.104-4.416,1.72-6.606c0.504-1.789,1.073-3.561,1.672-5.32c0.332-0.979,1.111-1.582,2.011-2.049
		c0.158-0.081,0.355-0.355,0.323-0.491c-0.244-1.03-0.541-2.048-0.819-3.06c-0.356,0.083-0.641,0.205-0.926,0.205
		c-0.66,0.002-1.022-0.749-0.775-1.379c0.506-1.295,1.535-1.779,2.804-1.946c0.089-0.012,0.182-0.023,0.265-0.055
		c0.59-0.224,1.164-0.304,1.625,0.25c0.342,0.412,0.357,1.306-0.129,1.78c-0.834,0.815-0.419,1.685-0.275,2.552
		c0.065,0.394,0.102,0.936,0.358,1.116c0.255,0.178,0.77-0.024,1.171-0.039c0.25-0.009,0.503,0.008,0.752,0.033
		c0.22,0.022,0.437,0.072,0.668,0.112c0.857-2.211,1.622-4.403,2.552-6.521c0.848-1.933,1.806-3.825,2.846-5.661
		c0.742-1.311,1.756-2.465,2.546-3.752c0.714-1.161,1.854-1.863,2.725-2.824c0.881-0.972,2.053-1.5,2.963-2.408
		c0.706-0.705,1.653-1.185,2.532-1.697c1.164-0.679,2.341-1.345,3.559-1.919c1.577-0.742,3.166-1.487,4.81-2.053
		c3.245-1.117,6.504-2.213,9.813-3.118c2.05-0.561,4.192-0.824,6.309-1.09c1.841-0.231,3.718-0.489,5.552-0.36
		c2.83,0.199,5.633,0.755,8.455,1.087c1.985,0.234,3.846,0.852,5.672,1.602c0.56,0.23,1.065,0.587,1.588,0.901
		c1.283,0.772,2.58,1.522,3.836,2.335c2.498,1.62,4.949,3.259,6.594,5.893c0.71,1.135,1.896,1.967,2.846,2.956
		c0.577,0.601,1.121,1.234,1.674,1.858c1.334,1.504,2.023,3.387,2.981,5.112c0.726,1.307,1.496,2.603,2.084,3.973
		c0.958,2.23,1.81,4.485,2.185,6.933c0.291,1.91,0.551,3.801,0.416,5.719c-0.131,1.845-0.395,3.679-0.587,5.519
		c-0.086,0.813-0.112,1.633-0.21,2.445c-0.271,2.242-0.328,4.547-0.914,6.707c-0.734,2.714-1.877,5.321-2.9,7.952
		c-1.248,3.202-3.105,6.069-5.02,8.9c-0.964,1.425-2.246,2.553-3.513,3.689c-1.324,1.188-2.545,2.447-3.66,3.854
		c-0.813,1.022-2.021,1.74-3.085,2.552c-1.15,0.879-2.32,1.732-3.512,2.557c-1.375,0.952-2.771,1.874-4.174,2.783
		c-1.262,0.818-2.533,1.623-3.824,2.397c-0.583,0.349-1.217,0.621-1.84,0.902c-2.308,1.043-4.717,1.592-7.26,1.696
		c-2.096,0.087-4.182,0.396-6.272,0.587c-0.64,0.059-1.287,0.03-1.927,0.089c-0.352,0.031-0.692,0.219-1.041,0.229
		c-0.426,0.013-0.861-0.05-1.28-0.14c-2.272-0.486-4.611-0.792-6.795-1.543c-2.136-0.736-4.103-1.953-6.163-2.921
		c-2.813-1.322-5.102-3.409-7.592-5.198c-0.952-0.685-1.709-1.635-2.569-2.45C37.292,78.165,36.384,77.337,35.466,76.485"/>
	<path clip-path="url(#SVGID_2_)" fill="#231F20" d="M38.315,110.108c-2.139,3.319-4.199,6.518-6.255,9.711
		c-0.695-0.085-0.631-0.48-0.362-0.906c0.666-1.054,1.35-2.095,2.033-3.138c1.332-2.037,2.769-4.015,3.977-6.122
		c1.353-2.359,2.142-4.93,2.459-7.666c0.341-2.945,0.91-5.863,1.32-8.802c0.163-1.168,0.107-2.365,0.257-3.535
		c0.213-1.659,0.523-3.305,0.796-4.954c0.036-0.225,0.06-0.463,0.16-0.661c0.087-0.175,0.272-0.301,0.413-0.448
		c0.084,0.195,0.266,0.409,0.233,0.583c-0.105,0.547-0.321,1.071-0.436,1.617c-0.125,0.595-0.21,1.202-0.27,1.808
		c-0.254,2.586-0.453,5.179-0.746,7.761c-0.291,2.554-0.557,5.119-1.049,7.639c-0.344,1.757-1.022,3.452-1.604,5.157
		c-0.295,0.865-0.294,1.649-0.025,2.548c0.4,1.337,0.714,2.732,0.812,4.121c0.162,2.308,0.119,4.63,0.171,6.945
		c0.038,1.734,0.146,3.471,0.121,5.203c-0.031,2.171-0.147,4.342-0.264,6.51c-0.119,2.22-0.663,4.364-1.401,6.439
		c-0.937,2.637-2.748,4.499-5.452,5.37c-2.184,0.702-4.426,1.203-6.719,1.308c-2.719,0.123-5.444,0.102-8.166,0.177
		c-0.862,0.023-1.722,0.148-2.581,0.246c-0.987,0.113-1.926,0.209-2.947-0.078c-1.411-0.399-2.923-0.427-4.361-0.749
		c-1.891-0.425-3.669-1.135-5.223-2.365c-1.525-1.209-2.357-2.789-2.728-4.646c-0.568-2.843-0.517-5.724-0.411-8.599
		c0.039-1.067,0.288-2.124,0.395-3.191c0.122-1.222,0.176-2.45,0.291-3.675c0.11-1.171,0.279-2.338,0.388-3.51
		c0.117-1.261,0.212-2.525,0.287-3.791c0.145-2.427,0.259-4.856,0.405-7.283c0.105-1.744,0.134-3.501,0.387-5.225
		c0.386-2.627,0.93-5.232,1.419-7.845c0.126-0.672,0.327-1.33,0.436-2.005c0.114-0.701,0.559-0.981,1.183-1.151
		c2.564-0.7,5.168-1.168,7.81-1.461c1.313-0.146,2.6-0.522,3.912-0.686c1.383-0.173,2.781-0.217,4.172-0.315
		c1.706-0.122,3.41-0.27,5.118-0.358c1.597-0.084,3.053,0.398,4.377,1.275c0.128,0.085,0.16,0.314,0.237,0.477
		c-0.177-0.003-0.392,0.058-0.525-0.02c-1.099-0.648-2.265-1.082-3.546-1.14c-0.448-0.019-0.901,0.048-1.352,0.08
		c-1.816,0.133-3.632,0.284-5.45,0.395c-0.792,0.047-1.591-0.019-2.384,0.023c-0.445,0.024-0.882,0.175-1.326,0.248
		c-1.223,0.2-2.442,0.489-3.674,0.562c-2.072,0.123-4.055,0.648-6.062,1.092c-1.495,0.329-1.701,0.563-2.02,2.036
		c-0.226,1.039-0.737,2.018-0.941,3.059c-0.348,1.769-0.568,3.562-0.814,5.347c-0.147,1.073-0.275,2.15-0.346,3.23
		c-0.067,1.032-0.008,2.073-0.076,3.106c-0.092,1.397-0.275,2.79-0.373,4.189c-0.041,0.581,0.056,1.17,0.056,1.756
		c-0.001,0.542-0.034,1.085-0.077,1.626c-0.087,1.087-0.195,2.172-0.286,3.258c-0.142,1.684-0.249,3.367-0.42,5.047
		c-0.241,2.354-0.579,4.698-0.766,7.056c-0.072,0.914,0.149,1.851,0.249,2.775c0.128,1.175,0.214,2.357,0.415,3.519
		c0.325,1.879,1.341,3.367,2.863,4.484c1.145,0.841,2.456,1.396,3.848,1.632c2.132,0.36,4.279,0.651,6.431,0.87
		c0.915,0.092,1.857-0.105,2.788-0.12c1.338-0.022,2.677-0.018,4.015,0.01c2.68,0.056,5.343-0.051,7.965-0.676
		c1.382-0.33,2.782-0.591,4.149-0.975c1.715-0.479,3.008-1.593,3.905-3.093c1.195-1.999,1.872-4.197,2.097-6.515
		c0.214-2.223,0.451-4.447,0.531-6.676c0.06-1.635-0.144-3.275-0.18-4.914c-0.029-1.356,0.003-2.714,0.03-4.069
		c0.055-2.726-0.287-5.405-0.936-8.048c-0.022-0.087-0.011-0.186-0.044-0.267C38.572,110.586,38.494,110.456,38.315,110.108"/>
	<path clip-path="url(#SVGID_2_)" fill="#231F20" d="M21.884,121.138c-0.063,0.367-0.118,0.688-0.195,1.136
		c-0.632-0.666-1.125-0.22-1.627,0.001c-1.359,0.597-1.4,1.991-1.913,3.119c-0.508,1.113-0.39,2.184,0.193,3.121
		c1.04,1.671,3.395,2.948,5.376,1.559c1.256-0.881,2.254-2.018,2.757-3.507c0.399-1.185-0.573-2.776-1.859-3.082
		c0.254,1.291-0.141,2.18-1.309,2.975c-0.184,0.126-0.319,0.351-0.516,0.423c-0.23,0.085-0.504,0.052-0.759,0.07
		c0.082-0.238,0.104-0.534,0.263-0.697c0.214-0.222,0.539-0.333,0.806-0.506c1.08-0.695,1.263-1.974,0.437-2.927
		c-0.233-0.269-0.43-0.567-0.719-0.951c-0.061,0.232-0.112,0.406-0.153,0.581c-0.229,0.981-0.429,1.972-0.7,2.942
		c-0.085,0.304-0.36,0.555-0.548,0.829c-0.074-0.013-0.148-0.024-0.223-0.037c-0.013-0.283-0.095-0.586-0.028-0.849
		c0.396-1.547,0.821-3.087,1.256-4.624c0.047-0.165,0.223-0.293,0.339-0.438c0.131,0.115,0.309,0.209,0.385,0.354
		c0.273,0.523,0.456,1.104,0.786,1.583c0.189,0.276,0.465,0.743,0.995,0.347c0.257-0.191,0.933,0.199,1.027,0.516
		c0.068,0.231,0.15,0.51,0.321,0.651c1.233,1.032,1.083,2.313,0.558,3.561c-0.586,1.397-1.461,2.615-2.737,3.517
		c-1.048,0.74-3.236,0.911-4.332,0.287c-1.447-0.824-2.494-1.992-2.627-3.673c-0.064-0.808,0.323-1.655,0.526-2.479
		c0.076-0.308,0.231-0.596,0.315-0.9C18.5,122.127,19.794,121.123,21.884,121.138"/>
	<path clip-path="url(#SVGID_2_)" fill="#231F20" d="M5.584,93.73c0.182-0.038,0.392-0.154,0.541-0.1
		c0.988,0.353,1.977,0.71,2.935,1.135c0.536,0.238,0.868,0.637,0.77,1.343c-0.228,1.652-0.357,3.318-0.566,4.973
		c-0.12,0.942-0.401,1.868-0.468,2.812c-0.239,3.366-0.42,6.736-0.618,10.104c-0.098,1.684-0.233,3.366-0.267,5.051
		c-0.045,2.224-0.041,4.449,0.006,6.673c0.047,2.272,0.169,4.543,0.265,6.814c0.012,0.273,0.023,0.559,0.104,0.816
		c0.43,1.372-0.21,2.295-1.211,3.122c-0.331,0.273-0.907,0.45-0.746,1.113c0.019,0.077-0.318,0.356-0.437,0.328
		c-0.231-0.057-0.425-0.267-0.679-0.442c0.782-0.763,1.479-1.401,2.119-2.092c0.191-0.206,0.311-0.563,0.31-0.85
		c-0.007-1.618-0.053-3.236-0.101-4.854c-0.099-3.347-0.248-6.69-0.291-10.037c-0.014-1.128,0.287-2.256,0.344-3.39
		c0.075-1.501,0.009-3.008,0.082-4.509c0.09-1.838,0.219-3.676,0.412-5.506c0.173-1.633,0.46-3.254,0.69-4.882
		c0.215-1.51,0.434-3.019,0.626-4.532c0.145-1.142,0.028-1.304-1.086-1.688c-0.452-0.156-0.925-0.261-1.366-0.44
		c-0.462-0.188-0.898-0.439-1.344-0.664C5.6,93.929,5.592,93.829,5.584,93.73"/>
	<path clip-path="url(#SVGID_2_)" fill="#231F20" d="M23.946,138.888c-1.869,0-3.882-0.039-5.894,0.012
		c-2.126,0.052-4.177-0.279-6.184-0.958c-0.439-0.148-0.902-0.236-1.324-0.423c-0.128-0.055-0.155-0.342-0.228-0.522
		c0.198-0.068,0.425-0.235,0.592-0.188c2.014,0.568,4.048,1.015,6.152,1.028c1.101,0.007,2.203-0.014,3.304-0.036
		c2.512-0.049,5.027-0.056,7.536-0.185c1.17-0.061,2.326-0.375,3.492-0.558c0.714-0.11,1.433-0.202,2.153-0.27
		c0.137-0.013,0.289,0.131,0.434,0.202c-0.104,0.085-0.205,0.174-0.313,0.255c-1.323,0.988-2.956,0.919-4.46,1.199
		C27.535,138.755,25.803,138.746,23.946,138.888"/>
	<path clip-path="url(#SVGID_2_)" fill="#231F20" d="M67.439,42.79c-0.046,0.057-0.092,0.115-0.138,0.172
		c0.196,0.564,0.368,1.137,0.596,1.687c0.211,0.514,0.609,0.759,1.19,0.712c0.82-0.065,1.646-0.161,2.465-0.127
		c1.658,0.071,3.309,0.193,4.924-0.329c0.727-0.235,0.988-0.601,0.885-1.397c-0.044-0.335-0.187-0.657-0.283-0.984
		c-0.209,0.24-0.478,0.452-0.617,0.729c-0.291,0.577-0.612,0.712-1.18,0.333c-0.166-0.111-0.543-0.058-0.74,0.06
		c-0.91,0.547-1.705,0.464-2.469-0.277c-0.363-0.353-0.801-0.344-1.324-0.282C69.648,43.212,68.475,44.1,67.439,42.79
		 M67.226,42.095c0.283,0.135,0.39,0.154,0.444,0.216c0.627,0.731,1.371,0.612,2.186,0.38c0.566-0.162,1.178-0.217,1.771-0.227
		c0.227-0.004,0.502,0.209,0.679,0.396c0.562,0.6,1.071,0.733,1.817,0.358c0.478-0.241,0.922-0.478,1.461-0.127
		c0.082,0.052,0.393-0.114,0.494-0.253c0.297-0.416,0.483-1.091,1.123-0.887c0.572,0.184,0.53,0.834,0.532,1.364
		c0.002,0.275,0.015,0.551,0.021,0.824c0.018,0.813-0.334,1.164-1.125,1.362c-1.534,0.382-3.075,0.381-4.637,0.28
		c-0.699-0.046-1.418-0.002-2.11,0.111c-2.245,0.369-2.398-0.715-2.763-2.469C67.039,43.04,67.178,42.61,67.226,42.095"/>
	<path clip-path="url(#SVGID_2_)" fill="#231F20" d="M78.938,77.027c-0.428-0.218-0.514-0.571-0.474-1.023
		c0.207-2.345-0.511-4.611-0.618-6.931c-0.123-2.681-0.922-5.22-1.654-7.771c-0.382-1.325-0.795-2.642-1.17-3.969
		c-0.058-0.204,0.014-0.444,0.024-0.668c0.095-0.012,0.19-0.025,0.286-0.037c0.298,0.761,0.684,1.5,0.877,2.287
		c0.677,2.749,1.84,5.37,2.123,8.222c0.23,2.33,0.543,4.652,0.729,6.985c0.075,0.954-0.09,1.928-0.143,2.894
		C78.923,77.021,78.938,77.027,78.938,77.027"/>
</g>
</svg>
