<?xml version="1.0" encoding="utf-8"?>
<!-- Generator: Adobe Illustrator 16.0.0, SVG Export Plug-In . SVG Version: 6.00 Build 0)  -->
<!DOCTYPE svg PUBLIC "-//W3C//DTD SVG 1.1//EN" "http://www.w3.org/Graphics/SVG/1.1/DTD/svg11.dtd">
<svg version="1.1" id="Layer_1" xmlns="http://www.w3.org/2000/svg" xmlns:xlink="http://www.w3.org/1999/xlink" x="0px" y="0px"
	 width="124.49px" height="125.783px" viewBox="0 0 124.49 125.783" enable-background="new 0 0 124.49 125.783"
	 xml:space="preserve">
<g>
	<defs>
		<rect id="SVGID_1_" width="124.49" height="125.783"/>
	</defs>
	<clipPath id="SVGID_2_">
		<use xlink:href="#SVGID_1_"  overflow="visible"/>
	</clipPath>
	<path clip-path="url(#SVGID_2_)" fill="#231F20" d="M8.491,117.813c-0.312,0.136-0.615,0.308-0.94,0.397
		c-0.484,0.134-0.716-0.208-0.623-0.585c0.238-0.97-0.367-0.949-1.005-0.986c-0.818-0.048-1.146-0.47-1.034-1.271
		c0.101-0.723-0.634-1.688-1.371-1.752c-0.985-0.084-1.487,0.676-1.975,1.306c-0.638,0.825-0.575,1.32-0.006,1.986
		c0.02,0.023-0.009,0.09-0.015,0.135c-0.215,0.021-0.428,0.045-0.718,0.074c0.16,0.363,0.261,0.674,0.425,0.946
		c0.206,0.343,0.465,0.652,0.699,0.979c1.799,2.499,3.945,4.591,6.894,5.678c0.637,0.235,1.379,0.376,2.042,0.296
		c0.783-0.094,1.53-0.479,2.296-0.729c0.564-0.185,0.726-0.585,0.435-1.052c-0.168-0.268-0.516-0.508-0.827-0.586
		c-1.148-0.285-1.264-0.393-1.185-1.513c-0.788-0.227-1.64-0.421-1.285-1.555C8.566,119.354,8.566,119.354,8.491,117.813
		 M10.461,104.006c-0.12,0.222-0.191,0.351-0.259,0.482c-1.407,2.682-2.804,5.373-4.996,7.531c-0.326,0.321-0.449,0.597-0.285,1.041
		c0.157,0.423,0.336,0.675,0.85,0.63c0.208-0.019,0.437,0.187,0.571,0.249c-0.319,0.662-0.606,1.262-0.983,2.046
		c1.145-0.076,1.996-0.135,3.002-0.202c-0.176,0.323-0.237,0.405-0.269,0.498c-0.101,0.293-0.192,0.59-0.287,0.885
		c0.351,0.039,0.701,0.091,1.053,0.111c0.335,0.021,0.671,0.011,1.058,0.014c-0.155,0.548-0.274,0.965-0.411,1.443
		c0.728,0.027,1.341,0.051,2.002,0.075c-0.057,0.201-0.085,0.323-0.126,0.44c-0.285,0.804-0.165,0.969,0.694,1.009
		c0.3,0.015,0.598,0.086,0.999,0.148c-0.235,0.352-0.422,0.56-0.524,0.804c-0.171,0.41-0.034,0.759,0.437,0.731
		c0.543-0.031,1.176-0.053,1.596-0.337c0.825-0.56,1.635-1.211,2.264-1.979c1.579-1.924,3.183-3.808,5.361-5.081
		c0.994-0.583,1.437-1.357,1.215-2.508c-0.123-0.643-0.09-1.332-0.306-1.936c-0.55-1.527-1.194-3.027-3.036-3.433
		c-0.591-0.129-1.21-0.168-1.779-0.359c-1.128-0.376-2.011-0.33-2.937,0.646c-1.734,1.821-3.65,3.469-5.472,5.209
		c-0.576,0.55-1.093,1.16-1.637,1.744c-0.085-0.049-0.17-0.097-0.257-0.146c0.134-0.271,0.208-0.599,0.408-0.806
		c1.532-1.576,3.07-3.146,4.643-4.681c0.887-0.864,1.842-1.658,2.929-2.629C13.967,105.05,12.22,104.53,10.461,104.006
		 M123.456,41.622c-0.082,0.241-0.099,0.535-0.251,0.714c-2.377,2.788-4.717,5.607-7.172,8.325
		c-3.54,3.917-7.146,7.774-10.766,11.619c-1.657,1.763-3.433,3.414-5.121,5.149c-1.616,1.659-3.182,3.367-4.781,5.042
		c-1.799,1.88-3.625,3.737-5.418,5.624c-2.45,2.578-4.83,5.224-7.333,7.748c-2.125,2.146-4.358,4.183-6.587,6.223
		c-1.243,1.139-2.559,2.197-3.867,3.263c-0.425,0.347-0.943,0.579-1.391,0.902c-0.461,0.335-0.924,0.289-1.336,0.007
		c-0.53-0.363-0.862-0.129-1.229,0.238c-0.727,0.727-1.469,1.437-2.213,2.145c-0.619,0.589-1.418,0.497-2.125,0.385
		c-2.296-0.361-4.294-1.52-6.33-2.552c-0.8-0.405-1.553-0.914-2.373-1.269c-0.388-0.167-0.887-0.114-1.332-0.103
		c-2.245,0.063-4.502,0.014-6.728,0.258c-2.648,0.29-5.319,0.673-7.571,2.333c-1.419,1.045-2.298,2.501-3.203,3.974
		c-1.608,2.616-3.593,4.955-5.839,7.042c-1.999,1.855-4.081,3.623-6.174,5.371c-1.044,0.872-2.276,1.526-3.281,2.437
		c-1.307,1.182-2.449,2.546-3.707,3.784c-0.818,0.804-1.734,1.507-2.566,2.298c-0.162,0.152-0.224,0.52-0.181,0.761
		c0.193,1.079,0.213,1.075-0.807,1.509c-0.511,0.218-1.027,0.423-1.53,0.659c-1.453,0.676-2.737-0.049-4.043-0.495
		c-2.166-0.738-3.893-2.16-5.373-3.827c-1.009-1.135-1.78-2.484-2.648-3.744c-0.412-0.599-0.026-1.14,0.217-1.635
		c0.591-1.201,1.334-2.241,2.572-2.949c0.774-0.443,1.362-1.241,1.975-1.933c0.684-0.771,1.382-1.552,1.93-2.421
		c0.686-1.09,1.195-2.291,1.834-3.413c0.872-1.532,1.747-3.065,2.709-4.539c0.823-1.26,1.675-2.527,2.687-3.633
		c1.582-1.729,3.281-3.355,4.987-4.966c1.332-1.26,2.775-2.402,4.12-3.647c1.049-0.97,2.088-1.966,3.006-3.056
		c0.472-0.563,0.825-1.326,0.955-2.049c0.247-1.355,0.37-2.743,0.406-4.121c0.067-2.617,0.51-5.161,1.221-7.67
		c0.075-0.266,0.145-0.532,0.194-0.712c-0.285-0.326-0.579-0.579-0.77-0.895c-0.797-1.309-1.725-2.561-2.016-4.115
		c-0.312-1.657-0.617-3.317-0.873-4.984c-0.028-0.18,0.279-0.41,0.432-0.616c0.202,0.17,0.544,0.312,0.585,0.516
		c0.372,1.875,0.566,3.794,1.072,5.629c0.324,1.176,1.085,2.231,1.713,3.462c0.969-1.255,0.568-2.899,1.626-3.965
		c-0.02-0.162-0.135-0.445-0.071-0.681c0.21-0.771,0.45-1.537,0.742-2.281c0.305-0.773,0.456-0.789,1.101-0.352
		c-0.383,1.03-0.882,1.998-1.1,3.025c-0.881,4.164-2.573,8.142-2.854,12.444c-0.12,1.833-0.282,3.667-0.529,5.486
		c-0.189,1.39-0.722,2.68-1.804,3.641c-0.939,0.835-1.959,1.579-2.894,2.418c-2.341,2.101-4.628,4.261-6.986,6.341
		c-2.23,1.969-3.718,4.484-5.301,6.935c-0.131,0.203-0.183,0.457-0.26,0.654c1.732,0.527,3.402,1.067,5.091,1.541
		c1.555,0.437,3.113,0.916,4.703,1.163c1.671,0.261,2.447,1.449,2.96,2.731c0.454,1.136,0.461,2.453,0.663,3.688
		c0.023,0.141,0.032,0.281,0.074,0.647c1.815-1.591,3.525-3.031,5.147-4.565c0.308-0.293,0.4-0.972,0.355-1.45
		c-0.145-1.527-0.34-3.057-0.634-4.563c-0.225-1.154-1.021-1.707-2.218-1.793c-3.367-0.242-6.734-0.473-10.099-0.741
		c-0.877-0.068-1.745-0.243-2.612-0.396c-0.197-0.035-0.375-0.186-0.561-0.281c0.009-0.095,0.019-0.189,0.027-0.283
		c0.518-0.028,1.041-0.119,1.553-0.076c1.78,0.152,3.556,0.356,5.335,0.521c0.167,0.016,0.403-0.061,0.513-0.18
		c1.983-2.158,4.56-3.504,6.987-5.034c1.659-1.046,3.129-2.316,4.67-3.501c0.653-0.502,1.24-1.108,1.792-1.725
		c0.926-1.038,0.879-2.328,0.518-3.509c-0.487-1.588-0.494-3.176-0.466-4.793c0.008-0.449-0.097-0.901-0.097-1.351
		c0-0.158,0.16-0.315,0.248-0.475c0.121,0.137,0.33,0.262,0.345,0.408c0.06,0.548,0.117,1.109,0.064,1.654
		c-0.15,1.529,0.041,2.995,0.514,4.463c0.433,1.342,0.456,2.749-0.588,3.846c-0.879,0.925-1.923,1.693-2.897,2.53
		c-0.106,0.092-0.215,0.182-0.331,0.262c-0.624,0.436-1.26,0.854-1.871,1.302c-0.334,0.245-0.6,0.587-0.947,0.804
		c-1.073,0.672-2.182,1.284-3.252,1.959c-1.031,0.65-2.057,1.314-3.033,2.043c-0.477,0.356-0.837,0.871-1.304,1.373
		c1.285,0.089,2.576,0.137,3.857,0.279c1.121,0.126,2.256,0.268,3.337,0.571c1.068,0.3,1.44,1.292,1.611,2.279
		c0.231,1.332,0.356,2.681,0.532,4.021c0.012,0.091,0.076,0.172,0.23,0.507c1.489-1.901,2.907-3.664,4.269-5.47
		c0.848-1.123,1.503-2.407,2.433-3.452c1.66-1.865,3.927-2.687,6.307-3.211c2.874-0.634,5.796-0.679,8.724-0.731
		c2.585-0.046,5.193-0.092,7.608-1.24c0.045-0.021,0.099-0.054,0.143-0.046c0.777,0.137,1.265-0.255,1.708-0.836
		c0.109-0.144,0.482-0.083,0.763-0.12c-0.115,0.949-0.711,1.47-1.507,1.654c-0.957,0.22-1.876,0.593-2.825,0.855
		c-0.593,0.165-1.21,0.246-2.034,0.408c2.448,1.221,4.544,2.626,7.088,3.068c1.091,0.189,1.849-0.241,2.563-0.946
		c0.391-0.387,0.85-0.712,1.207-1.125c0.287-0.331,0.469-0.752,0.766-1.25c0.242,0.091,0.6,0.153,0.867,0.341
		c0.726,0.503,1.375,0.356,1.994-0.148c1.25-1.02,2.524-2.01,3.719-3.091c2.183-1.975,4.359-3.963,6.455-6.027
		c1.726-1.7,3.328-3.526,4.998-5.281c0.748-0.786,1.552-1.519,2.3-2.304c1.372-1.44,2.711-2.912,4.085-4.352
		c2.162-2.263,4.318-4.532,6.523-6.751c1.67-1.684,3.438-3.27,5.117-4.944c0.797-0.798,1.465-1.722,2.233-2.553
		c1.287-1.399,2.612-2.765,3.912-4.154c1.665-1.779,3.321-3.567,4.974-5.356c1.068-1.156,2.171-2.284,3.177-3.494
		c1.298-1.561,2.499-3.2,3.776-4.779c0.192-0.236,0.569-0.324,0.86-0.48C123.303,41.489,123.379,41.556,123.456,41.622"/>
	<path clip-path="url(#SVGID_2_)" fill="#231F20" d="M84.908,0.108c-0.086,0.751-0.586,0.862-1.168,0.909
		c-1.391,0.109-2.823,0.192-3.985,1.037c-0.991,0.721-1.888,1.585-2.759,2.452c-2.293,2.279-4.586,4.562-6.814,6.906
		c-2.134,2.242-4.171,4.577-6.281,6.846c-1.839,1.978-3.733,3.907-5.579,5.881c-2.307,2.469-4.523,5.025-6.896,7.428
		c-3.09,3.129-6.338,6.102-9.431,9.229c-1.543,1.558-2.88,3.318-4.33,4.971c-1.359,1.548-2.692,3.123-4.13,4.595
		c-1.26,1.289-2.656,2.444-3.976,3.676c-0.309,0.288-0.59,0.623-0.824,0.976c-0.2,0.302-0.646,0.562-0.281,1.045
		c0.324,0.432,0.497,1.023,1.256,0.863c0.178-0.038,0.413,0.193,0.622,0.302c-0.03,0.096-0.06,0.192-0.089,0.289
		c-0.436-0.056-0.872-0.111-1.353-0.173c-0.116,0.796-0.807,1.207-1.496,1.602c-0.588,0.338-1.192,0.65-1.801,0.951
		c-0.15,0.073-0.343,0.055-0.517,0.08c0.058-0.213,0.049-0.514,0.187-0.621c0.418-0.319,0.895-0.562,1.346-0.836
		c0.151-0.093,0.297-0.193,0.445-0.291c1.087-0.723,1.267-1.327,0.634-2.462c-0.26-0.468-0.099-0.736,0.215-1.051
		c2.041-2.038,4.108-4.05,6.095-6.139c1.379-1.448,2.623-3.025,3.965-4.512c1.686-1.867,3.383-3.726,5.127-5.538
		c1.561-1.621,3.197-3.169,4.792-4.755c1.628-1.622,3.286-3.217,4.862-4.887c1.87-1.985,3.656-4.05,5.503-6.058
		c1.588-1.726,3.224-3.408,4.814-5.132c1.777-1.928,3.504-3.9,5.293-5.815c1.579-1.693,3.193-3.354,4.827-4.994
		c1.563-1.567,3.147-3.118,4.772-4.619c0.562-0.518,1.227-1.035,1.937-1.255c1.435-0.443,2.933-0.691,4.408-0.998
		C84.479-0.029,84.686,0.068,84.908,0.108"/>
	<path clip-path="url(#SVGID_2_)" fill="#231F20" d="M86.278,1.405c0.188-0.24,0.334-0.618,0.549-0.663
		c0.498-0.103,1.073-0.182,1.539-0.031c3.955,1.278,8.015,2.33,11.562,4.603c1.289,0.827,2.484,1.826,3.63,2.85
		c2.981,2.663,5.709,5.565,8.176,8.727c1.485,1.905,3.223,3.61,4.789,5.454c1.093,1.285,2.106,2.64,3.119,3.989
		c1.013,1.352,2.001,2.721,2.958,4.11c0.77,1.118,1.193,2.376,1.347,3.73c0.119,1.046,0.304,2.084,0.427,3.129
		c0.077,0.651,0.12,1.312,0.116,1.968c-0.001,0.144-0.259,0.287-0.398,0.431c-0.123-0.137-0.333-0.259-0.359-0.413
		c-0.237-1.38-0.573-2.761-0.628-4.15c-0.112-2.834-1.688-4.888-3.352-6.948c-0.727-0.897-1.254-1.959-1.993-2.844
		c-1.309-1.569-2.731-3.042-4.069-4.587c-1.471-1.7-2.84-3.491-4.362-5.143c-2.104-2.283-4.34-4.444-6.465-6.711
		c-2.382-2.54-5.414-4.046-8.542-5.333c-2.113-0.869-4.359-1.418-6.559-2.073C87.362,1.381,86.908,1.44,86.278,1.405"/>
	<path clip-path="url(#SVGID_2_)" fill="#231F20" d="M68.658,94.278c-0.109-0.457-0.204-0.845-0.294-1.231
		c-0.286-1.225-0.53-2.461-0.874-3.67c-0.16-0.565-0.466-1.102-0.779-1.604c-1.385-2.213-2.711-4.466-4.22-6.59
		c-1.5-2.112-3.077-4.193-4.842-6.083c-1.052-1.125-2.29-2.124-3.71-2.92c-1.286-0.72-2.279-1.965-3.386-2.996
		c-2.643-2.462-5.398-4.756-8.542-6.588c-2.276-1.326-4.589-2.504-7.125-3.229c-0.741-0.213-1.473-0.47-2.19-0.751
		c-0.245-0.097-0.437-0.33-0.651-0.501c0.311-0.085,0.66-0.304,0.928-0.229c0.795,0.218,1.544,0.594,2.335,0.831
		c2.879,0.859,5.53,2.209,8.062,3.79c1.647,1.027,3.321,2.05,4.814,3.28c1.926,1.588,3.667,3.403,5.525,5.077
		c0.691,0.623,1.471,1.155,2.247,1.675c1.975,1.323,3.608,2.976,4.993,4.902c1.202,1.671,2.568,3.231,3.666,4.966
		c1.314,2.08,2.409,4.301,3.625,6.445c0.76,1.339,0.959,2.807,1.1,4.296C69.383,93.616,69.348,94.062,68.658,94.278"/>
	<path clip-path="url(#SVGID_2_)" fill="#231F20" d="M47.006,70.767c2.332,1.863,4.346,4.013,6.153,6.403
		c1.645,2.178,3.603,4.115,5.391,6.187c0.471,0.546,0.795,1.216,1.236,1.79c0.442,0.576,0.907,1.145,1.428,1.648
		c1.671,1.618,2.523,3.752,3.491,5.77c0.634,1.321,0.096,2.824-0.38,4.193c-0.042,0.123-0.256,0.186-0.39,0.276
		c-0.049-0.163-0.157-0.334-0.139-0.488c0.09-0.688,0.266-1.368,0.318-2.058c0.145-1.876-0.956-3.325-1.866-4.771
		c-0.98-1.558-2.176-2.987-3.353-4.41c-1.505-1.821-3.106-3.563-4.63-5.369c-1.23-1.457-2.424-2.945-3.603-4.445
		c-1.845-2.35-4.099-4.261-6.511-5.977c-2.629-1.868-5.305-3.675-8.013-5.425c-2.165-1.399-4.403-2.696-7.039-3.024
		c-0.349-0.043-0.718,0.035-1.053-0.048c-0.196-0.049-0.34-0.305-0.508-0.468c0.183-0.077,0.367-0.226,0.547-0.221
		c2.427,0.063,4.567,0.985,6.706,2.066c3.879,1.961,7.125,4.86,10.818,7.091C46.139,69.808,46.543,70.335,47.006,70.767"/>
	<path clip-path="url(#SVGID_2_)" fill="#231F20" d="M31.933,81.237c-0.104,1.344-0.213,2.688-0.311,4.033
		c-0.043,0.576-0.005,1.165-0.107,1.729c-0.289,1.608-1.588,2.327-2.843,3.032c-0.672,0.376-1.414,0.659-2.155,0.882
		c-1.401,0.422-2.253,1.501-3.073,2.563c-0.902,1.169-1.628,2.473-2.476,3.688c-0.319,0.459-0.76,0.834-1.273,1.148
		c0.456-0.613,0.92-1.221,1.365-1.841c0.174-0.243,0.333-0.505,0.448-0.779c0.776-1.863,1.936-3.459,3.59-4.597
		c0.898-0.617,2.041-0.865,2.985-1.432c0.866-0.52,1.661-1.189,2.383-1.901c0.271-0.267,0.319-0.829,0.344-1.265
		c0.092-1.585,0.103-3.175,0.216-4.758c0.019-0.239,0.413-0.451,0.633-0.676C31.75,81.122,31.842,81.181,31.933,81.237"/>
	<path clip-path="url(#SVGID_2_)" fill="#231F20" d="M34,75.147c1.038-1.661,0.863-3.355,0.726-5.046
		c-0.038-0.478-0.155-1.012,0.67-0.961c0.13,2.049,0.312,4.079-0.778,5.961c-0.254,0.439-0.633,0.55-1.017,0.352
		c-0.798-0.412-1.614-0.83-2.301-1.394c-0.282-0.231-0.396-0.866-0.336-1.28c0.133-0.917,0.441-1.809,0.648-2.716
		c0.266-1.167,1.697-2.218,2.87-2.038c0.16,0.024,0.286,0.268,0.429,0.409c-0.163,0.107-0.328,0.31-0.49,0.307
		c-1.041-0.013-1.862,0.323-2.15,1.396c-0.282,1.057-0.494,2.133-0.688,3.209c-0.028,0.156,0.175,0.422,0.34,0.532
		C32.588,74.316,33.281,74.713,34,75.147"/>
	<path clip-path="url(#SVGID_2_)" fill="#231F20" d="M31.133,80.389c-0.011-0.173-0.052-0.348-0.03-0.514
		c0.086-0.625,0.192-1.247,0.292-1.868c0.174-1.087,0.909-1.248,1.699-1.051c0.524,0.131,1.019,0.416,1.493,0.692
		c0.122,0.07,0.111,0.37,0.161,0.563c-0.186-0.018-0.383-0.005-0.556-0.063c-0.162-0.056-0.299-0.185-0.448-0.281
		c-1.079-0.7-1.521-0.528-1.816,0.691c-0.15,0.622-0.325,1.236-0.489,1.854C31.337,80.404,31.235,80.396,31.133,80.389"/>
	<path clip-path="url(#SVGID_2_)" fill="#231F20" d="M4.553,117.957c0.622-0.278,0.893-0.01,1.274,0.301
		c1.523,1.244,3.104,2.421,4.688,3.588c1.161,0.854,1.195,1.812,0.003,2.559c-0.198,0.125-0.535,0.024-0.808,0.027
		c0.102-0.218,0.168-0.464,0.314-0.646c0.169-0.207,0.409-0.355,0.802-0.684c-0.843-0.689-1.583-1.343-2.374-1.928
		c-1.201-0.891-2.446-1.722-3.649-2.609C4.646,118.447,4.624,118.144,4.553,117.957"/>
</g>
</svg>
