<?xml version="1.0" encoding="utf-8"?>
<!-- Generator: Adobe Illustrator 16.0.0, SVG Export Plug-In . SVG Version: 6.00 Build 0)  -->
<!DOCTYPE svg PUBLIC "-//W3C//DTD SVG 1.1//EN" "http://www.w3.org/Graphics/SVG/1.1/DTD/svg11.dtd">
<svg version="1.1" id="Layer_1" xmlns="http://www.w3.org/2000/svg" xmlns:xlink="http://www.w3.org/1999/xlink" x="0px" y="0px"
	 width="18px" height="29.05px" viewBox="0 0 18 29.05" enable-background="new 0 0 18 29.05" xml:space="preserve">
<path fill="none" stroke="#231F20" stroke-width="0.5" stroke-miterlimit="10" d="M16.272,15.404
	c-0.362-0.342-0.728-0.678-1.085-1.023c-0.225-0.218-0.406-0.483-0.634-0.703c-0.356-0.341-0.693-0.8-1.026-1.17
	c-0.353-0.395-0.792-0.638-1.105-1.077c-0.127-0.172-0.278-0.328-0.389-0.518c-0.301-0.551-0.797-0.848-1.233-1.262
	C10.178,9.055,9.611,8.389,8.914,7.87C8.498,7.559,8.193,7.206,7.793,6.881C7.31,6.481,6.943,5.892,6.408,5.547
	C5.811,5.153,5.482,4.55,4.854,4.183C4.326,3.877,3.959,3.33,3.496,2.956C3.099,2.638,2.689,2.202,2.357,1.817
	C2.262,1.708,3.34,0.381,3.814,0.743c0.23,0.171,2.326,1.754,2.58,1.95C6.852,3.04,6.996,3.517,7.488,3.829
	c0.44,0.273,0.639,0.867,1.057,1.162c0.785,0.566,1.224,1.465,2.017,2.022c0.435,0.301,0.853,1.008,1.333,1.255
	c0.082,0.049-0.052-0.075,0,0c0.264,0.361,0.6,0.649,0.857,1.015c0.274,0.405,0.713,0.548,0.971,0.973
	c0.355,0.573,0.999,0.979,1.398,1.505c0.256,0.33,0.592,0.592,0.92,0.853c0.158,0.127,0.336,0.229,0.479,0.373
	c0.176,0.167,0.348,0.345,0.505,0.53c0.158,0.185,0.474,0.407,0.636,0.587c-0.193,0.202-0.385,0.404-0.578,0.604
	c-0.244,0.247-0.525,0.455-0.768,0.703c-0.379,0.392-0.87,0.772-1.271,1.142c-0.434,0.394-0.719,0.857-1.187,1.212
	c-0.187,0.146-0.358,0.314-0.562,0.442c-0.582,0.354-0.926,0.881-1.383,1.358c-0.658,0.682-1.381,1.313-1.97,2.065
	c-0.353,0.448-0.735,0.786-1.101,1.219c-0.445,0.522-1.072,0.947-1.469,1.518c-0.455,0.639-1.09,1.024-1.519,1.689
	c-0.358,0.561-0.942,0.983-1.362,1.483c-0.357,0.429-0.834,0.882-1.252,1.252c-0.119,0.105-1.349-0.853-0.941-1.363
	c0.195-0.248,1.982-2.503,2.205-2.776c0.392-0.493,0.884-0.684,1.246-1.207c0.316-0.469,0.93-0.723,1.267-1.173
	c0.646-0.842,1.588-1.367,2.224-2.218c0.342-0.464,1.092-0.949,1.389-1.46c0.055-0.084-0.084,0.062,0,0
	c0.387-0.297,0.705-0.661,1.1-0.955c0.434-0.314,0.617-0.768,1.066-1.066c0.613-0.412,1.078-1.098,1.646-1.551
	c0.355-0.287,0.65-0.649,0.942-1.004c0.146-0.171,0.266-0.357,0.421-0.515c0.186-0.194,0.38-0.383,0.582-0.558"/>
<polyline fill="none" points="-29.166,29.05 18,29.05 18,0 -29.166,0 "/>
</svg>
