<?xml version="1.0" encoding="utf-8"?>
<!-- Generator: Adobe Illustrator 16.0.0, SVG Export Plug-In . SVG Version: 6.00 Build 0)  -->
<!DOCTYPE svg PUBLIC "-//W3C//DTD SVG 1.1//EN" "http://www.w3.org/Graphics/SVG/1.1/DTD/svg11.dtd">
<svg version="1.1" id="Layer_1" xmlns="http://www.w3.org/2000/svg" xmlns:xlink="http://www.w3.org/1999/xlink" x="0px" y="0px"
	 width="28.619px" height="28.941px" viewBox="0 0 28.619 28.941" enable-background="new 0 0 28.619 28.941" xml:space="preserve">
<g>
	<defs>
		<rect id="SVGID_1_" width="28.619" height="28.941"/>
	</defs>
	<clipPath id="SVGID_2_">
		<use xlink:href="#SVGID_1_"  overflow="visible"/>
	</clipPath>
	<path clip-path="url(#SVGID_2_)" fill="none" stroke="#231F20" stroke-width="0.5" stroke-miterlimit="10" d="M0.313,27.094
		c0.17-0.23,1.753-2.327,1.95-2.58c0.346-0.457,0.824-0.602,1.136-1.095c0.274-0.44,0.867-0.637,1.162-1.058
		c0.567-0.783,1.465-1.223,2.023-2.015c0.3-0.435,1.007-0.852,1.255-1.334c0.048-0.082-0.076,0.052,0,0
		c0.36-0.263,0.648-0.6,1.014-0.855c0.406-0.277,0.547-0.715,0.972-0.973c0.574-0.354,0.979-0.999,1.505-1.398
		c0.331-0.257,0.593-0.592,0.853-0.92c0.127-0.158,0.23-0.334,0.373-0.479c0.167-0.176,0.344-0.348,0.531-0.504
		c0.569-0.492,1.108-1.01,1.686-1.494c0.356-0.306,1.959-2.043,2.54-2.355c0.309-0.163,0.802-0.72,1.057-0.938
		c0.988-0.838,1.452-1.379,2.438-2.221c0.882-0.762,1.618-1.646,2.571-2.336c0.408-0.29,0.675-0.81,1.129-1.056
		c0.018-0.009,0.48-0.463,0.677-0.651c0.024-0.024,1.819,0.1,0.843,1.551c-0.516,0.332-1.638,1.567-2.203,2.005
		c-0.302,0.23-1.387,1.277-1.669,1.53c-0.569,0.505-1.145,1.108-1.723,1.604c-0.278,0.243-0.687,0.718-1.001,0.922
		c-0.635,0.408-0.838,0.872-1.504,1.247c-0.264,0.152-0.395,0.472-0.639,0.639c-0.49,0.349-0.847,0.831-1.275,1.241
		c-0.717,0.687-1.372,1.433-2.063,2.147c-0.219,0.224-0.483,0.407-0.703,0.635c-0.342,0.356-0.801,0.692-1.169,1.025
		c-0.397,0.353-0.64,0.791-1.077,1.105c-0.172,0.126-0.329,0.279-0.52,0.39c-0.55,0.299-0.847,0.796-1.261,1.233
		c-0.596,0.621-1.262,1.187-1.781,1.886c-0.311,0.416-0.665,0.719-0.99,1.121c-0.398,0.482-0.988,0.848-1.333,1.385
		c-0.395,0.598-0.997,0.924-1.364,1.553c-0.306,0.528-0.853,0.896-1.227,1.358c-0.318,0.397-0.754,0.807-1.14,1.14
		C1.276,28.646-0.049,27.568,0.313,27.094z M26.998,28.609c-0.248-0.194-2.502-1.983-2.776-2.206
		c-0.493-0.391-0.683-0.883-1.207-1.245c-0.468-0.317-0.722-0.93-1.173-1.267c-0.842-0.645-1.366-1.589-2.217-2.225
		c-0.465-0.343-0.949-1.092-1.461-1.388c-0.084-0.056,0.062,0.082,0,0c-0.297-0.388-0.66-0.706-0.955-1.101
		c-0.314-0.433-0.769-0.617-1.066-1.067c-0.412-0.611-1.098-1.077-1.55-1.646c-0.288-0.354-0.651-0.649-1.004-0.941
		c-0.171-0.146-0.358-0.265-0.516-0.421c-0.193-0.186-0.382-0.38-0.557-0.582c-0.548-0.619-1.119-1.209-1.662-1.834
		c-0.34-0.389-2.238-2.164-2.606-2.775C8.054,9.583,7.446,9.035,7.204,8.76C6.268,7.687,5.683,7.169,4.742,6.101
		C3.894,5.141,2.935,4.316,2.15,3.292C1.82,2.856,1.273,2.538,0.983,2.059C0.972,2.04,0.473,1.532,0.264,1.316
		C0.237,1.29,0.19-0.501,1.742,0.618c0.383,0.55,1.732,1.794,2.223,2.403C4.227,3.348,5.38,4.538,5.662,4.844
		c0.562,0.619,1.222,1.257,1.776,1.884c0.269,0.3,0.785,0.756,1.022,1.093c0.468,0.678,0.955,0.926,1.394,1.63
		c0.178,0.278,0.51,0.44,0.703,0.702c0.397,0.526,0.915,0.928,1.367,1.399c0.758,0.784,1.57,1.514,2.353,2.274
		c0.247,0.243,0.455,0.524,0.704,0.768c0.393,0.379,0.773,0.869,1.143,1.272c0.393,0.431,0.855,0.718,1.211,1.186
		c0.145,0.187,0.314,0.357,0.441,0.562c0.355,0.58,0.881,0.925,1.36,1.384c0.68,0.657,1.312,1.38,2.063,1.967
		c0.449,0.354,0.786,0.737,1.221,1.102c0.521,0.445,0.945,1.072,1.516,1.47c0.639,0.455,1.025,1.09,1.689,1.518
		c0.562,0.358,0.983,0.942,1.483,1.363c0.429,0.356,0.882,0.834,1.252,1.251C28.467,27.788,27.51,29.016,26.998,28.609z"/>
</g>
</svg>
