<?xml version="1.0" encoding="utf-8"?>
<!-- Generator: Adobe Illustrator 16.0.0, SVG Export Plug-In . SVG Version: 6.00 Build 0)  -->
<!DOCTYPE svg PUBLIC "-//W3C//DTD SVG 1.1//EN" "http://www.w3.org/Graphics/SVG/1.1/DTD/svg11.dtd">
<svg version="1.1" id="Layer_1" xmlns="http://www.w3.org/2000/svg" xmlns:xlink="http://www.w3.org/1999/xlink" x="0px" y="0px"
	 width="182.413px" height="89.506px" viewBox="0 0 182.413 89.506" enable-background="new 0 0 182.413 89.506"
	 xml:space="preserve">
<polygon fill="#FFBE59" points="182.413,0 9.204,11.348 0,82.452 146.433,89.506 "/>
<g>
	<defs>
		<rect id="SVGID_1_" width="182.413" height="89.506"/>
	</defs>
	<clipPath id="SVGID_2_">
		<use xlink:href="#SVGID_1_"  overflow="visible"/>
	</clipPath>
	<path clip-path="url(#SVGID_2_)" fill="none" stroke="#231F20" stroke-width="0.5" stroke-miterlimit="10" d="M167.941,22.836
		c-0.274,0.034-2.796,0.325-3.105,0.357c-0.55,0.063-0.977-0.126-1.528-0.023c-0.49,0.094-1.031-0.131-1.521-0.06
		c-0.928,0.123-1.843-0.138-2.77-0.005c-0.503,0.077-1.272-0.088-1.773,0.045c-0.089,0.02,0.088,0.014,0,0
		c-0.429-0.055-0.854-0.027-1.282-0.09c-0.466-0.073-0.865,0.095-1.331,0c-0.638-0.124-1.355,0.012-1.992-0.059
		c-0.402-0.043-0.811-0.001-1.213,0.037c-0.197,0.017-0.388,0.06-0.585,0.06c-0.235,0.005-0.475,0.002-0.709-0.015
		c-0.729-0.044-1.452-0.056-2.18-0.108c-0.453-0.029-2.744,0.046-3.355-0.105c-0.324-0.083-1.044-0.047-1.368-0.067
		c-1.252-0.086-1.939-0.043-3.191-0.124c-1.127-0.069-2.238,0.016-3.365-0.134c-0.479-0.067-1.018,0.076-1.498-0.042
		c-0.019-0.004-0.646-0.009-0.91-0.014c-0.033,0-1.179-1.087,0.485-1.356c0.582,0.103,2.197,0.039,2.884,0.112
		c0.366,0.04,1.828,0.062,2.194,0.078c0.735,0.036,1.545,0.021,2.28,0.067c0.355,0.02,0.962-0.018,1.318,0.045
		c0.715,0.13,1.173-0.019,1.886,0.146c0.284,0.063,0.592-0.044,0.875,0c0.575,0.081,1.15,0.008,1.726,0.02
		c0.962,0.016,1.923-0.035,2.885-0.049c0.305-0.003,0.61,0.044,0.916,0.039c0.481-0.008,1.024,0.061,1.506,0.081
		c0.514,0.025,0.982-0.085,1.496-0.015c0.205,0.026,0.417,0.027,0.624,0.074c0.583,0.141,1.127,0.027,1.709,0.015
		c0.835-0.014,1.679,0.042,2.514-0.06c0.499-0.059,0.949-0.031,1.446-0.074c0.604-0.047,1.259,0.079,1.862-0.029
		c0.681-0.115,1.318,0.041,2-0.107c0.572-0.126,1.199-0.025,1.773-0.075c0.49-0.046,1.069-0.029,1.562,0
		C168.346,21.409,168.515,22.772,167.941,22.836z M150.361,38.525c-0.037-0.25-0.356-2.543-0.392-2.824
		c-0.069-0.501,0.138-0.889,0.025-1.39c-0.104-0.446,0.144-0.937,0.065-1.383c-0.135-0.843,0.151-1.675,0.005-2.517
		c-0.084-0.458,0.098-1.158-0.049-1.614c-0.021-0.08-0.015,0.08,0,0c0.062-0.389,0.03-0.776,0.098-1.166
		c0.081-0.424-0.103-0.786,0-1.21c0.138-0.58-0.012-1.233,0.066-1.811c0.047-0.366,0.001-0.738-0.041-1.103
		c-0.019-0.18-0.065-0.353-0.066-0.532c-0.006-0.214-0.002-0.432,0.018-0.645c0.048-0.661,0.061-1.32,0.118-1.982
		c0.032-0.412-0.051-2.495,0.115-3.05c0.093-0.295,0.053-0.95,0.074-1.245c0.095-1.139,0.047-1.763,0.137-2.902
		c0.075-1.025-0.018-2.035,0.147-3.06c0.073-0.434-0.084-0.925,0.046-1.362c0.004-0.017,0.01-0.588,0.016-0.828
		c0-0.03,1.195-1.072,1.491,0.442c-0.113,0.529-0.044,1.998-0.124,2.622c-0.044,0.333-0.067,1.662-0.086,1.995
		c-0.039,0.669-0.022,1.405-0.073,2.074c-0.022,0.323,0.02,0.874-0.05,1.199c-0.143,0.649,0.021,1.066-0.161,1.715
		c-0.068,0.257,0.05,0.538,0,0.795c-0.088,0.523-0.009,1.045-0.021,1.569c-0.019,0.874,0.038,1.748,0.053,2.623
		c0.003,0.277-0.048,0.555-0.043,0.833c0.009,0.438-0.065,0.932-0.089,1.369c-0.027,0.468,0.094,0.893,0.017,1.36
		c-0.027,0.187-0.029,0.38-0.08,0.567c-0.155,0.531-0.03,1.025-0.018,1.555c0.016,0.759-0.047,1.527,0.066,2.286
		c0.064,0.453,0.034,0.862,0.082,1.315c0.051,0.548-0.087,1.145,0.03,1.693c0.127,0.619-0.045,1.199,0.118,1.818
		c0.14,0.521,0.028,1.091,0.082,1.613c0.051,0.446,0.033,0.972,0,1.42C151.931,38.892,150.432,39.045,150.361,38.525z"/>
</g>
</svg>
