<svg xmlns="http://www.w3.org/2000/svg" xmlns:xlink="http://www.w3.org/1999/xlink" version="1.1" id="Layer_1" x="0px" y="0px" width="273.276px" height="116.76px" viewBox="0 0 273.276 116.76" xml:space="preserve">
<g>
	<defs>
		<rect id="SVGID_1_" width="273.3" height="116.8"/>
	</defs>
	<clipPath id="SVGID_2_">
		<use xlink:href="#SVGID_1_" overflow="visible"/>
	</clipPath>
	<path clip-path="url(#SVGID_2_)" fill="#FF7800" d="M12.912 39.794c1.178 0.4 2.2 0.8 3.1 1.1 c0.922 0.3 1.8 0.6 2.7 0.968c0.927 0.3 1.9 0.7 3.1 1.115c1.266 0.5 2.2 0.5 2.9 0.3 c0.712-0.217 1.168-0.744 1.409-1.529c0.241-0.786 0.268-1.829 0.121-3.079c-0.116-0.993-0.213-1.816-0.302-2.579 c-0.089-0.764-0.169-1.47-0.257-2.226c-0.087-0.757-0.182-1.563-0.292-2.523c-0.127-1.111-0.327-2.028-0.614-2.803 s-0.661-1.405-1.131-1.94c-0.471-0.532-1.04-0.97-1.716-1.354c-0.675-0.385-1.459-0.717-2.36-1.037 c-1.2-0.426-2.199-0.777-3.127-1.106c-0.928-0.327-1.787-0.631-2.709-0.957c-0.922-0.325-1.907-0.676-3.083-1.091 c0.135 1.2 0.3 2.3 0.4 3.326c0.121 1 0.2 2 0.3 2.985c0.112 1 0.2 1.9 0.3 2.8 c0.111 0.9 0.2 1.9 0.3 2.867c0.118 1 0.2 2 0.4 3.116C12.615 37.3 12.8 38.5 12.9 39.8 M0 10.2 c1.051 0.4 2 0.7 3 1.028c0.935 0.3 1.8 0.6 2.7 0.929c0.856 0.3 1.7 0.6 2.5 0.9 c0.82 0.3 1.6 0.6 2.5 0.858c0.827 0.3 1.7 0.6 2.5 0.889c0.879 0.3 1.8 0.6 2.8 1 c0.976 0.3 2 0.7 3.1 1.098c1.197 0.4 2.3 0.9 3.4 1.313c1.066 0.5 2.1 0.9 3 1.4 c0.937 0.5 1.8 1 2.6 1.569s1.553 1.1 2.2 1.735c0.684 0.6 1.3 1.2 1.9 1.9 c0.562 0.7 1.1 1.4 1.5 2.16c0.444 0.8 0.8 1.6 1.2 2.423c0.329 0.9 0.6 1.8 0.8 2.7 c0.222 1 0.4 2 0.5 3.074c0.106 1 0.2 1.8 0.3 2.522c0.084 0.8 0.2 1.5 0.2 2.2 c0.085 0.8 0.2 1.6 0.3 2.579c0.157 1.4 0.2 2.7 0.2 3.802c-0.016 1.143-0.123 2.16-0.336 3 c-0.211 0.884-0.528 1.632-0.959 2.242c-0.432 0.611-0.981 1.081-1.656 1.411s-1.476 0.518-2.415 0.6 c-0.939 0.044-2.016-0.06-3.241-0.312c-1.226-0.251-2.601-0.65-4.132-1.199c-1.192-0.427-2.296-0.824-3.339-1.197 c-1.042-0.372-2.023-0.724-2.965-1.061c-0.941-0.338-1.846-0.661-2.735-0.978c-0.89-0.318-1.764-0.633-2.65-0.948 c-0.885-0.317-1.783-0.636-2.711-0.967c-0.928-0.332-1.888-0.675-2.905-1.037c-1.017-0.363-2.091-0.744-3.241-1.153 c-0.159-1.344-0.31-2.623-0.455-3.848s-0.282-2.395-0.415-3.521c-0.132-1.125-0.259-2.208-0.382-3.258 c-0.122-1.048-0.243-2.065-0.359-3.059c-0.115-0.995-0.227-1.967-0.338-2.927c-0.111-0.96-0.222-1.909-0.33-2.855 c-0.108-0.946-0.215-1.892-0.323-2.843s-0.217-1.908-0.326-2.882c-0.109-0.974-0.217-1.964-0.328-2.974 c-0.112-1.011-0.223-2.043-0.336-3.103C0.232 12.4 0.1 11.3 0 10.2"/>
	<path clip-path="url(#SVGID_2_)" fill="#FF7800" d="M55.906 36.106c-0.042-0.016-0.062-0.023-0.103-0.037 c-0.265 1.02-0.499 1.949-0.717 2.823c-0.219 0.874-0.421 1.694-0.615 2.498c-0.195 0.805-0.383 1.592-0.576 2.4 c-0.192 0.816-0.388 1.66-0.597 2.574c-0.211 0.913-0.433 1.897-0.68 3c0.965 0.3 1.8 0.6 2.6 0.9 c0.783 0.3 1.5 0.5 2.2 0.795c0.721 0.3 1.4 0.5 2.2 0.795c0.778 0.3 1.6 0.6 2.6 0.9 c-0.425-1.145-0.816-2.19-1.181-3.168c-0.364-0.978-0.704-1.888-1.033-2.763c-0.328-0.875-0.643-1.715-0.959-2.552 c-0.317-0.836-0.634-1.67-0.961-2.528c-0.326-0.858-0.663-1.743-1.024-2.683C56.705 38.2 56.3 37.2 55.9 36.1 M61.295 26.872c-1.135-0.113-2.134-0.213-3.062-0.308c-0.929-0.096-1.79-0.186-2.651-0.273c-0.86-0.089-1.722-0.178-2.659-0.275 c-0.937-0.097-1.947-0.201-3.104-0.321c-0.341-0.617-0.596-1.077-0.851-1.534c-0.254-0.458-0.512-0.914-0.851-1.519 c1.027-0.111 1.926-0.207 2.759-0.295c0.834-0.088 1.603-0.17 2.37-0.25c0.768-0.078 1.536-0.157 2.365-0.242 c0.83-0.085 1.721-0.174 2.737-0.276c0.586 1 1 1.8 1.5 2.621C60.258 25 60.7 25.8 61.3 26.9 M51.141 55.596c-0.248 1.115-0.431 1.956-0.616 2.799c-0.184 0.844-0.368 1.688-0.613 2.817c-1.076-0.386-2.018-0.724-2.894-1.039 c-0.875-0.313-1.685-0.604-2.493-0.895c-0.809-0.291-1.615-0.579-2.491-0.895c-0.876-0.313-1.818-0.654-2.896-1.041 c0.298-1.31 0.58-2.549 0.853-3.729c0.274-1.183 0.538-2.305 0.794-3.385c0.255-1.078 0.504-2.112 0.748-3.115 c0.243-1.004 0.482-1.976 0.721-2.928c0.236-0.951 0.472-1.886 0.71-2.812c0.239-0.926 0.48-1.846 0.725-2.768 c0.246-0.925 0.495-1.851 0.755-2.791c0.259-0.942 0.526-1.897 0.807-2.876c0.282-0.979 0.578-1.982 0.889-3.016 c0.312-1.032 0.638-2.095 0.989-3.194c1.063 0.4 2 0.7 3 1.038c0.915 0.3 1.8 0.6 2.6 0.9 c0.822 0.3 1.6 0.6 2.4 0.846c0.79 0.3 1.6 0.6 2.4 0.843s1.659 0.6 2.6 0.9 c0.898 0.3 1.9 0.6 2.9 1.011c0.448 1.1 0.9 2.2 1.3 3.232s0.828 2.1 1.2 3.1 c0.395 1 0.8 2 1.2 2.931c0.376 1 0.7 1.9 1.1 2.824c0.362 0.9 0.7 1.8 1.1 2.8 s0.699 1.8 1 2.717c0.348 0.9 0.7 1.8 1 2.72c0.348 0.9 0.7 1.8 1.1 2.8 c0.356 0.9 0.7 1.9 1.1 2.831c0.365 0.9 0.7 1.8 1.1 2.802c0.381 1 0.8 1.9 1.2 2.9 c0.405 1 0.8 2 1.3 3.115c0.434 1.1 0.9 2.2 1.4 3.321c-1.015-0.105-1.903-0.198-2.727-0.285 c-0.825-0.087-1.592-0.307-2.364-0.583s-1.547-0.553-2.387-0.852c-0.84-0.302-1.746-0.625-2.784-0.996 c-0.353-0.939-0.647-1.721-0.922-2.447c-0.274-0.729-0.529-1.403-0.803-2.129c-0.275-0.726-0.568-1.502-0.921-2.431 c-1.099-0.395-2.091-0.749-3.018-1.082c-0.927-0.332-1.792-0.642-2.634-0.943c-0.841-0.302-1.661-0.596-2.506-0.899 c-0.844-0.302-1.711-0.612-2.647-0.949C53.261 56.4 52.3 56 51.1 55.6"/>
	<path clip-path="url(#SVGID_2_)" fill="#FF7800" d="M101.585 47.914c1.354-0.416 2.322-0.76 2.982-1.206 c0.662-0.447 1.018-0.997 1.152-1.821c0.137-0.824 0.054-1.925-0.154-3.458c-0.165-1.217-0.361-2.128-0.699-2.758 c-0.337-0.631-0.816-0.979-1.547-1.07c-0.73-0.091-1.712 0.074-3.042 0.476c-0.934 0.281-1.706 0.515-2.425 0.7 c-0.717 0.218-1.38 0.418-2.089 0.635c-0.71 0.216-1.466 0.445-2.368 0.722c0.12 0.9 0.2 1.8 0.3 2.6 c0.098 0.8 0.2 1.5 0.3 2.224c0.092 0.7 0.2 1.4 0.3 2.24s0.21 1.6 0.3 2.6 c0.913-0.25 1.681-0.459 2.398-0.654c0.719-0.197 1.388-0.379 2.113-0.577C99.863 48.4 100.6 48.2 101.6 47.9 M86.949 69.607c-0.154-1.297-0.302-2.529-0.443-3.713c-0.14-1.182-0.274-2.314-0.402-3.404c-0.129-1.09-0.255-2.14-0.375-3.158 c-0.121-1.018-0.238-2.007-0.352-2.975c-0.114-0.969-0.225-1.918-0.335-2.856c-0.11-0.939-0.218-1.867-0.327-2.796 c-0.108-0.928-0.217-1.856-0.325-2.794c-0.108-0.938-0.217-1.884-0.327-2.85c-0.111-0.965-0.223-1.946-0.337-2.954 C83.611 41.1 83.5 40.1 83.4 39c-0.118-1.065-0.241-2.164-0.365-3.298c1.139-0.394 2.201-0.757 3.21-1.102 c1.009-0.343 1.965-0.667 2.898-0.98c0.932-0.315 1.839-0.619 2.755-0.926c0.916-0.308 1.84-0.615 2.807-0.938 c0.967-0.321 1.976-0.656 3.065-1.015c1.089-0.36 2.258-0.743 3.545-1.164c1.36-0.447 2.621-0.785 3.785-1.006 c1.162-0.223 2.229-0.328 3.199-0.313c0.971 0 1.8 0.2 2.6 0.421s1.487 0.7 2.1 1.2 c0.614 0.5 1.1 1.2 1.6 1.981c0.458 0.8 0.8 1.7 1.2 2.813c0.316 1.1 0.6 2.3 0.8 3.7 c0.177 1.3 0.3 2.5 0.4 3.612c0.06 1.1 0.1 2.158-0.025 3.12s-0.242 1.846-0.488 2.66s-0.583 1.56-1.017 2.2 s-0.968 1.308-1.608 1.876c-0.644 0.569-1.393 1.084-2.262 1.558c-0.869 0.472-1.859 0.901-2.972 1.3 c-1.112 0.396-2.351 0.757-3.72 1.095c-1.237 0.305-2.26 0.558-3.211 0.794c-0.949 0.235-1.827 0.453-2.768 0.7 c-0.94 0.233-1.94 0.483-3.131 0.782c0.159 1.2 0.3 2.3 0.4 3.213c0.125 1 0.2 1.9 0.4 2.8 c0.125 1 0.3 2 0.4 3.246c-1.02 0.231-1.903 0.431-2.722 0.617c-0.818 0.186-1.57 0.356-2.318 0.5 c-0.747 0.171-1.489 0.341-2.288 0.524C88.773 69.2 87.9 69.4 86.9 69.6"/>
	<path clip-path="url(#SVGID_2_)" fill="#FF7800" d="M139.854 37.327c1.188-0.315 2.054-0.657 2.675-1.06 c0.621-0.404 0.996-0.872 1.206-1.44s0.254-1.236 0.207-2.041c-0.047-0.806-0.184-1.75-0.331-2.865 c-0.155-1.171-0.375-2.027-0.736-2.61c-0.36-0.584-0.863-0.895-1.577-0.97c-0.715-0.073-1.643 0.085-2.856 0.4 c-1.143 0.336-2.093 0.615-2.98 0.876s-1.712 0.504-2.599 0.764c-0.887 0.262-1.837 0.54-2.976 0.9 c0.138 1 0.3 1.9 0.4 2.74c0.113 0.8 0.2 1.6 0.3 2.377c0.106 0.8 0.2 1.5 0.3 2.4 c0.115 0.8 0.2 1.8 0.4 2.8c1.141-0.304 2.091-0.558 2.979-0.793c0.888-0.237 1.712-0.457 2.6-0.694 C137.76 37.9 138.7 37.6 139.9 37.3 M117.815 24.225c1.192-0.384 2.304-0.739 3.357-1.077 c1.054-0.337 2.051-0.654 3.011-0.961c0.96-0.309 1.886-0.604 2.8-0.896c0.915-0.292 1.817-0.581 2.733-0.874 c0.916-0.292 1.848-0.589 2.814-0.896c0.968-0.31 1.973-0.631 3.041-0.973c1.068-0.341 2.199-0.699 3.417-1.089 c1.365-0.414 2.638-0.762 3.816-1.023c1.177-0.264 2.261-0.44 3.257-0.515c0.995-0.073 1.899-0.044 2.7 0.1 s1.549 0.4 2.2 0.842c0.647 0.4 1.2 1 1.7 1.688c0.486 0.7 0.9 1.6 1.2 2.6 c0.332 1.1 0.6 2.3 0.8 3.73c0.144 1.1 0.3 2.2 0.4 3.149c0.089 1 0.1 1.9 0.1 2.8 c-0.035 0.87-0.152 1.689-0.385 2.467c-0.232 0.778-0.582 1.516-1.084 2.223c-0.502 0.706-1.156 1.385-1.999 2 c-0.845 0.657-1.876 1.296-3.137 1.929c0.023 0.2 0 0.3 0.1 0.43c1.131-0.249 2.18-0.328 3.124-0.233 c0.945 0.1 1.8 0.4 2.5 0.811c0.721 0.4 1.3 1.1 1.8 1.89c0.456 0.8 0.8 1.8 0.9 3 c0.146 1.1 0.3 2.1 0.4 2.925c0.114 0.9 0.2 1.7 0.3 2.559c0.114 0.9 0.2 1.8 0.4 2.9 c-1.084 0.244-2.035 0.458-2.922 0.656c-0.886 0.197-1.705 0.379-2.525 0.562c-0.821 0.183-1.643 0.365-2.533 0.6 c-0.893 0.198-1.854 0.411-2.955 0.654c-0.154-1.147-0.271-2.005-0.385-2.863c-0.114-0.859-0.23-1.717-0.383-2.859 c-0.1-1.022-0.343-1.899-0.746-2.581c-0.402-0.682-0.965-1.169-1.703-1.418c-0.738-0.248-1.651-0.258-2.755 0 c-1.143 0.278-2.097 0.512-2.985 0.729c-0.887 0.218-1.712 0.419-2.601 0.636s-1.841 0.448-2.981 0.7 c0.144 1 0.3 2 0.4 2.807c0.117 0.9 0.2 1.6 0.3 2.427c0.108 0.8 0.2 1.6 0.3 2.4 c0.117 0.9 0.2 1.8 0.4 2.833c-1.105 0.243-2.073 0.454-2.969 0.649c-0.897 0.197-1.725 0.379-2.552 0.6 c-0.827 0.181-1.653 0.359-2.547 0.555c-0.893 0.196-1.853 0.406-2.949 0.646c-0.18-1.293-0.351-2.528-0.517-3.719 c-0.166-1.188-0.326-2.333-0.479-3.437c-0.152-1.104-0.302-2.167-0.445-3.204c-0.144-1.036-0.285-2.043-0.422-3.029 c-0.138-0.985-0.271-1.952-0.402-2.905c-0.133-0.954-0.263-1.895-0.394-2.833s-0.259-1.873-0.388-2.813 c-0.13-0.939-0.26-1.884-0.392-2.841s-0.267-1.926-0.402-2.916s-0.273-2.001-0.415-3.038c-0.141-1.038-0.287-2.102-0.436-3.199 C118.125 26.5 118 25.4 117.8 24.2"/>
	<path clip-path="url(#SVGID_2_)" fill="#FF7800" d="M174.749 14.537c-0.04 0.013-0.063 0.019-0.104 0 c-0.14 1.123-0.269 2.166-0.391 3.154c-0.123 0.987-0.239 1.919-0.351 2.816c-0.11 0.896-0.218 1.76-0.322 2.6 c-0.106 0.853-0.209 1.694-0.314 2.547c-0.104 0.854-0.214 1.718-0.324 2.617c-0.11 0.9-0.226 1.835-0.347 2.8 c-0.123 0.993-0.252 2.045-0.391 3.177c0.965-0.257 1.801-0.48 2.577-0.688c0.775-0.208 1.487-0.398 2.197-0.589 c0.707-0.19 1.413-0.381 2.175-0.588c0.759-0.206 1.572-0.428 2.495-0.68c-0.458-1.179-0.881-2.255-1.276-3.26 c-0.396-1.007-0.764-1.944-1.121-2.845c-0.358-0.902-0.703-1.768-1.048-2.63c-0.345-0.863-0.691-1.722-1.05-2.608 c-0.359-0.887-0.728-1.802-1.124-2.774C175.634 16.7 175.2 15.7 174.7 14.5 M170.999 43.2 c-0.136 1.049-0.25 1.924-0.355 2.738c-0.105 0.816-0.202 1.574-0.308 2.391c-0.105 0.813-0.218 1.687-0.354 2.7 c-1.094 0.252-2.056 0.474-2.952 0.678c-0.896 0.205-1.729 0.396-2.562 0.585s-1.669 0.38-2.577 0.6 c-0.908 0.206-1.89 0.428-3.016 0.68c0.18-1.194 0.353-2.35 0.521-3.472c0.17-1.122 0.335-2.211 0.492-3.271 c0.159-1.059 0.314-2.087 0.466-3.094s0.3-1.992 0.444-2.957c0.146-0.964 0.286-1.908 0.426-2.841 c0.141-0.933 0.279-1.853 0.415-2.764c0.139-0.91 0.273-1.813 0.409-2.712s0.271-1.797 0.407-2.696s0.271-1.801 0.41-2.709 c0.138-0.908 0.28-1.825 0.422-2.754s0.284-1.87 0.431-2.829s0.295-1.934 0.449-2.934c0.155-1 0.312-2.022 0.475-3.072 c0.163-1.052 0.33-2.13 0.503-3.239c0.174-1.11 0.353-2.253 0.537-3.434c1.067-0.348 2.038-0.664 2.945-0.963 c0.907-0.298 1.754-0.577 2.566-0.845c0.812-0.268 1.589-0.525 2.362-0.781c0.774-0.257 1.542-0.514 2.335-0.777 c0.793-0.265 1.608-0.538 2.476-0.829c0.866-0.29 1.814-0.51 2.821-0.789c0.438 1 0.9 2.1 1.3 3.1 c0.413 1 0.8 2 1.2 2.95c0.39 1 0.8 1.9 1.1 2.84c0.373 0.9 0.7 1.8 1.1 2.8 c0.358 0.9 0.7 1.8 1.1 2.683c0.347 0.9 0.7 1.8 1 2.64c0.34 0.9 0.7 1.8 1 2.6 c0.338 0.9 0.7 1.8 1 2.644c0.34 0.9 0.7 1.8 1 2.687s0.691 1.8 1 2.8 c0.354 0.9 0.7 1.9 1.1 2.874c0.365 1 0.7 2 1.1 3.019c0.383 1 0.8 2.1 1.2 3.2 c0.405 1.1 0.8 2.2 1.3 3.416c0.429 1.2 0.9 2.4 1.3 3.673c-0.995 0.009-1.877 0.02-2.701 0 c-0.823 0.009-1.591 0.019-2.362 0.027c-0.773 0.011-1.55 0.02-2.398 0.03c-0.849 0.01-1.769 0.022-2.832 0 c-0.397-1.034-0.73-1.892-1.04-2.689c-0.309-0.797-0.595-1.532-0.903-2.322c-0.308-0.791-0.639-1.636-1.034-2.642 c-1.125 0.063-2.144 0.136-3.045 0.365c-0.9 0.231-1.742 0.445-2.568 0.654c-0.827 0.209-1.637 0.413-2.473 0.6 c-0.835 0.209-1.697 0.424-2.631 0.655C173.127 42.7 172.1 43 171 43.2"/>
	<path clip-path="url(#SVGID_2_)" fill="#FF7800" d="M218.691 50.945c-1.028-0.236-1.941-0.442-2.797-0.635 c-0.855-0.193-1.652-0.371-2.46-0.55s-1.626-0.357-2.522-0.552s-1.873-0.403-3.011-0.646c-0.151-1.233-0.298-2.427-0.441-3.587 c-0.143-1.16-0.28-2.285-0.416-3.381c-0.134-1.096-0.266-2.161-0.394-3.203c-0.128-1.04-0.254-2.06-0.376-3.056 c-0.123-0.997-0.24-1.972-0.359-2.933c-0.118-0.961-0.234-1.908-0.35-2.844c-0.115-0.937-0.23-1.859-0.343-2.778 s-0.224-1.833-0.335-2.746c-0.112-0.912-0.225-1.824-0.336-2.738c-0.113-0.916-0.226-1.834-0.339-2.761s-0.229-1.862-0.344-2.81 c-0.116-0.948-0.233-1.909-0.354-2.888c-0.12-0.978-0.239-1.973-0.363-2.989c-0.125-1.018-0.25-2.056-0.379-3.119 c-0.13-1.065-0.263-2.155-0.399-3.276c-0.136-1.12-0.275-2.271-0.42-3.456c1.235 0.2 2.3 0.4 3.2 0.5 c0.958 0.2 1.8 0.3 2.7 0.439c0.853 0.1 1.7 0.3 2.6 0.438c0.892 0.2 1.8 0.3 2.9 0.5 c0.129 1.2 0.3 2.4 0.4 3.498c0.123 1.1 0.2 2.2 0.4 3.315s0.23 2.1 0.3 3.2 c0.11 1 0.2 2 0.3 3.026c0.107 1 0.2 2 0.3 2.917c0.104 1 0.2 1.9 0.3 2.8 c0.103 0.9 0.2 1.9 0.3 2.79c0.101 0.9 0.2 1.8 0.3 2.764c0.101 0.9 0.2 1.8 0.3 2.8 c0.103 0.9 0.2 1.9 0.3 2.805c0.103 0.9 0.2 1.9 0.3 2.869s0.212 2 0.3 2.96s0.223 2 0.3 3.1 s0.232 2.1 0.4 3.23c0.121 1.1 0.2 2.2 0.4 3.409C218.422 48.5 218.6 49.7 218.7 50.9"/>
	<path clip-path="url(#SVGID_2_)" fill="#FF7800" d="M238.07 31.193c1.027 0.2 1.8 0.3 2.3 0.1 c0.537-0.162 0.859-0.525 1.032-1.096c0.172-0.571 0.194-1.351 0.133-2.343c-0.063-0.99-0.208-2.195-0.37-3.618 c-0.169-1.496-0.389-2.651-0.727-3.555c-0.337-0.903-0.789-1.554-1.419-2.033c-0.629-0.479-1.438-0.789-2.479-1.013 c-0.98-0.211-1.791-0.384-2.547-0.546s-1.458-0.313-2.214-0.476c-0.754-0.161-1.563-0.334-2.535-0.54 c0.116 1.1 0.2 2 0.3 2.937s0.186 1.7 0.3 2.555c0.089 0.8 0.2 1.6 0.3 2.4 c0.089 0.8 0.2 1.7 0.3 2.562c0.098 0.9 0.2 1.9 0.3 2.957c0.979 0.2 1.8 0.4 2.6 0.6 c0.761 0.2 1.5 0.3 2.2 0.508C236.262 30.8 237.1 31 238.1 31.2 M218.431 2.8 c1.284 0.2 2.4 0.5 3.5 0.664s2.06 0.4 3 0.584c0.948 0.2 1.9 0.4 2.8 0.5 c0.904 0.2 1.8 0.4 2.7 0.548c0.935 0.2 1.9 0.4 2.9 0.592c1.037 0.2 2.1 0.4 3.4 0.7 c1.028 0.2 2 0.5 2.9 0.78c0.924 0.3 1.8 0.6 2.6 1.011c0.822 0.4 1.6 0.8 2.3 1.3 c0.722 0.5 1.4 1.1 2 1.748s1.181 1.4 1.7 2.252s0.964 1.8 1.4 2.848c0.399 1.1 0.7 2.2 1 3.5 c0.289 1.3 0.5 2.7 0.7 4.316c0.161 1.4 0.3 2.7 0.4 3.932c0.105 1.2 0.2 2.3 0.1 3.3 c-0.022 1.006-0.126 1.908-0.341 2.699s-0.544 1.472-1.015 2.04c-0.472 0.568-1.086 1.023-1.867 1.4 c-0.783 0.339-1.735 0.563-2.876 0.665c0.026 0.2 0 0.3 0.1 0.538c0.824 0.2 1.6 0.6 2.4 1 c0.738 0.4 1.4 1 2.1 1.572s1.192 1.3 1.7 2.144s0.9 1.7 1.2 2.692c0.324 1 0.6 2.1 0.7 3.2 c0.117 1 0.2 1.9 0.3 2.766c0.097 0.8 0.2 1.6 0.3 2.382c0.088 0.8 0.2 1.5 0.3 2.4 c0.097 0.8 0.2 1.7 0.3 2.771c-1.065-0.249-1.981-0.465-2.825-0.666s-1.615-0.384-2.38-0.568 c-0.764-0.183-1.521-0.366-2.336-0.564c-0.814-0.197-1.688-0.407-2.674-0.648c-0.108-0.948-0.198-1.737-0.282-2.475 c-0.083-0.738-0.161-1.423-0.244-2.16c-0.083-0.738-0.174-1.529-0.282-2.476c-0.11-1.255-0.348-2.407-0.724-3.412 c-0.375-1.005-0.886-1.862-1.547-2.523c-0.66-0.661-1.468-1.13-2.432-1.356c-0.994-0.236-1.817-0.431-2.587-0.612 c-0.768-0.182-1.479-0.348-2.245-0.529c-0.766-0.181-1.586-0.375-2.57-0.606c0.115 1.1 0.2 2 0.3 2.9 c0.098 0.9 0.2 1.7 0.3 2.537c0.089 0.8 0.2 1.6 0.3 2.409c0.088 0.8 0.2 1.6 0.3 2.5 c0.097 0.9 0.2 1.9 0.3 2.925c-0.961-0.235-1.801-0.441-2.584-0.632c-0.784-0.192-1.511-0.366-2.238-0.542 c-0.729-0.178-1.459-0.354-2.256-0.545c-0.796-0.19-1.656-0.396-2.65-0.631c-0.134-1.248-0.264-2.457-0.39-3.632 c-0.126-1.174-0.248-2.312-0.366-3.422c-0.12-1.11-0.236-2.19-0.349-3.244c-0.113-1.055-0.224-2.084-0.331-3.094 c-0.108-1.009-0.216-1.999-0.319-2.973c-0.104-0.975-0.207-1.934-0.31-2.883c-0.101-0.947-0.201-1.887-0.301-2.818 c-0.1-0.933-0.199-1.859-0.298-2.785s-0.196-1.849-0.296-2.778c-0.099-0.929-0.199-1.861-0.299-2.803 c-0.102-0.941-0.201-1.893-0.303-2.855c-0.104-0.963-0.209-1.938-0.315-2.932c-0.106-0.993-0.211-2.006-0.321-3.04 c-0.108-1.035-0.223-2.092-0.338-3.175c-0.114-1.084-0.23-2.194-0.351-3.336C218.683 5.2 218.6 4 218.4 2.8"/>
	<path clip-path="url(#SVGID_2_)" fill="#FF7800" d="M18.348 80.31c1.186 0.4 2.2 0.8 3.1 1.1 c0.923 0.3 1.8 0.6 2.7 0.943c0.925 0.3 1.9 0.7 3.1 1.085c1.257 0.4 2.2 0.5 2.9 0.3 c0.709-0.214 1.162-0.732 1.4-1.515c0.24-0.782 0.266-1.829 0.115-3.096c-0.12-1.008-0.221-1.852-0.317-2.641 c-0.094-0.789-0.184-1.522-0.28-2.316c-0.097-0.793-0.199-1.646-0.325-2.674c-0.146-1.188-0.365-2.18-0.666-3.015 c-0.299-0.837-0.681-1.518-1.157-2.088s-1.046-1.03-1.721-1.425c-0.674-0.395-1.453-0.726-2.349-1.036 c-1.194-0.415-2.187-0.76-3.114-1.082c-0.926-0.322-1.784-0.621-2.708-0.941s-1.915-0.663-3.099-1.074 c0.145 1.1 0.3 2.2 0.4 3.185c0.125 1 0.2 1.9 0.4 2.823c0.112 0.9 0.2 1.8 0.3 2.6 s0.205 1.7 0.3 2.517c0.102 0.8 0.2 1.7 0.3 2.566c0.107 0.9 0.2 1.8 0.3 2.7 C18.104 78.2 18.2 79.2 18.3 80.3 M4.797 48.705c1.083 0.4 2.1 0.7 3 1.054c0.956 0.3 1.9 0.6 2.7 0.9 c0.87 0.3 1.7 0.6 2.5 0.88c0.828 0.3 1.6 0.6 2.5 0.861c0.833 0.3 1.7 0.6 2.6 0.9 c0.88 0.3 1.8 0.6 2.8 0.964c0.973 0.3 2 0.7 3.1 1.083c1.192 0.4 2.3 0.9 3.4 1.3 s2.056 1 3 1.479c0.935 0.5 1.8 1.1 2.6 1.668c0.811 0.6 1.6 1.2 2.2 1.9 c0.688 0.7 1.3 1.4 1.9 2.118c0.571 0.7 1.1 1.5 1.5 2.38c0.458 0.8 0.9 1.7 1.2 2.7 c0.347 0.9 0.6 1.9 0.9 2.979c0.24 1 0.4 2.1 0.6 3.306c0.122 1 0.2 1.9 0.3 2.7 c0.093 0.8 0.2 1.5 0.3 2.315c0.092 0.8 0.2 1.6 0.3 2.638c0.162 1.4 0.2 2.7 0.2 3.8 c-0.016 1.129-0.127 2.12-0.342 2.973c-0.213 0.853-0.533 1.568-0.966 2.145c-0.433 0.577-0.981 1.014-1.653 1.3 c-0.673 0.302-1.47 0.464-2.404 0.489c-0.933 0.025-2.002-0.087-3.218-0.339c-1.215-0.252-2.577-0.644-4.097-1.177 c-1.184-0.415-2.283-0.8-3.323-1.164c-1.039-0.364-2.019-0.708-2.962-1.038c-0.943-0.331-1.849-0.648-2.743-0.962 s-1.776-0.622-2.671-0.937c-0.896-0.313-1.801-0.632-2.744-0.962c-0.943-0.331-1.922-0.673-2.961-1.037 c-1.04-0.363-2.14-0.749-3.324-1.165c-0.116-1.115-0.231-2.199-0.345-3.253c-0.114-1.053-0.227-2.075-0.338-3.074 c-0.11-0.999-0.221-1.975-0.33-2.931c-0.108-0.955-0.214-1.892-0.322-2.817c-0.107-0.927-0.215-1.841-0.322-2.749 c-0.107-0.91-0.215-1.816-0.324-2.726c-0.109-0.91-0.218-1.82-0.329-2.745c-0.113-0.924-0.226-1.861-0.343-2.816 c-0.117-0.955-0.236-1.93-0.36-2.932c-0.124-1.003-0.253-2.033-0.386-3.099c-0.133-1.066-0.27-2.169-0.414-3.314 S4.954 49.9 4.8 48.7"/>
	<path clip-path="url(#SVGID_2_)" fill="#FF7800" d="M56.054 80.751c1.095 0.4 2.1 0.7 3 1.058s1.823 0.6 2.7 0.9 c0.85 0.3 1.7 0.6 2.5 0.864c0.819 0.3 1.6 0.6 2.5 0.863c0.847 0.3 1.7 0.6 2.7 0.9 c0.937 0.3 1.9 0.7 3 1.048c0.098 0.9 0.2 1.7 0.3 2.356c0.076 0.7 0.1 1.3 0.2 2 c0.074 0.7 0.2 1.4 0.2 2.332c-1.086-0.377-2.082-0.724-3.019-1.049c-0.936-0.326-1.811-0.629-2.658-0.924 c-0.846-0.294-1.664-0.58-2.481-0.864c-0.818-0.284-1.635-0.568-2.484-0.863c-0.847-0.295-1.727-0.601-2.666-0.928 c-0.94-0.327-1.939-0.676-3.032-1.056c0.103 0.9 0.2 1.7 0.3 2.435c0.077 0.7 0.2 1.4 0.2 2.1 c0.076 0.7 0.2 1.5 0.3 2.397c1.184 0.4 2.3 0.8 3.3 1.147c1.02 0.4 2 0.7 2.9 1 c0.921 0.3 1.8 0.6 2.7 0.94c0.887 0.3 1.8 0.6 2.7 0.939s1.871 0.7 2.9 1 c1.017 0.4 2.1 0.7 3.3 1.146c0.104 1 0.2 1.9 0.3 2.672c0.079 0.8 0.2 1.5 0.2 2.3 c0.077 0.8 0.2 1.6 0.3 2.616c-1.117-0.392-2.178-0.763-3.193-1.118c-1.016-0.357-1.987-0.698-2.925-1.027 s-1.842-0.644-2.724-0.952c-0.883-0.31-1.742-0.612-2.591-0.909c-0.848-0.297-1.685-0.59-2.522-0.884s-1.675-0.586-2.523-0.884 c-0.848-0.297-1.708-0.599-2.591-0.908c-0.882-0.31-1.786-0.626-2.724-0.953c-0.938-0.329-1.909-0.672-2.925-1.027 c-1.015-0.355-2.076-0.726-3.192-1.118c-0.115-1.13-0.228-2.223-0.34-3.286c-0.111-1.063-0.222-2.096-0.33-3.102 s-0.217-1.984-0.322-2.944c-0.106-0.961-0.21-1.9-0.314-2.83c-0.104-0.928-0.207-1.845-0.31-2.756s-0.209-1.817-0.313-2.727 c-0.105-0.91-0.207-1.823-0.315-2.747c-0.108-0.924-0.219-1.86-0.33-2.813c-0.113-0.954-0.227-1.925-0.345-2.925 c-0.119-1-0.241-2.03-0.369-3.093c-0.127-1.064-0.26-2.163-0.397-3.307c-0.138-1.142-0.281-2.327-0.431-3.565 c1.12 0.4 2.2 0.8 3.2 1.115c1.019 0.4 2 0.7 2.9 1.023c0.939 0.3 1.8 0.6 2.7 0.9 c0.883 0.3 1.7 0.6 2.6 0.902c0.848 0.3 1.7 0.6 2.5 0.878c0.836 0.3 1.7 0.6 2.5 0.9 c0.847 0.3 1.7 0.6 2.6 0.896c0.878 0.3 1.8 0.6 2.7 0.939c0.931 0.3 1.9 0.7 2.9 1 c1.004 0.3 2.1 0.7 3.2 1.095c0.121 1.1 0.2 2 0.3 2.815c0.094 0.8 0.2 1.6 0.3 2.5 c0.094 0.8 0.2 1.7 0.3 2.811c-1.155-0.4-2.216-0.769-3.214-1.115s-1.934-0.671-2.838-0.985 c-0.904-0.314-1.775-0.617-2.648-0.92c-0.874-0.304-1.747-0.608-2.654-0.923c-0.907-0.316-1.848-0.643-2.854-0.992 c-1.005-0.351-2.077-0.723-3.248-1.129c0.104 0.9 0.2 1.6 0.3 2.345s0.153 1.3 0.2 2 C55.87 79.1 56 79.9 56.1 80.8"/>
	<path clip-path="url(#SVGID_2_)" fill="#FF7800" d="M107.179 105.644c-1.084 0.127-2.029 0.238-2.906 0.3 c-0.875 0.104-1.681 0.201-2.485 0.298c-0.804 0.097-1.603 0.193-2.469 0.299c-0.866 0.106-1.796 0.22-2.852 0.4 c-0.136-1.147-0.267-2.237-0.393-3.285c-0.127-1.05-0.249-2.056-0.369-3.029c-0.12-0.974-0.237-1.915-0.351-2.838 c-0.115-0.925-0.229-1.831-0.342-2.733c-0.114-0.903-0.226-1.801-0.342-2.71c-0.115-0.909-0.233-1.827-0.354-2.771 c-0.12-0.944-0.246-1.916-0.376-2.926c-0.13-1.009-0.266-2.058-0.41-3.163c-0.144-1.104-0.295-2.265-0.457-3.495 c-0.973 0.189-1.818 0.353-2.599 0.507c-0.783 0.152-1.5 0.296-2.213 0.438c-0.714 0.143-1.424 0.283-2.188 0.4 c-0.765 0.152-1.568 0.389-2.532 0.386c-0.129-1.097-0.235-2.012-0.336-2.867c-0.101-0.854-0.195-1.648-0.296-2.505 c-0.102-0.854-0.212-1.771-0.342-2.872c1.188 0.1 2.24-0.339 3.288-0.57c1.047-0.23 2.058-0.451 3.041-0.666 c0.984-0.214 1.941-0.422 2.88-0.625c0.939-0.202 1.862-0.401 2.777-0.598s1.824-0.391 2.737-0.586 c0.913-0.195 1.833-0.39 2.769-0.588c0.937-0.199 1.889-0.4 2.871-0.607c0.983-0.206 1.996-0.418 3.051-0.64 c1.055-0.221 2.152-0.451 3.307-0.692c1.152-0.239 2.361-0.491 3.64-0.758c0.172 1.2 0.3 2.2 0.4 3.1 c0.134 0.9 0.3 1.8 0.4 2.671c0.133 0.9 0.3 1.9 0.4 3.06c-1.092 0.204-2.045 0.381-2.929 0.5 c-0.883 0.166-1.693 0.317-2.504 0.47s-1.616 0.305-2.488 0.469c-0.871 0.164-1.809 0.342-2.871 0.5 c0.178 1.3 0.3 2.4 0.5 3.579c0.158 1.1 0.3 2.2 0.5 3.241c0.144 1 0.3 2 0.4 3 c0.134 1 0.3 1.9 0.4 2.843s0.252 1.9 0.4 2.776c0.126 0.9 0.3 1.9 0.4 2.8 c0.127 0.9 0.3 1.9 0.4 2.915c0.134 1 0.3 2 0.4 3.11S107.026 104.5 107.2 105.6"/>
	<path clip-path="url(#SVGID_2_)" fill="#FF7800" d="M137.265 82.7c1.588-0.255 2.602-0.609 3.221-1.136 c0.621-0.528 0.849-1.231 0.869-2.179c0.02-0.946-0.172-2.14-0.39-3.651c-0.171-1.193-0.407-2.086-0.779-2.717 c-0.373-0.632-0.881-1-1.602-1.156c-0.72-0.157-1.653-0.102-2.869 0.124c-1.143 0.212-2.093 0.388-2.981 0.6 s-1.713 0.317-2.601 0.481c-0.887 0.164-1.836 0.338-2.974 0.549c0.155 1.1 0.3 2 0.4 2.8 c0.124 0.9 0.2 1.6 0.4 2.432c0.115 0.8 0.2 1.6 0.4 2.428s0.256 1.8 0.4 2.8 c1.141-0.182 2.093-0.336 2.981-0.479c0.89-0.142 1.715-0.273 2.605-0.416C135.168 83 136.1 82.9 137.3 82.7 M114.919 66.763c1.192-0.246 2.304-0.477 3.357-0.693c1.053-0.218 2.045-0.423 3.004-0.621s1.884-0.39 2.797-0.578 s1.815-0.375 2.73-0.563c0.916-0.189 1.844-0.381 2.81-0.579c0.968-0.199 1.972-0.407 3.042-0.628 c1.067-0.221 2.198-0.453 3.417-0.704c1.367-0.261 2.642-0.461 3.826-0.586c1.183-0.125 2.275-0.174 3.278-0.126 c1.005 0 1.9 0.2 2.8 0.447c0.831 0.3 1.6 0.6 2.2 1.139c0.665 0.5 1.2 1.1 1.8 1.9 c0.508 0.8 0.9 1.7 1.3 2.851c0.354 1.1 0.6 2.4 0.8 3.861c0.161 1.1 0.3 2.2 0.4 3.2 s0.155 1.9 0.1 2.771c-0.026 0.856-0.137 1.651-0.365 2.393c-0.229 0.742-0.575 1.429-1.076 2.07s-1.156 1.234-2.002 1.8 c-0.848 0.558-1.883 1.078-3.148 1.567c0.024 0.2 0 0.3 0.1 0.424c1.137-0.13 2.191-0.104 3.1 0.1 c0.953 0.2 1.8 0.5 2.5 1.026c0.728 0.5 1.3 1.2 1.8 1.986c0.462 0.8 0.8 1.8 0.9 2.9 c0.147 1.1 0.3 2 0.4 2.802c0.111 0.8 0.2 1.6 0.3 2.433c0.111 0.8 0.2 1.7 0.4 2.8 c-1.097 0.126-2.059 0.236-2.952 0.338c-0.895 0.103-1.721 0.196-2.548 0.29c-0.828 0.095-1.656 0.188-2.556 0.3 c-0.899 0.103-1.868 0.211-2.977 0.335c-0.148-1.07-0.259-1.878-0.37-2.687c-0.112-0.811-0.225-1.622-0.375-2.708 c-0.098-0.971-0.344-1.819-0.749-2.502c-0.405-0.685-0.967-1.202-1.709-1.508c-0.741-0.307-1.66-0.403-2.769-0.25 c-1.146 0.158-2.102 0.29-2.993 0.413c-0.893 0.122-1.72 0.236-2.611 0.359c-0.891 0.123-1.845 0.253-2.99 0.4 c0.144 1 0.3 1.9 0.4 2.699c0.115 0.8 0.2 1.6 0.3 2.306c0.104 0.7 0.2 1.5 0.3 2.3 c0.111 0.8 0.2 1.7 0.4 2.646c-1.111 0.124-2.087 0.232-2.989 0.334c-0.902 0.101-1.734 0.192-2.567 0.3 c-0.831 0.093-1.661 0.186-2.563 0.287c-0.899 0.102-1.869 0.21-2.973 0.335c-0.163-1.194-0.321-2.346-0.477-3.462 c-0.154-1.115-0.304-2.196-0.451-3.249c-0.146-1.051-0.29-2.073-0.431-3.072c-0.141-1-0.278-1.979-0.415-2.941 c-0.137-0.965-0.274-1.914-0.409-2.858c-0.134-0.942-0.269-1.88-0.403-2.819s-0.27-1.883-0.406-2.834 c-0.139-0.953-0.277-1.915-0.42-2.896s-0.288-1.981-0.438-3.011c-0.148-1.028-0.304-2.085-0.463-3.178 c-0.16-1.092-0.326-2.219-0.497-3.393C115.285 69.3 115.1 68 114.9 66.8"/>
	<path clip-path="url(#SVGID_2_)" fill="#FF7800" d="M168.026 73.265c1.134-0.204 2.167-0.39 3.135-0.567 c0.968-0.175 1.867-0.341 2.733-0.5c0.866-0.158 1.699-0.313 2.526-0.466c0.829-0.153 1.652-0.308 2.503-0.468 s1.728-0.326 2.658-0.503c0.932-0.177 1.918-0.364 2.985-0.57c0.14 1.1 0.3 2 0.4 2.8 c0.108 0.8 0.2 1.6 0.3 2.466c0.108 0.8 0.2 1.7 0.4 2.821c-1.068 0.188-2.055 0.359-2.985 0.5 c-0.931 0.161-1.807 0.311-2.657 0.457c-0.85 0.145-1.674 0.284-2.501 0.424c-0.828 0.14-1.659 0.28-2.524 0.4 c-0.866 0.145-1.766 0.294-2.732 0.454c-0.967 0.159-2 0.328-3.133 0.513c0.145 1.1 0.3 2 0.4 2.9 c0.112 0.8 0.2 1.6 0.3 2.476c0.11 0.8 0.2 1.8 0.4 2.831c1.23-0.177 2.353-0.34 3.403-0.494 c1.05-0.154 2.026-0.299 2.968-0.438c0.938-0.141 1.839-0.274 2.735-0.409c0.897-0.137 1.79-0.272 2.711-0.414 s1.871-0.29 2.878-0.447c1.008-0.159 2.073-0.326 3.227-0.511c0.159 1.3 0.3 2.3 0.4 3.3 c0.123 1 0.2 1.9 0.4 2.864c0.121 1 0.3 2 0.4 3.269c-1.21 0.168-2.363 0.325-3.471 0.5 c-1.108 0.15-2.172 0.292-3.202 0.428c-1.031 0.136-2.028 0.266-3.008 0.392c-0.98 0.128-1.941 0.25-2.899 0.4 s-1.911 0.241-2.877 0.361c-0.966 0.121-1.945 0.239-2.952 0.363c-1.007 0.123-2.04 0.249-3.12 0.4 c-1.078 0.129-2.2 0.263-3.386 0.403c-1.185 0.141-2.43 0.287-3.754 0.441c-0.163-1.229-0.322-2.413-0.476-3.563 c-0.154-1.149-0.303-2.264-0.448-3.347c-0.147-1.083-0.29-2.138-0.429-3.169c-0.142-1.03-0.277-2.038-0.413-3.028 c-0.136-0.991-0.271-1.965-0.401-2.929c-0.131-0.966-0.262-1.921-0.393-2.874c-0.132-0.953-0.263-1.903-0.395-2.86 c-0.132-0.956-0.266-1.917-0.4-2.89c-0.136-0.973-0.273-1.96-0.412-2.965c-0.141-1.006-0.281-2.033-0.429-3.086 c-0.146-1.053-0.297-2.134-0.453-3.248c-0.154-1.116-0.316-2.266-0.482-3.457c-0.168-1.192-0.341-2.424-0.521-3.707 c1.311-0.276 2.542-0.538 3.715-0.786c1.173-0.249 2.286-0.485 3.354-0.713c1.068-0.229 2.093-0.448 3.091-0.663 c0.997-0.215 1.967-0.425 2.924-0.633c0.958-0.207 1.902-0.413 2.853-0.621c0.949-0.208 1.902-0.418 2.873-0.632 s1.959-0.433 2.979-0.66c1.021-0.228 2.073-0.463 3.169-0.71c1.099-0.248 2.24-0.508 3.438-0.782 c0.125 1 0.2 1.8 0.3 2.599c0.102 0.8 0.2 1.5 0.3 2.234c0.094 0.7 0.2 1.4 0.3 2.2 c0.101 0.8 0.2 1.6 0.3 2.596c-1.131 0.238-2.18 0.456-3.171 0.66c-0.989 0.205-1.92 0.396-2.823 0.6 c-0.903 0.185-1.782 0.363-2.663 0.541c-0.88 0.178-1.768 0.356-2.689 0.541c-0.924 0.185-1.882 0.377-2.912 0.6 c-1.032 0.204-2.136 0.42-3.345 0.657c0.141 1 0.3 1.9 0.4 2.71c0.109 0.8 0.2 1.6 0.3 2.4 C167.771 71.4 167.9 72.2 168 73.3"/>
	<path clip-path="url(#SVGID_2_)" fill="#FF7800" d="M205.967 100.002c-1.055-0.288-1.985-0.54-2.854-0.775s-1.678-0.453-2.49-0.672 c-0.811-0.219-1.628-0.438-2.517-0.676c-0.891-0.237-1.854-0.496-2.967-0.79c-0.15-1.175-0.294-2.313-0.436-3.422 c-0.14-1.106-0.278-2.182-0.412-3.229c-0.134-1.05-0.265-2.072-0.393-3.071c-0.129-1-0.254-1.976-0.378-2.937 c-0.123-0.96-0.244-1.902-0.365-2.834c-0.12-0.93-0.237-1.848-0.356-2.76c-0.117-0.912-0.235-1.815-0.353-2.719 s-0.234-1.804-0.352-2.708c-0.116-0.904-0.234-1.813-0.354-2.729c-0.12-0.917-0.24-1.841-0.362-2.779 c-0.123-0.939-0.248-1.893-0.375-2.864s-0.257-1.965-0.39-2.981c-0.134-1.016-0.271-2.057-0.411-3.128 c-0.14-1.07-0.285-2.172-0.434-3.307c-0.149-1.136-0.304-2.306-0.462-3.517c1.337 0 2.5 0.1 3.6 0.1 c1.1 0 2.1 0.1 3.1 0.119c0.976 0 1.9 0.1 2.9 0.114c0.957 0 1.9 0.1 3 0.1 c1.04 0 1.924-0.126 3.4 0.182c0.461 1.2 0.9 2.3 1.3 3.414c0.416 1.1 0.8 2.1 1.2 3.1 c0.381 1 0.7 2 1.1 2.948c0.354 1 0.7 1.9 1 2.801c0.337 0.9 0.7 1.8 1 2.7 c0.325 0.9 0.6 1.8 1 2.684c0.322 0.9 0.6 1.8 1 2.715c0.325 0.9 0.7 1.8 1 2.8 c0.337 1 0.7 1.9 1 2.949c0.355 1 0.7 2.1 1.1 3.157s0.77 2.2 1.2 3.4 c0.145 0 0.2 0.1 0.4 0.094c0.127-1.163 0.248-2.271 0.364-3.333s0.229-2.081 0.337-3.064 c0.108-0.983 0.214-1.935 0.316-2.862c0.102-0.926 0.202-1.83 0.301-2.725c0.1-0.893 0.195-1.776 0.293-2.66 c0.098-0.885 0.195-1.77 0.294-2.666c0.1-0.896 0.199-1.807 0.301-2.741c0.103-0.935 0.208-1.895 0.317-2.888 c0.108-0.994 0.22-2.025 0.338-3.104s0.241-2.205 0.37-3.393c1.104 0.3 2.1 0.5 3 0.711s1.798 0.4 2.6 0.6 c0.832 0.2 1.6 0.4 2.4 0.581c0.795 0.2 1.6 0.4 2.4 0.582c0.819 0.2 1.7 0.4 2.6 0.6 c0.903 0.2 1.9 0.5 2.9 0.713c0.149 1.3 0.3 2.5 0.4 3.672c0.141 1.2 0.3 2.3 0.4 3.5 c0.133 1.1 0.3 2.2 0.4 3.287c0.127 1.1 0.3 2.1 0.4 3.137c0.121 1 0.2 2 0.4 3 c0.117 1 0.2 2 0.3 2.927c0.114 1 0.2 1.9 0.3 2.867c0.113 0.9 0.2 1.9 0.3 2.8 s0.226 1.9 0.3 2.836c0.112 0.9 0.2 1.9 0.3 2.86c0.112 1 0.2 1.9 0.3 2.9 c0.116 1 0.2 2 0.4 3.002c0.119 1 0.2 2.1 0.4 3.115s0.252 2.1 0.4 3.3 c0.13 1.1 0.3 2.3 0.4 3.428c0.137 1.2 0.3 2.4 0.4 3.624c-0.996-0.281-1.866-0.527-2.673-0.755 c-0.808-0.229-1.55-0.438-2.294-0.648c-0.744-0.209-1.486-0.42-2.29-0.647c-0.805-0.227-1.668-0.473-2.658-0.752 c-0.109-1.249-0.216-2.447-0.319-3.604c-0.102-1.156-0.199-2.271-0.297-3.352c-0.096-1.081-0.188-2.128-0.28-3.149 c-0.091-1.023-0.181-2.021-0.268-3c-0.089-0.98-0.175-1.942-0.261-2.897c-0.085-0.956-0.171-1.901-0.255-2.85 c-0.085-0.949-0.17-1.897-0.256-2.855c-0.087-0.959-0.175-1.927-0.263-2.912c-0.089-0.985-0.181-1.987-0.273-3.019 c-0.095-1.031-0.188-2.089-0.286-3.183c-0.1-1.094-0.204-2.222-0.31-3.395c-0.106-1.174-0.217-2.394-0.332-3.665 c-0.138-0.035-0.206-0.052-0.344-0.086c-0.162 1.201-0.321 2.354-0.473 3.462c-0.152 1.108-0.3 2.172-0.442 3.2 s-0.28 2.026-0.416 2.996c-0.135 0.97-0.267 1.915-0.396 2.841c-0.131 0.926-0.258 1.834-0.387 2.7 c-0.127 0.898-0.254 1.79-0.38 2.679c-0.127 0.888-0.255 1.774-0.382 2.669c-0.127 0.894-0.258 1.793-0.39 2.7 c-0.131 0.917-0.266 1.849-0.404 2.802c-0.138 0.953-0.278 1.927-0.425 2.934c-0.147 1.006-0.301 2.042-0.458 3.1 c-0.158 1.072-0.321 2.185-0.49 3.342c-1.153-0.325-2.116-0.594-3.016-0.848c-0.901-0.253-1.74-0.487-2.647-0.741 c-0.907-0.252-1.881-0.525-3.058-0.853c-0.449-1.223-0.883-2.399-1.306-3.537s-0.835-2.234-1.235-3.301 c-0.401-1.066-0.793-2.101-1.177-3.11c-0.385-1.01-0.761-1.994-1.134-2.961c-0.37-0.967-0.719-1.896-1.068-2.818 c-0.35-0.923-0.695-1.832-1.038-2.736c-0.344-0.904-0.686-1.8-1.027-2.699c-0.343-0.899-0.686-1.802-1.034-2.71 c-0.348-0.909-0.696-1.826-1.055-2.758s-0.723-1.879-1.096-2.848c-0.373-0.97-0.754-1.96-1.148-2.979 c-0.394-1.018-0.8-2.062-1.221-3.143c-0.419-1.079-0.855-2.192-1.306-3.346c-0.12-0.013-0.182-0.018-0.303-0.029 c0.2 1.2 0.4 2.4 0.6 3.515c0.185 1.1 0.4 2.2 0.5 3.262c0.171 1.1 0.3 2.1 0.5 3.1 c0.161 1 0.3 2 0.5 2.901c0.154 0.9 0.3 1.9 0.5 2.799s0.298 1.8 0.4 2.7 c0.147 0.9 0.3 1.8 0.4 2.742c0.149 0.9 0.3 1.8 0.5 2.79c0.154 0.9 0.3 1.9 0.5 2.9 c0.159 1 0.3 2 0.5 3.033c0.168 1 0.3 2.1 0.5 3.228S205.773 98.8 206 100"/>
	<path clip-path="url(#SVGID_2_)" fill="#FF7800" d="M266.075 116.76c-1.161-0.313-2.124-0.573-3.016-0.816 c-0.891-0.242-1.717-0.467-2.599-0.708c-0.884-0.242-1.822-0.5-2.943-0.81c-0.144-1.172-0.27-2.198-0.388-3.151 c-0.117-0.953-0.228-1.834-0.335-2.715c-0.109-0.882-0.219-1.762-0.336-2.718c-0.118-0.956-0.245-1.984-0.391-3.162 c1.116 0.3 2.1 0.5 2.9 0.776s1.704 0.4 2.6 0.681s1.855 0.5 3 0.787c0.145 1.2 0.3 2.2 0.4 3.2 c0.118 1 0.2 1.9 0.3 2.737c0.11 0.9 0.2 1.8 0.3 2.736C265.805 114.5 265.9 115.6 266.1 116.8 M255.048 96.447c-0.101-0.814-0.15-1.218-0.251-2.032c-0.196-1.576-0.323-2.867-0.339-3.944c-0.015-1.076 0.084-1.94 0.343-2.669 c0.261-0.727 0.683-1.317 1.317-1.849c0.637-0.529 1.483-0.997 2.606-1.479c0.708-0.275 1.064-0.415 1.783-0.691 c0.869-0.35 1.635-0.66 2.128-1.356c0.493-0.695 0.711-1.773 0.479-3.657c-0.147-1.21-0.415-2.117-0.813-2.812 c-0.398-0.694-0.929-1.179-1.602-1.547c-0.673-0.367-1.487-0.617-2.45-0.846c-0.909-0.216-1.733-0.381-2.41-0.357 c-0.676 0.023-1.208 0.232-1.529 0.751c-0.322 0.519-0.434 1.349-0.277 2.619c0.105 0.8 0.2 1.3 0.3 2.1 c-1.188-0.293-2.166-0.537-3.073-0.765c-0.907-0.226-1.743-0.436-2.638-0.661c-0.896-0.225-1.852-0.465-2.988-0.753 c-0.102-0.838-0.154-1.257-0.256-2.095c-0.181-1.646-0.237-3.065-0.183-4.281c0.056-1.215 0.226-2.226 0.501-3.062 c0.275-0.835 0.656-1.492 1.14-2c0.481-0.508 1.065-0.868 1.744-1.103c0.678-0.232 1.449-0.341 2.313-0.35 c0.866-0.009 1.8 0.1 2.9 0.24c1.046 0.2 2.2 0.4 3.4 0.685c1.025 0.2 2 0.5 3 0.8 c0.962 0.3 1.9 0.6 2.8 0.957c0.888 0.4 1.7 0.8 2.5 1.235c0.8 0.5 1.6 1 2.3 1.6 c0.699 0.6 1.3 1.3 1.9 2.065c0.583 0.8 1.1 1.6 1.6 2.616c0.454 1 0.8 2.1 1.2 3.3 c0.314 1.2 0.6 2.5 0.7 3.996c0.201 1.8 0.3 3.3 0.2 4.537c-0.053 1.254-0.237 2.27-0.551 3.1 c-0.314 0.841-0.759 1.509-1.337 2.063c-0.576 0.555-1.289 0.996-2.132 1.388c-0.842 0.392-1.818 0.748-2.909 1.1 c-1.078 0.336-1.765 0.693-2.136 1.229c-0.371 0.537-0.438 1.247-0.313 2.271c0.101 0.8 0.2 1.2 0.3 2 c-1.244-0.315-2.267-0.577-3.216-0.821c-0.949-0.242-1.822-0.47-2.756-0.71C257.227 97 256.2 96.8 255 96.4"/>
</g>
</svg>
