<svg xmlns="http://www.w3.org/2000/svg" xmlns:xlink="http://www.w3.org/1999/xlink" version="1.1" id="Layer_1" x="0px" y="0px" width="227.93px" height="236px" viewBox="0 0 227.93 236">
<g>
	<defs>
		<rect id="SVGID_1_" x="-15" y="-12.1" width="258.7" height="260.1"/>
	</defs>
	<clipPath id="SVGID_2_">
		<use xlink:href="#SVGID_1_" overflow="visible"/>
	</clipPath>
	<path clip-path="url(#SVGID_2_)" fill="#FFBF5A" d="M113.665 108.132l-2.955 2.128l2.782 3.866l2.88-2.074 c0.81-0.582 1.261-1.162 1.355-1.742c0.094-0.579-0.089-1.189-0.55-1.83c-0.4-0.555-0.893-0.892-1.476-1.009 C115.119 107.4 114.4 107.6 113.7 108.1 M75.358 135.708c-0.994 0.717-1.465 1.669-1.413 2.9 c0.051 1.2 0.7 2.6 1.8 4.187s2.299 2.6 3.4 3.047c1.141 0.4 2.2 0.3 3.203-0.427 c0.994-0.715 1.465-1.668 1.414-2.858c-0.052-1.191-0.653-2.586-1.806-4.187c-1.152-1.601-2.299-2.615-3.44-3.048 C77.42 134.9 76.4 135 75.4 135.7 M61.725 112.133c-0.424-0.59-0.924-0.946-1.499-1.07 c-0.575-0.123-1.258 0.101-2.049 0.67l-2.654 1.91l2.856 3.968l2.578-1.856c0.808-0.582 1.26-1.162 1.354-1.742 C62.404 113.4 62.2 112.8 61.7 112.1 M167.946 89.849l-4.624 3.329l-3.038-4.22c-0.63-0.876-1.22-1.711-1.767-2.507 c-0.547-0.795-1.052-1.55-1.516-2.266c0.108 0.4 0.2 0.9 0.3 1.439s0.241 1.1 0.4 1.6 c0.113 0.5 0.2 1.1 0.3 1.612c0.101 0.5 0.2 1 0.3 1.437l1.212 6.571l-5.848-3.234 c-0.382-0.211-0.807-0.448-1.276-0.711c-0.471-0.263-0.946-0.534-1.429-0.814c-0.481-0.279-0.952-0.561-1.411-0.845 c-0.459-0.283-0.877-0.544-1.254-0.785c0.531 0.7 1.1 1.4 1.7 2.157s1.188 1.6 1.8 2.47l3.038 4.22l-4.624 3.3 l-12.733-17.688l4.504-3.242l5.578 3.158c0.683 0.4 1.3 0.7 1.9 1.109c0.618 0.4 1.2 0.7 1.7 1 c0.527 0.3 1 0.6 1.4 0.887c0.411 0.3 0.7 0.5 1 0.707c-0.213-0.615-0.455-1.52-0.729-2.718 c-0.272-1.197-0.566-2.603-0.884-4.217l-1.225-6.292l4.453-3.206L167.946 89.849z M143.536 71.076l-13.721 9.877l-12.733-17.688 l13.545-9.75l2.965 4.119l-8.692 6.257l1.691 2.35l5.23-3.765l2.929 4.068l-5.23 3.766l2.183 3.032l8.869-6.385L143.536 71.076z M113.849 65.593l7.294 10.133c1.007 1.4 1.7 2.7 2 4.016c0.318 1.3 0.4 2.5 0.1 3.6 c-0.245 1.135-0.739 2.188-1.484 3.159c-0.746 0.972-1.675 1.858-2.786 2.658c-1.112 0.801-2.243 1.397-3.393 1.8 c-1.149 0.393-2.293 0.519-3.43 0.378c-1.137-0.14-2.257-0.568-3.359-1.283c-1.104-0.715-2.158-1.771-3.164-3.17l-7.295-10.132 l5.003-3.602l7.295 10.132c0.788 1.1 1.6 1.8 2.5 2.096c0.896 0.3 1.8 0.1 2.783-0.584 c0.96-0.691 1.431-1.503 1.411-2.436c-0.02-0.932-0.422-1.946-1.211-3.041l-7.294-10.133L113.849 65.593z M93.545 81.6 c0.861 0 1.7 0.2 2.6 0.517c0.844 0.3 1.7 0.8 2.6 1.4l-3.192 4.946c-0.832-0.552-1.618-0.888-2.356-1.009 c-0.739-0.12-1.53 0.123-2.372 0.729c-0.573 0.413-0.969 0.884-1.189 1.413c-0.22 0.529-0.294 1.093-0.22 1.7 c0.073 0.6 0.3 1.2 0.6 1.901c0.315 0.7 0.7 1.4 1.2 2.064c1.273 1.8 2.5 2.8 3.6 3.2 c1.122 0.4 2.3 0.1 3.402-0.684c0.522-0.376 0.921-0.746 1.195-1.11c0.274-0.364 0.454-0.729 0.536-1.095 c0.081-0.366 0.087-0.721 0.017-1.068c-0.07-0.345-0.189-0.689-0.356-1.028l-3.208 2.31l-2.638-3.664l7.783-5.603l1.546 2.1 c1.831 2.5 2.6 5 2.2 7.28c-0.384 2.309-1.864 4.392-4.441 6.247c-1.213 0.873-2.465 1.469-3.759 1.8 c-1.294 0.317-2.581 0.342-3.86 0.074c-1.28-0.268-2.524-0.824-3.733-1.668c-1.208-0.843-2.334-1.989-3.377-3.438 c-0.946-1.314-1.642-2.654-2.089-4.021c-0.446-1.366-0.611-2.705-0.494-4.017s0.518-2.566 1.204-3.764 c0.686-1.196 1.702-2.28 3.05-3.25c1.112-0.801 2.136-1.385 3.074-1.753C91.785 81.8 92.7 81.6 93.5 81.6 M78.271 91.2 l2.965 4.119l-8.692 6.257l1.692 2.35l5.23-3.765l2.929 4.068L77.164 108l2.183 3.033l8.869-6.385l2.965 4.118l-13.72 9.9 l-12.734-17.688L78.271 91.207z M61.387 105.375c0.94 0 1.8 0.3 2.7 0.81c0.868 0.5 1.7 1.3 2.4 2.4 c0.813 1.1 1.3 2.2 1.5 3.238c0.204 1 0.2 2.015-0.135 2.955c-0.295 0.941-0.808 1.835-1.541 2.7 c-0.733 0.847-1.63 1.653-2.692 2.417l-2.451 1.764l4.13 5.736l-4.827 3.474l-12.733-17.688l7.606-5.475 c1.027-0.74 2.042-1.31 3.044-1.712C59.476 105.5 60.4 105.3 61.4 105.4 M69.461 134.4 c0.72-1.132 1.677-2.128 2.874-2.989c1.195-0.861 2.437-1.454 3.725-1.779c1.287-0.326 2.564-0.363 3.832-0.113 c1.268 0.3 2.5 0.8 3.7 1.646s2.362 2 3.4 3.468c1.055 1.5 1.8 2.9 2.2 4.3 c0.414 1.4 0.5 2.8 0.4 4.087c-0.167 1.297-0.61 2.511-1.33 3.642c-0.719 1.132-1.677 2.129-2.873 3 c-1.196 0.86-2.438 1.454-3.725 1.78c-1.288 0.325-2.569 0.365-3.845 0.12c-1.277-0.244-2.522-0.793-3.736-1.646 c-1.215-0.853-2.35-2.011-3.405-3.477s-1.789-2.912-2.204-4.341c-0.414-1.428-0.538-2.79-0.371-4.086 C68.298 136.7 68.7 135.5 69.5 134.4 M103.284 136.398l-9.659-13.418l-4.953 3.566l-3.074-4.271l14.807-10.659 l3.075 4.27l-4.953 3.565l9.659 13.418L103.284 136.398z M115.742 127.43l-12.733-17.688l7.909-5.694 c1.026-0.739 2.043-1.31 3.045-1.712s1.97-0.594 2.903-0.576c0.935 0 1.8 0.3 2.7 0.8 c0.855 0.5 1.7 1.3 2.4 2.311c0.958 1.3 1.5 2.6 1.5 3.878c0.034 1.255-0.279 2.453-0.941 3.594l8.395 4.2 l-5.483 3.947l-7.174-3.89l-1.971 1.419l4.293 5.963L115.742 127.43z M133.581 114.587l-12.733-17.688l13.544-9.75l2.965 4.1 l-8.692 6.258l1.692 2.35l5.23-3.766l2.929 4.068l-5.231 3.766l2.184 3.032l8.87-6.385l2.965 4.119L133.581 114.587z M141.043 222.938l58.514-116.061l-57.788-85.372L26.158 111.09l-6.58 64.928l107.292 3.315L141.043 222.938z"/>
</g>
</svg>
