<?xml version="1.0" encoding="utf-8"?>
<!-- Generator: Adobe Illustrator 18.0.0, SVG Export Plug-In . SVG Version: 6.00 Build 0)  -->
<!DOCTYPE svg PUBLIC "-//W3C//DTD SVG 1.1//EN" "http://www.w3.org/Graphics/SVG/1.1/DTD/svg11.dtd">
<svg version="1.1" id="Layer_1" xmlns="http://www.w3.org/2000/svg" xmlns:xlink="http://www.w3.org/1999/xlink" x="0px" y="0px"
	 viewBox="0 0 1000 720" enable-background="new 0 0 1000 720" xml:space="preserve">
<g>
	<defs>
		<polygon id="SVGID_5_" points="522.3,304 422.5,325.6 354.9,324.3 354.9,358.9 370.1,434.9 469.7,434.9 554.7,392.3 643.1,388.6 
			643.1,381.3 608.6,305.5 568.1,304 		"/>
	</defs>
	<clipPath id="SVGID_1_">
		<use xlink:href="#SVGID_5_"  overflow="visible"/>
	</clipPath>
	<path clip-path="url(#SVGID_1_)" fill="none" stroke="#B2B2B2" stroke-width="0.74" stroke-miterlimit="10" d="M824.8,296.3
		L641.2,468.3 M817.9,297.7L634.3,469.6 M811.1,299L627.5,470.9 M804.2,300.3L620.6,472.3 M797.4,301.7L613.7,473.6 M790.5,303
		L606.9,475 M783.7,304.4L600,476.3 M776.8,305.7L593.2,477.6 M769.9,307L586.3,479 M763.1,308.4L579.5,480.3 M756.2,309.7
		L572.6,481.7 M749.4,311.1L565.8,483 M742.5,312.4L558.9,484.3 M735.7,313.7L552,485.7 M728.8,315.1L545.2,487 M722,316.4
		L538.3,488.4 M715.1,317.8L531.5,489.7 M708.5,319L524.9,491 M701.7,320.4L518.1,492.3 M694.8,321.7L511.2,493.7 M688,323.1
		L504.3,495 M681.1,324.4L497.5,496.3 M674.3,325.7L490.6,497.7 M667.4,327.1L483.8,499 M660.5,328.4L476.9,500.4 M653.7,329.8
		L470.1,501.7 M646.8,331.1L463.2,503 M640,332.4L456.3,504.4 M633.1,333.8L449.5,505.7 M626.3,335.1L442.6,507.1 M619.4,336.5
		L435.8,508.4 M612.5,337.8L428.9,509.7 M605.7,339.1L422.1,511.1 M598.8,340.5L415.2,512.4 M592,341.8L408.3,513.8 M585.1,343.2
		L401.5,515.1 M578.3,344.5L394.6,516.4 M571.4,345.8L387.8,517.8 M564.5,347.2L380.9,519.1 M557.7,348.5L374.1,520.5 M550.8,349.9
		L367.2,521.8 M544,351.2L360.3,523.1 M537.1,352.5L353.5,524.5 M530.3,353.9L346.6,525.8 M523.4,355.2L339.8,527.2 M516.5,356.6
		L332.9,528.5 M509.7,357.9L326.1,529.8 M502.8,359.2L319.2,531.2 M496,360.6L312.4,532.5 M489.1,361.9L305.5,533.9 M482.3,363.3
		L298.6,535.2 M475.4,364.6L291.8,536.5 M468.6,366L284.9,537.9 M461.7,367.3L278.1,539.2 M454.8,368.6L271.2,540.6 M448,370
		L264.4,541.9 M441.1,371.3L257.5,543.2 M434.3,372.7L250.6,544.6 M427.4,374L243.8,545.9 M420.6,375.3L236.9,547.3 M413.7,376.7
		L230.1,548.6 M406.8,378L223.2,549.9 M400,379.4L216.4,551.3 M393.1,380.7L209.5,552.6 M386.3,382L202.6,554 M379.4,383.4
		L195.8,555.3 M372.6,384.7L188.9,556.7 M365.7,386.1L182.1,558 M358.8,387.4L175.2,559.3 M352,388.7L168.4,560.7 M830.3,159.3
		L646.6,331.2 M823.4,160.6L639.8,332.6 M816.5,162L632.9,333.9 M809.7,163.3L626.1,335.3 M802.8,164.7L619.2,336.6 M796,166
		L612.4,337.9 M789.1,167.3L605.5,339.3 M782.3,168.7L598.6,340.6 M775.4,170L591.8,342 M768.6,171.4L584.9,343.3 M761.7,172.7
		L578.1,344.6 M754.8,174L571.2,346 M748,175.4L564.4,347.3 M741.1,176.7L557.5,348.7 M734.3,178.1L550.6,350 M727.4,179.4
		L543.8,351.3 M720.6,180.7L536.9,352.7 M713.7,182.1L530.1,354 M706.8,183.4L523.2,355.4 M700,184.8L516.4,356.7 M693.1,186.1
		L509.5,358 M686.3,187.4L502.6,359.4 M679.4,188.8L495.8,360.7 M672.6,190.1L488.9,362.1 M665.7,191.5L482.1,363.4 M658.8,192.8
		L475.2,364.7 M652,194.1L468.4,366.1 M645.1,195.5L461.5,367.4 M638.3,196.8L454.6,368.8 M631.4,198.2L447.8,370.1 M624.6,199.5
		L440.9,371.4 M617.7,200.8L434.1,372.8 M610.8,202.2L427.2,374.1 M604,203.5L420.4,375.5 M597.1,204.9L413.5,376.8 M590.3,206.2
		L406.7,378.1 M583.4,207.5L399.8,379.5 M576.6,208.9L392.9,380.8 M569.7,210.2L386.1,382.2 M562.9,211.6L379.2,383.5 M556,212.9
		L372.4,384.8 M549.1,214.2L365.5,386.2 M542.3,215.6L358.7,387.5 M535.4,216.9L351.8,388.9 M528.6,218.3L344.9,390.2 M521.7,219.6
		L338.1,391.5 M514.9,220.9L331.2,392.9 M508,222.3L324.4,394.2 M501.1,223.6L317.5,395.6 M494.3,225L310.7,396.9 M487.4,226.3
		L303.8,398.2 M480.6,227.6L296.9,399.6 M473.7,229L290.1,400.9 M466.9,230.3L283.2,402.3 M460,231.7L276.4,403.6 M453.1,233
		L269.5,404.9 M446.3,234.3L262.7,406.3 M439.4,235.7L255.8,407.6 M432.6,237L248.9,409 M425.7,238.4L242.1,410.3 M419.2,239.7
		L235.5,411.6"/>
</g>
<g>
	<defs>
		<rect id="SVGID_7_" x="348" y="302.5" width="298.4" height="142.5"/>
	</defs>
	<clipPath id="SVGID_2_">
		<use xlink:href="#SVGID_7_"  overflow="visible"/>
	</clipPath>
	<path clip-path="url(#SVGID_2_)" fill="#FF7800" d="M373.8,359.8c1.8-0.2,3.1-0.3,4.4-0.4c1.3-0.1,2.7-0.3,4.4-0.4
		c1.2-0.1,2.2-0.5,2.9-1.2c0.7-0.7,1.1-1.6,1.3-2.7c0.2-1.1,0.2-2.5,0-4c-0.2-1.8-0.4-3.2-0.5-4.6c-0.2-1.4-0.3-2.8-0.5-4.6
		c-0.2-1.9-0.5-3.3-1-4.3c-0.5-1-1.1-1.6-1.9-2c-0.8-0.4-1.8-0.5-2.9-0.5c-1.8,0-3.1,0.1-4.4,0.1c-1.3,0-2.6,0.1-4.4,0.1
		c0.2,2,0.4,3.7,0.5,5.4c0.2,1.7,0.3,3.2,0.5,4.7c0.1,1.5,0.3,3,0.5,4.5c0.1,1.5,0.3,3,0.5,4.7C373.4,356.1,373.6,357.8,373.8,359.8
		 M360.5,324.4c1.8,0,3.4,0,4.9,0.1c1.5,0,2.9,0,4.3,0.1c1.4,0,2.8,0,4.3,0.1c1.5,0,3.2,0,5.1,0.1c1.7,0,3.3,0.2,4.8,0.5
		c1.5,0.3,2.8,0.7,4,1.3c1.2,0.6,2.3,1.3,3.2,2.2c0.9,0.9,1.7,1.9,2.4,3.2c0.7,1.2,1.3,2.6,1.7,4.2c0.5,1.6,0.8,3.4,1,5.4
		c0.2,1.8,0.4,3.1,0.5,4.5c0.2,1.3,0.3,2.7,0.5,4.5c0.2,1.9,0.3,3.7,0.3,5.3c0,1.6-0.2,3.1-0.5,4.4c-0.3,1.3-0.8,2.5-1.4,3.5
		c-0.6,1-1.4,1.9-2.4,2.6c-1,0.7-2.1,1.4-3.5,1.9c-1.3,0.5-2.9,0.9-4.7,1.1c-1.7,0.2-3.1,0.4-4.5,0.6s-2.7,0.4-3.9,0.5
		c-1.3,0.2-2.5,0.3-3.7,0.5c-1.3,0.2-2.6,0.3-4,0.5c-1.4,0.2-2.9,0.4-4.6,0.6c-0.2-1.9-0.3-3.7-0.5-5.4c-0.2-1.7-0.3-3.4-0.4-5
		c-0.1-1.6-0.3-3.1-0.4-4.6c-0.1-1.5-0.3-3-0.4-4.4c-0.1-1.4-0.2-2.9-0.4-4.3c-0.1-1.4-0.2-2.8-0.4-4.3c-0.1-1.4-0.3-2.9-0.4-4.4
		c-0.1-1.5-0.3-3-0.4-4.6c-0.1-1.6-0.3-3.2-0.4-5C360.8,328.1,360.6,326.3,360.5,324.4"/>
	<path clip-path="url(#SVGID_2_)" fill="#FF7800" d="M415.6,333.1c0,0-0.1,0-0.1,0c-0.3,1.7-0.5,3.3-0.7,4.7
		c-0.2,1.4-0.4,2.7-0.6,4.1c-0.2,1.3-0.4,2.6-0.6,4.1c-0.2,1.4-0.5,3-0.7,4.8c1.3-0.1,2.4-0.2,3.4-0.2c1-0.1,1.9-0.1,3-0.2
		c1-0.1,2.1-0.1,3.4-0.2c-0.7-1.7-1.3-3.1-1.8-4.5c-0.6-1.4-1.1-2.6-1.6-3.9c-0.5-1.3-1-2.5-1.6-3.9
		C416.9,336.4,416.3,334.9,415.6,333.1 M420.7,319.3c-1.5,0.4-2.8,0.8-4,1.1c-1.2,0.3-2.3,0.6-3.5,1c-1.2,0.3-2.5,0.7-4,1.2
		c-0.7-1.3-1.1-2-1.8-3.3c1.3-0.8,2.4-1.4,3.5-2c1-0.6,2-1.1,3.1-1.7c1-0.6,2.2-1.2,3.5-1.9c0.7,1.1,1.1,2,1.6,2.8
		C419.5,317.3,420,318.2,420.7,319.3 M411.5,358.8c-0.2,1.4-0.4,2.5-0.6,3.5c-0.2,1.1-0.3,2.1-0.6,3.5c-1.4,0.2-2.6,0.3-3.7,0.5
		c-1.1,0.1-2.1,0.3-3.2,0.4c-1.1,0.1-2.3,0.3-3.7,0.5c0.3-1.9,0.6-3.7,0.9-5.4c0.3-1.7,0.5-3.3,0.8-4.9c0.2-1.6,0.5-3.1,0.7-4.6
		c0.2-1.5,0.5-2.9,0.7-4.3c0.2-1.4,0.5-2.8,0.7-4.2c0.2-1.4,0.5-2.8,0.7-4.3c0.2-1.4,0.5-2.9,0.7-4.5c0.3-1.5,0.5-3.1,0.8-4.7
		c0.3-1.6,0.6-3.3,0.9-5.1c1.6,0,3,0.1,4.3,0.1c1.3,0,2.5,0,3.7,0.1c1.2,0,2.4,0,3.7,0.1c1.3,0,2.7,0,4.3,0.1
		c0.7,1.7,1.4,3.3,2.1,4.8c0.7,1.5,1.3,3,1.9,4.4c0.6,1.4,1.2,2.7,1.8,4.1c0.6,1.3,1.1,2.6,1.7,3.8c0.6,1.3,1.1,2.5,1.7,3.7
		c0.6,1.2,1.1,2.5,1.7,3.7c0.6,1.3,1.2,2.5,1.8,3.8c0.6,1.3,1.2,2.7,1.9,4c0.7,1.4,1.4,2.8,2.1,4.3c-1.5,0.2-2.7,0.3-3.8,0.5
		c-1.1,0.1-2.2,0.3-3.3,0.4s-2.3,0.3-3.8,0.5c-0.6-1.2-1-2.1-1.4-3c-0.4-0.9-0.8-1.9-1.4-3.1c-1.9,0.2-3.5,0.3-4.9,0.5
		c-1.5,0.1-2.8,0.3-4.3,0.4C414.9,358.4,413.3,358.6,411.5,358.8"/>
	<path clip-path="url(#SVGID_2_)" fill="#FF7800" d="M464.9,347.9c2.1,0.2,3.2,0.2,3.8-0.4c0.6-0.7,0.6-2.1,0.3-4.7
		c-0.2-2.1-0.5-3.4-1.3-4.3c-0.8-0.9-2-1.4-4-1.6c-1.4-0.2-2.5-0.3-3.6-0.4c-1.1-0.1-2.2-0.3-3.6-0.4c0.2,1.4,0.3,2.6,0.4,3.8
		c0.1,1.1,0.3,2.2,0.4,3.3c0.1,1.1,0.3,2.3,0.5,3.8c1.5,0.2,2.5,0.4,3.6,0.5C462.3,347.5,463.4,347.7,464.9,347.9 M449.2,363
		c-0.2-1.7-0.4-3.4-0.6-5c-0.2-1.6-0.4-3.1-0.6-4.6c-0.2-1.5-0.4-2.9-0.5-4.3c-0.2-1.4-0.3-2.8-0.5-4.2c-0.2-1.4-0.4-2.8-0.5-4.2
		c-0.2-1.4-0.4-2.9-0.5-4.4c-0.2-1.5-0.4-3.1-0.6-4.7c-0.2-1.6-0.4-3.4-0.6-5.2c1.6,0.1,3.1,0.3,4.4,0.4c1.3,0.1,2.6,0.2,3.8,0.3
		c1.2,0.1,2.4,0.2,3.6,0.3c1.2,0.1,2.5,0.2,3.8,0.4c1.3,0.1,2.8,0.3,4.4,0.4c1.6,0.1,3.1,0.4,4.4,0.8c1.3,0.4,2.5,0.8,3.5,1.4
		c1,0.6,2,1.3,2.8,2.2c0.8,0.9,1.5,1.8,2,3c0.6,1.1,1,2.4,1.4,3.9c0.4,1.5,0.7,3.1,0.9,4.9c0.3,2.3,0.4,4.3,0.3,6
		c0,1.7-0.3,3.1-0.7,4.2c-0.4,1.1-1.1,1.9-2.1,2.5c-0.9,0.6-2.1,0.9-3.7,0.9c-1.5,0.1-3.4-0.1-5.5-0.5c-1.2-0.2-2.3-0.4-3.2-0.6
		c-1-0.2-1.9-0.3-2.8-0.5c-1-0.2-2-0.3-3.3-0.6c0.2,1.9,0.4,3.3,0.6,4.7c0.2,1.4,0.3,2.8,0.5,4.6c-1.4-0.3-2.6-0.5-3.7-0.7
		c-1.1-0.2-2.1-0.4-3.2-0.6C451.8,363.5,450.6,363.3,449.2,363"/>
	<path clip-path="url(#SVGID_2_)" fill="#FF7800" d="M501.4,352.9c2.2,0.3,3.2,0,3.5-1c0.4-1,0.1-2.7-0.1-5.2
		c-0.2-2-0.6-3.2-1.3-4.1c-0.7-0.8-1.8-1.2-3.4-1.4c-1.6-0.2-2.7-0.3-3.9-0.5c-1.2-0.1-2.4-0.3-3.9-0.5c0.2,1.5,0.3,2.8,0.4,4
		c0.1,1.2,0.3,2.3,0.4,3.5c0.1,1.2,0.3,2.5,0.4,4c1.6,0.2,2.8,0.4,4,0.6S499.9,352.6,501.4,352.9 M481,329.6c1.6,0.1,3,0.3,4.4,0.4
		c1.3,0.1,2.6,0.2,3.8,0.3c1.2,0.1,2.4,0.2,3.5,0.3c1.2,0.1,2.4,0.2,3.7,0.3c1.3,0.1,2.7,0.3,4.2,0.4c1.7,0.2,3.3,0.4,4.7,0.8
		c1.4,0.4,2.6,0.9,3.7,1.5c1.1,0.7,2,1.5,2.8,2.6c0.8,1.1,1.4,2.4,1.9,4c0.5,1.6,0.9,3.5,1.2,5.7c0.2,1.9,0.4,3.6,0.5,5
		c0.1,1.5,0,2.8-0.3,3.8c-0.3,1.1-0.9,1.9-1.8,2.6c-0.9,0.6-2.2,1.1-3.9,1.2c0,0.2,0,0.3,0.1,0.5c1.4,0.3,2.6,0.8,3.7,1.6
		c1.1,0.8,2,1.8,2.6,3c0.7,1.2,1.1,2.7,1.3,4.3c0.2,1.7,0.4,3,0.5,4.2c0.1,1.3,0.4,3.4,0.6,5l-10.2-2.9c-0.1-1.1-0.2-1.9-0.3-2.8
		c-0.1-0.8-0.2-1.7-0.3-2.8c-0.1-1.5-0.5-2.9-1.3-3.9c-0.8-1-1.9-1.8-3.4-2c-1.6-0.3-2.8-0.5-4-0.7c-1.2-0.2-2.4-0.4-4-0.7
		c0.2,1.5,0.3,2.7,0.4,3.8c0.1,1.1,0.2,2.1,0.3,3.2c0.1,1.1,0.2,2.2,0.4,3.6c-1.4-0.3-2.5-0.5-3.6-0.7c-1.1-0.2-2.1-0.4-3.1-0.6
		c-1.1-0.2-2.2-0.4-3.6-0.7c-0.2-1.7-0.4-3.3-0.5-4.8c-0.2-1.6-0.3-3.1-0.5-4.5c-0.2-1.5-0.3-2.9-0.5-4.3c-0.2-1.4-0.3-2.8-0.5-4.2
		c-0.2-1.4-0.3-2.7-0.5-4.1c-0.2-1.4-0.3-2.8-0.5-4.2c-0.2-1.4-0.3-2.9-0.5-4.4c-0.2-1.5-0.3-3.1-0.5-4.7
		C481.3,333,481.2,331.3,481,329.6"/>
	<path clip-path="url(#SVGID_2_)" fill="#FF7800" d="M535.3,336.6c0,0-0.1,0-0.1,0c-0.2,1.7-0.3,3.2-0.5,4.7
		c-0.2,1.4-0.3,2.8-0.4,4.1c-0.1,1.3-0.3,2.6-0.4,3.9c-0.1,1.3-0.3,2.6-0.4,4.1c-0.2,1.4-0.3,3-0.5,4.6c1.3-0.4,2.3-0.7,3.3-1
		c1-0.3,1.9-0.6,2.8-0.9c1-0.3,2-0.6,3.3-1c-0.7-1.8-1.3-3.4-1.9-4.9c-0.6-1.5-1.1-2.9-1.6-4.3c-0.5-1.4-1-2.8-1.6-4.3
		C536.6,340.1,535.9,338.4,535.3,336.6 M531.9,367.2l-1,7.4l-11,2.7c0.3-1.5,1.1-8.2,1.4-9.7c0.2-1.5,0.5-2.9,0.7-4.3
		c0.2-1.4,0.4-2.8,0.6-4.3c0.2-1.5,0.4-3,0.6-4.4c0.2-1.5,0.4-3,0.6-4.5c0.2-1.5,0.4-3,0.6-4.6c0.2-1.6,0.4-3.2,0.6-4.8
		c0.2-1.7,0.4-3.4,0.7-5.1c0.2-1.8,0.5-3.6,0.8-5.5c1.6-0.5,2.9-0.9,4.2-1.3c1.3-0.4,2.4-0.7,3.5-1.1c1.1-0.4,2.3-0.7,3.5-1.1
		c1.2-0.4,2.5-0.8,4-1.3c0.7,1.8,1.4,3.5,2.1,5.2c0.7,1.7,1.3,3.3,1.9,4.9c0.6,1.6,1.2,3.1,1.8,4.6c0.6,1.5,1.2,2.9,1.7,4.4
		c0.6,1.4,1.1,2.9,1.7,4.3c0.6,1.4,1.1,2.9,1.7,4.3c0.6,1.4,1.2,2.9,1.8,4.4c0.6,1.5,1.3,3,1.9,4.6c0.7,1.6,1.4,3.2,2.1,4.8
		c-1.4,0.4-2.5,0.8-3.6,1.1c-1.1,0.3-2,0.6-3.1,1c-1.1,0.3-2.2,0.7-3.6,1.1c-0.6-1.3-1-2.2-1.4-3.2c-0.4-1-0.8-2-1.4-3.4
		c-1.4,0.4-2.5,0.8-3.6,1.1c-1.1,0.3-2.1,0.6-3.1,1c-1,0.3-2,0.6-3.2,1C534.2,366.5,533.3,366.8,531.9,367.2"/>
	<path clip-path="url(#SVGID_2_)" fill="#FF7800" d="M576.9,360.6c-1.3,0.4-2.4,0.8-3.5,1.1c-1,0.3-2,0.6-3,1
		c-1,0.3-2.2,0.7-3.5,1.1c-0.2-1.6-0.4-3.2-0.7-4.7c-0.2-1.5-0.4-3-0.6-4.5c-0.2-1.5-0.4-2.9-0.6-4.4c-0.2-1.4-0.4-2.8-0.6-4.2
		c-0.2-1.4-0.4-2.8-0.6-4.2c-0.2-1.4-0.4-2.8-0.6-4.2c-0.2-1.4-0.4-2.9-0.6-4.3c-0.2-1.5-0.4-3-0.6-4.5c-0.2-1.6-0.4-3.2-0.7-4.8
		c-0.2-1.7-0.5-3.4-0.7-5.1c1.3-0.4,2.3-0.8,3.3-1.1c1-0.3,1.9-0.6,2.8-1c1-0.3,2-0.7,3.3-1.1c0.3,1.8,0.5,3.5,0.8,5.1
		c0.3,1.7,0.5,3.3,0.7,4.8c0.2,1.6,0.5,3.1,0.7,4.6c0.2,1.5,0.4,2.9,0.7,4.4c0.2,1.4,0.4,2.8,0.6,4.2c0.2,1.4,0.4,2.8,0.6,4.2
		c0.2,1.4,0.4,2.8,0.7,4.2c0.2,1.4,0.4,2.9,0.7,4.4c0.2,1.5,0.5,3,0.7,4.5C576.4,357.4,576.6,359,576.9,360.6"/>
	<path clip-path="url(#SVGID_2_)" fill="#FF7800" d="M595.7,331.6c1.4-0.4,2.3-1,2.8-1.7c0.5-0.7,0.7-1.5,0.6-2.7
		c-0.1-1.1-0.3-2.6-0.7-4.3c-0.4-2.1-0.8-3.4-1.6-4c-0.8-0.6-1.8-0.6-3.5-0.1c-1.5,0.5-2.6,0.9-3.8,1.2c-1.1,0.4-2.3,0.7-3.8,1.2
		c0.3,1.7,0.5,3.1,0.8,4.4c0.2,1.3,0.4,2.6,0.7,3.9c0.2,1.3,0.5,2.7,0.8,4.4c1.5-0.5,2.7-0.8,3.8-1.2
		C593,332.4,594.1,332,595.7,331.6 M574.6,313.8c1.5-0.5,2.8-0.9,4-1.4c1.2-0.4,2.4-0.8,3.5-1.2c1.1-0.4,2.2-0.7,3.3-1.1
		c1.1-0.4,2.3-0.8,3.5-1.2c1.2-0.4,2.6-0.9,4.1-1.4c1.7-0.5,3.2-0.9,4.6-1.1c1.4-0.2,2.7-0.2,3.8,0.1c1.1,0.3,2.1,0.8,3,1.6
		c0.9,0.8,1.6,2,2.3,3.5s1.2,3.4,1.6,5.8c0.4,2,0.7,3.8,0.9,5.4c0.2,1.6,0.2,3.1,0,4.4c-0.2,1.3-0.7,2.5-1.6,3.7
		c-0.9,1.1-2.1,2.2-3.8,3.3c0,0.2,0.1,0.3,0.1,0.5c1.4-0.4,2.7-0.4,3.8-0.1c1.1,0.3,2.1,1,2.9,2c0.8,1,1.3,2.3,1.7,4
		c0.3,1.8,0.6,3,0.8,4.3c0.2,1.3,0.5,2.5,0.8,4.1c-1.4,0.4-2.5,0.8-3.5,1.1c-1.1,0.3-2,0.6-3.1,0.9c-1,0.3-2.2,0.7-3.5,1.1
		c-0.2-1.1-0.4-1.9-0.5-2.8c-0.2-0.9-0.3-1.7-0.5-2.9c-0.2-1.6-0.8-2.9-1.6-3.7s-2-1-3.5-0.5c-1.5,0.5-2.7,0.8-3.9,1.2
		c-1.2,0.4-2.3,0.7-3.8,1.2c0.3,1.6,0.5,2.9,0.7,4.1s0.4,2.3,0.6,3.4c0.2,1.1,0.4,2.3,0.7,3.7c-1.3,0.4-2.5,0.8-3.5,1.1
		c-1,0.3-2,0.6-3,1c-1,0.3-2.2,0.7-3.5,1.1c-0.3-1.6-0.5-3.1-0.8-4.7c-0.2-1.5-0.5-3-0.7-4.5c-0.2-1.5-0.5-2.9-0.7-4.4
		c-0.2-1.4-0.5-2.8-0.7-4.2c-0.2-1.4-0.5-2.8-0.7-4.2c-0.2-1.4-0.4-2.8-0.7-4.2c-0.2-1.4-0.5-2.9-0.7-4.4c-0.2-1.5-0.5-3-0.7-4.6
		c-0.2-1.6-0.5-3.2-0.8-4.8C575.2,317.3,574.9,315.6,574.6,313.8"/>
	<path clip-path="url(#SVGID_2_)" fill="#FF7800" d="M378.8,409.4c1.2-0.4,2.3-0.6,3.2-0.9c1-0.3,1.9-0.5,2.8-0.8
		c1-0.3,2-0.6,3.2-0.9c1.3-0.4,2.3-1,3-1.8c0.7-0.8,1.1-1.8,1.4-3c0.2-1.2,0.2-2.5,0-4.1c-0.2-1.8-0.4-3.2-0.5-4.5
		c-0.2-1.4-0.3-2.7-0.5-4.5c-0.2-1.9-0.6-3.2-1.1-4.1c-0.5-0.9-1.1-1.5-1.9-1.7c-0.8-0.2-1.8-0.2-3,0.1c-1.8,0.4-3.2,0.6-4.5,0.9
		c-1.4,0.3-2.7,0.5-4.5,0.9c0.2,2,0.4,3.7,0.6,5.4c0.2,1.6,0.3,3.2,0.5,4.7c0.2,1.5,0.3,2.9,0.5,4.4c0.2,1.5,0.3,3,0.5,4.7
		C378.4,405.7,378.6,407.5,378.8,409.4 M364.7,376.1c1.6-0.3,3-0.5,4.4-0.7c1.3-0.2,2.6-0.4,3.8-0.6c1.2-0.2,2.4-0.4,3.5-0.6
		c1.2-0.2,2.4-0.4,3.7-0.6c1.3-0.2,2.7-0.5,4.3-0.7c1.8-0.3,3.4-0.4,4.9-0.4c1.5,0,2.8,0.2,4,0.6c1.2,0.4,2.3,0.9,3.3,1.7
		c1,0.7,1.8,1.7,2.5,2.8c0.7,1.1,1.3,2.4,1.8,4c0.5,1.5,0.8,3.3,1.1,5.2c0.2,1.7,0.4,3,0.6,4.3c0.2,1.3,0.3,2.6,0.5,4.3
		c0.2,1.9,0.4,3.6,0.4,5.2c0,1.6-0.1,3.1-0.4,4.5c-0.3,1.4-0.7,2.6-1.3,3.8c-0.6,1.2-1.4,2.2-2.4,3.2c-1,1-2.1,1.8-3.5,2.6
		c-1.4,0.8-3,1.4-4.8,2c-1.7,0.5-3.2,1-4.7,1.5c-1.4,0.5-2.8,0.9-4.1,1.3c-1.3,0.4-2.6,0.8-4,1.3c-1.3,0.4-2.7,0.9-4.3,1.3
		c-1.5,0.5-3.2,1-5,1.6c-0.2-1.9-0.3-3.7-0.5-5.4c-0.1-1.7-0.3-3.4-0.4-5c-0.1-1.6-0.3-3.1-0.4-4.6c-0.1-1.5-0.3-3-0.4-4.4
		c-0.1-1.4-0.3-2.9-0.4-4.3c-0.1-1.4-0.2-2.8-0.4-4.3c-0.1-1.4-0.3-2.9-0.4-4.4c-0.1-1.5-0.3-3-0.4-4.6c-0.1-1.6-0.3-3.2-0.4-5
		C365,379.8,364.9,378,364.7,376.1"/>
	<path clip-path="url(#SVGID_2_)" fill="#FF7800" d="M416.5,384c1.7-0.4,3.1-0.7,4.5-1c1.4-0.3,2.6-0.6,3.9-0.8
		c1.3-0.3,2.5-0.5,3.9-0.8s2.9-0.6,4.6-1c0.2,1.3,0.4,2.3,0.5,3.3c0.1,1,0.3,2,0.5,3.3c-1.7,0.4-3.2,0.8-4.6,1.1
		c-1.4,0.3-2.6,0.7-3.9,1c-1.3,0.3-2.5,0.6-3.9,1c-1.4,0.3-2.8,0.7-4.5,1.1c0.2,1.5,0.4,2.6,0.5,3.8c0.2,1.1,0.3,2.3,0.5,3.8
		c1.4-0.4,2.7-0.8,4-1.1c1.2-0.3,2.4-0.7,3.5-1c1.1-0.3,2.2-0.6,3.3-0.9c1.1-0.3,2.3-0.6,3.5-1c1.2-0.4,2.6-0.7,4.1-1.2
		c0.2,1.6,0.4,2.7,0.6,3.9c0.2,1.2,0.4,2.4,0.6,4c-1.7,0.5-3.3,1-4.7,1.5c-1.5,0.5-2.8,0.9-4.1,1.3c-1.3,0.4-2.6,0.8-3.8,1.2
		c-1.2,0.4-2.4,0.8-3.7,1.2c-1.2,0.4-2.5,0.8-3.8,1.2c-1.3,0.4-2.6,0.8-4,1.3c-1.4,0.5-2.9,0.9-4.5,1.5c-0.2-1.8-0.5-3.5-0.7-5.2
		c-0.2-1.6-0.4-3.2-0.6-4.7c-0.2-1.5-0.4-2.9-0.6-4.3c-0.2-1.4-0.4-2.8-0.5-4.1c-0.2-1.4-0.4-2.7-0.5-4.1c-0.2-1.4-0.4-2.7-0.5-4.2
		s-0.4-2.9-0.6-4.4c-0.2-1.5-0.4-3.1-0.6-4.8c-0.2-1.7-0.5-3.4-0.7-5.3c1.6-0.3,3-0.5,4.4-0.7c1.4-0.2,2.7-0.4,4-0.6
		c1.3-0.2,2.5-0.4,3.7-0.6c1.2-0.2,2.4-0.4,3.6-0.6c1.2-0.2,2.4-0.4,3.7-0.6c1.3-0.2,2.6-0.4,4.1-0.6c1.4-0.2,3-0.5,4.6-0.7
		c0.3,1.7,0.5,3,0.7,4.2c0.2,1.2,0.4,2.5,0.6,4.1c-1.8,0.3-3.4,0.6-4.9,0.9c-1.5,0.3-2.8,0.5-4.2,0.8c-1.3,0.3-2.7,0.5-4.1,0.8
		c-1.4,0.3-3,0.6-4.8,0.9c0.2,1.5,0.4,2.5,0.5,3.6C416.2,381.5,416.4,382.6,416.5,384"/>
	<path clip-path="url(#SVGID_2_)" fill="#FF7800" d="M470.7,404.4c-1.4-0.4-2.6-0.8-3.7-1.1c-1.1-0.3-2.2-0.6-3.3-1
		c-1.1-0.3-2.3-0.7-3.8-1.1c-0.3-1.8-0.6-3.5-0.8-5c-0.3-1.5-0.5-3-0.7-4.3c-0.2-1.4-0.4-2.7-0.7-4c-0.2-1.3-0.4-2.6-0.7-4
		c-0.2-1.4-0.5-2.8-0.7-4.4c-0.3-1.6-0.5-3.2-0.9-5.1c-1.4-0.3-2.5-0.6-3.6-0.9c-1.1-0.3-2.1-0.5-3.1-0.8c-1.1-0.3-2.2-0.5-3.6-0.9
		c-0.3-1.6-0.5-2.9-0.7-4.2c-0.2-1.3-0.4-2.6-0.8-4.3c1.8,0.4,3.5,0.8,5.1,1.1c1.6,0.3,3.1,0.7,4.5,1c1.4,0.3,2.8,0.6,4.2,0.9
		c1.4,0.3,2.7,0.6,4.1,0.9c1.4,0.3,2.7,0.6,4.2,0.9c1.4,0.3,2.9,0.6,4.5,1c1.6,0.3,3.2,0.7,5,1.1c0.4,1.9,0.6,3.4,0.9,4.7
		c0.2,1.4,0.5,2.8,0.8,4.5c-1.4-0.3-2.6-0.6-3.7-0.9c-1.1-0.3-2.1-0.5-3.2-0.8c-1.1-0.3-2.3-0.6-3.7-0.9c0.3,1.9,0.6,3.6,0.9,5.2
		c0.3,1.6,0.5,3.1,0.7,4.5c0.2,1.4,0.5,2.8,0.7,4.1c0.2,1.3,0.4,2.7,0.7,4.1c0.2,1.4,0.5,2.9,0.7,4.4
		C470.1,400.9,470.4,402.5,470.7,404.4"/>
	<path clip-path="url(#SVGID_2_)" fill="#FF7800" d="M499.3,395c2.3,0.6,3.3,0.5,3.7-0.3c0.4-0.8,0.1-2.3-0.3-4.5
		c-0.3-1.8-0.7-3-1.5-3.8c-0.8-0.9-1.9-1.4-3.6-1.8c-1.6-0.4-2.8-0.7-4.1-1c-1.2-0.3-2.4-0.6-4.1-1c0.2,1.4,0.4,2.6,0.6,3.7
		c0.2,1.1,0.3,2.1,0.5,3.1c0.2,1.1,0.4,2.2,0.6,3.5c1.6,0.4,2.9,0.7,4.1,1.1C496.4,394.2,497.6,394.6,499.3,395 M477.2,370.7
		c1.6,0.4,3.1,0.7,4.4,1c1.4,0.3,2.6,0.6,3.8,0.8c1.2,0.3,2.4,0.5,3.6,0.8c1.2,0.3,2.5,0.5,3.8,0.8c1.3,0.3,2.8,0.6,4.4,1
		c1.8,0.4,3.4,0.9,4.9,1.5c1.5,0.6,2.8,1.2,4,2.1c1.2,0.8,2.2,1.8,3.1,3c0.9,1.2,1.7,2.5,2.3,4.1c0.6,1.6,1.1,3.4,1.5,5.4
		c0.4,2.3,0.7,4.1,0.8,5.7c0,1.5-0.3,2.7-1.3,3.4c-0.9,0.7-2.5,1.1-4.9,1c0,0.2,0,0.2,0.1,0.4c1.5,0.4,2.8,1.1,3.9,1.9
		c1.2,0.8,2.1,1.8,2.9,2.9c0.8,1.1,1.3,2.5,1.5,3.9c0.3,1.6,0.5,2.7,0.7,3.9c0.2,1.2,0.4,2.4,0.7,4c-1.4-0.4-2.6-0.8-3.7-1.1
		c-1.1-0.3-2.1-0.6-3.3-1c-1.1-0.3-2.3-0.7-3.7-1.1c-0.2-1.1-0.3-1.9-0.5-2.7c-0.1-0.8-0.3-1.6-0.5-2.7c-0.2-1.4-0.7-2.7-1.5-3.7
		c-0.8-1-2-1.8-3.6-2.2c-1.6-0.5-2.9-0.8-4.1-1.1c-1.2-0.3-2.5-0.7-4.1-1.1c0.2,1.3,0.4,2.4,0.6,3.4c0.2,1,0.3,2,0.5,3
		c0.2,1,0.4,2.2,0.6,3.5c-1.4-0.4-2.6-0.8-3.7-1.1c-1.1-0.3-2.1-0.6-3.2-1c-1.1-0.3-2.3-0.7-3.7-1.1c-0.3-1.9-0.6-3.6-0.9-5.2
		c-0.3-1.6-0.5-3.2-0.8-4.6c-0.2-1.5-0.5-2.9-0.7-4.2c-0.2-1.4-0.4-2.7-0.7-4.1c-0.2-1.4-0.4-2.7-0.7-4.1c-0.2-1.4-0.5-2.9-0.7-4.4
		s-0.5-3.2-0.9-5C477.9,374.7,477.6,372.8,477.2,370.7"/>
	<path clip-path="url(#SVGID_2_)" fill="#FF7800" d="M529.2,398.3c1.6-0.5,3-0.9,4.4-1.3c1.3-0.4,2.6-0.8,3.8-1.1
		c1.2-0.4,2.5-0.7,3.8-1.1c1.3-0.4,2.8-0.8,4.4-1.3c0.3,1.5,0.5,2.6,0.7,3.7c0.2,1.1,0.4,2.2,0.7,3.7c-1.7,0.5-3.1,0.9-4.5,1.3
		c-1.3,0.4-2.6,0.8-3.8,1.1c-1.2,0.4-2.5,0.7-3.8,1.1c-1.3,0.4-2.7,0.8-4.4,1.3c0.3,1.5,0.5,2.7,0.7,3.9s0.4,2.3,0.7,3.9
		c1.7-0.5,3.3-1,4.7-1.4c1.4-0.4,2.8-0.8,4.1-1.2c1.3-0.4,2.7-0.8,4.2-1.3c1.5-0.4,3.1-0.9,4.9-1.5c0.3,1.7,0.6,3,0.8,4.4
		c0.3,1.3,0.5,2.7,0.9,4.5c-1.7,0.5-3.2,1-4.6,1.4c-1.4,0.4-2.8,0.8-4.1,1.2c-1.3,0.4-2.5,0.8-3.7,1.1c-1.2,0.4-4.9,1.6-5.7,1.7
		c0,0-4.4-0.9-5.9-1.4c-1.5-0.4-3.1-0.9-4.8-1.4c-0.3-1.8-0.6-3.5-0.9-5.1c-0.3-1.6-0.6-3.1-0.8-4.5c-0.3-1.4-0.5-2.8-0.7-4.1
		c-0.2-1.3-0.5-2.6-0.7-3.9c-0.2-1.3-0.5-2.6-0.7-3.9c-0.2-1.3-0.5-2.7-0.7-4.1c-0.3-1.4-0.5-2.8-0.8-4.4c-0.3-1.5-0.6-3.2-0.9-4.9
		c-0.3-1.8-0.7-3.7-1.1-5.7l10.6,1.4c0,0,3.9-1.1,5.1-1.4s2.4-0.7,3.6-1.1c1.3-0.4,2.6-0.8,3.9-1.2c1.4-0.4,2.8-0.9,4.4-1.3
		c0.3,1.4,0.5,2.6,0.8,3.7c0.2,1.1,0.4,2,0.6,3.1c0.2,1,0.4,2.1,0.7,3.4c-1.8,0.5-3.3,1-4.7,1.4c-1.4,0.4-2.7,0.8-4,1.2
		c-1.3,0.4-2.6,0.8-4,1.2c-1.4,0.4-2.9,0.9-4.7,1.4c0.3,1.6,0.5,2.8,0.8,3.9C528.7,395.6,528.9,396.8,529.2,398.3"/>
	<path clip-path="url(#SVGID_2_)" fill="#FF7800" d="M567.8,412.1c-1.5,0.4-2.7,0.8-3.8,1.1s-2.2,0.6-3.3,1
		c-1.1,0.3-2.3,0.7-3.7,1.1c-0.4-1.9-0.7-3.6-1-5.2c-0.3-1.6-0.6-3.1-0.9-4.6c-0.3-1.4-0.6-2.8-0.8-4.2c-0.3-1.4-0.5-2.7-0.8-4
		c-0.3-1.3-0.5-2.6-0.8-4c-0.3-1.3-0.5-2.7-0.8-4.1c-0.3-1.4-0.6-2.9-0.9-4.5s-0.7-3.3-1.1-5.1c-0.4-1.8-0.8-3.8-1.3-6
		c1.6-0.5,3-0.9,4.3-1.3c1.3-0.4,2.5-0.8,3.7-1.1c1.2-0.4,2.4-0.7,3.7-1.1c1.3-0.4,2.7-0.8,4.3-1.3c1,1.9,1.9,3.6,2.7,5.2
		c0.8,1.5,1.6,2.9,2.3,4.2c0.7,1.3,1.4,2.5,2.1,3.7c0.7,1.2,1.4,2.4,2.1,3.6c0.7,1.2,1.4,2.4,2.2,3.7s1.6,2.6,2.5,4.1
		c0.1,0,0.2-0.1,0.4-0.1c0.1-1.8,0.2-3.4,0.3-4.9c0.1-1.5,0.1-3,0.2-4.4c0.1-1.4,0.1-2.8,0.1-4.2c0-1.4,0.1-2.8,0.1-4.4
		c0-1.5,0-3.1,0-4.9c0-1.8-0.1-3.8-0.2-6c1.7-0.5,3.1-1,4.5-1.4c1.3-0.4,2.6-0.8,3.8-1.2s2.5-0.8,3.8-1.2c1.3-0.4,2.8-0.9,4.5-1.4
		c0.7,2.3,1.2,4.3,1.8,6.1c0.5,1.9,1,3.5,1.5,5.1c0.5,1.6,0.9,3.1,1.3,4.5c0.4,1.4,0.8,2.8,1.2,4.1c0.4,1.3,0.7,2.6,1.1,3.9
		c0.4,1.3,0.7,2.6,1.1,3.9c0.4,1.3,0.8,2.7,1.2,4.1c0.4,1.4,0.8,2.9,1.3,4.5c0.4,1.6,0.9,3.3,1.5,5.1c-1.4,0.4-2.7,0.8-3.8,1.1
		c-1.1,0.3-2.2,0.6-3.3,1c-1.1,0.3-2.4,0.7-3.8,1.1c-0.4-1.8-0.8-3.5-1.2-5c-0.4-1.5-0.7-3-1-4.3c-0.3-1.4-0.6-2.7-0.9-3.9
		s-0.6-2.5-0.9-3.8c-0.3-1.3-0.6-2.6-0.9-4c-0.3-1.4-0.7-2.8-1-4.4c-0.4-1.6-0.8-3.3-1.2-5.2c-0.1,0-0.2,0.1-0.4,0.1
		c-0.1,2.1-0.1,3.9-0.2,5.6c-0.1,1.7-0.2,3.3-0.3,4.8c-0.1,1.5-0.2,2.9-0.3,4.3c-0.1,1.4-0.2,2.8-0.3,4.2c-0.1,1.4-0.2,2.8-0.4,4.3
		c-0.1,1.5-0.3,3-0.4,4.7c-0.1,1.7-0.3,3.5-0.4,5.5c-1.3,0.4-2.3,0.7-3.3,1c-1,0.3-1.9,0.6-2.9,0.8c-1,0.3-2,0.6-3.3,1
		c-1-1.7-2-3.1-2.8-4.5c-0.9-1.4-1.7-2.7-2.5-3.9c-0.8-1.2-1.5-2.4-2.2-3.5c-0.7-1.2-1.4-2.3-2.2-3.4c-0.7-1.2-1.4-2.3-2.2-3.6
		c-0.8-1.2-1.5-2.6-2.4-4c-0.8-1.4-1.7-3-2.7-4.7c-0.1,0-0.2,0.1-0.3,0.1c0.5,1.9,0.9,3.6,1.3,5.1c0.4,1.6,0.7,3,1.1,4.4
		c0.3,1.4,0.7,2.7,1,3.9c0.3,1.3,0.6,2.5,0.9,3.8c0.3,1.3,0.6,2.6,1,3.9c0.3,1.4,0.7,2.8,1.1,4.3
		C566.9,408.6,567.3,410.3,567.8,412.1"/>
	<path clip-path="url(#SVGID_2_)" fill="#FF7800" d="M631.9,393.1c-1.7,0.5-2.9,0.9-4.2,1.3c-1.3,0.4-2.5,0.8-4.3,1.3
		c-0.6-1.9-1-3.3-1.4-4.7c-0.4-1.4-0.8-2.7-1.4-4.5c1.7-0.5,3-0.9,4.2-1.3c1.3-0.4,2.5-0.8,4.2-1.3c0.5,1.8,1,3.1,1.4,4.5
		C630.9,389.8,631.3,391.2,631.9,393.1 M619,382c-0.2-0.6-0.3-0.9-0.5-1.5c-0.5-1.6-0.8-2.8-0.8-3.8c0-1.1,0.2-2,0.7-3
		c0.6-1,1.5-2,2.8-3.3c0.6-0.6,1-0.9,1.6-1.5c0.8-0.7,1.4-1.4,1.8-2.2c0.4-0.8,0.4-1.9-0.1-3.4c-0.5-1.5-1.1-2.3-1.9-2.6
		c-0.8-0.3-1.9-0.1-3.3,0.3c-1.3,0.4-2.4,0.8-3.1,1.5c-0.7,0.7-0.9,1.8-0.4,3.4c0.2,0.7,0.3,1.1,0.5,1.7c-1.8,0.5-3.1,0.9-4.5,1.3
		s-2.7,0.8-4.5,1.3c-0.2-0.7-0.3-1-0.5-1.7c-0.6-2-0.8-3.7-0.8-5.3c0-1.6,0.2-2.9,0.7-4.1s1.2-2.1,2.1-3c0.9-0.8,2.1-1.5,3.4-2.1
		c1.3-0.6,2.8-1.1,4.4-1.6c1.6-0.5,3-0.8,4.4-1c1.4-0.2,2.7-0.2,3.9,0c1.2,0.2,2.3,0.7,3.4,1.4c1,0.7,2,1.7,2.8,3.1
		c0.8,1.3,1.6,3,2.2,4.9c0.6,1.9,0.9,3.3,1,4.5c0.1,1.2-0.1,2.3-0.4,3.2c-0.3,0.9-0.9,1.8-1.7,2.6c-0.8,0.9-1.7,1.7-2.9,2.7
		c-1.9,1.5-2.3,2.4-1.8,3.9c0.2,0.6,0.3,0.9,0.5,1.5c-1.8,0.5-3.1,0.9-4.5,1.3C622.1,381.1,620.8,381.5,619,382"/>
</g>
</svg>
