<?xml version="1.0" encoding="utf-8"?>
<!-- Generator: Adobe Illustrator 18.0.0, SVG Export Plug-In . SVG Version: 6.00 Build 0)  -->
<!DOCTYPE svg PUBLIC "-//W3C//DTD SVG 1.1//EN" "http://www.w3.org/Graphics/SVG/1.1/DTD/svg11.dtd">
<svg version="1.1" id="Layer_1" xmlns="http://www.w3.org/2000/svg" xmlns:xlink="http://www.w3.org/1999/xlink" x="0px" y="0px"
	 viewBox="0 0 1000 720" enable-background="new 0 0 1000 720" xml:space="preserve">
<g id="links">
	<polygon fill="#E9B762" points="387.3,275.9 406.7,129.2 332,1 172.8,126.4 163.4,210.8 283.7,212.2 	"/>
	<polygon fill="#4867AF" points="669.7,248.5 669.7,137.7 435.8,109.8 415,271.9 525.7,246.3 	"/>
	<polygon fill="#992C4B" points="960.2,453 991.1,376.7 958.9,304.9 707.5,343.7 729.2,394.9 712.6,516.7 	"/>
	<polygon fill="#9AB194" points="140,606.3 388.7,716 416.4,494.6 295,493.7 79.2,489.3 	"/>
</g>
<g id="images" opacity="0.5">
	<rect x="683" y="93.6" width="320" height="240"/>
	<rect x="-18.1" y="234" width="320" height="240"/>
	<rect x="397.9" y="445" width="320" height="240"/>
	<rect x="697.3" y="451.6" width="320" height="240"/>
</g>
<g id="clip-images">
	<polygon points="700.4,105.2 700.4,319 985.5,278.5 968.3,105.2 	"/>
	<polygon points="6.5,241.8 0,463.1 283.7,463.1 272.3,241.8 	"/>
	<polygon points="553.6,483.1 511.1,473.5 472.7,494.1 445.3,494.1 425.3,683.2 690.5,672.9 677,443.9 	"/>
	<polygon points="714.7,547 714.7,556.9 722.3,659.3 954.8,648.2 1000,547.2 979.7,480.9 	"/>
</g>
</svg>
